<?xml version="1.0" standalone="no"?><!DOCTYPE svg PUBLIC "-//W3C//DTD SVG 1.1//EN" "http://www.w3.org/Graphics/SVG/1.1/DTD/svg11.dtd"><svg t="1487671710553" class="icon" style="" viewBox="0 0 1024 1024" version="1.1" xmlns="http://www.w3.org/2000/svg" p-id="8946" xmlns:xlink="http://www.w3.org/1999/xlink" width="60" height="60"><defs><style type="text/css"></style></defs><path d="M512 290.282667a220.544 220.544 0 0 1 156.757333 64.981333 220.138667 220.138667 0 0 1 47.552 70.464c11.541333 27.306667 17.429333 56.341333 17.429334 86.293333a220.544 220.544 0 0 1-64.981334 156.757334 220.138667 220.138667 0 0 1-70.464 47.552c-27.306667 11.541333-56.341333 17.429333-86.293333 17.429333a220.544 220.544 0 0 1-156.757333-64.981333 220.138667 220.138667 0 0 1-47.552-70.464 220.48 220.48 0 0 1-17.429334-86.293334 220.544 220.544 0 0 1 64.981334-156.757333A220.544 220.544 0 0 1 512 290.282667zM512 256c-141.376 0-256 114.624-256 256s114.624 256 256 256 256-114.624 256-256-114.624-256-256-256" fill="#499DF1" p-id="8947"></path><path d="M634.858667 494.848h-105.706667v-105.706667a17.130667 17.130667 0 1 0-34.304 0v105.706667h-105.706667a17.130667 17.130667 0 1 0 0 34.304h105.706667v105.706667a17.130667 17.130667 0 1 0 34.304 0v-105.706667h105.706667a17.130667 17.130667 0 1 0 0-34.304z" fill="#499DF1" p-id="8948"></path></svg>