<?xml version="1.0" standalone="no"?><!DOCTYPE svg PUBLIC "-//W3C//DTD SVG 1.1//EN" "http://www.w3.org/Graphics/SVG/1.1/DTD/svg11.dtd"><svg t="1488347068431" class="icon" style="" viewBox="0 0 1024 1024" version="1.1" xmlns="http://www.w3.org/2000/svg" p-id="8109" xmlns:xlink="http://www.w3.org/1999/xlink" width="64" height="64"><defs><style type="text/css"></style></defs><path d="M512 512m-512 0a512 512 0 1 0 1024 0 512 512 0 1 0-1024 0Z" fill="#FF6868" p-id="8110"></path><path d="M703.5392 324.48h-30.8224v-34.7904c0.0256-17.4336-13.3632-32.1536-30.7968-32.1536H328.4736c-17.408 0-30.7968 14.72-30.7968 32.1536V667.392c0 17.4336 13.3888 32.1536 30.7968 32.1536h36.1728v32.1536c0 17.3568 13.4144 34.7904 30.8224 34.7904h300.032c17.408 0 30.7968-14.72 30.7968-32.1536V356.6336c0-17.4336-13.3888-32.1536-30.7968-32.1536h8.0384m-238.4384 0h123.2384c8.0128 0 14.72 2.6624 14.72 10.7264 0 9.344-6.7072 16.0768-14.72 16.0768h-123.2384c-8.0384 0-14.72-6.7072-14.72-16.0768-1.3312-8.064 6.6816-10.7264 14.72-10.7264m-92.3904 93.7728h215.6544c8.0128 0 14.72 2.6624 14.72 10.7264 0 9.344-6.7072 16.0768-14.72 16.0768h-215.6544a16.2816 16.2816 0 0 1-16.0512-16.0768c1.3056-8.064 7.9872-10.7264 16.0512-10.7264m0 93.7472h215.6544c8.0128 0 14.72 2.6624 14.72 10.7264 0 9.3696-6.7072 16.0512-14.72 16.0512h-215.6544a16.256 16.256 0 0 1-16.0512-16.0512c1.3056-8.064 7.9872-10.7264 16.0512-10.7264m0 120.5248c-8.0384 0-16.0512-2.6624-16.0512-10.7008 1.3312-9.3952 8.0128-16.1024 16.0512-16.1024h215.6544c8.0128 0 14.72 0 14.72 9.3696 0 9.3952-6.7072 17.408-14.72 17.408h-215.6544v0.0256m328.1408 107.1872H391.4496v-40.2176h253.1584c17.4336 0 28.16-14.72 28.16-32.1536V351.2832h26.7776v387.072l1.3056 1.3568m0 0z" fill="#FFFFFF" p-id="8111"></path></svg>