<?xml version="1.0" standalone="no"?><!DOCTYPE svg PUBLIC "-//W3C//DTD SVG 1.1//EN" "http://www.w3.org/Graphics/SVG/1.1/DTD/svg11.dtd"><svg t="1499667920567" class="icon" style="" viewBox="0 0 1024 1024" version="1.1" xmlns="http://www.w3.org/2000/svg" p-id="5172" xmlns:xlink="http://www.w3.org/1999/xlink" width="200" height="200"><defs><style type="text/css"></style></defs><path d="M512 896a384 384 0 1 1 0-768 384 384 0 0 1 0 768z m0-729.6a345.6 345.6 0 1 0 0 691.2 345.6 345.6 0 0 0 0-691.2z m141.952 475.2l-12.352 12.352a16.896 16.896 0 0 1-23.872 0L512 548.224l-105.728 105.728a16.896 16.896 0 0 1-23.872 0l-12.352-12.352a16.896 16.896 0 0 1 0-23.872L475.776 512l-105.728-105.728a16.896 16.896 0 0 1 0-23.872l12.352-12.352a16.896 16.896 0 0 1 23.872 0L512 475.776l105.728-105.728a16.896 16.896 0 0 1 23.872 0l12.352 12.352a16.896 16.896 0 0 1 0 23.872L548.224 512l105.728 105.728a16.896 16.896 0 0 1 0 23.872z" fill="" p-id="5173"></path></svg>