<?xml version="1.0" standalone="no"?><!DOCTYPE svg PUBLIC "-//W3C//DTD SVG 1.1//EN" "http://www.w3.org/Graphics/SVG/1.1/DTD/svg11.dtd"><svg t="1510907319903" class="icon" style="" viewBox="0 0 1024 1024" version="1.1" xmlns="http://www.w3.org/2000/svg" p-id="9389" xmlns:xlink="http://www.w3.org/1999/xlink" width="200" height="200"><defs><style type="text/css"></style></defs><path d="M112.390244 16.109268h799.219512c54.946341 0 99.902439 44.956098 99.902439 99.902439v799.219513c0 54.946341-44.956098 99.902439-99.902439 99.902439H112.390244c-54.946341 0-99.902439-44.956098-99.902439-99.902439v-799.219513c0-54.946341 44.956098-99.902439 99.902439-99.902439" fill="#FF6C60" p-id="9390"></path><path d="M734.282927 518.119024z m-419.590244 0z m427.082927 4.995122v4.995122c-2.497561-2.497561 0-2.497561 0-4.995122z m-7.492683-4.995122c4.995122 0 9.990244-2.497561 12.487805-2.497561-2.497561 0-4.995122 2.497561-4.995122 7.492683 2.497561-12.487805 14.985366-17.482927 27.47317-14.985366 12.487805 2.497561 17.482927 14.985366 14.985366 27.473171-4.995122 17.482927-19.980488 22.478049-42.458536 24.97561h-2.497561-24.97561v-22.478049h22.478049c-2.497561 7.492683-2.497561 7.492683-2.497561 12.487805l-2.497561 2.497561s-2.497561 2.497561-4.995122 2.497561c-4.995122 2.497561-7.492683 2.497561-9.990244 2.497561 2.497561 0 7.492683-2.497561 9.990244-4.995122 0-2.497561 2.497561-2.497561 2.497561-4.995122v17.482927h-19.980488l-19.980488-9.990244v2.497561c0 2.497561 0 2.497561-2.497561 7.492683 0-12.487805 9.990244-22.478049 22.478049-22.478049 4.995122 0 7.492683 0 9.990244 2.497561 4.995122 2.497561 7.492683 4.995122 9.990244 9.990244v12.487805c0 2.497561-2.497561 7.492683-2.497561 9.990244l-2.497561 2.497561-24.97561-14.985366h22.478049v167.336585c0 32.468293-27.473171 54.946341-62.439024 54.946342h-59.941464c-12.487805 0-22.478049-9.990244-22.478049-22.478049v-157.346341c0-14.985366-4.995122-24.97561-12.487805-24.97561h-79.921951c-7.492683 0-12.487805 7.492683-12.487805 24.97561v157.346341c0 12.487805-9.990244 22.478049-22.478048 22.478049h-59.941464c-34.965854 0-62.439024-22.478049-62.439024-54.946342v-167.336585-2.497561-2.497561-2.497561-2.497561c2.497561-4.995122 4.995122-7.492683 9.990244-9.990244 2.497561-2.497561 7.492683-2.497561 9.990244-2.497561 12.487805 0 22.478049 9.990244 22.478048 22.478049v-7.492683-2.497561l-19.980487 9.990244h-22.478049v-12.487805c0 2.497561 0 2.497561 2.497561 4.995122s4.995122 4.995122 9.990244 4.995122c-2.497561 0-7.492683 0-9.990244-2.497561-2.497561-2.497561-2.497561-2.497561-4.995122-2.497561l-2.497561-2.497561c-2.497561-2.497561-2.497561-2.497561-2.497561-12.487805h22.478049v22.478049h-24.97561-2.497561c-24.97561-2.497561-39.960976-7.492683-44.956098-24.97561-4.995122-14.985366 2.497561-29.970732 14.985366-44.956097l184.819512-197.307317c14.985366-14.985366 34.965854-24.97561 57.443903-24.97561h4.995122l-7.492683 17.482927v-22.478049 22.478049l-4.995122-19.980488h4.995122c22.478049 0 42.458537 9.990244 57.443902 24.97561l184.819513 197.307317c12.487805 14.985366 19.980488 29.970732 14.985365 44.956097-2.497561 12.487805-14.985366 17.482927-27.47317 14.985366-9.990244-2.497561-14.985366-12.487805-14.985366-22.478049 0-4.995122-2.497561-7.492683-4.995122-12.487805l-182.321951-194.809756c-7.492683-7.492683-14.985366-12.487805-24.97561-12.487805s-19.980488 4.995122-27.473171 12.487805l-182.321951 194.809756h27.473171c14.985366 0 29.970732 12.487805 29.970731 32.468293v17.482927c-2.497561 19.980488-29.970732 27.473171-39.960975 7.492683v-2.497561c0-2.497561 0-2.497561-2.497561-7.492683h19.980488v22.478049-22.478049h22.478048v167.336585c0 7.492683 7.492683 12.487805 19.980488 12.487805h39.960976v-137.365853c0-37.463415 19.980488-67.434146 54.946341-67.434147h79.921951c34.965854 0 54.946341 29.970732 54.946342 67.434147v137.365853h39.960976c12.487805 0 19.980488-4.995122 19.980487-12.487805v-167.336585c0-2.497561 0-4.995122 2.497561-7.492683 2.497561-2.497561 2.497561-4.995122 4.995122-7.492683l14.985366 14.985366v22.478049-22.478049h22.478049v9.990244s0 2.497561-2.497561 2.497561c-9.990244 17.482927-37.463415 9.990244-39.960976-9.990244v-14.985366c0-22.478049 14.985366-32.468293 29.970732-32.468293h17.482927z" fill="#FFFFFF" p-id="9391"></path></svg>