<?xml version="1.0" encoding="UTF-8"?>
<svg width="17px" height="18px" viewBox="0 0 17 18" version="1.1" xmlns="http://www.w3.org/2000/svg" xmlns:xlink="http://www.w3.org/1999/xlink">
    <!-- Generator: Sketch 43.1 (39012) - http://www.bohemiancoding.com/sketch -->
    <title>icon_编辑</title>
    <desc>Created with Sketch.</desc>
    <defs></defs>
    <g id="Page-1" stroke="none" stroke-width="1" fill="none" fill-rule="evenodd">
        <g id="OA办公1" transform="translate(-525.000000, -251.000000)">
            <g id="活动管理列表">
                <g id="人力纬度" transform="translate(354.000000, 240.000000)">
                    <g id="icon_编辑" transform="translate(171.000000, 12.000000)">
                        <g id="Group-2">
                            <path d="M16.2603,3.2107 C16.5793,2.8917 16.5793,2.3987 16.2603,2.0797 L14.4183,0.2367 C14.1063,-0.0753 13.5993,-0.0753 13.2863,0.2367 L12.1573,1.3657 C11.9803,1.5437 11.9803,1.8317 12.1573,2.0097 L14.5553,4.4067 C14.7403,4.5917 15.0433,4.5827 15.2183,4.3867 L16.2603,3.2107 Z M2.0003,11.6237 L2.0003,14.0417 C2.0003,14.2937 2.2043,14.4977 2.4553,14.4977 L4.8713,14.4977 C4.9923,14.4977 5.1093,14.4487 5.1953,14.3617 L13.6063,5.8687 C13.7823,5.6907 13.7813,5.4027 13.6043,5.2257 L11.1883,2.8097 C11.0093,2.6307 10.7193,2.6317 10.5413,2.8107 L2.1323,11.3037 C2.0473,11.3887 2.0003,11.5037 2.0003,11.6237 Z" id="Stroke-3" stroke="#FFFFFF"></path>
                            <path d="M15.8842154,16.9978 L1.11498462,16.9978 C0.777753846,16.9978 0.4996,16.7718 0.4996,16.4978 C0.4996,16.2228 0.777753846,15.9978 1.11498462,15.9978 L15.8842154,15.9978 C16.2226769,15.9978 16.4996,16.2228 16.4996,16.4978 C16.4996,16.7718 16.2226769,16.9978 15.8842154,16.9978" id="Fill-5" fill="#FFFFFF"></path>
                        </g>
                    </g>
                </g>
            </g>
        </g>
    </g>
</svg>