<?xml version="1.0" encoding="utf-8"?>
<!-- Generator: Adobe Illustrator 21.0.0, SVG Export Plug-In . SVG Version: 6.00 Build 0)  -->
<svg version="1.1" id="图层_1" xmlns="http://www.w3.org/2000/svg" xmlns:xlink="http://www.w3.org/1999/xlink" x="0px" y="0px"
	 viewBox="0 0 41 41" style="enable-background:new 0 0 41 41;" xml:space="preserve">
<style type="text/css">
	.st0{fill:#FFFFFF;}
	.st1{fill:#FF5B52;}
	.st2{fill-rule:evenodd;clip-rule:evenodd;fill:#FFFFFF;}
</style>
<g>
	<path class="st0" d="M-25,25.4L-25,25.4"/>
	<polygon class="st0" points="-25,25.4 -25,25.4 -25,25.4 	"/>
	<path class="st0" d="M-15,23.5c0-2.4-1-3.3-3.4-3.3c-0.6,0-0.8,0.2-1.1,0.7c-1.4,2.9-2.8,5.7-4.2,8.5c-0.1,0.3-0.3,0.6-0.5,0.9
		c0.4-2.9,0.9-5.7,1.5-8.5c0.1-0.6,0-1-0.4-1.3c-0.6-0.5-1.3-1.1-2-1.8c-0.7,0.7-1.3,1.3-1.9,1.8c-0.4,0.4-0.5,0.7-0.4,1.3
		c0.6,2.8,1.2,5.7,1.7,8.5c-0.3-0.2-0.4-0.4-0.5-0.7c-1.4-2.9-2.9-5.8-4.3-8.7c-0.1-0.3-0.4-0.6-0.6-0.6c-2.1-0.2-3.8,0.2-3.9,2.8
		c-0.1,2.5-0.1,5-0.1,7.5c0,0.5,0,1,0,1.5c6.7,0,13.3,0,20,0C-15,29.2-15,26.3-15,23.5z"/>
	<circle class="st0" cx="-25" cy="13.8" r="4.9"/>
</g>
<circle class="st1" cx="20.5" cy="20.5" r="20"/>
<g>
	<path class="st2" d="M-63,23.2L-63,23.2c0,0.6,0.5,1.1,1.1,1.1c0.6,0,1.1-0.5,1.1-1.1v-0.8h0v-1.1h0v-0.9c0-0.6-0.5-1.1-1.1-1.1
		c-0.6,0-1.1,0.5-1.1,1.1v0.9h0v1.1V23.2z"/>
	<path class="st2" d="M-54.9,22.4h-4.8v0.8c0,0.8-0.4,1.5-1.1,1.9c-0.7,0.4-1.5,0.4-2.2,0c-0.7-0.4-1.1-1.1-1.1-1.9v-0.8h-4.8
		c-1.1,0.1-2.1-0.3-2.9-1.1v5.3c0.1,1.3,1.2,2.4,2.5,2.5h14.9c1.3,0,2.4-1.1,2.5-2.5l0.1-5.3C-52.7,22.1-53.8,22.5-54.9,22.4z"/>
	<path class="st2" d="M-68.9,21.3h4.8v-0.9c0-0.6,0.2-1.2,0.6-1.6c0.4-0.4,1-0.7,1.6-0.7c1.2,0,2.2,1,2.2,2.2v0.9h4.8
		c1.5,0,2.9-1,2.9-2.5v-1.2c-0.1-1.3-1.2-2.3-2.5-2.3h-14.9c-1.3,0-2.4,1-2.5,2.3v1.2C-71.8,20.3-70.4,21.3-68.9,21.3z"/>
	<path class="st2" d="M-65.2,14.7c0.3,0,0.6-0.2,0.6-0.6c0,0,0,0,0,0h0v-0.6c0-0.3,0.5-0.5,0.8-0.5h3.9c0.3,0,0.8,0.2,0.8,0.5v0.6
		c0,0,0,0,0,0c0,0.3,0.2,0.6,0.6,0.6s0.6-0.2,0.6-0.6c0,0,0,0,0,0h0v-0.6c0-0.9-1-1.6-1.9-1.6h-3.9c-0.9,0-1.9,0.7-1.9,1.6v0.6h0
		c0,0,0,0,0,0C-65.8,14.4-65.5,14.7-65.2,14.7z"/>
</g>
<g>
	<path class="st2" d="M13.9,26.5c0.6-1.5,1.6-2.8,2.9-3.8c0.6-0.4,1.3-0.8,2-1c-1.5-0.8-2.6-2.2-2.9-3.8c-0.2-1.2-0.1-2.4,0.4-3.5
		c0.4-1,1.2-1.9,2.2-2.4c0.1-0.1,0.2-0.1,0.4-0.2c-0.5-0.2-1-0.3-1.5-0.4c-0.9-0.1-1.9,0.2-2.7,0.6c-0.8,0.5-1.4,1.2-1.8,2
		c-0.4,0.9-0.5,1.9-0.3,2.8c0.3,1.3,1.2,2.5,2.4,3.1c-0.6,0.2-1.1,0.5-1.6,0.8c-1.1,0.8-1.9,1.8-2.4,3.1c-0.3,0.7-0.4,1.5-0.4,2.2
		c0,0.3,0.2,0.5,0.5,0.5L13.9,26.5C13.8,26.6,13.8,26.5,13.9,26.5L13.9,26.5z M23.4,14.1C23.4,14.1,23.4,14.1,23.4,14.1
		C23.4,14.1,23.4,14.1,23.4,14.1C23.4,14.1,23.4,14.1,23.4,14.1L23.4,14.1z M23.4,14.1C23.4,14.1,23.4,14.1,23.4,14.1
		C23.4,14.1,23.4,14.1,23.4,14.1C23.4,14.1,23.4,14.1,23.4,14.1L23.4,14.1z"/>
	<path class="st2" d="M29.1,24.8c-0.9-1.3-2.2-2.3-3.8-2.9c-0.1-0.1-0.3-0.1-0.4-0.1c0.3-0.1,0.6-0.3,0.9-0.5c0.9-0.7,1.6-1.6,2-2.7
		c0.4-1.1,0.4-2.3,0.1-3.4c-0.3-1.1-0.9-2-1.8-2.7c-0.9-0.7-2-1.2-3.2-1.3c-1.1-0.1-2.3,0.2-3.3,0.8c-0.9,0.6-1.7,1.4-2.2,2.4
		c-0.5,1.1-0.6,2.3-0.4,3.5c0.2,1.1,0.8,2.1,1.6,2.9c0.5,0.4,1,0.8,1.6,1.1c-0.8,0.2-1.6,0.6-2.3,1.1c-1.3,0.9-2.3,2.2-2.9,3.8
		c-0.3,0.9-0.5,1.8-0.5,2.7c0,0.3,0.2,0.5,0.5,0.5h13c0.6,0,1.2,0,1.8,0h0c0.3,0,0.5-0.2,0.5-0.5C30.5,27.7,30,26.1,29.1,24.8
		L29.1,24.8z M26.1,16c0.1,0,0.1,0,0.2,0.1c0.1,0,0.1,0.1,0.1,0.1c0,0.1,0.1,0.1,0.1,0.2c0,0,0,0,0,0.1c0,0.1,0,0.2,0,0.3
		c0,0,0,0.1-0.1,0.1c0,0.1-0.1,0.1-0.2,0.2c0,0-0.1,0-0.1,0.1c-0.1,0-0.1,0-0.2,0c-0.1,0-0.1,0-0.2-0.1c-0.1,0-0.1-0.1-0.1-0.1
		c0-0.1-0.1-0.1-0.1-0.2c0,0,0,0,0-0.1c0-0.1,0-0.2,0-0.3c0,0,0-0.1,0.1-0.1c0-0.1,0.1-0.1,0.2-0.2c0,0,0.1,0,0.1-0.1
		C25.9,16,26,16,26.1,16L26.1,16z M24.6,14.9c-0.1-0.1-0.2-0.2-0.4-0.4c0,0-0.1,0-0.1-0.1c0,0,0,0,0,0c-0.1,0-0.1-0.1-0.2-0.1
		c-0.1-0.1-0.2-0.1-0.3-0.2c0,0-0.1,0-0.1-0.1c0,0,0,0,0,0c0,0,0.1,0,0,0c-0.1,0-0.1-0.1-0.2-0.1c-0.1,0-0.1,0-0.2-0.1
		c-0.3,0-0.4-0.4-0.4-0.6c0-0.1,0.1-0.2,0.2-0.3c0.1-0.1,0.3-0.1,0.4-0.1c0.1,0,0.1,0,0.2,0c1,0.3,1.8,1,2.4,1.8
		c0.2,0.2,0,0.6-0.2,0.7c-0.2,0.2-0.6,0-0.7-0.2c0,0-0.1-0.1-0.1-0.1c0,0,0,0,0-0.1C24.7,15.1,24.6,15,24.6,14.9L24.6,14.9z"/>
</g>
</svg>
