<?xml version="1.0" encoding="UTF-8"?>
<svg width="23px" height="20px" viewBox="0 0 23 20" version="1.1" xmlns="http://www.w3.org/2000/svg" xmlns:xlink="http://www.w3.org/1999/xlink">
    <!-- Generator: Sketch 45.2 (43514) - http://www.bohemiancoding.com/sketch -->
    <title>引导-右</title>
    <desc>Created with Sketch.</desc>
    <defs></defs>
    <g id="Page-1" stroke="none" stroke-width="1" fill="none" fill-rule="evenodd">
        <g id="OA主页_鸡汤版本1" transform="translate(-1847.000000, -146.000000)" fill="#4A4A4A">
            <g id="Group-4" transform="translate(328.000000, 80.000000)">
                <path d="M1536.35725,76.7375375 L1541.3483,76.7375375 L1541.3483,86 L1531.79929,86 L1531.79929,77.7900046 C1531.50924,72.5962971 1534.18619,68.6662874 1539.82776,66 L1542,69.1575234 C1538.3825,70.9824768 1536.50166,73.5087738 1536.35725,76.7362924 L1536.35725,76.7375375 Z M1523.57923,76.7375375 L1528.57027,76.7375375 L1528.57027,86 L1519.02127,86 L1519.02127,77.7900046 C1518.73122,72.5962971 1521.40816,68.6662874 1527.04974,66 L1529.22197,69.1575234 C1525.60447,70.9824768 1523.72363,73.5087738 1523.57923,76.7375375 L1523.57923,76.7375375 Z" id="引导-右" transform="translate(1530.500000, 76.000000) rotate(-180.000000) translate(-1530.500000, -76.000000) "></path>
            </g>
        </g>
    </g>
</svg>