<?xml version="1.0" standalone="no"?><!DOCTYPE svg PUBLIC "-//W3C//DTD SVG 1.1//EN" "http://www.w3.org/Graphics/SVG/1.1/DTD/svg11.dtd"><svg t="1502954325595" class="icon" style="" viewBox="0 0 1024 1024" version="1.1" xmlns="http://www.w3.org/2000/svg" p-id="4883" xmlns:xlink="http://www.w3.org/1999/xlink" width="200" height="200"><defs><style type="text/css"></style></defs><path d="M681.073778 22.755556H122.424889A65.308444 65.308444 0 0 0 56.888889 87.608889v780.288a63.260444 63.260444 0 0 0 63.260444 62.805333h452.380445a224.369778 224.369778 0 0 1-45.511111-136.533333 227.555556 227.555556 0 0 1 217.998222-227.555556V85.560889A63.260444 63.260444 0 0 0 681.073778 22.755556zM141.994667 435.768889H117.191111v-24.576h24.803556z m0-100.807111H117.191111v-24.576h24.803556z m0-100.807111H117.191111V209.578667h24.803556z m414.151111 201.614222H166.570667v-24.348445h389.347555z m108.999111-100.807111H166.798222v-24.348445h498.119111z m0-100.807111H166.798222V209.806222h498.119111z" fill="#FFFFFF" p-id="4884"></path><path d="M758.442667 588.003556A206.620444 206.620444 0 1 0 967.111111 794.624a207.530667 207.530667 0 0 0-208.668444-206.620444z m105.130666 151.779555L736.824889 864.711111a12.970667 12.970667 0 0 1-1.137778 1.820445 13.425778 13.425778 0 0 1-18.204444 0A12.288 12.288 0 0 1 716.8 864.711111l-62.805333-62.122667a12.288 12.288 0 0 1 0-17.521777 12.515556 12.515556 0 0 1 17.749333 0l55.523556 55.068444 119.466666-118.328889a12.515556 12.515556 0 0 1 17.749334 0 12.288 12.288 0 0 1-0.682667 17.976889z" fill="#FFFFFF" p-id="4885"></path></svg>