<?xml version="1.0" encoding="UTF-8"?>
<svg width="14px" height="13px" viewBox="0 0 14 13" version="1.1" xmlns="http://www.w3.org/2000/svg" xmlns:xlink="http://www.w3.org/1999/xlink">
    <!-- Generator: Sketch 45.2 (43514) - http://www.bohemiancoding.com/sketch -->
    <title>nor_company</title>
    <desc>Created with Sketch.</desc>
    <defs></defs>
    <g id="Page-1" stroke="none" stroke-width="1" fill="none" fill-rule="evenodd">
        <g id="Group-6" transform="translate(-43.000000, -54.000000)" fill="#666666">
            <path d="M53.6401971,65.932 L56.4401971,65.932 L56.4401971,63.091 L53.6401971,63.091 L53.6401971,65.932 Z M48.6,65.932 L51.4,65.932 L51.4,63.091 L48.6,63.091 L48.6,65.932 Z M48.5990144,57.409 L51.3990144,57.409 L51.3990144,54.568 L48.5990144,54.568 L48.5990144,57.409 Z M43.5598029,65.932 L46.3598029,65.932 L46.3598029,63.091 L43.5598029,63.091 L43.5598029,65.932 Z M56.4401971,66.5 L53.6401971,66.5 C53.329743,66.5 53.0794087,66.245 53.0794087,65.932 L53.0794087,63.091 C53.0794087,62.777 53.329743,62.523 53.6401971,62.523 L54.7598029,62.523 L54.7598029,60.25 L50.2803942,60.25 L50.2803942,62.523 L51.3990144,62.523 C51.7094685,62.523 51.9598029,62.777 51.9598029,63.091 L51.9598029,65.932 C51.9598029,66.245 51.7094685,66.5 51.3990144,66.5 L48.6,66.5 C48.2905315,66.5 48.0392115,66.245 48.0392115,65.932 L48.0392115,63.091 C48.0392115,62.777 48.2905315,62.523 48.6,62.523 L49.7196058,62.523 L49.7196058,60.25 L45.2392115,60.25 L45.2392115,62.523 L46.3598029,62.523 C46.6692714,62.523 46.9196058,62.777 46.9196058,63.091 L46.9196058,65.932 C46.9196058,66.245 46.6692714,66.5 46.3598029,66.5 L43.5598029,66.5 C43.25132,66.5 43,66.245 43,65.932 L43,63.091 C43,62.777 43.25132,62.523 43.5598029,62.523 L44.6794087,62.523 L44.6794087,60.25 C44.6794087,59.936 44.9307286,59.682 45.2392115,59.682 L49.7196058,59.682 L49.7196058,57.977 L48.6,57.977 C48.2905315,57.977 48.0392115,57.723 48.0392115,57.409 L48.0392115,54.568 C48.0392115,54.254 48.2905315,54 48.6,54 L51.3990144,54 C51.7094685,54 51.9598029,54.254 51.9598029,54.568 L51.9598029,57.409 C51.9598029,57.723 51.7094685,57.977 51.3990144,57.977 L50.2803942,57.977 L50.2803942,59.682 L54.7598029,59.682 C55.0692714,59.682 55.3196058,59.936 55.3196058,60.25 L55.3196058,62.523 L56.4401971,62.523 C56.74868,62.523 57,62.777 57,63.091 L57,65.932 C57,66.245 56.74868,66.5 56.4401971,66.5 L56.4401971,66.5 Z" id="nor_company"></path>
        </g>
    </g>
</svg>