<svg id="图层_1" data-name="图层 1" xmlns="http://www.w3.org/2000/svg" viewBox="0 0 41 41"><defs><style>.cls-1{fill:#ff5b52;}.cls-2{fill:#fff;}</style></defs><title>员工</title><circle class="cls-1" cx="20.5" cy="20.5" r="20"/><polygon class="cls-2" points="20.5 25.37 20.5 25.38 20.5 25.37 20.5 25.37"/><path class="cls-2" d="M30.47,23.52c0-2.43-1-3.28-3.41-3.32a1,1,0,0,0-1.09.67c-1.37,2.86-2.79,5.69-4.19,8.54-.15.29-.3.58-.45.88.41-2.88.95-5.71,1.55-8.52a1.19,1.19,0,0,0-.41-1.33c-.65-.54-1.27-1.11-2-1.75-.72.69-1.29,1.25-1.89,1.79a1.14,1.14,0,0,0-.4,1.25c.61,2.83,1.16,5.68,1.73,8.53a1.75,1.75,0,0,1-.52-.68c-1.43-2.89-2.85-5.79-4.29-8.67-.13-.25-.35-.63-.56-.65-2.14-.15-3.79.24-3.92,2.81s-.08,5-.11,7.47c0,.5,0,1,0,1.53h20C30.49,29.17,30.53,26.35,30.47,23.52Z"/><circle class="cls-2" cx="20.5" cy="13.82" r="4.88"/></svg>