<?xml version="1.0" standalone="no"?><!DOCTYPE svg PUBLIC "-//W3C//DTD SVG 1.1//EN" "http://www.w3.org/Graphics/SVG/1.1/DTD/svg11.dtd"><svg t="1511424115858" class="icon" style="" viewBox="0 0 1024 1024" version="1.1" xmlns="http://www.w3.org/2000/svg" p-id="8170" xmlns:xlink="http://www.w3.org/1999/xlink" width="200" height="200"><defs><style type="text/css"></style></defs><path d="M227.605272 800.65534A417.112268 417.112268 0 1 0 140.770082 682.726326a37.919297 37.919297 0 0 1-67.496349 34.506561 492.950862 492.950862 0 1 1 104.278067 137.647048A37.919297 37.919297 0 1 1 227.605272 800.65534z" fill="#4E5F80" p-id="8171"></path><path d="M692.116661 446.868299v211.589677a9.479824 9.479824 0 0 1-9.479824 9.479825H341.363163a9.479824 9.479824 0 0 1-9.479824-9.479825v-211.589677z m-417.112268-56.499753v268.468623A66.35877 66.35877 0 0 0 341.363163 724.816746h341.273674a66.35877 66.35877 0 0 0 66.35877-66.35877v-268.468623a28.439473 28.439473 0 0 0-13.271754-24.647543l-208.556134-132.71754a28.439473 28.439473 0 0 0-30.714631 0L288.276147 365.34181a28.439473 28.439473 0 0 0-13.271754 25.026736z m393.223111 0H355.772496l156.227504-99.727751z" fill="#66CCFF" p-id="8172"></path><path d="M459.67137 534.461875a28.439473 28.439473 0 1 0-40.194455 40.194455l54.224595 54.224595a28.439473 28.439473 0 0 0 40.194455 0l90.62712-90.62712a28.439473 28.439473 0 1 0-40.194455-40.194455L493.040351 568.968435z" fill="#66CCFF" p-id="8173"></path></svg>