<?xml version="1.0" standalone="no"?><!DOCTYPE svg PUBLIC "-//W3C//DTD SVG 1.1//EN" "http://www.w3.org/Graphics/SVG/1.1/DTD/svg11.dtd"><svg t="1511255451108" class="icon" style="" viewBox="0 0 1024 1024" version="1.1" xmlns="http://www.w3.org/2000/svg" p-id="3784" xmlns:xlink="http://www.w3.org/1999/xlink" width="200" height="200"><defs><style type="text/css"></style></defs><path d="M473.796923 916.873846a39.384615 39.384615 0 1 1-34.658461-70.892308h2.363076c25.993846-12.603077 36.627692-17.329231 50.018462-23.236923a39.384615 39.384615 0 0 1 31.113846 0c13.390769 5.907692 24.812308 11.027692 51.2 23.63077a39.384615 39.384615 0 1 1-34.264615 70.892307l-34.264616-16.147692z m-2.756923 0l-26.781538 12.603077-4.332308 1.969231C330.830769 986.584615 295.384615 1001.944615 253.243077 1001.944615a172.898462 172.898462 0 0 1-122.88-52.775384 183.532308 183.532308 0 0 1-50.412308-125.243077v-50.412308a39.384615 39.384615 0 0 1 78.769231 0v50.412308a104.369231 104.369231 0 0 0 28.750769 70.892308 93.341538 93.341538 0 0 0 66.166154 28.356923c22.055385 0 58.683077-14.966154 151.630769-61.046154l5.12-2.363077 26.781539-12.603077a39.384615 39.384615 0 0 1 34.264615 70.892308zM79.950769 621.095385V211.101538a179.987692 179.987692 0 0 1 50.806154-124.84923A172.504615 172.504615 0 0 1 253.243077 33.870769h506.092308a172.504615 172.504615 0 0 1 122.88 52.381539 179.987692 179.987692 0 0 1 50.806153 124.455384v613.218462a183.532308 183.532308 0 0 1-50.018461 124.849231 172.898462 172.898462 0 0 1-123.273846 53.16923c-39.384615 0-78.769231-15.36-186.683077-68.923077l-4.726154-2.363076-6.695385-3.15077-20.873846-9.846154a39.384615 39.384615 0 0 1 33.870769-70.892307l20.48 9.846154 6.695385 3.150769 5.12 2.363077c93.341538 46.08 129.575385 61.046154 152.024615 61.046154a93.735385 93.735385 0 0 0 66.166154-28.75077 103.975385 103.975385 0 0 0 28.356923-70.892307V211.101538a101.218462 101.218462 0 0 0-28.356923-69.710769 93.735385 93.735385 0 0 0-66.166154-28.750769H253.243077a93.341538 93.341538 0 0 0-66.166154 28.750769 101.218462 101.218462 0 0 0-28.356923 69.710769v409.993847a39.384615 39.384615 0 0 1-78.769231 0z" fill="#4E5F80" p-id="3785"></path><path d="M679.778462 450.953846H347.372308a33.476923 33.476923 0 0 1 0-66.953846h332.406154a33.476923 33.476923 0 1 1 0 66.953846zM679.778462 617.156923H347.372308a33.476923 33.476923 0 0 1 0-66.953846h332.406154a33.476923 33.476923 0 1 1 0 66.953846z" fill="#66CCFF" p-id="3786"></path><path d="M480.098462 716.012308v-291.052308a33.476923 33.476923 0 0 1 66.953846 0v291.052308a33.476923 33.476923 0 0 1-66.953846 0z" fill="#66CCFF" p-id="3787"></path><path d="M662.055385 303.261538l-124.849231 124.849231a33.476923 33.476923 0 1 1-47.261539-47.261538l124.455385-125.243077a33.476923 33.476923 0 1 1 47.261538 47.261538z" fill="#66CCFF" p-id="3788"></path><path d="M413.538462 255.606154l124.84923 124.849231a33.476923 33.476923 0 0 1-47.261538 47.261538L365.095385 303.261538A33.476923 33.476923 0 0 1 413.538462 255.606154z" fill="#66CCFF" p-id="3789"></path></svg>