<?xml version="1.0" encoding="utf-8"?>
<!-- Generator: Adobe Illustrator 17.0.0, SVG Export Plug-In . SVG Version: 6.00 Build 0)  -->
<!DOCTYPE svg PUBLIC "-//W3C//DTD SVG 1.1//EN" "http://www.w3.org/Graphics/SVG/1.1/DTD/svg11.dtd">
<svg version="1.1" id="图层_1" xmlns="http://www.w3.org/2000/svg" xmlns:xlink="http://www.w3.org/1999/xlink" x="0px" y="0px"
	 width="150px" height="150px" viewBox="0 0 150 150" enable-background="new 0 0 150 150" xml:space="preserve">
<linearGradient id="SVGID_1_" gradientUnits="userSpaceOnUse" x1="-131" y1="717" x2="5" y2="717" gradientTransform="matrix(1 0 0 1 138 -642)">
	<stop  offset="0" style="stop-color:#83E3A4"/>
	<stop  offset="1" style="stop-color:#A2DF95"/>
</linearGradient>
<path opacity="0.5" fill="url(#SVGID_1_)" enable-background="new    " d="M75,7C38.014,7,7,35.265,7,75c0,36.986,31.014,68,68,68
	s68-31.014,68-68S111.986,7,75,7z M75,139.876c-35.83,0-64.876-29.046-64.876-64.876S39.17,10.124,75,10.124
	S139.876,39.17,139.876,75S110.83,139.876,75,139.876z"/>
<linearGradient id="SVGID_2_" gradientUnits="userSpaceOnUse" x1="-138" y1="717" x2="12" y2="717" gradientTransform="matrix(1 0 0 1 138 -642)">
	<stop  offset="0" style="stop-color:#83E3A4"/>
	<stop  offset="1" style="stop-color:#A2DF95"/>
</linearGradient>
<path opacity="0.3" fill="url(#SVGID_2_)" enable-background="new    " d="M75,0C33.579,0,0,33.579,0,75s33.579,75,75,75
	s75-33.579,75-75S116.421,0,75,0z M75,147.656c-40.127,0-72.656-32.529-72.656-72.656S34.873,2.344,75,2.344
	S147.656,34.873,147.656,75S115.127,147.656,75,147.656z"/>
<linearGradient id="SVGID_3_" gradientUnits="userSpaceOnUse" x1="15" y1="75" x2="135" y2="75">
	<stop  offset="0" style="stop-color:#83E3A4"/>
	<stop  offset="1" style="stop-color:#A2DF95"/>
</linearGradient>
<path fill="url(#SVGID_3_)" enable-background="new    " d="M75,15c-33.137,0-60,26.863-60,60s26.863,60,60,60s60-26.863,60-60
	S108.137,15,75,15z M103.023,59.835L69.236,94.511c-0.113,0.165-0.181,0.354-0.324,0.504c-0.672,0.69-1.559,1.008-2.439,0.984
	c-0.88,0.021-1.767-0.294-2.436-0.984c-0.143-0.147-0.212-0.336-0.324-0.501L46.975,77.341c-1.3-1.337-1.3-3.501,0-4.835
	c1.303-1.334,3.412-1.334,4.712,0L66.469,87.68L98.311,55c1.3-1.334,3.412-1.334,4.712,0
	C104.326,56.334,104.326,58.501,103.023,59.835z"/>
</svg>
