<?xml version="1.0" standalone="no"?><!DOCTYPE svg PUBLIC "-//W3C//DTD SVG 1.1//EN" "http://www.w3.org/Graphics/SVG/1.1/DTD/svg11.dtd"><svg t="1503977861592" class="icon" style="" viewBox="0 0 1024 1024" version="1.1" xmlns="http://www.w3.org/2000/svg" p-id="5232" xmlns:xlink="http://www.w3.org/1999/xlink" width="200" height="200"><defs><style type="text/css"></style></defs><path d="M919.04 376.32a19.2 19.2 0 0 0-19.2 19.2v426.666667a77.653333 77.653333 0 0 1-77.653333 77.653333H201.813333a77.653333 77.653333 0 0 1-77.653333-77.653333V201.813333a77.653333 77.653333 0 0 1 77.653333-77.653333h426.666667a19.2 19.2 0 0 0 0-38.826667h-426.666667A116.48 116.48 0 0 0 85.333333 201.813333v620.373334A116.48 116.48 0 0 0 201.813333 938.666667h620.373334A116.48 116.48 0 0 0 938.666667 822.186667v-426.666667a19.2 19.2 0 0 0-19.2-19.2zM298.666667 725.333333l165.546666-28.586666L910.08 250.88a96.853333 96.853333 0 1 0-136.96-136.96L327.253333 559.786667zM800.426667 141.226667a58.026667 58.026667 0 0 1 82.346666 82.346666l-25.173333 25.173334-82.346667-82.346667z m-52.48 52.48l82.346666 82.346666-357.12 357.12v-82.346666H390.826667z m-384 395.946666h72.106666v72.106667l-85.333333 14.933333z m0 0" fill="#959FA9" p-id="5233"></path></svg>