<?xml version="1.0" encoding="UTF-8"?>
<svg width="20px" height="20px" viewBox="0 0 20 20" version="1.1" xmlns="http://www.w3.org/2000/svg" xmlns:xlink="http://www.w3.org/1999/xlink">
    <!-- Generator: Sketch 45.2 (43514) - http://www.bohemiancoding.com/sketch -->
    <title>tixing-01 (1)</title>
    <desc>Created with Sketch.</desc>
    <defs></defs>
    <g id="Page-1" stroke="none" stroke-width="1" fill="none" fill-rule="evenodd">
        <g id="03_新建活动" transform="translate(-1329.000000, -158.000000)" fill-rule="nonzero" fill="#F5A22B">
            <g id="tixing-01-(1)" transform="translate(1339.000000, 168.000000) scale(1, -1) rotate(-180.000000) translate(-1339.000000, -168.000000) translate(1329.000000, 158.000000)">
                <path d="M17.4773501,14.2013269 C17.3325801,14.4272237 17.3264622,14.7151521 17.4615062,14.9469939 C17.5965502,15.1788357 17.8500249,15.315566 18.1179459,15.3010932 C18.3858669,15.2866204 18.6231363,15.1233807 18.732418,14.8783407 C20.895535,11.0112622 20.2835019,6.0291611 16.9473215,2.80609568 C12.9741066,-1.02998218 6.64376427,-0.918979927 2.80655673,3.05310068 C-1.02965074,7.02618132 -0.919644777,13.3573098 3.05357008,17.1933877 C6.39075056,20.4164531 11.392021,20.8534619 15.181226,18.5564153 C15.216455,18.5384052 15.2502259,18.5176753 15.2822314,18.4944141 C15.2876729,18.4907113 15.2933521,18.4873707 15.2992323,18.4844139 L15.2982323,18.4824138 C15.6180224,18.2515541 15.6901085,17.805173 15.459241,17.4853936 C15.2283735,17.1656143 14.7819772,17.0935306 14.4621871,17.3243903 L14.460187,17.3223903 C11.1293093,19.3491063 6.8504137,18.8737352 4.04562375,16.1653668 C2.41023797,14.5861613 1.46924175,12.4219696 1.42966882,10.1489474 C1.39009589,7.87592513 2.25518831,5.68029184 3.83461233,4.04512083 C6.82809034,0.937440032 11.665112,0.539425966 15.1263486,3.11598091 C18.5875852,5.69253586 19.5938229,10.4402897 17.47535,14.1993269 L17.4773501,14.2013269 Z M10.7659872,15.0003432 C10.7659872,15.3953512 10.4459699,15.7143576 10.0519486,15.7143576 L9.93994252,15.7143576 C9.7505677,15.7143576 9.56894918,15.6391313 9.43504096,15.5052276 C9.30113274,15.371324 9.22590389,15.1897116 9.22590389,15.0003432 L9.22590389,7.8571982 C9.22590389,7.4631902 9.54592119,7.14318371 9.93994252,7.1431837 L10.0519486,7.1431837 C10.4459699,7.1431837 10.7659872,7.46319018 10.7659872,7.8571982 L10.7659872,15.0003432 L10.7659872,15.0003432 Z M10.0079462,3.92911848 C9.68889077,3.92911847 9.39407139,4.09932676 9.23454367,4.37562753 C9.07501595,4.6519283 9.07501595,4.99234489 9.23454367,5.26864566 C9.39407139,5.54494643 9.68889077,5.71515472 10.0079462,5.71515471 C10.5011631,5.7151547 10.9009945,5.31533687 10.9009945,4.82213659 C10.9009945,4.32893632 10.5011631,3.92911849 10.0079462,3.92911848 L10.0079462,3.92911848 Z" id="Shape"></path>
            </g>
        </g>
    </g>
</svg>