<svg id="图层_1" data-name="图层 1" xmlns="http://www.w3.org/2000/svg" viewBox="0 0 41 41"><defs><style>.cls-1{fill:#ff5b52;}.cls-2{fill:#fff;fill-rule:evenodd;}</style></defs><title>工作经历</title><circle class="cls-1" cx="20.5" cy="20.5" r="20"/><path class="cls-2" d="M19.34,23.21h0a1.1,1.1,0,1,0,2.21,0v-.77h0V21.33h0v-.88a1.1,1.1,0,1,0-2.21,0v.88h0v1.88Z"/><path class="cls-2" d="M27.46,22.44H22.65v.77a2.21,2.21,0,1,1-4.42,0v-.77H13.43a3.87,3.87,0,0,1-2.93-1.06v5.26A2.6,2.6,0,0,0,13,29.11H27.87a2.6,2.6,0,0,0,2.51-2.47l.12-5.26A4,4,0,0,1,27.46,22.44Z"/><path class="cls-2" d="M13.43,21.33h4.81v-.88a2.21,2.21,0,1,1,4.42,0v.88h4.81a2.74,2.74,0,0,0,2.93-2.54V17.56a2.49,2.49,0,0,0-2.51-2.34H13a2.49,2.49,0,0,0-2.51,2.34v1.23A2.74,2.74,0,0,0,13.43,21.33Z"/><path class="cls-2" d="M17.13,14.67a.55.55,0,0,0,.55-.55h0v-.6c0-.33.48-.51.81-.51H22.4c.33,0,.81.18.81.51v.6a.55.55,0,1,0,1.1,0h0v-.6a1.82,1.82,0,0,0-1.91-1.62H18.49a1.82,1.82,0,0,0-1.91,1.62v.6h0A.55.55,0,0,0,17.13,14.67Z"/></svg>