<?xml version="1.0" standalone="no"?><!DOCTYPE svg PUBLIC "-//W3C//DTD SVG 1.1//EN" "http://www.w3.org/Graphics/SVG/1.1/DTD/svg11.dtd"><svg t="1506481424455" class="icon" style="" viewBox="0 0 1024 1024" version="1.1" xmlns="http://www.w3.org/2000/svg" p-id="5626" xmlns:xlink="http://www.w3.org/1999/xlink" width="32" height="32"><defs><style type="text/css"></style></defs><path d="M512 1024C230.4 1024 0 793.6 0 512S230.4 0 512 0s512 230.4 512 512-230.4 512-512 512zM480 480H256a32.1024 32.1024 0 0 0-32 32c0 19.2 12.8 32 32 32h224V768c0 16.0256 12.8 32 32 32s32-12.8 32-32v-224H768c15.9744 0 32-12.8 32-32s-12.8-32-32-32h-224V256A32.0512 32.0512 0 0 0 512 224c-19.2 0-32 12.8-32 32v224z" fill="#4A90E2" p-id="5627"></path></svg>