<?xml version="1.0" standalone="no"?><!DOCTYPE svg PUBLIC "-//W3C//DTD SVG 1.1//EN" "http://www.w3.org/Graphics/SVG/1.1/DTD/svg11.dtd"><svg t="1504080838748" class="icon" style="" viewBox="0 0 1024 1024" version="1.1" xmlns="http://www.w3.org/2000/svg" p-id="5515" xmlns:xlink="http://www.w3.org/1999/xlink" width="200" height="200"><defs><style type="text/css"></style></defs><path d="M721.92 494.08h-192v-192a17.92 17.92 0 0 0-35.84 0v192h-192a17.92 17.92 0 0 0 0 35.84h192v192a17.92 17.92 0 0 0 35.84 0v-192h192a17.92 17.92 0 0 0 0-35.84z" fill="#4A90E2" p-id="5516"></path><path d="M512 85.333333a426.666667 426.666667 0 1 0 426.666667 426.666667A426.666667 426.666667 0 0 0 512 85.333333z m0 810.666667a384 384 0 1 1 384-384 386.56 386.56 0 0 1-384 384z" fill="#4A90E2" p-id="5517"></path></svg>