<?xml version="1.0" standalone="no"?><!DOCTYPE svg PUBLIC "-//W3C//DTD SVG 1.1//EN" "http://www.w3.org/Graphics/SVG/1.1/DTD/svg11.dtd"><svg class="icon" width="200px" height="200.00px" viewBox="0 0 1024 1024" version="1.1" xmlns="http://www.w3.org/2000/svg"><path d="M512 512m-512 0a512 512 0 1 0 1024 0 512 512 0 1 0-1024 0Z" fill="#FF6868" /><path d="M281.6 256v432C281.6 732.1344 318.4896 768 363.8784 768c18.5088 0 35.6096-5.9648 49.3824-16.0256a83.3536 83.3536 0 0 0 49.3568 16.0256c18.5088 0 35.6096-5.9648 49.3824-16.0256a83.3792 83.3792 0 0 0 49.3824 16.0256c18.5088 0 35.6096-5.9648 49.3824-16.0256a83.3024 83.3024 0 0 0 49.3568 16.0256C705.5104 768 742.4 732.1344 742.4 688V256H281.6z m131.6608 64h197.4784V384h-197.4784v-64z m263.3216 288H347.4176V576h329.1392v32h0.0256z m0-64H347.4176V512h329.1392v32h0.0256z m0-64H347.4176V448h329.1392v32h0.0256z" fill="#FFFFFF" /></svg>