<?xml version="1.0" standalone="no"?><!DOCTYPE svg PUBLIC "-//W3C//DTD SVG 1.1//EN" "http://www.w3.org/Graphics/SVG/1.1/DTD/svg11.dtd"><svg t="1489487526254" class="icon" style="" viewBox="0 0 1024 1024" version="1.1" xmlns="http://www.w3.org/2000/svg" p-id="5359" xmlns:xlink="http://www.w3.org/1999/xlink" width="32" height="32"><defs><style type="text/css"></style></defs><path d="M512 512m-409.6 0a409.6 409.6 0 1 0 819.2 0 409.6 409.6 0 1 0-819.2 0Z" fill="#FF6868" p-id="5360"></path><path d="M668.7744 306.76992H352.80896c-14.47936 0-26.33728 11.50976-26.33728 25.6v307.2c0 42.22976 35.55328 76.8 78.99136 76.8h210.65728c43.43808 0 78.99136-34.57024 78.99136-76.8v-307.2c0-14.06976-11.85792-25.6-26.33728-25.6z m-250.14272 89.6h92.16c7.90528 0 13.16864 5.12 13.16864 12.8s-5.26336 12.8-13.16864 12.8h-92.16c-7.90528 0-13.16864-5.12-13.16864-12.8s5.26336-12.8 13.16864-12.8z m184.32 204.8h-184.32c-7.90528 0-13.16864-5.12-13.16864-12.8s5.26336-12.8 13.16864-12.8h184.32c7.90528 0 13.16864 5.12 13.16864 12.8s-5.26336 12.8-13.16864 12.8z m0-89.6h-184.32c-7.90528 0-13.16864-5.12-13.16864-12.8s5.26336-12.8 13.16864-12.8h184.32c7.90528 0 13.16864 5.12 13.16864 12.8s-5.26336 12.8-13.16864 12.8z" fill="#FFFFFF" p-id="5361"></path></svg>