<?xml version="1.0" standalone="no"?><!DOCTYPE svg PUBLIC "-//W3C//DTD SVG 1.1//EN" "http://www.w3.org/Graphics/SVG/1.1/DTD/svg11.dtd"><svg t="1489550009580" class="icon" style="" viewBox="0 0 1024 1024" version="1.1" xmlns="http://www.w3.org/2000/svg" p-id="5898" xmlns:xlink="http://www.w3.org/1999/xlink" width="32" height="32"><defs><style type="text/css"></style></defs><path d="M795.105849 211.000889L645.829404 12.231111A31.175111 31.175111 0 0 0 608.225849 2.844444L197.658738 201.557333a32.711111 32.711111 0 0 0-14.961778 42.723556 31.857778 31.857778 0 0 0 28.672 18.375111 28.842667 28.842667 0 0 0 12.572444-2.844444L612.094293 71.907556l95.118223 126.691555h-12.8l-47.047112-66.844444a31.004444 31.004444 0 0 0-43.349333-6.997334 33.052444 33.052444 0 0 0-6.769778 44.942223l56.433778 80.042666a30.833778 30.833778 0 0 0 25.031111 13.141334h91.932445a31.175111 31.175111 0 0 0 27.875555-18.033778 33.223111 33.223111 0 0 0-3.413333-33.848889z" fill="#66CCFF" p-id="5899"></path><path d="M931.468516 571.164444h9.272888v-1.251555A36.920889 36.920889 0 0 0 967.08096 534.186667V472.576c0-50.346667-17.351111-98.190222-48.810667-134.769778-33.166222-38.570667-78.108444-59.790222-126.691555-59.790222H238.106738c-48.469333 0-94.264889 20.935111-128.910222 58.993778A203.946667 203.946667 0 0 0 56.858738 472.576v362.894222C56.858738 939.406222 138.209849 1024 238.163627 1024h553.472c48.469333 0 93.240889-19.911111 126.008889-56.035556 31.857778-35.100444 49.436444-82.147556 49.436444-132.494222v-64.796444a37.888 37.888 0 0 0-10.695111-26.396445 35.157333 35.157333 0 0 0-25.656889-10.524444c-25.372444 0.568889-192.113778-0.853333-235.235556-1.194667l-13.767111-0.056889a59.164444 59.164444 0 0 1-5.518222-12.572444c-5.802667-17.521778-9.102222-42.951111-9.045333-69.688889 0.113778-44.316444 8.704-70.200889 12.913778-79.075556h251.392z m-322.616889-12.970666c-8.305778 24.746667-12.913778 57.400889-12.970667 91.818666-0.113778 35.043556 4.494222 68.380444 12.913778 93.866667 17.863111 54.101333 49.720889 62.293333 67.072 62.350222l19.057778 0.170667c33.109333 0.284444 141.255111 1.194667 200.874666 1.308444v27.761778c0 31.459556-10.695111 60.529778-30.094222 81.863111a98.816 98.816 0 0 1-74.069333 32.768h-553.528889c-60.643556 0-110.023111-51.427556-110.023111-114.631111V472.576c0-30.947556 12.003556-61.838222 32.938666-84.878222 21.048889-23.096889 48.412444-35.84 77.084445-35.84h553.472c27.932444 0 54.044444 12.458667 73.500444 35.043555 19.512889 22.698667 30.72 53.930667 30.72 85.674667v24.632889h-220.728889c-17.123556 0.056889-48.469333 7.964444-66.218666 60.984889z" fill="#4E5F80" p-id="5900"></path><path d="M931.468516 574.293333c-14.563556 0-26.396444 9.898667-26.396445 22.129778v109.226667c0 12.174222 11.832889 22.129778 26.396445 22.129778s26.396444-9.955556 26.396444-22.129778v-109.226667c-0.056889-12.231111-11.889778-22.129778-26.396444-22.129778zM705.505849 651.036444c0 30.378667 23.665778 55.011556 52.906667 55.011556s52.906667-24.632889 52.906666-55.011556-23.665778-55.011556-52.906666-55.011555-52.906667 24.576-52.906667 55.011555z" fill="#4E5F80" p-id="5901"></path></svg>