<?xml version="1.0" encoding="UTF-8"?>
<svg width="40px" height="40px" viewBox="0 0 40 40" version="1.1" xmlns="http://www.w3.org/2000/svg" xmlns:xlink="http://www.w3.org/1999/xlink">
    <!-- Generator: Sketch 43.1 (39012) - http://www.bohemiancoding.com/sketch -->
    <title>部门icon</title>
    <desc>Created with Sketch.</desc>
    <defs></defs>
    <g id="Page-1" stroke="none" stroke-width="1" fill="none" fill-rule="evenodd">
        <g id="组织架构_下级机构" transform="translate(-435.000000, -144.000000)">
            <g id="右侧" transform="translate(435.000000, 144.000000)">
                <g id="部门">
                    <g id="部门icon">
                        <rect id="Rectangle-7" fill="#FF6C60" x="0" y="0" width="40" height="40" rx="4"></rect>
                        <path d="M24.3149019,15.6363636 L28.0685414,15.6363636 L28.0685414,11.9191761 L24.3149019,11.9191761 L24.3149019,15.6363636 Z M24.3149019,28.0808002 L28.0685414,28.0808002 L28.0685414,24.3636127 L24.3149019,24.3636127 L24.3149019,28.0808002 Z M23.0501099,24.3636364 L23.0501099,25.6161458 L20.0704641,25.6161458 L19.929512,25.6161458 L16.9498901,25.6161458 L16.9498901,24.3636364 C16.9498901,23.6767519 16.3787184,23.1111269 15.6850981,23.1111269 L14.4203061,23.1111269 L14.4203061,16.8888731 L15.6850981,16.8888731 C16.3787184,16.8888731 16.9498901,16.3232481 16.9498901,15.6363636 L16.9498901,14.3838542 L19.929512,14.3838542 L20.0704641,14.3838542 L23.0501099,14.3838542 L23.0501099,15.6363636 C23.0501099,16.3232481 23.6212816,16.8888731 24.3149019,16.8888731 L25.5796939,16.8888731 L25.5796939,23.1111269 L24.3149019,23.1111269 C23.6212816,23.1111269 23.0501099,23.6767519 23.0501099,24.3636364 L23.0501099,24.3636364 Z M11.9314586,28.0808002 L15.6850981,28.0808002 L15.6850981,24.3636127 L11.9314586,24.3636127 L11.9314586,28.0808002 Z M11.9314586,15.6363636 L15.6850981,15.6363636 L15.6850981,11.9191761 L11.9314586,11.9191761 L11.9314586,15.6363636 Z M28.0685414,16.8888731 C28.7621138,16.8888731 29.3333333,16.3232481 29.3333333,15.6363636 L29.3333333,11.9191761 C29.3333333,11.232339 28.7621138,10.6666667 28.0685414,10.6666667 L24.3149019,10.6666667 C23.6212816,10.6666667 23.0501099,11.232339 23.0501099,11.9191761 L23.0501099,13.171733 L20.0704641,13.171733 L19.929512,13.171733 L16.9498901,13.171733 L16.9498901,11.9191761 C16.9498901,11.232339 16.3787184,10.6666667 15.6850981,10.6666667 L11.9314586,10.6666667 C11.2378862,10.6666667 10.6666667,11.232339 10.6666667,11.9191761 L10.6666667,15.6363636 C10.6666667,16.3232481 11.2378862,16.8888731 11.9314586,16.8888731 L13.1962984,16.8888731 L13.1962984,23.1111269 L11.9314586,23.1111269 C11.2378862,23.1111269 10.6666667,23.6767519 10.6666667,24.3636364 L10.6666667,28.0808002 C10.6666667,28.767661 11.2378862,29.3333333 11.9314586,29.3333333 L15.6850981,29.3333333 C16.3787184,29.3333333 16.9498901,28.767661 16.9498901,28.0808002 L16.9498901,26.828267 L19.929512,26.828267 L20.0704641,26.828267 L23.0501099,26.828267 L23.0501099,28.0808002 C23.0501099,28.767661 23.6212816,29.3333333 24.3149019,29.3333333 L28.0685414,29.3333333 C28.7621138,29.3333333 29.3333333,28.767661 29.3333333,28.0808002 L29.3333333,24.3636364 C29.3333333,23.6767519 28.7621138,23.1111269 28.0685414,23.1111269 L26.8036777,23.1111269 L26.8036777,16.8888731 L28.0685414,16.8888731 Z" id="Page-1" fill="#FFFFFF"></path>
                    </g>
                </g>
            </g>
        </g>
    </g>
</svg>