<?xml version="1.0" encoding="UTF-8"?>
<svg width="40px" height="40px" viewBox="0 0 40 40" version="1.1" xmlns="http://www.w3.org/2000/svg" xmlns:xlink="http://www.w3.org/1999/xlink">
    <!-- Generator: Sketch 45.2 (43514) - http://www.bohemiancoding.com/sketch -->
    <title>组织机构icon</title>
    <desc>Created with Sketch.</desc>
    <defs></defs>
    <g id="Page-1" stroke="none" stroke-width="1" fill="none" fill-rule="evenodd">
        <g id="组织机构icon">
            <rect id="Rectangle-7" fill="#FF6C60" x="0" y="0" width="40" height="40" rx="4"></rect>
            <path d="M25.2,28.1818182 L29.2,28.1818182 L29.2,24.0909091 L25.2,24.0909091 L25.2,28.1818182 Z M18,28.1818182 L22,28.1818182 L22,24.0909091 L18,24.0909091 L18,28.1818182 Z M18,15.9090909 L22,15.9090909 L22,11.8181818 L18,11.8181818 L18,15.9090909 Z M10.8,28.1818182 L14.8,28.1818182 L14.8,24.0909091 L10.8,24.0909091 L10.8,28.1818182 Z M29.2,29 L25.2,29 C24.7578947,29 24.4,28.6339713 24.4,28.1818182 L24.4,24.0909091 C24.4,23.638756 24.7578947,23.2727273 25.2,23.2727273 L26.8,23.2727273 L26.8,20 L20.4,20 L20.4,23.2727273 L22,23.2727273 C22.4421053,23.2727273 22.8,23.638756 22.8,24.0909091 L22.8,28.1818182 C22.8,28.6339713 22.4421053,29 22,29 L18,29 C17.5578947,29 17.2,28.6339713 17.2,28.1818182 L17.2,24.0909091 C17.2,23.638756 17.5578947,23.2727273 18,23.2727273 L19.6,23.2727273 L19.6,20 L13.2,20 L13.2,23.2727273 L14.8,23.2727273 C15.2421053,23.2727273 15.6,23.638756 15.6,24.0909091 L15.6,28.1818182 C15.6,28.6339713 15.2421053,29 14.8,29 L10.8,29 C10.3578947,29 10,28.6339713 10,28.1818182 L10,24.0909091 C10,23.638756 10.3578947,23.2727273 10.8,23.2727273 L12.4,23.2727273 L12.4,20 C12.4,19.5478469 12.7578947,19.1818182 13.2,19.1818182 L19.6,19.1818182 L19.6,16.7272727 L18,16.7272727 C17.5578947,16.7272727 17.2,16.361244 17.2,15.9090909 L17.2,11.8181818 C17.2,11.3660287 17.5578947,11 18,11 L22,11 C22.4421053,11 22.8,11.3660287 22.8,11.8181818 L22.8,15.9090909 C22.8,16.361244 22.4421053,16.7272727 22,16.7272727 L20.4,16.7272727 L20.4,19.1818182 L26.8,19.1818182 C27.2421053,19.1818182 27.6,19.5478469 27.6,20 L27.6,23.2727273 L29.2,23.2727273 C29.6421053,23.2727273 30,23.638756 30,24.0909091 L30,28.1818182 C30,28.6339713 29.6421053,29 29.2,29 L29.2,29 Z" id="Page-1" fill="#FFFFFF"></path>
        </g>
    </g>
</svg>