<?xml version="1.0" encoding="UTF-8"?>
<svg width="40px" height="40px" viewBox="0 0 40 40" version="1.1" xmlns="http://www.w3.org/2000/svg" xmlns:xlink="http://www.w3.org/1999/xlink">
    <!-- Generator: Sketch 45.2 (43514) - http://www.bohemiancoding.com/sketch -->
    <title>分部icon</title>
    <desc>Created with Sketch.</desc>
    <defs></defs>
    <g id="Page-1" stroke="none" stroke-width="1" fill="none" fill-rule="evenodd">
        <g id="分部icon">
            <rect id="Rectangle-7" fill="#FF6C60" x="0" y="0" width="40" height="40" rx="4"></rect>
            <path d="M26.9299065,27.7978723 L14.0700935,27.7978723 C13.3154206,27.7978723 12.6997664,27.1565957 12.6997664,26.3690426 L12.6997664,18.3718085 L28.3002336,18.3718085 L28.3002336,26.3690426 C28.3002336,27.1425532 27.6728972,27.7978723 26.9299065,27.7978723 M14.0700935,12.7009574 L18.2990654,12.7009574 C18.9707944,12.7009574 19.2932243,13.0403191 19.7009346,13.4697872 C20.1495327,13.9437234 20.6600467,14.4796809 21.6787383,14.4796809 L21.6799065,14.4796809 L26.9299065,14.4796809 L26.9299065,14.4808511 C27.6857477,14.4808511 28.25,15.0425532 28.3002336,15.8230851 L28.3002336,17.6696809 L12.6997664,17.6696809 L12.6997664,14.1297872 C12.6997664,13.342234 13.3154206,12.7009574 14.0700935,12.7009574 M26.9299065,13.7787234 L21.6799065,13.7787234 L21.6787383,13.7787234 C20.9614486,13.7787234 20.6121495,13.4112766 20.2079439,12.9853191 C19.7686916,12.5230851 19.271028,12 18.2990654,12 L14.0700935,12 C12.9287383,12 12,12.9548936 12,14.1297872 L12,26.3690426 C12,27.5439362 12.9287383,28.5 14.0700935,28.5 L26.9299065,28.5 C28.0724299,28.5 29,27.5439362 29,26.3690426 L29,15.8008511 C28.9252336,14.6294681 28.0549065,13.7787234 26.9299065,13.7787234" id="Fill-1" fill="#FFFFFF"></path>
        </g>
    </g>
</svg>