<?xml version="1.0" standalone="no"?>
<!DOCTYPE svg PUBLIC "-//W3C//DTD SVG 1.1//EN" "http://www.w3.org/Graphics/SVG/1.1/DTD/svg11.dtd" >
<svg xmlns="http://www.w3.org/2000/svg">
<metadata>Generated by IcoMoon</metadata>
<defs>
<font id="icomoon" horiz-adv-x="1024">
<font-face units-per-em="1024" ascent="960" descent="-64" />
<missing-glyph horiz-adv-x="1024" />
<glyph unicode="&#x20;" horiz-adv-x="512" d="" />
<glyph unicode="&#xe601;" glyph-name="h5-school" d="M928.399 576.373l-394.382 218.424c-6.648 3.272-14.12 5.095-22.038 5.095s-15.373-1.823-22.023-5.095l-394.385-218.424-27.281-19.17 27.281-19.168 46.663-29.374 0.014-218.409h24.637v212.67l73.959-36.395v-176.275c0-93.828 121.395-194.143 271.134-194.143 149.754 0 271.149 100.314 271.149 194.143v176.275l145.273 71.509 27.268 19.168-27.269 19.17zM758.478 290.252c0-44.883-70.597-169.879-246.499-169.879-172.747 0-246.483 124.995-246.483 169.879v164.141l224.461-110.502c6.648-3.272 14.103-5.095 22.023-5.095s15.39 1.823 22.038 5.095l224.46 110.502v-164.141zM511.979 365.898l-388.602 191.305 388.602 215.57 388.618-215.57-388.618-191.305z" />
<glyph unicode="&#xe604;" glyph-name="wechat" d="M646.822 570.546c8.742 0 17.392-0.64 25.973-1.597-23.339 108.663-139.508 189.398-272.113 189.398-148.249 0-269.687-101.050-269.687-229.367 0-74.068 40.401-134.891 107.917-182.065l-26.973-81.13 94.278 47.278c33.734-6.678 60.801-13.544 94.464-13.544 8.463 0 16.856 0.42 25.178 1.072-5.268 18.033-8.323 36.917-8.323 56.511 0.001 117.824 101.18 213.444 229.286 213.444zM501.813 643.668c20.306 0 33.759-13.359 33.759-33.652 0-20.212-13.452-33.758-33.759-33.758-20.212 0-40.495 13.546-40.495 33.758 0.001 20.293 20.283 33.652 40.495 33.652zM313.069 576.258c-20.211 0-40.611 13.546-40.611 33.758 0 20.293 20.4 33.652 40.611 33.652 20.213 0 33.665-13.359 33.665-33.652 0-20.212-13.451-33.758-33.665-33.758zM892.963 360.344c0 107.823-107.894 195.713-229.074 195.713-128.316 0-229.38-87.891-229.38-195.713 0-108.011 101.064-195.715 229.38-195.715 26.856 0 53.946 6.773 80.92 13.534l73.973-40.508-20.282 67.399c54.132 40.612 94.463 94.464 94.463 155.29zM589.519 394.088c-13.429 0-26.974 13.359-26.974 26.985 0 13.441 13.546 26.974 26.974 26.974 20.399 0 33.757-13.534 33.757-26.974 0.001-13.625-13.358-26.985-33.757-26.985zM737.86 394.088c-13.335 0-26.787 13.359-26.787 26.985 0 13.441 13.452 26.974 26.787 26.974 20.213 0 33.758-13.534 33.758-26.974 0-13.625-13.544-26.985-33.758-26.985z" />
<glyph unicode="&#xe605;" glyph-name="weibo" d="M696.637 456.109c-29.86 5.792-15.367 21.858-15.367 21.858s29.224 48.146-5.78 83.145c-43.349 43.351-148.721-5.516-148.721-5.516-40.227-12.488-29.586 5.7-23.897 36.653 0 36.469-12.478 98.191-119.684 61.733-107.115-36.652-199.043-165.074-199.043-165.074-63.947-85.337-55.506-151.292-55.506-151.292 15.987-145.6 170.694-185.568 291.019-195.030 126.609-9.929 297.441 43.639 349.279 153.687 51.792 110.234-42.343 153.859-72.3 159.835zM429.016 183.645c-125.647-5.872-227.257 57.144-227.257 141.013 0 83.961 101.609 151.292 227.257 157.082 125.784 5.792 227.576-46.022 227.576-129.809 0-83.857-101.791-162.576-227.576-168.285zM403.969 426.44c-126.425-14.794-111.792-133.191-111.792-133.191s-1.308-37.492 33.877-56.584c73.971-40.059 150.12-15.805 188.607 33.875 38.488 49.703 15.874 170.591-110.691 155.901zM372.087 260.262c-23.624-2.761-42.616 10.841-42.616 30.589 0 19.655 16.88 40.242 40.506 42.707 27.111 2.581 44.726-13.040 44.726-32.788 0-19.656-19.129-37.836-42.616-40.508zM446.584 323.74c-7.98-5.974-17.843-5.147-22.064 2.017-4.404 6.986-2.753 18.189 5.345 24.075 9.381 6.971 19.106 4.965 23.326-2.031 4.219-7.155 1.193-17.901-6.607-24.061zM758.178 507.373c10.183 0 18.833 7.534 20.301 17.361 0.183 0.736 0.275 1.377 0.275 2.203 15.435 138.8-113.722 114.912-113.722 114.912-11.468 0-20.689-9.277-20.689-20.85 0-11.387 9.221-20.666 20.689-20.666 92.759 20.482 72.297-72.297 72.297-72.297 0-11.479 9.359-20.665 20.849-20.665zM743.109 749.639c-44.634 10.459-90.575 1.445-103.442-1.021-1.012-0.091-1.929-1.031-2.847-1.216-0.457-0.092-0.733-0.551-0.733-0.551-12.66-3.59-21.952-15.333-21.952-29.21 0-16.538 13.418-30.138 30.116-30.138 0 0 16.288 2.179 27.298 6.491 10.919 4.404 103.442 3.28 149.363-73.88 25.092-56.308 11.030-93.995 9.265-100.050 0 0-5.963-14.633-5.963-29.037 0-16.628 13.441-27.077 30.047-27.077 13.876 0 25.551 1.892 28.947 25.38h0.183c49.312 164.412-60.371 241.662-140.283 260.309z" />
<glyph unicode="&#xe607;" glyph-name="add" d="M511.979 831.725c-211.918 0-383.724-171.809-383.724-383.725 0-211.935 171.808-383.724 383.724-383.724 211.936 0 383.724 171.79 383.724 383.724 0 211.916-171.789 383.725-383.724 383.725zM511.979 111.507c-185.14 0-335.752 151.355-335.752 336.493s150.613 335.772 335.752 335.772 335.751-150.634 335.751-335.772c-0.001-185.138-150.612-336.493-335.751-336.493zM679.873 471.986h-143.91v143.91c0 13.232-10.732 23.967-23.984 23.967s-23.986-10.734-23.986-23.967v-143.91h-143.891c-13.252 0-23.985-10.734-23.985-23.987 0-13.232 10.733-23.985 23.985-23.985h143.89v-143.87c0-13.232 10.733-24.006 23.986-24.006s23.984 10.773 23.984 24.006v143.869h143.91c13.232 0 23.967 10.754 23.967 23.985 0.001 13.254-10.733 23.988-23.966 23.988z" />
<glyph unicode="&#xe608;" glyph-name="hexinziyuan" d="M512.002 46.243c-107.55 0-208.664 41.884-284.714 117.932s-117.934 177.163-117.934 284.716c0 107.549 41.883 208.662 117.932 284.712 76.050 76.048 177.163 117.932 284.714 117.932 107.549 0 208.662-41.883 284.712-117.932s117.932-177.162 117.932-284.712c0-107.553-41.882-208.668-117.932-284.716s-177.162-117.932-284.711-117.932zM512.002 819.768c-99.067 0-192.201-38.577-262.251-108.627s-108.629-163.187-108.629-262.25c0-99.068 38.579-192.202 108.629-262.255 70.050-70.048 163.186-108.628 262.251-108.628s192.201 38.58 262.25 108.628c70.049 70.050 108.628 163.187 108.628 262.255 0 99.064-38.579 192.201-108.628 262.25s-163.187 108.627-262.25 108.627zM672.197 511.636c-9.377 4.367-16.967 11.927-21.363 21.288l-80.675-126.77-63.452 42.296-0.214-0.32-1.937 1.29-42.487-63.725-55.331 39.525 0.157 0.226-24.128 16.888-0.765-1.096-16.331-22.866 0.217-0.153-86.19-123.137 24.129-16.882 86.026 122.898 55.878-39.913-0.070-0.102 3.197-2.133 19.884-14.202 0.46 0.638 0.961-0.638 42.775 64.16 41.408-27.602-0.273-0.431 20.403-12.987 4.242-2.831 0.060 0.092 0.141-0.092 4.21 6.616 11.922 17.89-0.378 0.25 77.523 121.821zM673.399 585.943c-25.397 0-45.987-20.592-45.987-45.987 0-25.391 20.591-45.982 45.987-45.982 25.394 0 45.987 20.591 45.987 45.982 0 25.396-20.589 45.987-45.987 45.987zM673.399 516.967c-12.697 0-22.995 10.292-22.995 22.988 0 12.699 10.297 22.993 22.995 22.993 12.7 0 22.991-10.293 22.991-22.993 0-12.697-10.291-22.988-22.991-22.988z" />
<glyph unicode="&#xe609;" glyph-name="display" d="M913.541 465.596c-7.289 8.492-181.206 208.057-401.555 208.057-220.364 0-394.265-199.565-401.555-208.057l-15.118-17.596 15.118-17.595c7.29-8.492 181.191-208.057 401.555-208.057 220.349 0 394.266 199.565 401.555 208.057l15.103 17.595-15.103 17.596zM511.987 276.507c-159.103 0-297.254 124.59-343.65 171.527 46.31 46.955 184.157 171.461 343.65 171.461 159.103 0 297.253-124.591 343.649-171.51-46.31-46.972-184.157-171.477-343.649-171.477zM511.98 565.335c-65.008 0-117.895-52.634-117.895-117.335 0-64.703 52.888-117.335 117.895-117.335 65.006 0 117.893 52.633 117.893 117.335s-52.888 117.335-117.893 117.335zM511.98 384.824c-35.003 0-63.482 28.34-63.482 63.176 0 34.834 28.479 63.194 63.482 63.194 35.005 0 63.483-28.36 63.483-63.194s-28.478-63.176-63.483-63.176z" />
<glyph unicode="&#xe60b;" glyph-name="jingpinfenxi" d="M903.117 846.494c-4.176 2.702-8.944 4.029-13.661 4.029-4.868 0-9.731-1.391-13.957-4.227l-754.915-503.257c-7.763-5.16-12.052-14.254-11.046-23.544 0.957-9.289 7.003-17.347 15.677-20.739l196.884-78.785 92.568-162.036c4.435-7.763 12.656-12.585 21.564-12.679 0.108 0 0.182 0 0.281 0 8.835 0 17.028 4.717 21.563 12.237l52.269 87.136 243.954-97.557c2.998-1.181 6.146-1.769 9.339-1.769 4.275 0 8.504 1.079 12.335 3.244 6.632 3.732 11.206 10.271 12.482 17.789l125.817 754.89c1.626 9.893-2.749 19.81-11.154 25.267zM160.99 325.778l652.651 435.301-474.436-511.163c-2.235 1.329-10.777 6.461-13.246 7.44l-164.969 68.421zM360.88 230.65c-0.049 0.099 1.616 4.752 1.569 4.85l504.869 550.74-435.623-685.639-70.815 130.049zM758.251 86.152l-233.69 87.301c5.702-2.233-12.583 4.215-19.182 8.429l373.89 585.219-121.017-680.949z" />
<glyph unicode="&#xe60d;" glyph-name="link" d="M358.113 291.102c4.444-4.446 10.269-6.668 16.093-6.668s11.647 2.222 16.065 6.668l275.753 278.029c8.897 8.896 8.897 23.299 0 32.195-8.89 8.892-23.296 8.892-32.166 0l-275.745-278.026c-8.903-8.876-8.903-23.303 0-32.198zM486.297 339.604c7.518-33.201-0.581-65.761-26.233-91.385l-91.923-89.137c-19.352-19.359-45.057-30.003-72.429-30.003-27.352 0-53.084 10.644-72.409 30.003-39.916 39.97-39.916 104.961-0.234 144.697l89.793 92.687c19.359 19.359 45.064 30.029 72.437 30.029 9.345 0 18.376-1.7 27.138-4.112l35.525 35.56c-19.828 9.264-41.221 14.084-62.662 14.084-37.855 0-75.743-14.459-104.621-43.365l-89.566-92.47c-57.796-57.796-57.796-151.485 0-209.309 28.885-28.904 66.739-43.338 104.6-43.338 37.855 0 75.736 14.433 104.628 43.338l91.698 88.896c44.187 44.222 53.745 105.848 30.343 159.934l-36.086-36.107zM832.866 769.064c-28.885 28.908-66.74 43.39-104.6 43.39-37.883 0-75.737-14.482-104.628-43.39l-91.702-88.9c-45.799-45.827-55.145-114.184-28.295-169.379l35.312 35.345c-10.457 34.915-2.41 74.23 24.935 101.601l91.948 89.141c19.352 19.353 45.057 30.020 72.43 30.020 27.351 0 53.084-10.667 72.409-30.020 39.923-39.95 39.923-104.973 0.234-144.708l-91.942-91.97c-19.326-19.359-45.057-29.995-72.41-29.995-6.988 0-13.101-0.716-19.801 0.662l-36.269-36.267c18.141-7.579 36.724-9.936 56.070-9.936 37.862 0 75.723 14.434 104.6 43.339l91.709 91.737c57.77 57.816 57.77 151.535 0 209.329z" />
<glyph unicode="&#xe60e;" glyph-name="jiejuefangan" d="M436.209 275.298h-22.37l-149.102 149.103 22.371 22.37 137.917-137.917 287.016 287.012 22.368-22.372zM512.001 47.016c-107.107 0-207.802 41.711-283.538 117.446s-117.446 176.433-117.446 283.54c0 107.106 41.709 207.802 117.446 283.538s176.431 117.446 283.538 117.446c107.108 0 207.803-41.709 283.541-117.446 75.735-75.736 117.445-176.431 117.445-283.538s-41.711-207.803-117.445-283.54c-75.738-75.735-176.433-117.446-283.541-117.446zM512.001 817.349c-98.656 0-191.407-38.419-261.169-108.179-69.76-69.761-108.18-162.513-108.18-261.169 0-98.657 38.42-191.409 108.18-261.171s162.511-108.18 261.169-108.18c98.656 0 191.409 38.419 261.17 108.18s108.179 162.514 108.179 261.171c0 98.656-38.417 191.407-108.179 261.169s-162.515 108.179-261.17 108.179z" />
<glyph unicode="&#xe60f;" glyph-name="user" d="M511.979 780.753c80.77 0 166.426-68.014 166.426-118.789v-118.857c0-45.75-19.016-133.275-70.052-173.457-13.001-10.243-19.75-26.524-17.806-42.973 1.943-16.475 12.321-30.697 27.373-37.625l206.996-98.166c1.611-0.719 19.838-3.802 19.838-29.234l0.021-46.426-665.572-0.021v48.261c0 18.899 14.203 24.843 19.86 27.466l208.891 98.559c14.971 6.88 25.307 21.040 27.319 37.405 2.005 16.343-4.594 32.576-17.438 42.889-49.421 39.678-72.432 126.873-72.432 173.322v118.857c-0.001 49.685 86.525 118.789 166.574 118.789zM511.979 828.34c-105.024 0-214.132-87.656-214.132-166.377v-118.857c0-51.932 23.703-157.002 90.209-210.421l-208.872-98.557c0 0-47.545-21.194-47.545-47.546v-71.378c0-26.262 21.282-47.544 47.545-47.544h665.592c26.266 0 47.544 21.282 47.544 47.544v71.378c0 27.945-47.544 47.546-47.544 47.546l-206.997 98.141c65.9 51.867 88.211 153.749 88.211 210.838v118.857c0 78.72-108.979 166.376-214.010 166.376v0z" />
<glyph unicode="&#xe615;" glyph-name="yonghutongdian" d="M512.001 48.491c-220.701 0-400.251 179.544-400.251 400.243 0 220.695 179.549 400.252 400.251 400.252 220.709 0 400.251-179.557 400.251-400.252-0.001-220.7-179.542-400.243-400.251-400.243zM512.001 821.534c-205.554 0-372.8-167.214-372.8-372.802 0-205.594 167.246-372.806 372.8-372.806s372.799 167.211 372.799 372.806c-0.001 205.589-167.245 372.802-372.799 372.802zM512.001 48.491c-97.365 0-191.241 35.431-264.341 99.817l-10.1 8.871 8.678 10.262c25.657 30.448 71.043 55.816 127.765 71.429 20.321 8.098 30.101 13.45 37.426 20.797 7.823 7.788 12.141 15.174 13.641 23.199 1.018 5.555 0.755 34.819-0.052 60.73-14.072 15.951-26.326 39.696-38.095 73.97-12.092 6.301-22.867 21.814-26.111 38.858-3.429 18.29-1.474 33.667 4.96 42.862-14.963 87.908-5.284 153.207 28.849 194.123 26.614 31.937 67.358 48.128 121.109 48.128l4.801 0.069c44.732 0 55.029-9.383 64.716-22.574 1.863-2.574 3.37-4.625 5.655-6.486 24.726-0.036 45.264-9.958 59.406-28.689 26.826-35.545 30.077-103.569 9.012-183.248 7.45-9.113 9.497-25.553 5.161-45.146-4.083-18.182-16.916-34.471-29.838-39.418-9.533-31.363-19.274-55.137-34.63-73.021v-57.274c1.691-12.669 6.502-17.342 15.241-25.809l5.824-5.794c5.47-4.371 10.296-6.704 31.955-16.256 54.345-15.007 99.254-40.269 124.707-70.448l8.653-10.262-10.074-8.873c-73.111-64.385-166.996-99.816-264.319-99.816zM276.67 159.687c66.398-54.091 149.415-83.76 235.331-83.76 85.912 0 168.908 29.669 235.305 83.76-23.080 21.708-59.183 40.032-103.503 52.429-24.113 10.464-31.636 13.922-41.287 21.882l-6.399 6.231c-10.076 9.792-20.472 19.915-23.456 43.825l-0.099 69.805 3.828 3.963c15.223 15.817 24.842 41.524 34.631 75.225l5.551 19.061 11.179-8.392c3.317 3.127 8.058 9.442 9.923 17.707 2.251 10.178 1.692 17.441 0.848 20.643l-10.451 3.317 2.202 13.195c21.253 74.375 20.539 139.066-1.881 168.769-9.008 11.955-21.301 17.749-37.594 17.749l-7.467-0.272-3.541 2.082c-8.942 5.319-13.429 11.431-16.694 15.885-4.642 6.35-8.303 11.365-42.567 11.365l-4.617-0.052c-45.407 0-79.048-12.87-100.227-38.254-29.593-35.53-36.859-95.734-21.609-179.001l2.499-13.718-9.119-1.508c-0.883-3.421-1.5-10.43 0.322-20.101 2.094-11.041 9.466-18.857 11.905-19.941l10.322 0.438 0.831-9.516c12.116-36.645 24.020-60.052 37.476-73.665l3.776-3.795 0.183-5.348c0.485-13.889 1.907-60.152-0.21-71.806-2.521-13.544-9.466-25.874-21.227-37.629-11.61-11.65-25.87-18.592-48.144-27.399-46.034-12.734-82.705-31.266-106.023-53.175z" />
<glyph unicode="&#xe618;" glyph-name="big-add" d="M844.004 509.96h-271.273v271.273h-90.458v-271.273h-271.273v-90.458h271.273v-271.273h90.458v271.273h271.273v90.458z" />
<glyph unicode="&#xe619;" glyph-name="gototop" d="M511.932 629.181l43.269-43.269-319.164-319.164-43.269 43.269 319.164 319.164zM831.203 310.072l-43.269-43.269-319.164 319.164 43.269 43.269 319.164-319.164z" />
<glyph unicode="&#xe61a;" glyph-name="feedback" d="M208.758 684.327h61.192v-582.351h-61.192v582.351zM208.758 684.327h407.676v-61.192h-407.676v61.192zM730.019 509.551h61.192v-407.676h-61.192v407.676zM867.967 794.15l43.269-43.269-319.164-319.164-43.269 43.269 319.164 319.164zM208.758 163.067h582.351v-61.192h-582.351v61.192z" />
<glyph unicode="&#xe61b;" glyph-name="turn-left" d="M511.909 896.409c-247.714 0-448.498-200.78-448.498-448.498s200.78-448.498 448.498-448.498 448.498 200.966 448.498 448.678c0 247.538-200.78 448.315-448.498 448.315zM511.909 69.721c-208.937 0-378.371 169.432-378.371 378.371s169.432 378.371 378.371 378.371 378.371-169.432 378.371-378.371c0-209.119-169.432-378.371-378.371-378.371zM640.206 457.698c-73.931 47.84-184.29 46.386-184.29 46.386v84.083l-168.164-140.078 168.164-112.169v84.083c0 0 71.401 15.764 142.974-11.234 65.421-24.645 137.359-100.935 137.359-100.935s-22.106 102.019-96.040 149.865z" />
<glyph unicode="&#xe61c;" glyph-name="turn-right" d="M511.909 896.409c-247.714 0-448.498-200.78-448.498-448.498s200.78-448.498 448.498-448.498 448.498 200.966 448.498 448.678c0 247.538-200.78 448.315-448.498 448.315zM511.909 69.721c-208.937 0-378.371 169.432-378.371 378.371s169.432 378.371 378.371 378.371 378.371-169.432 378.371-378.371c0-209.119-169.432-378.371-378.371-378.371zM568.087 504.087c0 0-110.355 1.633-184.29-46.386s-95.864-149.865-95.864-149.865 71.939 76.293 137.359 100.935c71.577 26.999 142.974 11.234 142.974 11.234v-84.083l168.164 112.169-168.345 140.078v-84.083z" />
<glyph unicode="&#xe61e;" glyph-name="mail" d="M106.626 764.655v-633.413h810.748v633.413h-810.748zM815.966 714.003l-304.018-253.365-304.018 253.365h608.035zM157.279 181.997v506.73l354.67-282.938 354.67 282.938v-506.73h-709.34z" />
<glyph unicode="&#xe61f;" glyph-name="search" d="M992.262 88.604l-242.552 206.294c-25.074 22.566-51.89 32.926-73.552 31.926 57.256 67.068 91.842 154.078 91.842 249.176 0 212.078-171.922 384-384 384-212.076 0-384-171.922-384-384s171.922-384 384-384c95.098 0 182.108 34.586 249.176 91.844-1-21.662 9.36-48.478 31.926-73.552l206.294-242.552c35.322-39.246 93.022-42.554 128.22-7.356s31.892 92.898-7.354 128.22zM384 320c-141.384 0-256 114.616-256 256s114.616 256 256 256 256-114.616 256-256-114.614-256-256-256z" />
<glyph unicode="&#xe622;" glyph-name="calculate" d="M254.669 792.013v-716.8h511.181v716.8h-511.181zM305.869 740.813h408.781v-152.781h-408.781v152.781zM407.859 126.003h-102.4v102.4h102.4v-102.4zM407.859 280.422h-102.4v102.4h102.4v-102.4zM407.859 433.203h-102.4v102.4h102.4v-102.4zM562.278 126.003h-102.4v102.4h102.4v-102.4zM562.278 280.422h-102.4v102.4h102.4v-102.4zM562.278 433.203h-102.4v102.4h102.4v-102.4zM715.059 126.003h-102.4v102.4h102.4v-102.4zM715.059 280.422h-102.4v102.4h102.4v-102.4zM715.059 433.203h-102.4v102.4h102.4v-102.4z" />
<glyph unicode="&#xe800;" glyph-name="mobile" d="M768 960h-576c-35.2 0-64-28.798-64-64v-896c0-35.2 28.798-64 64-64h576c35.2 0 64 28.8 64 64v896c0 35.202-28.8 64-64 64zM480-17.782c-27.492 0-49.782 22.29-49.782 49.782s22.29 49.782 49.782 49.782 49.782-22.29 49.782-49.782-22.29-49.782-49.782-49.782zM768 128h-576v704h576v-704z" />
<glyph unicode="&#xe900;" d="M602.453 362.667h-273.067c-5.12 0-10.24 3.413-11.947 8.533l-257.707 588.8h29.013l249.173-570.027h244.053l-256 570.027h29.013l259.413-578.56c1.707-3.413 1.707-8.533-1.707-11.947-1.707-3.413-5.12-6.827-10.24-6.827z" />
<glyph unicode="&#xe901;" d="M706.56 371.2l-23.893 10.24 252.587 578.56h29.013z" />
<glyph unicode="&#xe902;" d="M523.947 574.293l-25.6 10.24 170.667 375.467h29.013z" />
<glyph unicode="&#xe903;" d="M145.067 960l262.827-583.68h124.587l-266.24 583.68z" />
<glyph unicode="&#xe904;" d="M878.933 960l-262.827-583.68h-124.587l266.24 583.68z" />
<glyph unicode="&#xe905;" d="M779.947 203.947c0-147.983-119.964-267.947-267.947-267.947s-267.947 119.964-267.947 267.947c0 147.983 119.964 267.947 267.947 267.947s267.947-119.964 267.947-267.947z" />
<glyph unicode="&#xe906;" d="M512-31.573c-129.707 0-235.52 105.813-235.52 235.52s105.813 235.52 235.52 235.52c129.707 0 235.52-105.813 235.52-235.52s-105.813-235.52-235.52-235.52zM512 429.227c-124.587 0-225.28-100.693-225.28-225.28s100.693-225.28 225.28-225.28c124.587 0 225.28 100.693 225.28 225.28s-102.4 225.28-225.28 225.28z" />
<glyph unicode="&#xe907;" d="M431.787 258.56v39.253c18.773 0 30.72 1.707 37.547 3.413 11.947 1.707 20.48 6.827 27.307 15.36 5.12 5.12 8.533 11.947 11.947 20.48 1.707 5.12 1.707 8.533 1.707 11.947h47.787v-291.84h-58.027v201.387h-68.267z" />
<glyph unicode="&#xe908;" d="M604.16 362.667h-273.067c-5.12 0-10.24 3.413-11.947 8.533l-257.707 588.8h29.013l250.88-570.027h244.053l-256 570.027h29.013l259.413-578.56c1.707-3.413 1.707-8.533-1.707-11.947s-6.827-6.827-11.947-6.827z" />
<glyph unicode="&#xe909;" d="M708.267 371.2l-23.893 10.24 252.587 578.56h29.013z" />
<glyph unicode="&#xe90a;" glyph-name="report" d="M860.16-57.173h-696.32c-42.667 0-76.8 34.133-76.8 76.8v856.747c0 42.667 34.133 76.8 76.8 76.8h518.827l256-259.413v-674.133c-1.707-42.667-35.84-76.8-78.507-76.8zM163.84 913.92c-20.48 0-37.547-17.067-37.547-37.547v-855.040c0-20.48 17.067-37.547 37.547-37.547h698.027c20.48 0 37.547 17.067 37.547 37.547v657.067l-233.813 235.52h-501.76zM921.6 666.453h-201.387c-35.84 0-66.56 29.013-66.56 66.56v199.68h39.253v-201.387c0-15.36 11.947-27.307 27.307-27.307h201.387v-37.547zM394.24 251.733c-5.12 0-8.533 1.707-11.947 5.12-39.253 34.133-61.44 81.92-61.44 133.12 0 97.28 78.507 175.787 175.787 175.787 10.24 0 18.773-8.533 18.773-18.773s-8.533-18.773-18.773-18.773c-75.093 0-136.533-61.44-136.533-136.533 0-39.253 17.067-78.507 47.787-104.107 8.533-6.827 8.533-18.773 1.707-27.307-3.413-5.12-10.24-8.533-15.36-8.533zM781.653 84.48c-5.12 0-10.24 1.707-13.653 5.12l-116.053 116.053c-6.827 6.827-6.827 20.48 0 27.307s20.48 6.827 27.307 0l116.053-116.053c6.827-6.827 6.827-20.48 0-27.307-3.413-3.413-8.533-5.12-13.653-5.12zM494.933 137.387c-139.947 0-254.293 114.347-254.293 254.293s114.347 252.587 254.293 252.587 254.293-114.347 254.293-254.293-114.347-252.587-254.293-252.587zM494.933 605.013c-117.76 0-215.040-95.573-215.040-215.040 0-117.76 95.573-215.040 215.040-215.040s215.040 95.573 215.040 215.040-97.28 215.040-215.040 215.040z" />
<glyph unicode="&#xe90b;" glyph-name="qiye" d="M861.867-57.173h-699.733c-42.667 0-76.8 34.133-76.8 76.8v856.747c0 42.667 34.133 76.8 76.8 76.8h520.533l256-259.413v-674.133c0-42.667-35.84-76.8-76.8-76.8zM162.133 913.92c-20.48 0-37.547-17.067-37.547-37.547v-856.747c0-20.48 17.067-37.547 37.547-37.547h698.027c20.48 0 37.547 17.067 37.547 37.547v658.773l-233.813 237.227-501.76-1.707zM921.6 666.453h-203.093c-35.84 0-66.56 29.013-66.56 66.56v201.387h39.253v-201.387c0-15.36 11.947-27.307 27.307-27.307h203.093v-39.253zM325.973 52.053h-18.773c-30.72 0-56.32 25.6-56.32 56.32v315.733c0 30.72 25.6 56.32 56.32 56.32h20.48c30.72 0 56.32-25.6 56.32-56.32v-315.733c0-30.72-25.6-56.32-58.027-56.32zM307.2 441.173c-8.533 0-17.067-6.827-17.067-17.067v-315.733c0-8.533 6.827-17.067 17.067-17.067h20.48c8.533 0 17.067 6.827 17.067 17.067v315.733c0 8.533-6.827 17.067-17.067 17.067h-20.48zM641.707 82.773h-300.373v351.573h54.613c23.893 0 39.253 11.947 54.613 39.253l56.32 128c10.24 23.893 34.133 39.253 59.733 39.253 18.773 0 37.547-8.533 49.493-22.187 11.947-15.36 18.773-34.133 15.36-52.907l-17.067-119.467c0-3.413 1.707-6.827 1.707-8.533 1.707-1.707 3.413-3.413 6.827-3.413h97.28c23.893 0 47.787-11.947 61.44-30.72 13.653-20.48 18.773-44.373 10.24-68.267l-56.32-172.373c-17.067-66.56-61.44-80.213-93.867-80.213zM384 122.027h261.12c18.773 0 44.373 5.12 59.733 52.907l56.32 172.373c3.413 11.947 1.707 23.893-5.12 32.427-6.827 10.24-18.773 15.36-30.72 15.36h-97.28c-13.653 0-27.307 6.827-37.547 17.067-8.533 10.24-13.653 25.6-10.24 39.253l17.067 119.467c1.707 8.533-1.707 15.36-6.827 22.187s-11.947 10.24-20.48 10.24c-10.24 0-20.48-6.827-25.6-15.36l-56.32-128c-22.187-42.667-51.2-61.44-90.453-61.44h-15.36l1.707-276.48z" />
<glyph unicode="&#xe90c;" glyph-name="research" d="M911.36-46.933h-795.307c-10.24 0-20.48 8.533-20.48 20.48s8.533 20.48 20.48 20.48h795.307c10.24 0 20.48-8.533 20.48-20.48s-10.24-20.48-20.48-20.48zM116.053-45.227c-10.24 0-20.48 8.533-20.48 20.48v230.4c0 10.24 8.533 20.48 20.48 20.48h170.667c10.24 0 20.48-8.533 20.48-20.48v-223.573c0-10.24-8.533-20.48-20.48-20.48s-20.48 8.533-20.48 20.48v203.093h-131.413v-209.92c0-10.24-8.533-20.48-18.773-20.48zM424.96-45.227c-10.24 0-20.48 8.533-20.48 20.48v419.84c0 10.24 8.533 20.48 20.48 20.48h170.667c10.24 0 20.48-8.533 20.48-20.48v-407.893c0-10.24-8.533-20.48-20.48-20.48s-20.48 8.533-20.48 20.48v387.413h-129.707v-399.36c0-10.24-8.533-20.48-20.48-20.48zM911.36-46.933c-10.24 0-20.48 8.533-20.48 20.48v614.4h-129.707v-612.693c0-10.24-8.533-20.48-20.48-20.48s-20.48 8.533-20.48 20.48v633.173c0 10.24 8.533 20.48 20.48 20.48h170.667c10.24 0 20.48-8.533 20.48-20.48v-634.88c-1.707-11.947-10.24-20.48-20.48-20.48zM112.64 473.6c-5.12 0-11.947 1.707-15.36 6.827-6.827 8.533-5.12 20.48 3.413 27.307l290.133 233.813c8.533 6.827 20.48 5.12 27.307-1.707l117.76-124.587 361.813 322.56c8.533 6.827 20.48 6.827 27.307-1.707s6.827-20.48-1.707-27.307l-377.173-334.507c-8.533-6.827-20.48-6.827-27.307 1.707l-117.76 124.587-274.773-221.867c-3.413-3.413-8.533-5.12-13.653-5.12zM875.52 753.493c-1.707 0-3.413 0-5.12 0-10.24 1.707-17.067 13.653-15.36 23.893l29.013 126.293h-112.64c-10.24 0-20.48 8.533-20.48 20.48s11.947 18.773 22.187 18.773h138.24c6.827 0 11.947-3.413 15.36-6.827s5.12-10.24 3.413-17.067l-34.133-150.187c-3.413-10.24-11.947-15.36-20.48-15.36z" />
<glyph unicode="&#xe90d;" d="M628.736 275.968h-178.176v-145.408l-126.976 145.408h-233.472c-24.576 0-43.008 20.48-43.008 43.008v364.544c0 24.576 20.48 43.008 43.008 43.008h538.624c24.576 0 43.008-20.48 43.008-43.008v-362.496c0-24.576-20.48-45.056-43.008-45.056z" />
<glyph unicode="&#xe90e;" d="M507.904 179.712h92.16v-129.024l114.688 133.12h133.12c24.576 0 43.008 20.48 43.008 43.008v327.68c0 24.576-20.48 43.008-43.008 43.008h-118.784l2.048-276.48c0 0-2.048-43.008-43.008-43.008s-178.176 0-178.176 0l-2.048-98.304z" />
<glyph unicode="&#xe90f;" d="M509.952 118.272c-4.096 0-6.144 2.048-10.24 4.096l-122.88 141.312h-225.28c-30.72 0-55.296 24.576-55.296 55.296v364.544c0 30.72 24.576 55.296 55.296 55.296h538.624c30.72 0 55.296-24.576 55.296-55.296v-362.496c0-30.72-24.576-55.296-55.296-55.296h-165.888v-133.12c0-4.096-4.096-10.24-8.192-12.288-4.096 0-4.096-2.048-6.144-2.048zM151.552 716.288c-16.384 0-30.72-14.336-30.72-30.72v-362.496c0-16.384 14.336-30.72 30.72-30.72h231.424c4.096 0 6.144-2.048 10.24-4.096l106.496-120.832v112.64c0 6.144 6.144 12.288 12.288 12.288h178.176c16.384 0 30.72 14.336 30.72 30.72v360.448c0 16.384-14.336 30.72-30.72 30.72h-538.624z" />
<glyph unicode="&#xe910;" d="M525.653 574.293l-23.893 10.24 168.96 375.467h29.013z" />
<glyph unicode="&#xe911;" d="M146.773 960l264.533-583.68h122.88l-266.24 583.68z" />
<glyph unicode="&#xe912;" d="M882.347 960l-264.533-583.68h-124.587l266.24 583.68z" />
<glyph unicode="&#xe913;" d="M781.653 203.947c0-147.983-119.964-267.947-267.947-267.947s-267.947 119.964-267.947 267.947c0 147.983 119.964 267.947 267.947 267.947s267.947-119.964 267.947-267.947z" />
<glyph unicode="&#xe914;" d="M513.707-31.573c-129.707 0-235.52 105.813-235.52 235.52s105.813 235.52 235.52 235.52c129.707 0 235.52-105.813 235.52-235.52s-105.813-235.52-235.52-235.52zM513.707 429.227c-124.587 0-225.28-100.693-225.28-225.28s100.693-225.28 225.28-225.28c124.587 0 225.28 100.693 225.28 225.28s-100.693 225.28-225.28 225.28z" />
<glyph unicode="&#xe915;" d="M476.16 157.867c0-11.947 1.707-20.48 5.12-27.307 6.827-13.653 18.773-20.48 37.547-20.48 10.24 0 20.48 3.413 29.013 11.947 8.533 6.827 11.947 18.773 11.947 32.427 0 18.773-6.827 30.72-22.187 37.547-8.533 3.413-22.187 5.12-40.96 5.12v39.253c18.773 0 30.72 1.707 37.547 5.12 11.947 5.12 18.773 17.067 18.773 32.427 0 10.24-3.413 18.773-10.24 25.6-5.12 8.533-13.653 11.947-25.6 11.947-13.653 0-22.187-3.413-29.013-11.947s-8.533-18.773-8.533-34.133h-51.2c0 13.653 3.413 27.307 6.827 39.253 5.12 10.24 11.947 20.48 22.187 30.72 6.827 6.827 15.36 11.947 25.6 15.36s22.187 5.12 37.547 5.12c27.307 0 49.493-6.827 64.853-20.48 17.067-13.653 25.6-32.427 25.6-56.32 0-17.067-5.12-30.72-15.36-42.667-6.827-6.827-11.947-11.947-18.773-15.36 5.12 0 11.947-5.12 22.187-13.653 13.653-13.653 20.48-30.72 20.48-54.613s-8.533-44.373-25.6-63.147c-17.067-18.773-40.96-27.307-73.387-27.307-39.253 0-68.267 13.653-83.627 39.253-8.533 13.653-11.947 32.427-13.653 54.613h52.907z" />
<glyph unicode="&#xe916;" glyph-name="home" d="M610.987-57.173c-10.24 0-18.773 8.533-18.773 18.773v307.2h-148.48v-307.2c0-10.24-8.533-18.773-18.773-18.773s-18.773 8.533-18.773 18.773v327.68c0 10.24 8.533 18.773 18.773 18.773h187.733c10.24 0 18.773-8.533 18.773-18.773v-325.973c-1.707-11.947-10.24-20.48-20.48-20.48zM880.64-57.173h-730.453c-10.24 0-18.773 8.533-18.773 18.773v416.427h-85.333c-18.773 0-35.84 10.24-42.667 29.013-6.827 17.067-3.413 37.547 8.533 51.2l445.44 467.627c17.067 17.067 39.253 27.307 63.147 27.307v0c23.893 0 46.080-10.24 63.147-27.307l133.12-145.067v64.853c0 27.307 22.187 49.493 49.493 49.493h54.613c27.307 0 49.493-22.187 49.493-49.493v-233.813l141.653-153.6c11.947-13.653 15.36-32.427 8.533-51.2-6.827-17.067-23.893-27.307-42.667-27.307h-76.8v-416.427c0-11.947-8.533-20.48-20.48-20.48zM168.96-17.92h692.907v416.427c0 10.24 8.533 18.773 18.773 18.773h95.573c5.12 0 6.827 3.413 6.827 5.12s1.707 5.12-1.707 8.533l-145.067 160.427c-3.413 3.413-5.12 8.533-5.12 13.653v240.64c0 6.827-5.12 11.947-11.947 11.947h-54.613c-6.827 0-11.947-5.12-11.947-11.947v-116.053c0-8.533-5.12-15.36-11.947-18.773s-15.36-1.707-20.48 5.12l-165.547 182.613c-8.533 10.24-22.187 15.36-34.133 15.36v0c-13.653 0-25.6-5.12-34.133-15.36l-445.44-467.627c-3.413-3.413-1.707-6.827-1.707-8.533s3.413-5.12 6.827-5.12h104.107c10.24 0 18.773-8.533 18.773-18.773 0 0 0-416.427 0-416.427z" />
<glyph unicode="&#xe917;" glyph-name="article" d="M860.16-58.88h-696.32c-42.667 0-76.8 34.133-76.8 76.8v856.747c0 42.667 34.133 76.8 76.8 76.8h518.827l256-259.413v-674.133c-1.707-40.96-35.84-76.8-78.507-76.8zM163.84 912.213c-20.48 0-37.547-17.067-37.547-37.547v-855.040c0-20.48 17.067-37.547 37.547-37.547h698.027c20.48 0 37.547 17.067 37.547 37.547v657.067l-233.813 235.52h-501.76zM921.6 664.747h-201.387c-35.84 0-66.56 29.013-66.56 66.56v201.387h39.253v-201.387c0-15.36 11.947-27.307 27.307-27.307h201.387v-39.253zM530.773 733.013h-278.187c-10.24 0-18.773 8.533-18.773 18.773s8.533 18.773 18.773 18.773h278.187c10.24 0 18.773-8.533 18.773-18.773s-6.827-18.773-18.773-18.773zM530.773 123.733h-278.187c-10.24 0-18.773 8.533-18.773 18.773s8.533 18.773 18.773 18.773h278.187c10.24 0 18.773-8.533 18.773-18.773s-6.827-18.773-18.773-18.773zM771.413 529.92h-518.827c-10.24 0-18.773 8.533-18.773 18.773s8.533 18.773 18.773 18.773h517.12c10.24 0 18.773-8.533 18.773-18.773 1.707-10.24-6.827-18.773-17.067-18.773zM771.413 326.827h-518.827c-10.24 0-18.773 8.533-18.773 18.773s8.533 18.773 18.773 18.773h517.12c10.24 0 18.773-8.533 18.773-18.773 1.707-10.24-6.827-18.773-17.067-18.773zM720.213 52.053c-44.373 0-81.92 37.547-81.92 81.92s37.547 81.92 81.92 81.92 81.92-37.547 81.92-81.92-37.547-81.92-81.92-81.92zM720.213 178.347c-23.893 0-42.667-18.773-42.667-42.667s18.773-42.667 42.667-42.667 42.667 18.773 42.667 42.667c0 22.187-18.773 42.667-42.667 42.667z" />
<glyph unicode="&#xe918;" d="M602.453 362.667h-273.067c-5.12 0-10.24 3.413-11.947 8.533l-257.707 588.8h29.013l249.173-570.027h244.053l-256 570.027h29.013l259.413-578.56c1.707-3.413 1.707-8.533-1.707-11.947-1.707-3.413-5.12-6.827-10.24-6.827z" />
<glyph unicode="&#xe919;" glyph-name="uniE918" d="M512 896l-448-896h896z" />
<glyph unicode="&#xe91a;" glyph-name="uniE919" d="M512 742.4l332.8-678.4h-678.4l345.6 678.4zM512 896l-448-896h896l-448 896z" />
<glyph unicode="&#xe91b;" glyph-name="trash" d="M959.36 741.792c-3.072 50.24-44.384 90.112-95.36 90.112h-96v32.064c0 53.024-43.008 96-96 96h-320c-53.024 0-96-42.976-96-96v-32.032h-96c-51.040 0-92.32-39.872-95.392-90.112h-0.608v-69.856c0-35.328 28.672-64 64-64v0-544c0-70.688 57.312-128 128-128h512c70.688 0 128 57.312 128 128v544c35.328 0 64 28.672 64 64v69.824h-0.64zM320 863.936c0 17.696 14.304 32 32 32h320c17.696 0 32-14.304 32-32v-32h-384v32zM832 63.936c0-35.264-28.736-64-64-64h-512c-35.296 0-64 28.736-64 64v544h640v-544zM896 703.968v-32h-768v63.968c0 17.696 14.304 32 32 32h704c17.696 0 32-14.304 32-32v-31.968zM288 63.808h64c17.696 0 32 14.304 32 32v416c0 17.696-14.304 32-32 32h-64c-17.696 0-32-14.304-32-32v-416c0-17.696 14.304-32 32-32zM288 511.84h64v-416h-64v416zM480 63.808h64c17.696 0 32 14.304 32 32v416c0 17.696-14.304 32-32 32h-64c-17.696 0-32-14.304-32-32v-416c0-17.696 14.304-32 32-32zM480 511.84h64v-416h-64v416zM672 63.808h64c17.696 0 32 14.304 32 32v416c0 17.696-14.304 32-32 32h-64c-17.696 0-32-14.304-32-32v-416c0-17.696 14.304-32 32-32zM672 511.84h64v-416h-64v416z" />
<glyph unicode="&#xe91c;" glyph-name="edit" d="M864 960c88.364 0 160-71.634 160-160 0-36.020-11.91-69.258-32-96l-64-64-224 224 64 64c26.742 20.090 59.978 32 96 32zM64 224l-64-288 288 64 592 592-224 224-592-592zM715.578 596.422l-448-448-55.156 55.156 448 448 55.156-55.156z" />
<glyph unicode="&#xe91d;" glyph-name="image" d="M959.884 832c0.040-0.034 0.082-0.076 0.116-0.116v-767.77c-0.034-0.040-0.076-0.082-0.116-0.116h-895.77c-0.040 0.034-0.082 0.076-0.114 0.116v767.772c0.034 0.040 0.076 0.082 0.114 0.114h895.77zM960 896h-896c-35.2 0-64-28.8-64-64v-768c0-35.2 28.8-64 64-64h896c35.2 0 64 28.8 64 64v768c0 35.2-28.8 64-64 64v0zM832 672c0-53.020-42.98-96-96-96s-96 42.98-96 96 42.98 96 96 96 96-42.98 96-96zM896 128h-768v128l224 384 256-320h64l224 192z" />
<glyph unicode="&#xe91e;" glyph-name="star-empty" d="M775.936 66.56c-3.584 0-7.219 0.973-10.394 3.021l-262.656 165.734-262.656-165.734c-7.322-4.557-16.691-3.891-23.142 1.741-6.451 5.581-8.55 14.797-5.069 22.682l111.565 251.085-224.614 224.563c-5.581 5.581-7.219 13.978-4.25 21.248 3.021 7.27 10.138 12.032 18.022 12.032h222.618l150.477 269.568c6.861 12.339 27.187 12.339 34.048 0l150.477-269.568h222.566c7.885 0 15.002-4.762 18.022-12.032s1.331-15.667-4.25-21.248l-224.563-224.614 111.565-251.085c3.482-7.834 1.434-17.050-5.069-22.682-3.635-3.072-8.141-4.71-12.698-4.71zM502.835 277.862c3.635 0 7.219-1.024 10.394-3.021l218.726-138.035-90.931 204.646c-3.277 7.373-1.69 15.974 4.045 21.709l200.755 200.755h-186.982c-7.066 0-13.619 3.84-17.050 9.984l-138.957 249.088-139.008-249.037c-3.43-6.195-9.933-9.984-16.998-9.984h-186.982l200.755-200.755c5.734-5.734 7.322-14.336 4.045-21.709l-90.931-204.646 218.726 138.035c3.174 1.946 6.81 2.97 10.394 2.97z" />
<glyph unicode="&#xe91f;" glyph-name="file-text2" d="M917.806 730.924c-22.212 30.292-53.174 65.7-87.178 99.704s-69.412 64.964-99.704 87.178c-51.574 37.82-76.592 42.194-90.924 42.194h-496c-44.112 0-80-35.888-80-80v-864c0-44.112 35.888-80 80-80h736c44.112 0 80 35.888 80 80v624c0 14.332-4.372 39.35-42.194 90.924zM785.374 785.374c30.7-30.7 54.8-58.398 72.58-81.374h-153.954v153.946c22.984-17.78 50.678-41.878 81.374-72.572zM896 16c0-8.672-7.328-16-16-16h-736c-8.672 0-16 7.328-16 16v864c0 8.672 7.328 16 16 16 0 0 495.956 0.002 496 0v-224c0-17.672 14.326-32 32-32h224v-624zM736 128h-448c-17.672 0-32 14.326-32 32s14.328 32 32 32h448c17.674 0 32-14.326 32-32s-14.326-32-32-32zM736 256h-448c-17.672 0-32 14.326-32 32s14.328 32 32 32h448c17.674 0 32-14.326 32-32s-14.326-32-32-32zM736 384h-448c-17.672 0-32 14.326-32 32s14.328 32 32 32h448c17.674 0 32-14.326 32-32s-14.326-32-32-32z" />
<glyph unicode="&#xe920;" glyph-name="non-support" d="M217.6 418.15h51.2v-403.2h-51.2v403.2zM102.4 418.15h51.2v-403.2h-51.2v403.2zM812.8 581.376h-168.141c-6.298 16.23-3.072 69.325-1.024 101.888 4.25 69.376 7.987 129.28-18.893 157.85-9.421 10.138-21.914 15.462-35.942 15.462-66.202 0-86.784-74.65-108.595-153.651-11.571-41.984-23.552-85.35-42.291-122.88-50.125-100.25-108.954-140.032-109.466-140.39-7.27-4.71-11.674-12.8-11.674-21.453v-384c0-14.131 11.469-25.6 25.6-25.6h428.8c59.392 0 150.426 75.52 150.426 140.8v300.749c0 81.306-63.334 131.226-108.8 131.226zM870.4 149.35c0-35.174-65.894-89.6-99.226-89.6h-403.149v345.6c22.272 17.92 72.141 64.614 115.712 151.757 20.992 41.984 34.202 89.907 45.875 132.147 16.486 59.699 32.051 116.122 57.907 116.838 11.776-11.366 7.424-81.818 5.069-119.654-4.506-73.114-6.144-119.091 16.026-142.694 8.346-8.858 19.2-13.568 31.437-13.568h172.8c15.872 0 57.6-24.576 57.6-79.974v-300.851z" />
<glyph unicode="&#xe921;" glyph-name="share-normal" d="M704 258.867c-40.755 0-76.954-18.432-101.888-46.95l-263.731 162.56c6.4 15.77 10.138 32.922 10.138 50.944 0 17.971-3.686 35.021-10.035 50.739l263.475 158.003c24.934-28.621 61.184-47.155 102.093-47.155 74.957 0 135.885 60.979 135.885 135.936s-60.928 135.936-135.885 135.936-135.885-60.979-135.885-135.936c0-15.667 3.174-30.515 8.090-44.544l-265.626-159.232c-24.781 25.907-59.443 42.24-98.048 42.24-74.957 0-135.885-60.979-135.885-135.936 0-74.906 60.928-135.885 135.885-135.885 38.451 0 73.062 16.23 97.843 41.984l265.83-163.891c-4.966-14.080-8.192-28.979-8.192-44.749 0-74.957 60.928-135.936 135.885-135.936s135.885 60.979 135.885 135.936-60.877 135.936-135.834 135.936zM704 807.731c46.694 0 84.685-37.99 84.685-84.736s-37.99-84.736-84.685-84.736-84.685 37.99-84.685 84.736 37.99 84.736 84.685 84.736zM212.582 340.787c-46.694 0-84.685 37.99-84.685 84.685 0 46.746 37.99 84.736 84.685 84.736s84.685-37.99 84.685-84.736c0.051-46.694-37.99-84.685-84.685-84.685zM704 38.246c-46.694 0-84.685 37.99-84.685 84.736s37.99 84.736 84.685 84.736 84.685-37.99 84.685-84.736-37.99-84.736-84.685-84.736z" />
<glyph unicode="&#xe922;" glyph-name="star-solid" d="M775.936 33.69c-3.584 0-7.219 0.973-10.394 3.021l-262.656 165.734-262.656-165.734c-7.322-4.557-16.691-3.891-23.142 1.741-6.554 5.581-8.602 14.797-5.12 22.682l111.565 251.085-224.563 224.563c-5.581 5.581-7.219 13.926-4.25 21.248 3.021 7.27 10.138 12.032 18.022 12.032h222.618l150.477 269.568c6.861 12.339 27.187 12.339 34.048 0l150.477-269.568h222.566c7.885 0 15.002-4.762 18.022-12.032s1.331-15.667-4.25-21.248l-224.563-224.614 111.565-251.085c3.482-7.834 1.434-17.050-5.069-22.682-3.635-3.123-8.141-4.71-12.698-4.71z" />
<glyph unicode="&#xe923;" glyph-name="supported" d="M249.6 433.613h51.2v-403.2h-51.2v403.2zM134.4 433.613h51.2v-403.2h-51.2v403.2zM844.8 596.787h-168.141c-6.298 16.23-3.072 69.325-1.024 101.888 4.25 69.376 7.987 129.28-18.893 157.85-9.472 10.086-21.914 15.411-35.942 15.411-66.202 0-86.784-74.65-108.595-153.651-11.571-41.984-23.552-85.35-42.291-122.88-50.125-100.198-108.954-139.981-109.466-140.339-7.27-4.71-11.674-12.8-11.674-21.453v-384c0-14.131 11.469-25.6 25.6-25.6h428.8c59.392 0 150.426 75.52 150.426 140.8v300.8c0 81.254-63.334 131.174-108.8 131.174z" />
<glyph unicode="&#xe924;" glyph-name="file-picture" d="M832 64h-640v128l192 320 263-320 185 128v-256zM832 480c0-53.020-42.98-96-96-96-53.022 0-96 42.98-96 96s42.978 96 96 96c53.020 0 96-42.98 96-96zM917.806 730.924c-22.212 30.292-53.174 65.7-87.178 99.704s-69.412 64.964-99.704 87.178c-51.574 37.82-76.592 42.194-90.924 42.194h-496c-44.112 0-80-35.888-80-80v-864c0-44.112 35.888-80 80-80h736c44.112 0 80 35.888 80 80v624c0 14.332-4.372 39.35-42.194 90.924zM785.374 785.374c30.7-30.7 54.8-58.398 72.58-81.374h-153.954v153.946c22.984-17.78 50.678-41.878 81.374-72.572zM896 16c0-8.672-7.328-16-16-16h-736c-8.672 0-16 7.328-16 16v864c0 8.672 7.328 16 16 16 0 0 495.956 0.002 496 0v-224c0-17.672 14.326-32 32-32h224v-624z" />
<glyph unicode="&#xe925;" glyph-name="share-hover" d="M704 277.197c-40.755 0-76.954-18.432-101.888-46.95l-263.731 162.56c6.4 15.77 10.138 32.922 10.138 50.944 0 17.971-3.686 35.021-10.035 50.739l263.475 158.003c24.934-28.621 61.184-47.155 102.093-47.155 74.957 0 135.885 60.979 135.885 135.936s-60.928 135.936-135.885 135.936-135.885-60.979-135.885-135.936c0-15.667 3.174-30.515 8.090-44.544l-265.626-159.232c-24.781 25.907-59.443 42.189-98.048 42.189-74.957 0-135.885-60.979-135.885-135.936 0-74.906 60.928-135.885 135.885-135.885 38.451 0 73.062 16.23 97.843 41.984l265.83-163.891c-4.966-14.080-8.192-28.979-8.192-44.749 0-74.957 60.928-135.936 135.885-135.936s135.885 60.979 135.885 135.936-60.877 135.987-135.834 135.987z" />
<glyph unicode="&#xe926;" glyph-name="file-picture2" d="M832 64h-640v128l192 320 263-320 185 128v-256zM832 480c0-53.020-42.98-96-96-96-53.022 0-96 42.98-96 96s42.978 96 96 96c53.020 0 96-42.98 96-96zM917.806 730.924c-22.212 30.292-53.174 65.7-87.178 99.704s-69.412 64.964-99.704 87.178c-51.574 37.82-76.592 42.194-90.924 42.194h-496c-44.112 0-80-35.888-80-80v-864c0-44.112 35.888-80 80-80h736c44.112 0 80 35.888 80 80v624c0 14.332-4.372 39.35-42.194 90.924zM785.374 785.374c30.7-30.7 54.8-58.398 72.58-81.374h-153.954v153.946c22.984-17.78 50.678-41.878 81.374-72.572zM896 16c0-8.672-7.328-16-16-16h-736c-8.672 0-16 7.328-16 16v864c0 8.672 7.328 16 16 16 0 0 495.956 0.002 496 0v-224c0-17.672 14.326-32 32-32h224v-624z" />
<glyph unicode="&#xe927;" glyph-name="cancel-circle" d="M512 960c-282.77 0-512-229.23-512-512s229.23-512 512-512 512 229.23 512 512-229.23 512-512 512zM512 32c-229.75 0-416 186.25-416 416s186.25 416 416 416 416-186.25 416-416-186.25-416-416-416zM672 704l-160-160-160 160-96-96 160-160-160-160 96-96 160 160 160-160 96 96-160 160 160 160z" />
<glyph unicode="&#xe928;" glyph-name="del" d="M879.309 779.655l-52.138 52.137-314.99-314.99-312.83 312.832-52.499-52.5 312.83-312.83-314.99-314.99 52.139-52.137 314.989 314.989 312.832-312.831 52.497 52.497-312.831 312.832z" />
<glyph unicode="&#xe929;" glyph-name="select" d="M900.091 741.332c-14.992 14.993-39.281 14.993-54.272 0l-471.899-471.823-164.695 164.697c-14.993 14.991-39.281 14.991-54.274 0s-14.993-39.281 0-54.273l191.832-191.833c7.497-7.497 17.317-11.245 27.137-11.245 9.821 0 19.641 3.747 27.138 11.242l499.033 498.962c14.992 14.992 14.992 39.28 0 54.273z" />
<glyph unicode="&#xe92a;" glyph-name="hezi" horiz-adv-x="1247" d="M507.181 423.906l-352.376 154.202 120.471 17.468 355.388-143.36-123.482-28.311zM967.981 529.318l-4.819-1.205-328.885-76.499 131.915-31.925 343.341 75.896-141.553 33.732zM567.416 629.911v0 0 0zM567.416 629.911l395.144-99.991 96.376 59.633-396.348 98.786-95.172-58.428zM568.019 629.911l-60.235 70.475-289.732-35.539 57.224-69.271 292.744 34.334zM507.181 411.256l-221.064 96.376 21.082-177.092 310.212-192.151 11.445 299.369-121.675-26.504zM760.772 407.040l-129.506 31.322-11.445-298.767 287.925 104.809 39.755 204.198-3.614-0.602-183.115-40.96zM556.574 476.913h1.807l10.842 152.998h-1.807l-10.842-152.998z" />
<glyph unicode="&#xe92b;" glyph-name="play2" d="M512 960c-282.77 0-512-229.23-512-512s229.23-512 512-512 512 229.23 512 512-229.23 512-512 512zM512 32c-229.75 0-416 186.25-416 416s186.25 416 416 416 416-186.25 416-416-186.25-416-416-416zM384 672l384-224-384-224z" />
<glyph unicode="&#xe92c;" glyph-name="circle-up" d="M0 448c0-282.77 229.23-512 512-512s512 229.23 512 512-229.23 512-512 512-512-229.23-512-512zM928 448c0-229.75-186.25-416-416-416s-416 186.25-416 416 186.25 416 416 416 416-186.25 416-416zM706.744 290.744l90.512 90.512-285.256 285.254-285.254-285.256 90.508-90.508 194.746 194.744z" />
<glyph unicode="&#xe92d;" glyph-name="circle-right" d="M512 960c-282.77 0-512-229.23-512-512s229.23-512 512-512 512 229.23 512 512-229.23 512-512 512zM512 32c-229.75 0-416 186.25-416 416s186.25 416 416 416 416-186.25 416-416-186.25-416-416-416zM354.744 253.256l90.512-90.512 285.254 285.256-285.256 285.254-90.508-90.508 194.744-194.746z" />
<glyph unicode="&#xe92e;" glyph-name="circle-down" d="M1024 448c0 282.77-229.23 512-512 512s-512-229.23-512-512 229.23-512 512-512 512 229.23 512 512zM96 448c0 229.75 186.25 416 416 416s416-186.25 416-416-186.25-416-416-416-416 186.25-416 416zM317.256 605.256l-90.512-90.512 285.256-285.254 285.254 285.256-90.508 90.508-194.746-194.744z" />
<glyph unicode="&#xe92f;" glyph-name="circle-left" d="M512-64c282.77 0 512 229.23 512 512s-229.23 512-512 512-512-229.23-512-512 229.23-512 512-512zM512 864c229.75 0 416-186.25 416-416s-186.25-416-416-416-416 186.25-416 416 186.25 416 416 416zM669.256 642.744l-90.512 90.512-285.254-285.256 285.256-285.254 90.508 90.508-194.744 194.746z" />
<glyph unicode="&#xe930;" glyph-name="alike" d="M864 32c0-17.696-14.304-32-32-32s-32 14.304-32 32v320c0 17.664 14.304 32 32 32s32-14.336 32-32v-320zM864 448h-64c-35.328 0-64-28.672-64-64v-384c0-35.328 28.672-64 64-64h64c35.328 0 64 28.672 64 64v384c0 35.328-28.672 64-64 64v0zM224 32c0-17.696-14.304-32-32-32s-32 14.304-32 32v544c0 17.664 14.304 32 32 32s32-14.336 32-32v-544zM224 672h-64c-35.328 0-64-28.672-64-64v-608c0-35.328 28.672-64 64-64h64c35.328 0 64 28.672 64 64v608c0 35.328-28.672 64-64 64v0zM544 32c0-17.696-14.304-32-32-32s-32 14.304-32 32v832c0 17.696 14.304 32 32 32s32-14.304 32-32v-832zM544 960h-64c-35.328 0-64-28.672-64-64v-896c0-35.328 28.672-64 64-64h64c35.328 0 64 28.672 64 64v896c0 35.328-28.672 64-64 64v0z" />
<glyph unicode="&#xe931;" glyph-name="android" d="M899.459 268.108c-34.733 0-55.351 20.397-55.351 55.351v249.081c0 34.982 20.618 55.351 55.351 55.351 34.705 0 55.407-15.692 55.407-50.674v-248.417c0-34.954-20.701-60.693-55.407-60.693zM733.405 129.73h-55.351v-138.378c0-34.954-20.618-55.047-55.351-55.351-34.484-0.277-55.268 19.899-56.486 56.375-4.096 5.175 1.135 137.354 1.135 137.354h-110.703v-138.378c0-34.954-21.2-55.711-55.933-55.711s-54.77 20.757-54.77 55.711v138.378h-55.351c-27.067 0-55.351 28.478-55.351 55.351v442.811h553.514v-442.811c0-26.873-28.285-55.351-55.351-55.351zM378.659 871.106l-51.726 74.392c-3.017 4.373-2.242 10.212 1.744 12.925 4.013 2.768 9.742 1.384 12.842-3.017l59.779-78.433c35.342 13.838 68.553 22.722 109.983 22.722 41.403 0 76.080-8.884 111.422-22.722l58.368 78.433c3.072 4.4 8.801 5.784 12.814 3.017 3.985-2.712 4.76-8.552 1.716-12.925l-51.726-74.392c82.197-37.86 137.548-103.867 144.882-187.862h-553.514c7.334 83.996 61.219 150.002 143.415 187.862zM622.703 766.27c17.242 0 27.676 12.426 27.676 27.676 0 15.277-10.434 27.676-27.676 27.676-17.214 0-27.676-12.399-27.676-27.676 0-15.249 10.461-27.676 27.676-27.676zM401.297 766.27c17.242 0 27.676 12.426 27.676 27.676 0 15.277-10.434 27.676-27.676 27.676-17.214 0-27.759-12.62-27.759-27.897 0-15.249 10.544-27.454 27.759-27.454zM649.465 976.91l0.166-0.083c-0.055-0.028-0.083-0.055-0.138-0.055l-0.028 0.138zM124.541 268.108c-34.705 0-55.407 25.24-55.407 60.167v247.338c0 34.954 20.701 52.279 55.407 52.279 34.733 0 55.351-20.369 55.351-55.351v-249.081c0-34.954-20.618-55.351-55.351-55.351z" />
<glyph unicode="&#xe932;" glyph-name="apple" d="M688.765-62.229c-53.248 0-107.935 39.272-166.746 39.272-67.28 0-123.323-43.506-170.953-43.506-65.84 0-124.707 57.51-172.336 145.878-65.868 120.666-95.315 259.57-95.315 349.322 0 169.763 144.356 300.226 290.069 300.226 70.047 0 96.699-54.687 161.155-54.687 81.283 0 130.269 57.51 189.136 57.51 84.079 0 138.738-50.508 179.366-101.016l-2.795-1.411c-61.689-43.478-95.287-110.813-95.287-188.001 0-95.37 44.862-161.294 127.53-206.211v-7.002c0-4.179 1.411-8.413 1.411-14.032 0-110.813-117.732-276.342-245.234-276.342zM531.705 692.459v5.618c-2.768 15.388-4.207 29.419-4.207 40.656 0 119.227 86.874 195.030 183.573 221.654l1.411-5.618c1.384-14.004 2.795-26.652 2.795-36.477 0-124.873-88.285-196.387-183.573-225.834z" />
<glyph unicode="&#xe933;" glyph-name="down" d="M1013.76 693.76c-13.653 13.653-37.547 13.653-51.2 0l-450.56-443.733-447.147 443.733c-13.653 13.653-37.547 13.653-51.2 0s-13.653-37.547 0-51.2l467.627-464.213c6.827-6.827 20.48-10.24 30.72-10.24s23.893 0 30.72 10.24l471.040 464.213c13.653 13.653 13.653 37.547 0 51.2z" />
<glyph unicode="&#xe934;" glyph-name="empty-heart" d="M896 506.176l-384-458.176-384 460.064c-45.92 63.808-64 106.912-64 165.92 0 110.048 78.56 209.088 192 210.016 93.312 0.768 199.104-94.528 256-166.368 55.392 69.312 162.688 166.368 256 166.368 110.432 0 192-99.968 192-210.016 0-59.008-14.304-105.312-64-167.808v0zM768 944c-106.656 0-187.36-62.592-256-128-65.376 69.408-149.344 128-256 128-150.208 0-256-129.152-256-270.016 0-75.552 30.944-129.952 64.832-181.088l397.856-476.992c44.64-47.264 53.088-47.264 97.728 0l398.752 476.992c39.872 51.136 64.832 105.536 64.832 181.088 0 140.864-105.792 270.016-256 270.016v0z" />
<glyph unicode="&#xe935;" glyph-name="entity-heart" d="M768 931.2c-105.6 0-188.8-64-256-128-64 70.4-150.4 128-256 128-150.4 0-256-128-256-268.8 0-76.8 32-131.2 64-182.4l396.8-476.8c44.8-48 54.4-48 99.2 0l400 476.8c38.4 51.2 64 105.6 64 182.4 0 137.6-105.6 268.8-256 268.8v0z" />
<glyph unicode="&#xe936;" glyph-name="future" d="M832 416h64v64h-64v-64zM512 0c-247.424 0-448 200.576-448 448 0 247.392 200.576 448 448 448s448-200.608 448-448c0-247.424-200.576-448-448-448v0zM512 960c-282.784 0-512-229.248-512-512 0-282.784 229.216-512 512-512s512 229.216 512 512c0 282.752-229.216 512-512 512v0zM706.432 695.264l44.288-44.384 44.288 44.384-44.288 44.352-44.288-44.352zM697.056 231.104l45.248-45.248 45.248 45.248-45.248 45.248-45.248-45.248zM512 832c-17.664 0-32-14.304-32-32v-320.736h-256c-17.696 0-32-14.368-32-32.032s14.304-31.968 32-31.968h288c17.696 0 32 14.304 32 31.968v352.768c0 17.696-14.304 32-32 32v0zM310.144 693.664l-45.248 45.248-45.248-45.248 45.248-45.248 45.248 45.248zM215.456 229.376l44.288-44.384 44.288 44.384-44.288 44.384-44.288-44.384zM480 64h64v64h-64v-64z" />
<glyph unicode="&#xe937;" glyph-name="invested-manage" d="M927.744 562.688h-43.008c-8.192 22.528-18.432 47.104-28.672 67.584l30.72 30.72c36.864 36.864 36.864 92.16 0 126.976l-32.768 32.768c-18.432 18.432-38.912 26.624-65.536 26.624v0c-22.528 0-47.104-10.24-65.536-26.624l-30.72-30.72c-20.48 10.24-43.008 20.48-67.584 28.672v43.008c0 49.152-40.96 90.112-90.112 90.112h-47.104c-49.152 0-90.112-40.96-90.112-90.112v-43.008c-22.528-8.192-47.104-18.432-67.584-28.672l-30.72 30.72c-36.864 36.864-92.16 36.864-129.024 0l-32.768-32.768c-36.864-36.864-36.864-92.16 0-126.976l30.72-30.72c-10.24-20.48-20.48-43.008-28.672-67.584h-43.008c-49.152 0-90.112-40.96-90.112-90.112v-47.104c0-49.152 40.96-90.112 90.112-90.112h43.008c8.192-22.528 18.432-47.104 28.672-67.584l-30.72-30.72c-36.864-36.864-36.864-92.16 0-126.976l32.768-32.768c18.432-18.432 38.912-26.624 65.536-26.624v0c22.528 0 47.104 10.24 65.536 26.624l30.72 30.72c20.48-10.24 43.008-20.48 67.584-28.672v-43.008c0-49.152 40.96-90.112 90.112-90.112h47.104c49.152 0 90.112 40.96 90.112 90.112v40.96c22.528 8.192 47.104 18.432 67.584 28.672l30.72-30.72c18.432-18.432 38.912-26.624 65.536-26.624 22.528 0 47.104 10.24 65.536 26.624l32.768 32.768c36.864 36.864 36.864 92.16 0 126.976l-30.72 30.72c10.24 20.48 20.48 43.008 28.672 67.584h43.008c49.152 0 90.112 40.96 90.112 90.112v47.104c0 49.152-43.008 92.16-92.16 92.16zM514.048 241.152c-114.688 0-206.848 92.16-206.848 206.848s92.16 206.848 206.848 206.848c114.688 0 206.848-92.16 206.848-206.848s-92.16-206.848-206.848-206.848z" />
<glyph unicode="&#xe938;" glyph-name="lamp" d="M512 960c-194.432 0-352-157.568-352-352 0-128.992 118.016-265.696 160.992-385.76 64.096-179.040 56.992-286.24 191.008-286.24 136 0 126.88 106.688 191.008 285.504 43.104 120.32 160.992 258.496 160.992 386.496 0 194.432-157.632 352-352 352zM594.944 90.368l-158.656-19.808c-5.664 16.384-11.744 35.552-19.136 60.576-0.096 0.32-0.224 0.672-0.288 0.992l198.016 24.736c-2.816-9.44-5.824-19.36-8.448-28.256-4.192-14.368-7.936-26.848-11.488-38.24zM407.552 162.944c-5.824 19.264-12.384 39.552-19.68 61.056h248.512c-3.936-11.488-7.872-23.008-11.264-33.888l-217.568-27.168zM512 0c-32.416 0-47.328 3.744-63.904 40l135.616 16.992c-19.648-52.928-33.952-56.992-71.712-56.992zM661.504 288h-298.656c-15.936 34.56-35.072 69.12-53.952 102.944-41.76 74.72-84.896 152-84.896 217.056 0 158.816 129.184 288 288 288s288-129.184 288-288c0-64.576-43.2-142.272-84.992-217.44-18.688-33.696-37.696-68.192-53.504-102.56zM512 800c8.8 0 16-7.168 16-16s-7.168-16-16-16c-88.224 0-160-71.776-160-160 0-8.832-7.168-16-16-16s-16 7.168-16 16c0 105.888 86.112 192 192 192z" />
<glyph unicode="&#xe939;" glyph-name="left" d="M327.68 448l443.733 447.147c13.653 13.653 13.653 37.547 0 51.2s-37.547 13.653-51.2 0l-464.213-467.627c-6.827-6.827-10.24-20.48-10.24-30.72s0-23.893 10.24-30.72l464.213-467.627c13.653-13.653 37.547-13.653 51.2 0s13.653 37.547 0 51.2l-443.733 447.147z" />
<glyph unicode="&#xe93a;" glyph-name="message" d="M960 960h-704c-35.376 0-64-28.624-64-64v-96h-128c-35.376 0-64-28.624-64-64v-480c0-35.376 28.624-64 64-64h112c8.848 0 16-7.152 16-16v-176c0-25.872 15.568-49.248 39.504-59.12 7.936-3.312 16.24-4.88 24.496-4.88 16.624 0 32.992 6.496 45.248 18.752l226.496 226.496c0 0 8.256 10.752 26.752 10.752s245.504 0 245.504 0c35.376 0 64 28.624 64 64v128h96c35.376 0 64 28.624 64 64v448c0 35.376-28.624 64-64 64zM832 256c0-17.68-14.32-32-32-32 0 0-234.992 0-245.504 0-31.152 0-42.496-16-42.496-16s-192-192-224-224c-34.256-34.256-64-6.256-64 16 0 16 0 192 0 192 0 17.68-14.32 32-32 32h-128c-17.68 0-32 14.32-32 32v480c0 17.68 14.32 32 32 32h736c17.68 0 32-14.32 32-32v-480zM992 448c0-17.68-14.32-32-32-32h-96v320c0 35.376-28.624 64-64 64h-576v96c0 17.68 14.32 32 32 32h704c17.68 0 32-14.32 32-32v-448zM208 576h208c8.848 0 16 7.152 16 16s-7.152 16-16 16h-208c-8.848 0-16-7.152-16-16s7.152-16 16-16zM656 512h-448c-8.848 0-16-7.152-16-16s7.152-16 16-16h448c8.848 0 16 7.152 16 16s-7.152 16-16 16zM544 416h-336c-8.848 0-16-7.152-16-16s7.152-16 16-16h336c8.848 0 16 7.152 16 16s-7.152 16-16 16z" />
<glyph unicode="&#xe93b;" glyph-name="passive-investor" d="M1024 228.864v-96.256c0-34.816-28.672-63.488-63.488-63.488h-34.816c0 2.048 0 2.048 0 6.144v96.256c0 51.2-32.768 94.208-79.872 106.496l-200.704 61.44c40.96 71.68 63.488 163.84 63.488 251.904 0 157.696-81.92 270.336-210.944 296.96 24.576 10.24 53.248 16.384 81.92 16.384 137.216 0 221.184-98.304 221.184-251.904 0-102.4-34.816-208.896-94.208-278.528l264.192-81.92c34.816-12.288 53.248-36.864 53.248-63.488zM833.536 228.864l-264.192 81.92c55.296 69.632 94.208 176.128 94.208 278.528 0 151.552-88.064 251.904-221.184 251.904-137.216 0-221.184-98.304-221.184-251.904 0-102.4 34.816-208.896 94.208-278.528l-264.192-81.92c-26.624-8.192-43.008-32.768-43.008-59.392v-96.256c0-34.816 28.672-63.488 63.488-63.488h753.664c34.816 0 63.488 28.672 63.488 63.488v96.256c-12.288 26.624-30.72 51.2-55.296 59.392z" />
<glyph unicode="&#xe93c;" glyph-name="right" d="M771.413 478.72l-464.213 471.040c-13.653 13.653-37.547 13.653-51.2 0-17.067-17.067-17.067-40.96 0-54.613l443.733-447.147-443.733-447.147c-13.653-13.653-13.653-37.547 0-51.2s37.547-13.653 51.2 0l464.213 467.627c6.827 6.827 10.24 20.48 10.24 30.72s-3.413 23.893-10.24 30.72z" />
<glyph unicode="&#xe93d;" glyph-name="pdf" d="M842.012 370.52c-13.648 13.446-43.914 20.566-89.972 21.172-31.178 0.344-68.702-2.402-108.17-7.928-17.674 10.198-35.892 21.294-50.188 34.658-38.462 35.916-70.568 85.772-90.576 140.594 1.304 5.12 2.414 9.62 3.448 14.212 0 0 21.666 123.060 15.93 164.666-0.79 5.706-1.274 7.362-2.808 11.796l-1.882 4.834c-5.896 13.592-17.448 27.994-35.566 27.208l-10.916 0.344c-20.2 0-36.664-10.332-40.986-25.774-13.138-48.434 0.418-120.892 24.982-214.738l-6.288-15.286c-17.588-42.876-39.63-86.060-59.078-124.158l-2.528-4.952c-20.46-40.038-39.024-74.026-55.854-102.822l-17.376-9.188c-1.264-0.668-31.044-16.418-38.028-20.644-59.256-35.382-98.522-75.54-105.036-107.416-2.072-10.17-0.53-23.186 10.014-29.214l16.806-8.458c7.29-3.652 14.978-5.502 22.854-5.502 42.204 0 91.2 52.572 158.696 170.366 77.93 25.368 166.654 46.456 244.414 58.090 59.258-33.368 132.142-56.546 178.142-56.546 8.168 0 15.212 0.778 20.932 2.296 8.822 2.336 16.258 7.366 20.792 14.192 8.926 13.432 10.734 31.932 8.312 50.876-0.722 5.624-5.212 12.576-10.070 17.322zM211.646 145.952c7.696 21.042 38.16 62.644 83.204 99.556 2.832 2.296 9.808 8.832 16.194 14.902-47.102-75.124-78.646-105.066-99.398-114.458zM478.434 760.314c13.566 0 21.284-34.194 21.924-66.254s-6.858-54.56-16.158-71.208c-7.702 24.648-11.426 63.5-11.426 88.904 0 0-0.566 48.558 5.66 48.558zM398.852 322.506c9.45 16.916 19.282 34.756 29.33 53.678 24.492 46.316 39.958 82.556 51.478 112.346 22.91-41.684 51.444-77.12 84.986-105.512 4.184-3.542 8.618-7.102 13.274-10.65-68.21-13.496-127.164-29.91-179.068-49.862zM828.904 326.348c-4.154-2.598-16.054-4.1-23.708-4.1-24.706 0-55.272 11.294-98.126 29.666 16.468 1.218 31.562 1.838 45.1 1.838 24.782 0 32.12 0.108 56.35-6.072s24.538-18.734 20.384-21.332zM903.432 760.57l-142.864 142.862c-31.112 31.112-92.568 56.568-136.568 56.568h-480c-44 0-80-36-80-80v-864c0-44 36-80 80-80h736c44 0 80 36 80 80v608c0 44-25.456 105.458-56.568 136.57zM858.178 715.314c3.13-3.13 6.25-6.974 9.28-11.314h-163.458v163.456c4.34-3.030 8.184-6.15 11.314-9.28l142.864-142.862zM896 16c0-8.672-7.328-16-16-16h-736c-8.672 0-16 7.328-16 16v864c0 8.672 7.328 16 16 16h480c4.832 0 10.254-0.61 16-1.704v-254.296h254.296c1.094-5.746 1.704-11.166 1.704-16v-608z" />
<glyph unicode="&#xe93e;" glyph-name="up" d="M1013.76 222.72l-494.933 488.107-13.653 10.24-505.173-498.347 37.547-37.547 471.040 464.213 467.627-464.213z" />
<glyph unicode="&#xe93f;" glyph-name="error" d="M512-64c-283.307 0-512 228.693-512 512s228.693 512 512 512 512-228.693 512-512-228.693-512-512-512zM512 919.040c-259.413 0-471.040-211.627-471.040-471.040s211.627-471.040 471.040-471.040c259.413 0 471.040 211.627 471.040 471.040s-211.627 471.040-471.040 471.040zM484.693 768.853v-481.28h54.613v481.28h-54.613zM484.693 127.147h54.613v54.613h-54.613v-54.613z" />
<glyph unicode="&#xe940;" glyph-name="success" d="M771.413 605.013l-30.72 34.133-293.547-314.027-163.84 160.427-30.72-34.133 194.56-194.56zM512-64c-283.307 0-512 228.693-512 512s228.693 512 512 512 512-228.693 512-512-228.693-512-512-512zM512 919.040c-259.413 0-471.040-211.627-471.040-471.040s211.627-471.040 471.040-471.040c259.413 0 471.040 211.627 471.040 471.040s-211.627 471.040-471.040 471.040z" />
<glyph unicode="&#xe941;" glyph-name="n9" horiz-adv-x="580" d="M0 937.813l92.16-93.867v-325.973l-46.080-47.787-46.080 47.787v419.84zM116.053 866.133l-93.867 93.867h535.893l-93.867-93.867h-348.16zM22.187-64l93.867 93.867h348.16l93.867-93.867h-535.893zM116.053 401.92l-46.080 46.080 47.787 46.080h348.16l46.080-46.080-47.787-46.080h-348.16zM489.813 843.947l90.453 93.867v-418.133l-46.080-47.787-46.080 47.787v324.267zM489.813 378.027l46.080 47.787 46.080-47.787v-418.133l-92.16 93.867v324.267z" />
<glyph unicode="&#xe942;" glyph-name="n8" horiz-adv-x="580" d="M0 937.813l92.16-93.867v-325.973l-46.080-47.787-46.080 47.787v419.84zM0 378.027l46.080 47.787 46.080-47.787v-325.973l-92.16-92.16v418.133zM116.053 866.133l-93.867 93.867h535.893l-93.867-93.867h-348.16zM22.187-64l93.867 93.867h348.16l93.867-93.867h-535.893zM116.053 401.92l-46.080 46.080 47.787 46.080h348.16l46.080-46.080-47.787-46.080h-348.16zM489.813 843.947l90.453 93.867v-418.133l-46.080-47.787-46.080 47.787v324.267zM489.813 378.027l46.080 47.787 46.080-47.787v-418.133l-92.16 93.867v324.267z" />
<glyph unicode="&#xe943;" glyph-name="n7" horiz-adv-x="580" d="M95.573 864.427l-95.573 95.573h558.080l-95.573-95.573h-366.933zM486.4 840.533l93.867 95.573v-428.373l-47.787-47.787-47.787 47.787v332.8zM486.4 364.373l47.787 47.787 47.787-47.787v-428.373l-93.867 95.573v332.8z" />
<glyph unicode="&#xe944;" glyph-name="n6" horiz-adv-x="580" d="M0 937.813l92.16-93.867v-325.973l-46.080-47.787-46.080 47.787v419.84zM0 378.027l46.080 47.787 46.080-47.787v-325.973l-92.16-92.16v418.133zM116.053 866.133l-93.867 93.867h535.893l-93.867-93.867h-348.16zM22.187-64l93.867 93.867h348.16l93.867-93.867h-535.893zM116.053 401.92l-46.080 46.080 47.787 46.080h348.16l46.080-46.080-47.787-46.080h-348.16zM489.813 378.027l46.080 47.787 46.080-47.787v-418.133l-92.16 93.867v324.267z" />
<glyph unicode="&#xe945;" glyph-name="n5" horiz-adv-x="580" d="M0 937.813l92.16-93.867v-325.973l-46.080-47.787-46.080 47.787v419.84zM116.053 866.133l-93.867 93.867h535.893l-93.867-93.867h-348.16zM22.187-64l93.867 93.867h348.16l93.867-93.867h-535.893zM116.053 401.92l-46.080 46.080 47.787 46.080h348.16l46.080-46.080-47.787-46.080h-348.16zM489.813 378.027l46.080 47.787 46.080-47.787v-418.133l-92.16 93.867v324.267z" />
<glyph unicode="&#xe946;" glyph-name="n4" horiz-adv-x="580" d="M0 960l92.16-93.867v-348.16l-46.080-47.787-46.080 49.493v440.32zM116.053 401.92l-47.787 46.080 47.787 46.080h348.16l47.787-46.080-47.787-46.080h-348.16zM489.813 866.133l90.453 93.867v-440.32l-46.080-47.787-46.080 47.787v346.453zM489.813 378.027l46.080 47.787 46.080-47.787v-442.027l-92.16 93.867v348.16z" />
<glyph unicode="&#xe947;" glyph-name="n3" horiz-adv-x="580" d="M93.867 866.133l-93.867 93.867h558.080l-93.867-93.867h-370.347zM0-64l93.867 93.867h372.053l93.867-93.867h-559.787zM93.867 401.92l-47.787 46.080 47.787 46.080h372.053l46.080-46.080-47.787-46.080h-370.347zM489.813 843.947l90.453 93.867v-418.133l-46.080-47.787-46.080 47.787v324.267zM489.813 378.027l46.080 47.787 46.080-47.787v-418.133l-92.16 93.867v324.267z" />
<glyph unicode="&#xe948;" glyph-name="n2" horiz-adv-x="580" d="M0 378.027l46.080 47.787 46.080-47.787v-325.973l-92.16-92.16v418.133zM116.053 866.133l-93.867 93.867h535.893l-93.867-93.867h-348.16zM22.187-64l93.867 93.867h348.16l93.867-93.867h-535.893zM116.053 401.92l-46.080 46.080 47.787 46.080h348.16l46.080-46.080-47.787-46.080h-348.16zM489.813 843.947l90.453 93.867v-418.133l-46.080-47.787-46.080 47.787v324.267z" />
<glyph unicode="&#xe949;" glyph-name="n1" horiz-adv-x="580" d="M242.347 862.72l97.28 97.28v-438.613l-49.493-49.493-47.787 49.493v341.333zM242.347 374.613l47.787 49.493 47.787-49.493v-438.613l-97.28 97.28v341.333z" />
<glyph unicode="&#xe94a;" d="M243.712 433.664c-30.72 0-55.296 24.576-55.296 55.296s24.576 55.296 55.296 55.296 55.296-24.576 55.296-55.296c2.048-28.672-24.576-55.296-55.296-55.296zM243.712 521.728c-16.384 0-30.72-14.336-30.72-30.72s14.336-30.72 30.72-30.72 30.72 14.336 30.72 30.72c2.048 16.384-12.288 30.72-30.72 30.72z" />
<glyph unicode="&#xe94b;" d="M598.016 433.664c-30.72 0-55.296 24.576-55.296 55.296s24.576 55.296 55.296 55.296 55.296-24.576 55.296-55.296c2.048-28.672-24.576-55.296-55.296-55.296zM598.016 521.728c-16.384 0-30.72-14.336-30.72-30.72s14.336-30.72 30.72-30.72 30.72 14.336 30.72 30.72c2.048 16.384-12.288 30.72-30.72 30.72z" />
<glyph unicode="&#xe94c;" d="M421.888 433.664c-30.72 0-55.296 24.576-55.296 55.296s24.576 55.296 55.296 55.296 55.296-24.576 55.296-55.296c0-28.672-24.576-55.296-55.296-55.296zM421.888 521.728c-16.384 0-30.72-14.336-30.72-30.72s14.336-30.72 30.72-30.72 30.72 14.336 30.72 30.72c0 16.384-14.336 30.72-30.72 30.72z" />
<glyph unicode="&#xe94d;" d="M661.504 40.448c-2.048 0-2.048 0-4.096 0-4.096 2.048-8.192 6.144-8.192 12.288v116.736h-79.872c-6.144 0-12.288 6.144-12.288 12.288s6.144 12.288 12.288 12.288h92.16c6.144 0 12.288-6.144 12.288-12.288v-94.208l92.16 108.544c2.048 2.048 6.144 4.096 10.24 4.096h133.12c16.384 0 30.72 14.336 30.72 30.72v323.584c0 16.384-14.336 30.72-30.72 30.72h-118.784c-6.144 0-12.288 6.144-12.288 12.288s6.144 12.288 12.288 12.288h118.784c30.72 0 55.296-24.576 55.296-55.296v-325.632c0-30.72-24.576-55.296-55.296-55.296h-126.976l-110.592-129.024c-2.048-4.096-6.144-4.096-10.24-4.096z" />
<glyph unicode="&#xe94e;" d="M409.6 13.824l-391.168 391.168c-24.576 24.576-24.576 63.488 0 86.016l391.168 391.168c24.576 24.576 63.488 24.576 86.016 0l391.168-391.168c24.576-24.576 24.576-63.488 0-86.016l-391.168-391.168c-24.576-24.576-63.488-24.576-86.016 0z" />
<glyph unicode="&#xe94f;" d="M536.576-16.896c-18.432 0-36.864 8.192-51.2 22.528v0l-391.168 391.168c-28.672 28.672-28.672 75.776 0 104.448l391.168 389.12c28.672 28.672 75.776 28.672 104.448 0l391.168-391.168c14.336-14.336 22.528-32.768 22.528-51.2s-8.192-38.912-22.528-51.2l-391.168-391.168c-14.336-14.336-32.768-22.528-53.248-22.528zM501.76 22.016c18.432-18.432 51.2-18.432 69.632 0l391.168 391.168c10.24 10.24 14.336 22.528 14.336 34.816s-4.096 24.576-14.336 34.816l-391.168 391.168c-18.432 18.432-51.2 18.432-69.632 0l-389.12-391.168c-18.432-18.432-18.432-51.2 0-69.632l389.12-391.168z" />
<glyph unicode="&#xe950;" d="M536.576 321.024c-176.128 0-245.76 118.784-247.808 122.88s-2.048 8.192 0 12.288c4.096 4.096 77.824 122.88 247.808 122.88s245.76-118.784 247.808-122.88c2.048-4.096 2.048-8.192 0-12.288-2.048-6.144-73.728-122.88-247.808-122.88zM313.344 450.048c16.384-24.576 83.968-104.448 223.232-104.448s206.848 79.872 223.232 104.448c-18.432 22.528-88.064 104.448-223.232 104.448s-206.848-81.92-223.232-104.448z" />
<glyph unicode="&#xe951;" d="M577.536 390.656c-32.768 0-59.392 26.624-59.392 59.392s26.624 59.392 59.392 59.392 59.392-26.624 59.392-59.392-26.624-59.392-59.392-59.392zM577.536 484.864c-20.48 0-34.816-16.384-34.816-34.816s16.384-34.816 34.816-34.816 34.816 16.384 34.816 34.816-16.384 34.816-34.816 34.816z" />
<glyph unicode="&#xe952;" d="M835.584 40.448c-4.096 0-6.144 2.048-8.192 4.096l-165.888 165.888c-4.096 4.096-4.096 12.288 0 18.432 4.096 4.096 12.288 4.096 18.432 0l165.888-165.888c4.096-4.096 4.096-12.288 0-18.432-4.096-4.096-6.144-4.096-10.24-4.096z" />
<glyph unicode="&#xe953;" d="M776.192 458.24c0-183.235-148.541-331.776-331.776-331.776s-331.776 148.541-331.776 331.776c0 183.235 148.541 331.776 331.776 331.776s331.776-148.541 331.776-331.776z" />
<glyph unicode="&#xe954;" d="M346.112 245.248c-2.048 0-6.144 0-8.192 2.048-61.44 51.2-94.208 126.976-94.208 204.8 0 149.504 120.832 270.336 270.336 270.336 6.144 0 12.288-6.144 12.288-12.288s-6.144-12.288-12.288-12.288c-135.168 0-245.76-110.592-245.76-245.76 0-71.68 30.72-139.264 86.016-186.368 6.144-4.096 6.144-12.288 2.048-16.384-2.048-2.048-6.144-4.096-10.24-4.096z" />
<glyph unicode="&#xe955;" d="M911.36 40.448c-4.096 0-6.144 2.048-8.192 4.096l-165.888 163.84c-4.096 4.096-4.096 12.288 0 16.384s12.288 4.096 16.384 0l165.888-165.888c4.096-4.096 4.096-12.288 0-16.384-2.048 0-4.096-2.048-8.192-2.048z" />
<glyph unicode="&#xe956;" d="M505.856 114.176c-188.416 0-342.016 155.648-342.016 344.064s153.6 344.064 342.016 344.064 344.064-153.6 344.064-344.064-153.6-344.064-344.064-344.064zM505.856 777.728c-176.128 0-319.488-143.36-319.488-319.488s143.36-319.488 319.488-319.488c176.128 0 319.488 143.36 319.488 319.488s-143.36 319.488-319.488 319.488z" />
<glyph unicode="&#xe957;" d="M415.744 222.72c0-6.786-5.502-12.288-12.288-12.288s-12.288 5.502-12.288 12.288c0 6.786 5.502 12.288 12.288 12.288s12.288-5.502 12.288-12.288z" />
<glyph unicode="&#xe958;" d="M272.384 562.688h-100.352c-34.816 0-61.44 28.672-61.44 61.44v100.352c0 34.816 28.672 61.44 61.44 61.44h100.352c34.816 0 61.44-28.672 61.44-61.44v-100.352c0-32.768-26.624-61.44-61.44-61.44z" />
<glyph unicode="&#xe959;" d="M782.336 562.688h-100.352c-34.816 0-61.44 28.672-61.44 61.44v100.352c0 34.816 28.672 61.44 61.44 61.44h100.352c34.816 0 61.44-28.672 61.44-61.44v-100.352c0-32.768-26.624-61.44-61.44-61.44z" />
<glyph unicode="&#xe95a;" d="M272.384 52.736h-100.352c-34.816 0-61.44 28.672-61.44 61.44v100.352c0 34.816 28.672 61.44 61.44 61.44h100.352c34.816 0 61.44-28.672 61.44-61.44v-100.352c0-34.816-26.624-61.44-61.44-61.44z" />
<glyph unicode="&#xe95b;" d="M782.336 52.736h-100.352c-34.816 0-61.44 28.672-61.44 61.44v100.352c0 34.816 28.672 61.44 61.44 61.44h100.352c34.816 0 61.44-28.672 61.44-61.44v-100.352c0-34.816-26.624-61.44-61.44-61.44z" />
<glyph unicode="&#xe95c;" d="M632.832 663.040h-313.344c-8.192 0-16.384 6.144-16.384 12.288s8.192 12.288 16.384 12.288h311.296c8.192 0 16.384-6.144 16.384-12.288s-6.144-12.288-14.336-12.288z" />
<glyph unicode="&#xe95d;" d="M632.832 153.088h-307.2c-8.192 0-16.384 6.144-16.384 12.288s6.144 12.288 16.384 12.288h307.2c8.192 0 16.384-6.144 16.384-12.288s-8.192-12.288-16.384-12.288z" />
<glyph unicode="&#xe95e;" d="M223.232 237.056c-6.144 0-12.288 8.192-12.288 16.384v329.728c0 10.24 6.144 16.384 12.288 16.384s12.288-8.192 12.288-16.384v-329.728c-2.048-10.24-6.144-16.384-12.288-16.384z" />
<glyph unicode="&#xe95f;" d="M733.184 249.344c-6.144 0-12.288 8.192-12.288 16.384v321.536c0 8.192 6.144 16.384 12.288 16.384s12.288-8.192 12.288-16.384v-321.536c-2.048-8.192-6.144-16.384-12.288-16.384z" />
<glyph unicode="&#xe960;" d="M323.584 550.4h-104.448c-40.96 0-71.68 32.768-71.68 71.68v104.448c0 40.96 32.768 71.68 71.68 71.68h104.448c40.96 0 71.68-32.768 71.68-71.68v-104.448c0-38.912-30.72-71.68-71.68-71.68zM219.136 775.68c-26.624 0-49.152-22.528-49.152-49.152v-104.448c0-26.624 22.528-49.152 49.152-49.152h104.448c26.624 0 49.152 22.528 49.152 49.152v104.448c0 26.624-22.528 49.152-49.152 49.152h-104.448z" />
<glyph unicode="&#xe961;" d="M833.536 550.4h-104.448c-40.96 0-71.68 32.768-71.68 71.68v104.448c0 40.96 32.768 71.68 71.68 71.68h104.448c40.96 0 71.68-32.768 71.68-71.68v-104.448c2.048-38.912-30.72-71.68-71.68-71.68zM731.136 775.68c-26.624 0-49.152-22.528-49.152-49.152v-104.448c0-26.624 22.528-49.152 49.152-49.152h104.448c26.624 0 49.152 22.528 49.152 49.152v104.448c0 26.624-22.528 49.152-49.152 49.152h-104.448z" />
<glyph unicode="&#xe962;" d="M323.584 40.448h-104.448c-40.96 0-71.68 32.768-71.68 71.68v104.448c0 40.96 32.768 71.68 71.68 71.68h104.448c40.96 0 71.68-32.768 71.68-71.68v-104.448c0-38.912-30.72-71.68-71.68-71.68zM219.136 263.68c-26.624 0-49.152-22.528-49.152-49.152v-104.448c0-26.624 22.528-49.152 49.152-49.152h104.448c26.624 0 49.152 22.528 49.152 49.152v104.448c0 26.624-22.528 49.152-49.152 49.152h-104.448z" />
<glyph unicode="&#xe963;" d="M833.536 40.448h-104.448c-40.96 0-71.68 32.768-71.68 71.68v104.448c0 40.96 32.768 71.68 71.68 71.68h104.448c40.96 0 71.68-32.768 71.68-71.68v-104.448c2.048-38.912-30.72-71.68-71.68-71.68zM731.136 263.68c-26.624 0-49.152-22.528-49.152-49.152v-104.448c0-26.624 22.528-49.152 49.152-49.152h104.448c26.624 0 49.152 22.528 49.152 49.152v104.448c0 26.624-22.528 49.152-49.152 49.152h-104.448z" />
<glyph unicode="&#xe964;" d="M669.696 663.040h-284.672c-6.144 0-12.288 6.144-12.288 12.288s6.144 12.288 12.288 12.288h284.672c6.144 0 12.288-6.144 12.288-12.288s-6.144-12.288-12.288-12.288z" />
<glyph unicode="&#xe965;" d="M669.696 151.040h-284.672c-6.144 0-12.288 6.144-12.288 12.288s6.144 12.288 12.288 12.288h284.672c6.144 0 12.288-6.144 12.288-12.288s-6.144-12.288-12.288-12.288z" />
<glyph unicode="&#xe966;" d="M272.384 263.68c-6.144 0-12.288 6.144-12.288 12.288v286.72c0 6.144 6.144 12.288 12.288 12.288s12.288-6.144 12.288-12.288v-286.72c0-6.144-6.144-12.288-12.288-12.288z" />
<glyph unicode="&#xe967;" d="M782.336 263.68c-6.144 0-12.288 6.144-12.288 12.288v286.72c0 6.144 6.144 12.288 12.288 12.288s12.288-6.144 12.288-12.288v-286.72c0-6.144-6.144-12.288-12.288-12.288z" />
<glyph unicode="&#xe968;" d="M655.36 658.944c0-102.928-83.44-186.368-186.368-186.368s-186.368 83.44-186.368 186.368c0 102.928 83.44 186.368 186.368 186.368s186.368-83.44 186.368-186.368z" />
<glyph unicode="&#xe969;" d="M155.648 132.608l47.104 100.352c51.2 106.496 147.456 174.080 251.904 174.080h22.528c104.448 0 200.704-65.536 249.856-169.984l51.2-106.496c16.384-34.816-6.144-77.824-38.912-77.824l-542.72 2.048c-34.816 0-57.344 43.008-40.96 77.824z" />
<glyph unicode="&#xe96a;" d="M528.384 462.336c-108.544 0-198.656 88.064-198.656 198.656s90.112 196.608 198.656 196.608 198.656-88.064 198.656-198.656-88.064-196.608-198.656-196.608zM528.384 833.024c-96.256 0-174.080-77.824-174.080-174.080s77.824-174.080 174.080-174.080c96.256 0 174.080 77.824 174.080 174.080s-77.824 174.080-174.080 174.080z" />
<glyph unicode="&#xe96b;" d="M800.768 38.4c0 0 0 0 0 0h-544.768c-18.432 0-34.816 10.24-47.104 26.624-12.288 20.48-14.336 49.152-4.096 71.68v0l47.104 100.352c53.248 112.64 153.6 182.272 264.192 182.272h22.528c108.544 0 208.896-67.584 262.144-178.176l51.2-106.496c10.24-22.528 8.192-49.152-4.096-69.632-10.24-16.384-28.672-26.624-47.104-26.624zM227.328 126.464c-6.144-14.336-6.144-34.816 2.048-49.152 6.144-10.24 16.384-16.384 26.624-16.384h544.768c10.24 0 20.48 6.144 26.624 16.384 8.192 12.288 10.24 30.72 2.048 45.056l-51.2 108.544c-49.152 100.352-141.312 163.84-239.616 163.84h-22.528c-100.352 0-192.512-63.488-241.664-167.936l-47.104-100.352z" />
<glyph unicode="&#xe96c;" d="M501.76 118.272c-4.096 0-6.144 2.048-8.192 4.096l-90.112 92.16c-4.096 4.096-4.096 12.288 0 16.384s12.288 4.096 16.384 0l79.872-81.92 137.216 145.408c4.096 4.096 12.288 6.144 16.384 0 4.096-4.096 4.096-12.288 0-16.384l-145.408-153.6c0-4.096-4.096-6.144-6.144-6.144 0 0 0 0 0 0z" />
<glyph unicode="&#xe96d;" d="M589.824 681.472h-241.664c-6.144 0-12.288 6.144-12.288 12.288s6.144 12.288 12.288 12.288h241.664c6.144 0 12.288-6.144 12.288-12.288s-6.144-12.288-12.288-12.288z" />
<glyph unicode="&#xe96e;" d="M73.728 89.6v473.088c0 20.48 16.384 38.912 38.912 38.912h55.296c20.48 0 38.912-16.384 38.912-38.912v-473.088c0-20.48-16.384-38.912-38.912-38.912h-55.296c-22.528 2.048-38.912 18.432-38.912 38.912z" />
<glyph unicode="&#xe96f;" d="M274.432 538.112h49.152c45.056 0 75.776 22.528 102.4 71.68l79.872 182.272c10.24 24.576 34.816 38.912 59.392 38.912v0c40.96 0 71.68-34.816 65.536-75.776-10.24-75.776-24.576-169.984-24.576-169.984-4.096-24.576 14.336-47.104 40.96-47.104h137.216c53.248 0 92.16-53.248 75.776-104.448l-77.824-243.712c-18.432-55.296-51.2-94.208-110.592-94.208h-397.312v442.368z" />
<glyph unicode="&#xe970;" d="M223.232 40.448h-55.296c-28.672 0-51.2 22.528-51.2 51.2v471.040c0 28.672 22.528 51.2 51.2 51.2h55.296c28.672 0 51.2-22.528 51.2-51.2v-473.088c0-26.624-22.528-49.152-51.2-49.152zM167.936 589.312c-14.336 0-26.624-12.288-26.624-26.624v-473.088c0-14.336 12.288-26.624 26.624-26.624h55.296c14.336 0 26.624 12.288 26.624 26.624v473.088c0 14.336-12.288 26.624-26.624 26.624h-55.296z" />
<glyph unicode="&#xe971;" d="M733.184 83.456h-397.312c-6.144 0-12.288 6.144-12.288 12.288v442.368c0 6.144 6.144 12.288 12.288 12.288h49.152c40.96 0 67.584 18.432 90.112 63.488l79.872 182.272c12.288 28.672 40.96 47.104 71.68 47.104 22.528 0 45.056-10.24 59.392-26.624s20.48-38.912 18.432-61.44l-24.576-169.984c-2.048-8.192 0-16.384 6.144-22.528s12.288-10.24 22.528-10.24h137.216c30.72 0 57.344-14.336 73.728-38.912 18.432-24.576 22.528-53.248 12.288-81.92l-77.824-243.712c-20.48-69.632-63.488-104.448-120.832-104.448zM348.16 108.032h382.976c47.104 0 79.872 28.672 98.304 86.016l77.824 243.712c6.144 20.48 4.096 43.008-10.24 61.44-12.288 18.432-32.768 28.672-55.296 28.672h-137.216c-16.384 0-30.72 6.144-40.96 18.432s-14.336 26.624-12.288 43.008l24.576 169.984c2.048 16.384-2.048 30.72-12.288 43.008s-24.576 18.432-40.96 18.432c-20.48 0-40.96-12.288-49.152-32.768l-79.872-182.272c-28.672-53.248-63.488-77.824-112.64-77.824h-32.768v-419.84z" />
<glyph unicode="&#xe972;" glyph-name="n0" horiz-adv-x="580" d="M0 937.813l92.16-93.867v-325.973l-46.080-47.787-46.080 47.787v419.84zM0 378.027l46.080 47.787 46.080-47.787v-325.973l-92.16-92.16v418.133zM116.053 866.133l-93.867 93.867h535.893l-93.867-93.867h-348.16zM22.187-64l93.867 93.867h348.16l93.867-93.867h-535.893zM489.813 843.947l90.453 93.867v-418.133l-46.080-47.787-46.080 47.787v324.267zM489.813 378.027l46.080 47.787 46.080-47.787v-418.133l-92.16 93.867v324.267z" />
<glyph unicode="&#xe973;" d="M706.56 371.2l-23.893 10.24 252.587 578.56h29.013z" />
<glyph unicode="&#xe974;" d="M523.947 574.293l-25.6 10.24 170.667 375.467h29.013z" />
<glyph unicode="&#xe975;" d="M145.067 960l262.827-583.68h124.587l-266.24 583.68z" />
<glyph unicode="&#xe976;" d="M878.933 960l-262.827-583.68h-124.587l266.24 583.68z" />
<glyph unicode="&#xe977;" d="M779.947 203.947c0-147.983-119.964-267.947-267.947-267.947s-267.947 119.964-267.947 267.947c0 147.983 119.964 267.947 267.947 267.947s267.947-119.964 267.947-267.947z" />
<glyph unicode="&#xe978;" d="M512-31.573c-129.707 0-235.52 105.813-235.52 235.52s105.813 235.52 235.52 235.52c129.707 0 235.52-105.813 235.52-235.52s-105.813-235.52-235.52-235.52zM512 429.227c-124.587 0-225.28-100.693-225.28-225.28s100.693-225.28 225.28-225.28c124.587 0 225.28 100.693 225.28 225.28s-102.4 225.28-225.28 225.28z" />
<glyph unicode="&#xe979;" d="M430.080 127.147c8.533 18.773 27.307 39.253 56.32 59.733 25.6 18.773 42.667 30.72 49.493 39.253 11.947 11.947 17.067 25.6 17.067 40.96 0 11.947-3.413 22.187-10.24 29.013-6.827 8.533-15.36 11.947-29.013 11.947-17.067 0-29.013-6.827-34.133-18.773-3.413-6.827-5.12-18.773-6.827-34.133h-54.613c1.707 23.893 5.12 42.667 13.653 58.027 15.36 29.013 40.96 42.667 78.507 42.667 30.72 0 54.613-8.533 71.68-25.6s27.307-39.253 27.307-66.56c0-20.48-6.827-39.253-18.773-56.32-8.533-10.24-22.187-22.187-40.96-35.84l-20.48-13.653c-13.653-10.24-23.893-17.067-29.013-22.187s-10.24-10.24-13.653-15.36h122.88v-47.787h-192.853c1.707 18.773 5.12 37.547 13.653 54.613z" />
<glyph unicode="&#xe97a;" glyph-name="more-down" d="M512 325.12c-15.36 0-25.6 5.12-35.84 15.36l-465.92 491.52c-15.36 20.48-15.36 46.080 5.12 66.56 20.48 15.36 51.2 15.36 66.56-5.12l430.080-455.68 430.080 455.68c15.36 20.48 46.080 20.48 66.56 5.12s20.48-46.080 5.12-66.56l-465.92-491.52c-10.24-10.24-20.48-15.36-35.84-15.36zM512-12.8c-15.36 0-25.6 5.12-35.84 15.36l-465.92 491.52c-15.36 20.48-15.36 46.080 5.12 66.56 20.48 15.36 51.2 15.36 66.56-5.12l430.080-455.68 430.080 455.68c15.36 20.48 46.080 20.48 66.56 5.12s20.48-46.080 5.12-66.56l-465.92-491.52c-10.24-10.24-20.48-15.36-35.84-15.36z" />
<glyph unicode="&#xe97b;" glyph-name="more-up" d="M512 570.88c15.36 0 25.6-5.12 35.84-15.36l465.92-491.52c15.36-20.48 15.36-46.080-5.12-66.56-20.48-15.36-51.2-15.36-66.56 5.12l-430.080 455.68-430.080-455.68c-15.36-20.48-46.080-20.48-66.56-5.12s-20.48 46.080-5.12 66.56l465.92 491.52c10.24 10.24 20.48 15.36 35.84 15.36zM512 908.8c15.36 0 25.6-5.12 35.84-15.36l465.92-491.52c15.36-20.48 15.36-46.080-5.12-66.56-20.48-15.36-51.2-15.36-66.56 5.12l-430.080 455.68-430.080-455.68c-15.36-20.48-46.080-20.48-66.56-5.12s-20.48 46.080-5.12 66.56l465.92 491.52c10.24 10.24 20.48 15.36 35.84 15.36z" />
<glyph unicode="&#xf1d6;" glyph-name="qq" d="M154.286 490.286q-4.571 10.857-4.571 29.714 0 11.429 6.286 28t13.714 25.714q-0.571 12.571 4.286 30.286t12.857 24.571q0 79.429 52.857 164.857t124.286 119.714q79.429 37.714 185.143 37.714 76 0 152-31.429 28-12 51.429-27.429t40.571-32 31.429-38.857 24-42.286 18.571-48.286 14.571-51.143 12.571-56l0.571-2.857q31.429-47.429 31.429-85.714 0-8-5.143-22.857t-5.143-21.714q0-0.571 0.857-2t2-2.857 1.143-2q44-65.143 68.857-122.571t24.857-119.143q0-24.571-11.143-57.143t-31.714-32.571q-5.143 0-11.143 4.286t-10.857 10-10.857 14.857-9.143 15.143-7.714 14.857-5.143 10q-0.571 0.571-1.714 0.571l-2.857-2.286q-33.714-88-75.429-127.429 11.429-11.429 35.143-22t39.429-23.714 20.286-37.143q-1.143-2.286-2.286-9.143t-4-10.286q-36.571-55.429-172.571-55.429-30.286 0-63.143 5.143t-56 11.429-59.714 17.143q-8.571 2.857-13.143 4-8 2.286-26.286 2.571t-22.857 0.857q-23.429-25.714-72.857-37.143t-96.286-11.429q-20 0-39.429 0.857t-53.143 5.143-57.714 11.714-42.571 22.857-18.571 36.571q0 22.857 5.714 34t23.429 27.714q6.286 1.143 23.143 7.429t28.286 6.857q2.286 0 8 1.143 1.143 1.143 1.143 2.286l-1.143 1.714q-27.429 6.286-61.714 60.286t-41.714 89.429l-2.857 1.714q-2.286 0-6.857-11.429-10.286-23.429-31.143-42.571t-44.286-21.429h-0.571q-2.286 0-3.429 2.571t-2.857 3.143q-13.143 30.857-13.143 57.143 0 157.143 144 266.286z" />
</font>
</defs>
</svg>
