<?xml version="1.0" encoding="UTF-8"?>
<svg width="40px" height="40px" viewBox="0 0 40 40" version="1.1" xmlns="http://www.w3.org/2000/svg" xmlns:xlink="http://www.w3.org/1999/xlink">
    <!-- Generator: Sketch 45.2 (43514) - http://www.bohemiancoding.com/sketch -->
    <title>活动 (1)</title>
    <desc>Created with Sketch.</desc>
    <defs></defs>
    <g id="OA正式提交" stroke="none" stroke-width="1" fill="none" fill-rule="evenodd">
        <g id="OA办公_流程跟踪1" transform="translate(-200.000000, -138.000000)">
            <g id="流程图" transform="translate(197.000000, 138.000000)">
                <g id="title_new" transform="translate(3.000000, 0.000000)">
                    <g id="活动-(1)">
                        <path d="M19.9938858,0.00202774468 C8.96101377,0.00202774468 0.017165356,8.95539089 0.017165356,20 C0.017165356,31.0445656 8.96101377,39.9979723 19.9938858,39.9979723 C31.0267143,39.9979723 39.9706062,31.0445656 39.9706062,20 C39.9706062,8.95539089 31.0266708,0.00202774468 19.9938858,0.00202774468 Z" id="Shape" fill="#FF6868" fill-rule="nonzero"></path>
                        <g id="Page-1" transform="translate(9.000000, 7.000000)" fill="#FFFFFF">
                            <path d="M3.8466,19.5198 C2.7861,19.5198 1.9236,18.6573 1.9236,17.5968 C1.9236,16.5348 2.7861,15.6738 3.8466,15.6738 C4.9086,15.6738 5.7696,16.5348 5.7696,17.5968 C5.7696,18.6573 4.9086,19.5198 3.8466,19.5198 M3.8466,13.7493 C1.7211,13.7493 0.0006,15.4713 0.0006,17.5968 C0.0006,19.7208 1.7211,21.4428 3.8466,21.4428 C5.9721,21.4428 7.6926,19.7208 7.6926,17.5968 C7.6926,15.4713 5.9721,13.7493 3.8466,13.7493" id="Fill-1"></path>
                            <path d="M11.3898,5.77005 C10.3293,5.77005 9.4668,4.90755 9.4668,3.84705 C9.4668,2.78655 10.3293,1.92405 11.3898,1.92405 C12.4518,1.92405 13.3128,2.78655 13.3128,3.84705 C13.3128,4.90755 12.4518,5.77005 11.3898,5.77005 M11.3898,-0.00045 C9.2643,-0.00045 7.5438,1.72155 7.5438,3.84705 C7.5438,5.97105 9.2643,7.69305 11.3898,7.69305 C13.5153,7.69305 15.2373,5.97105 15.2373,3.84705 C15.2373,1.72155 13.5153,-0.00045 11.3898,-0.00045" id="Fill-3"></path>
                            <path d="M19.1169,19.24875 C18.0549,19.24875 17.1939,18.38625 17.1939,17.32575 C17.1939,16.26525 18.0549,15.40275 19.1169,15.40275 C20.1774,15.40275 21.0399,16.26525 21.0399,17.32575 C21.0399,18.38625 20.1804,19.24875 19.1169,19.24875 M19.1169,13.47825 C16.9914,13.47825 15.2709,15.20175 15.2709,17.32575 C15.2709,19.45125 16.9914,21.17175 19.1169,21.17175 C21.2424,21.17175 22.9629,19.45125 22.9629,17.32575 C22.9629,15.20175 21.2424,13.47825 19.1169,13.47825" id="Fill-5"></path>
                            <path d="M15.2373,3.84675 C15.2373,4.37325 15.1323,4.87425 14.9388,5.33175 C17.3853,6.62025 19.0833,9.18675 19.0833,12.14175 C19.0833,12.59775 19.0443,13.04625 18.9663,13.48125 C19.0263,13.47825 19.0863,13.47825 19.1463,13.47825 C19.7568,13.47825 20.3373,13.62225 20.8473,13.87575 C20.9508,13.31325 21.0048,12.73575 21.0048,12.14475 C21.0048,8.19825 18.5973,4.80825 15.1983,3.32625 C15.2253,3.49575 15.2373,3.66975 15.2373,3.84675" id="Fill-7"></path>
                            <path d="M15.528,18.6306 C14.3325,19.3941 12.9135,19.8381 11.3895,19.8381 C9.984,19.8381 8.634,19.4601 7.5015,18.8001 C7.2945,19.4256 6.933,19.9821 6.459,20.4201 C7.8945,21.2721 9.5985,21.7611 11.3895,21.7611 C13.317,21.7611 15.111,21.1941 16.614,20.2206 C16.1295,19.7916 15.75,19.2486 15.528,18.6306" id="Fill-9"></path>
                            <path d="M3.8649,13.74975 C3.7539,13.23225 3.6969,12.69525 3.6969,12.14475 C3.6969,9.16875 5.3889,6.58725 7.8594,5.30775 C7.6764,4.85625 7.5729,4.36425 7.5729,3.84675 C7.5729,3.66075 7.5879,3.47625 7.6134,3.29625 C4.1799,4.76325 1.7724,8.17125 1.7724,12.14475 C1.7724,12.86175 1.8519,13.56225 2.0019,14.23575 C2.5524,13.92675 3.1884,13.75275 3.8649,13.74975" id="Fill-11"></path>
                        </g>
                    </g>
                </g>
            </g>
        </g>
    </g>
</svg>