<?xml version="1.0" standalone="no"?><!DOCTYPE svg PUBLIC "-//W3C//DTD SVG 1.1//EN" "http://www.w3.org/Graphics/SVG/1.1/DTD/svg11.dtd"><svg t="1490762425229" class="icon" style="" viewBox="0 0 1024 1024" version="1.1" xmlns="http://www.w3.org/2000/svg" p-id="5952" xmlns:xlink="http://www.w3.org/1999/xlink" width="32" height="32"><defs><style type="text/css"></style></defs><path d="M512 512zM0 512c0 282.7776 229.2224 512 512 512s512-229.2224 512-512S794.7776 0 512 0 0 229.2224 0 512" fill="#FF6868" p-id="5953"></path><path d="M709.4784 256H314.5216c-18.0992 0-32.9216 14.3872-32.9216 32v384c0 52.7872 44.4416 96 98.7392 96h263.3216C697.9584 768 742.4 724.7872 742.4 672v-384c0-17.5872-14.8224-32-32.9216-32zM396.8 368H512c9.8816 0 16.4608 6.4 16.4608 16s-6.5792 16-16.4608 16h-115.2c-9.8816 0-16.4608-6.4-16.4608-16s6.5792-16 16.4608-16z m230.4 256h-230.4c-9.8816 0-16.4608-6.4-16.4608-16s6.5792-16 16.4608-16h230.4c9.8816 0 16.4608 6.4 16.4608 16s-6.5792 16-16.4608 16z m0-112h-230.4c-9.8816 0-16.4608-6.4-16.4608-16s6.5792-16 16.4608-16h230.4c9.8816 0 16.4608 6.4 16.4608 16S637.0816 512 627.2 512z" fill="#FFFFFF" p-id="5954"></path></svg>