<?xml version="1.0" standalone="no"?><!DOCTYPE svg PUBLIC "-//W3C//DTD SVG 1.1//EN" "http://www.w3.org/Graphics/SVG/1.1/DTD/svg11.dtd"><svg t="1483718598326" class="icon" style="" viewBox="0 0 1024 1024" version="1.1" xmlns="http://www.w3.org/2000/svg" p-id="2724" xmlns:xlink="http://www.w3.org/1999/xlink" width="50" height="50"><defs><style type="text/css"></style></defs><path d="M92.16 512a419.84 409.6 0 1 0 839.68 0 419.84 409.6 0 1 0-839.68 0Z" fill="#FF6868" p-id="2725"></path><path d="M610.38592 534.77376c-38.17472-30.208-47.06304-25.16992-47.06304-25.16992a116.38784 116.38784 0 0 1-53.51424 13.27104 116.98176 116.98176 0 0 1-57.52832-15.2576c-68.36224 29.75744-119.31648 110.87872-126.7712 209.28512l368.64 1.29024c-5.55008-76.96384-45.58848-153.25184-83.7632-183.41888z m-100.57728 159.96928l-27.3408-26.3168 24.7808-120.40192-13.88544-17.89952c3.54304-4.52608 29.04064-4.95616 32.89088 0l-13.88544 17.89952 24.7808 120.40192-27.3408 26.3168z" fill="#FFFFFF" p-id="2726"></path><path d="M452.3008 501.0432a116.65408 116.65408 0 0 0 57.52832 15.2576c19.51744 0 37.5808-5.05856 53.51424-13.25056 34.5088-17.65376 58.12224-51.4048 58.12224-90.624 0-57.36448-49.9712-103.87456-111.63648-103.87456-61.66528 0-111.65696 46.4896-111.65696 103.87456-0.02048 37.70368 21.79072 70.43072 54.12864 88.61696z" fill="#FFFFFF" p-id="2727"></path></svg>