<?xml version="1.0" encoding="UTF-8"?>
<svg width="25px" height="25px" viewBox="0 0 25 25" version="1.1" xmlns="http://www.w3.org/2000/svg" xmlns:xlink="http://www.w3.org/1999/xlink">
    <!-- Generator: Sketch 50.2 (55047) - http://www.bohemiancoding.com/sketch -->
    <title>icon_用户名</title>
    <desc>Created with Sketch.</desc>
    <defs></defs>
    <g id="正式" stroke="none" stroke-width="1" fill="none" fill-rule="evenodd">
        <g id="03_密码登录" transform="translate(-1011.000000, -499.000000)">
            <g id="请输入手机号或者邮箱" transform="translate(997.000000, 483.000000)">
                <g id="icon_用户名" transform="translate(14.000000, 16.000000)">
                    <rect id="Rectangle" fill="#FFEB00" x="1" y="1" width="24" height="24" rx="10"></rect>
                    <rect id="Rectangle" fill="#FFFFFF" x="0" y="0" width="24" height="24" rx="10"></rect>
                    <path d="M10,1.2 C5.1398942,1.2 1.2,5.1398942 1.2,10 L1.2,14 C1.2,18.8601058 5.1398942,22.8 10,22.8 L14,22.8 C18.8601058,22.8 22.8,18.8601058 22.8,14 L22.8,10 C22.8,5.1398942 18.8601058,1.2 14,1.2 L10,1.2 Z M10,0 L14,0 C19.5228475,-1.01453063e-15 24,4.4771525 24,10 L24,14 C24,19.5228475 19.5228475,24 14,24 L10,24 C4.4771525,24 6.76353751e-16,19.5228475 0,14 L0,10 C-6.76353751e-16,4.4771525 4.4771525,1.01453063e-15 10,0 Z" id="Rectangle" fill="#333333" fill-rule="nonzero"></path>
                    <path d="M12,5.1 C10.3983742,5.1 9.1,6.39837423 9.1,8 C9.1,9.60162577 10.3983742,10.9 12,10.9 C13.6016258,10.9 14.9,9.60162577 14.9,8 C14.9,6.39837423 13.6016258,5.1 12,5.1 Z M12,3.9 C14.2643675,3.9 16.1,5.73563253 16.1,8 C16.1,10.2643675 14.2643675,12.1 12,12.1 C9.73563253,12.1 7.9,10.2643675 7.9,8 C7.9,5.73563253 9.73563253,3.9 12,3.9 Z" id="Rectangle-4" fill="#333333" fill-rule="nonzero"></path>
                    <circle id="Oval-4" fill="#FFEB00" cx="12" cy="8" r="3"></circle>
                    <path d="M18.6,17.1568542 C18.6,21.0810486 5.4,21.0810486 5.4,17.1568542 C5.4,13.5101539 7.99246259,10.9 12,10.9 C16.0075374,10.9 18.6,13.5101539 18.6,17.1568542 Z M17.4,17.1568542 C17.4,14.1710755 15.3429619,12.1 12,12.1 C8.65703806,12.1 6.6,14.1710755 6.6,17.1568542 C6.6,19.4810486 17.4,19.4810486 17.4,17.1568542 Z" id="Oval" fill="#333333" fill-rule="nonzero"></path>
                </g>
            </g>
        </g>
    </g>
</svg>