<?xml version="1.0" encoding="UTF-8"?>
<svg width="50px" height="50px" viewBox="0 0 50 50" version="1.1" xmlns="http://www.w3.org/2000/svg" xmlns:xlink="http://www.w3.org/1999/xlink">
    <!-- Generator: Sketch 50.2 (55047) - http://www.bohemiancoding.com/sketch -->
    <title>icon_电脑蓝</title>
    <desc>Created with Sketch.</desc>
    <defs></defs>
    <g id="正式" stroke="none" stroke-width="1" fill="none" fill-rule="evenodd">
        <g id="02_二维码登录2" transform="translate(-1274.000000, -340.000000)" fill="#499DF1" fill-rule="nonzero">
            <g id="icon_电脑蓝" transform="translate(1274.000000, 340.000000)">
                <path d="M45.4545404,40.9090808 L29.7686746,40.9090808 C29.6407102,41.5970423 29.5454874,42.3368121 29.5454874,43.1818106 C29.5454874,47.7272702 34.090947,47.7272702 34.090947,47.7272702 C35.3461876,47.7272702 36.3636768,48.236126 36.3636768,48.8636629 C36.3636768,49.4913666 35.3461876,50 34.090947,50 L15.9091086,50 C14.653868,50 13.6363788,49.4913666 13.6363788,48.8636629 C13.6363788,48.2361816 14.653868,47.7272702 15.9091086,47.7272702 C15.9091086,47.7272702 20.4545682,47.7272702 20.4545682,43.1818106 C20.4545682,42.3368121 20.3593453,41.5970423 20.231381,40.9090808 L4.5454596,40.9090808 C2.03497842,40.9090808 0,38.8741024 0,36.3636212 L0,4.5454596 C0,2.03497842 2.03497842,0 4.5454596,0 L45.4545404,0 C47.964966,0 50,2.03497842 50,4.5454596 L50,36.3636212 C50,38.8741024 47.9650216,40.9090808 45.4545404,40.9090808 Z M45.4545404,4.5454596 L4.5454596,4.5454596 L4.5454596,31.8181616 L45.4545404,31.8181616 L45.4545404,4.5454596 Z" id="Shape"></path>
            </g>
        </g>
    </g>
</svg>