<?xml version="1.0" encoding="UTF-8"?>
<svg width="50px" height="50px" viewBox="0 0 50 50" version="1.1" xmlns="http://www.w3.org/2000/svg" xmlns:xlink="http://www.w3.org/1999/xlink">
    <!-- Generator: Sketch 50.2 (55047) - http://www.bohemiancoding.com/sketch -->
    <title>icon_二维码灰色</title>
    <desc>Created with Sketch.</desc>
    <defs></defs>
    <g id="正式" stroke="none" stroke-width="1" fill="none" fill-rule="evenodd">
        <g id="03_密码登录" transform="translate(-1274.000000, -340.000000)" fill="#CCCCCC" fill-rule="nonzero">
            <g id="icon_二维码灰色" transform="translate(1274.000000, 340.000000)">
                <path d="M7.27272727,7.27272727 L15.4545455,7.27272727 L15.4545455,15.4545455 L7.27272727,15.4545455 L7.27272727,7.27272727 Z M7.27272727,34.5454545 L15.4545455,34.5454545 L15.4545455,42.7272727 L7.27272727,42.7272727 L7.27272727,34.5454545 Z M34.5454545,7.27272727 L42.7272727,7.27272727 L42.7272727,15.4545455 L34.5454545,15.4545455 L34.5454545,7.27272727 Z M45.9090909,45.9090909 L37.7272727,45.9090909 L37.7272727,50 L45.9090909,50 C48.1818182,50 50,48.1818182 50,45.9090909 L50,41.8181818 L45.9090909,41.8181818 L45.9090909,45.9090909 Z M0,4.09090909 L0,22.7272727 L22.7272727,22.7272727 L22.7272727,0 L4.09090909,0 C1.81818182,0 0,1.81818182 0,4.09090909 Z M18.6363636,18.6363636 L4.09090909,18.6363636 L4.09090909,4.09090909 L18.6363636,4.09090909 L18.6363636,18.6363636 Z M0,45.9090909 C0,48.1818182 1.81818182,50 4.09090909,50 L22.7272727,50 L22.7272727,27.2727273 L0,27.2727273 L0,45.9090909 Z M4.09090909,31.3636364 L18.6363636,31.3636364 L18.6363636,45.9090909 L4.09090909,45.9090909 L4.09090909,31.3636364 Z M27.2727273,27.2727273 L41.8181818,27.2727273 L41.8181818,31.3636364 L27.2727273,31.3636364 L27.2727273,27.2727273 Z M37.7272727,33.1818182 L33.1818182,33.1818182 L33.1818182,37.7272727 L37.7272727,37.7272727 L37.7272727,41.8181818 L41.8181818,41.8181818 L41.8181818,37.7272727 L50,37.7272727 L50,33.1818182 L41.8181818,33.1818182 L37.7272727,33.1818182 Z M27.2727273,41.8181818 L31.3636364,41.8181818 L31.3636364,50 L27.2727273,50 L27.2727273,41.8181818 Z M33.1818182,41.8181818 L37.2727273,41.8181818 L37.2727273,45.9090909 L33.1818182,45.9090909 L33.1818182,41.8181818 Z M27.2727273,33.1818182 L31.3636364,33.1818182 L31.3636364,37.2727273 L27.2727273,37.2727273 L27.2727273,33.1818182 Z M45.9090909,27.2727273 L50,27.2727273 L50,31.3636364 L45.9090909,31.3636364 L45.9090909,27.2727273 Z M45.9090909,0 L27.2727273,0 L27.2727273,22.7272727 L50,22.7272727 L50,4.09090909 C50,1.81818182 48.1818182,0 45.9090909,0 Z M45.9090909,18.6363636 L31.3636364,18.6363636 L31.3636364,4.09090909 L45.9090909,4.09090909 L45.9090909,18.6363636 Z" id="Shape"></path>
            </g>
        </g>
    </g>
</svg>