<?xml version="1.0" encoding="UTF-8"?>
<svg width="40px" height="40px" viewBox="0 0 40 40" version="1.1" xmlns="http://www.w3.org/2000/svg" xmlns:xlink="http://www.w3.org/1999/xlink">
    <!-- Generator: Sketch 45.2 (43514) - http://www.bohemiancoding.com/sketch -->
    <title>icon_节点</title>
    <desc>Created with Sketch.</desc>
    <defs></defs>
    <g id="做" stroke="none" stroke-width="1" fill="none" fill-rule="evenodd">
        <g id="07_配置_流转信息_节点信息_查看_节点模板_新建" transform="translate(-1208.000000, -39.000000)" fill-rule="nonzero">
            <g id="编辑节点" transform="translate(1172.000000, 0.000000)">
                <g id="title_new" transform="translate(36.000000, 39.000000)">
                    <g id="icon_节点">
                        <path d="M19.9938858,0.00202774468 C8.96101377,0.00202774468 0.017165356,8.95539089 0.017165356,20 C0.017165356,31.0445656 8.96101377,39.9979723 19.9938858,39.9979723 C31.0267143,39.9979723 39.9706062,31.0445656 39.9706062,20 C39.9706062,8.95539089 31.0266708,0.00202774468 19.9938858,0.00202774468 Z" id="Shape" fill="#FF6868"></path>
                        <g id="节点-" transform="translate(8.000000, 12.000000)" fill="#FFFFFF">
                            <path d="M15.7176934,0.141940503 C14.0853913,-0.323093822 12.3891625,0.5521373 11.7872952,2.31245767 C11.5500961,3.10588558 11.6504897,3.99039817 12.0699405,4.74738673 C12.1337025,4.86604119 12.2158627,5.002627 12.3160915,5.10299314 L10.565135,9.00595881 C9.78090618,8.83265904 8.98753318,8.96949199 8.34922654,9.36156522 L5.90520824,6.62575744 C6.00549199,6.42521739 6.11494737,6.22451259 6.18785355,6.01471854 C6.76250801,4.34572998 5.88683753,2.55852632 4.22707551,1.98406407 C2.55808696,1.40940961 0.76173913,2.31245767 0.196421053,3.95376659 C-0.405418764,5.61350114 0.460860412,7.40100686 2.12971167,7.97527689 C2.95043478,8.2579222 3.81676888,8.18501602 4.51891991,7.8111762 L7.06313959,10.6564943 C6.972,10.8297941 6.87160641,11.0303616 6.80789931,11.2127506 C6.57070023,12.0152403 6.67109382,12.8907185 7.09054462,13.6477346 C7.50996796,14.4047231 8.17589931,14.9335195 9.00573913,15.1524851 C10.6380412,15.6175195 12.33427,14.7422334 12.881492,13.128 L12.9361648,12.9730984 C13.1733638,12.1706087 13.0729428,11.2951304 12.6535195,10.5381144 C12.5075973,10.2829016 12.3708741,10.0730801 12.1703341,9.86325858 L13.8482746,6.16975744 C13.9120366,6.18812815 13.9393867,6.19691533 14.0032037,6.22443021 C14.6142426,6.40684668 15.2707277,6.38858581 15.8361007,6.21539588 L17.915286,8.52252632 C17.8881556,8.6136659 17.8515515,8.70494279 17.8241739,8.79605492 C17.2495195,10.4650435 18.1251899,12.2522197 19.7849519,12.8266819 C21.4539405,13.4013913 23.2502883,12.4983158 23.8156064,10.8570069 C24.3902883,9.18801831 23.5145904,7.40081465 21.8548284,6.8263524 C20.9155606,6.50724027 19.9125309,6.6714508 19.1372265,7.14549199 L17.3772082,5.18471396 C17.6050709,4.9202746 17.787405,4.58287414 17.9151762,4.21798627 L17.969849,4.06305721 C18.2070481,3.26962929 18.1066545,2.3851167 17.6872311,1.62812815 C17.2131899,0.898572082 16.538087,0.397070938 15.7175286,0.141528604 L15.7176934,0.141940503 Z M1.87452632,4.53734554 C2.1117254,3.84420137 2.88697483,3.46129977 3.57995423,3.69836156 C4.2729611,3.93542334 4.65602746,4.71081007 4.40976659,5.4126865 C4.17256751,6.10577574 3.39731808,6.48873227 2.70433867,6.24249886 C2.02031121,6.00527231 1.63738215,5.22999542 1.87452632,4.53704348 L1.87452632,4.53734554 L1.87452632,4.53734554 Z M11.0395606,11.4497025 C11.1944897,11.7780961 11.2401007,12.13373 11.1582151,12.4709931 L11.1398444,12.5347551 C10.9026178,13.2278719 10.1640549,13.5925675 9.48919908,13.392 C9.14270938,13.3098398 8.85064531,13.0728879 8.69577117,12.7446041 C8.54084211,12.4162105 8.48597712,12.0605767 8.59545995,11.6592494 C8.82335011,10.9935652 9.57124943,10.6014371 10.2461053,10.8019771 C10.5834508,10.9206316 10.8479451,11.1484668 11.0395332,11.449373 L11.0395606,11.4497025 L11.0395606,11.4497025 Z M22.0464989,10.255167 C21.8092998,10.9483112 21.0340503,11.3312403 20.3410435,11.094151 C19.6387826,10.8569519 19.2649977,10.0817025 19.5020595,9.37985355 C19.7392586,8.68670938 20.514508,8.30378032 21.2163844,8.55004119 C21.9095011,8.78724027 22.2924302,9.5624897 22.0461968,10.2554691 L22.0464989,10.255167 Z M16.0368604,2.5583341 C16.201016,2.88672769 16.2466545,3.24236156 16.1555149,3.57962471 L16.1371442,3.64338673 C15.8999451,4.34567506 15.1978764,4.71034325 14.4865263,4.50065904 C14.1400366,4.4184714 13.8479725,4.18151945 13.6930984,3.85326316 C13.5381693,3.52486957 13.4925584,3.1692357 13.5928146,2.76785355 C13.8206773,2.1021968 14.5685767,1.71004119 15.243405,1.9106087 C15.5807506,1.99276888 15.8452723,2.22057666 16.0368604,2.55800458 L16.0368604,2.5583341 Z" id="Shape"></path>
                        </g>
                    </g>
                </g>
            </g>
        </g>
    </g>
</svg>