<?xml version="1.0" encoding="UTF-8"?>
<svg width="200px" height="260px" viewBox="0 0 200 260" version="1.1" xmlns="http://www.w3.org/2000/svg" xmlns:xlink="http://www.w3.org/1999/xlink">
    <!-- Generator: Sketch 43.1 (39012) - http://www.bohemiancoding.com/sketch -->
    <title>icon_添加</title>
    <desc>Created with Sketch.</desc>
    <defs>
        <path d="M0,4.00582873 C0,1.79347061 1.79010294,0 3.99507582,0 L196.004924,0 C198.211344,0 200,1.79912895 200,4.00582873 L200,255.994171 C200,258.206529 198.209897,260 196.004924,260 L3.99507582,260 C1.78865637,260 0,258.200871 0,255.994171 L0,4.00582873 Z M156,220.00181 L156,260 L195.99819,260 C198.206909,260 200,258.208329 200,255.99819 L200,216 L160.00181,216 C157.793091,216 156,217.791671 156,220.00181 Z" id="path-1"></path>
        <mask id="mask-2" maskContentUnits="userSpaceOnUse" maskUnits="objectBoundingBox" x="0" y="0" width="200" height="260" fill="white">
            <use xlink:href="#path-1"></use>
        </mask>
        <path d="M159,222.993235 C159,220.787832 160.782427,219 162.993235,219 L197.871408,219 C198.975386,219 199.236564,219.633773 198.451618,220.418718 L160.418718,258.451618 C159.635182,259.235155 159,258.978692 159,257.871408 L159,222.993235 Z" id="path-3"></path>
        <mask id="mask-4" maskContentUnits="userSpaceOnUse" maskUnits="objectBoundingBox" x="0" y="0" width="40.8703366" height="40.8703366" fill="white">
            <use xlink:href="#path-3"></use>
        </mask>
    </defs>
    <g id="Page-1" stroke="none" stroke-width="1" fill="none" fill-rule="evenodd">
        <g id="OA办公1" transform="translate(-1514.000000, -570.000000)">
            <g id="活动管理列表">
                <g id="添加纬度" transform="translate(1514.000000, 570.000000)">
                    <g id="icon_添加">
                        <use id="Combined-Shape" stroke="#99AAC7" mask="url(#mask-2)" stroke-width="2" stroke-dasharray="4" xlink:href="#path-1"></use>
                        <use id="Rectangle-4-Copy" stroke="#99AAC7" mask="url(#mask-4)" stroke-width="2" stroke-dasharray="4" xlink:href="#path-3"></use>
                        <g id="添加" transform="translate(51.000000, 73.000000)">
                            <circle id="Oval-2" fill-opacity="0.3" fill="#6A7B99" cx="50" cy="50" r="50"></circle>
                            <circle id="Oval-2" fill="#697B99" cx="50" cy="50" r="45"></circle>
                            <rect id="Rectangle-7" fill="#FFFFFF" x="48" y="35" width="4" height="30" rx="2"></rect>
                            <rect id="Rectangle-7-Copy" fill="#FFFFFF" transform="translate(50.000000, 50.000000) rotate(-270.000000) translate(-50.000000, -50.000000) " x="48" y="35" width="4" height="30" rx="2"></rect>
                        </g>
                    </g>
                </g>
            </g>
        </g>
    </g>
</svg>