<?xml version="1.0" standalone="no"?><!DOCTYPE svg PUBLIC "-//W3C//DTD SVG 1.1//EN" "http://www.w3.org/Graphics/SVG/1.1/DTD/svg11.dtd"><svg t="1506481557232" class="icon" style="" viewBox="0 0 1024 1024" version="1.1" xmlns="http://www.w3.org/2000/svg" p-id="6010" xmlns:xlink="http://www.w3.org/1999/xlink" width="32" height="32"><defs><style type="text/css"></style></defs><path d="M833.536 940.3904a41.7792 41.7792 0 0 1 0 83.6096H93.0816a41.8304 41.8304 0 0 1 0-83.6096H833.536zM91.136 883.8656l100.5056-268.544 163.9936 163.8912L91.136 883.8656z m298.1376-135.5776l-165.376-165.12 449.536-445.696 165.376 165.12-449.536 445.696z m480.3584-479.9488l-165.376-165.2224L786.944 20.48a70.2464 70.2464 0 0 1 99.2256 0l66.048 66.048a70.144 70.144 0 0 1 0 99.2256l-82.5856 82.5856z" fill="#98A2AC" p-id="6011"></path></svg>