<?xml version="1.0" standalone="no"?><!DOCTYPE svg PUBLIC "-//W3C//DTD SVG 1.1//EN" "http://www.w3.org/Graphics/SVG/1.1/DTD/svg11.dtd"><svg t="1506473359872" class="icon" style="" viewBox="0 0 1024 1024" version="1.1" xmlns="http://www.w3.org/2000/svg" p-id="10044" xmlns:xlink="http://www.w3.org/1999/xlink" width="32" height="32"><defs><style type="text/css"></style></defs><path d="M512 85.333333a426.666667 426.666667 0 1 0 426.666667 426.666667A426.666667 426.666667 0 0 0 512 85.333333z m0 810.666667a384 384 0 1 1 384-384 386.56 386.56 0 0 1-384 384z" fill="#4A90E2" p-id="10045"></path><path d="M725.333333 602.453333a16.213333 16.213333 0 0 1-3.84 10.666667 15.36 15.36 0 0 1-22.186666 0l-191.146667-170.666667-183.466667 170.666667a15.36 15.36 0 0 1-22.186666 0 16.64 16.64 0 0 1 0-23.04l193.706666-180.053333a15.36 15.36 0 0 1 20.48 0l201.386667 180.906666a16.213333 16.213333 0 0 1 5.546667 12.373334z m0 0" fill="#4A90E2" p-id="10046"></path></svg>