<?xml version="1.0" encoding="UTF-8"?>
<svg width="40px" height="40px" viewBox="0 0 40 40" version="1.1" xmlns="http://www.w3.org/2000/svg" xmlns:xlink="http://www.w3.org/1999/xlink">
    <!-- Generator: Sketch 45.2 (43514) - http://www.bohemiancoding.com/sketch -->
    <title>分部icon</title>
    <desc>Created with Sketch.</desc>
    <defs>
        <polygon id="path-1" points="0.000234992707 3.55271368e-15 18 3.55271368e-15 18 17.9998 0.000234992707 17.9998"></polygon>
    </defs>
    <g id="Page-1" stroke="none" stroke-width="1" fill="none" fill-rule="evenodd">
        <g id="分部icon">
            <rect id="Rectangle-7" fill="#FF6C60" x="0" y="0" width="40" height="40" rx="4"></rect>
            <g id="Page-1" transform="translate(11.000000, 11.000000)">
                <mask id="mask-2" fill="white">
                    <use xlink:href="#path-1"></use>
                </mask>
                <g id="Clip-2"></g>
                <path d="M17.1979,9.0568 C17.1529,9.2118 16.8859,9.3398 16.3109,9.3878 C16.2929,9.3898 16.2729,9.3888 16.2549,9.3888 L15.4399,9.3888 L15.3819,9.3888 C15.3819,9.3898 15.3809,9.3908 15.3809,9.3908 C15.3139,9.3908 15.0279,9.4088 15.0279,9.8128 L15.0279,10.2628 C15.0279,10.2628 15.0289,10.2608 15.0289,10.2598 L15.0299,10.2598 L15.0289,10.2608 L15.0289,16.0428 C15.0289,16.7198 14.4599,17.2168 13.6159,17.2168 L11.5359,17.2168 L11.5359,11.7398 C11.5359,10.9338 11.1649,10.1738 10.3709,10.1738 L9.0019,10.1738 L8.9989,10.1738 L7.6299,10.1738 C6.8359,10.1738 6.4649,10.9338 6.4649,11.7398 L6.4649,17.2168 L4.3849,17.2168 C3.5409,17.2168 2.9699,16.7198 2.9699,16.0428 L2.9699,10.2608 L2.9699,10.2598 L2.9709,10.2598 C2.9709,10.2608 2.9719,10.2628 2.9719,10.2628 L2.9719,9.8128 C2.9719,9.4088 2.6849,9.3908 2.6199,9.3908 C2.6199,9.3908 2.6189,9.3898 2.6189,9.3888 L2.5599,9.3888 L1.7459,9.3888 C1.7259,9.3888 1.7069,9.3898 1.6879,9.3878 C1.1139,9.3398 0.8459,9.2118 0.8019,9.0568 C0.7469,8.8678 0.8689,8.5568 1.1789,8.2248 L7.5609,1.4118 C7.9409,1.0058 8.4469,0.7828 8.9859,0.7828 C8.9899,0.7828 8.9939,0.7838 8.9989,0.7848 L8.9999,0.7848 L9.0019,0.7848 C9.0059,0.7838 9.0099,0.7828 9.0139,0.7828 C9.5519,0.7828 10.0589,1.0058 10.4389,1.4118 L16.8199,8.2248 C17.1319,8.5568 17.2539,8.8678 17.1979,9.0568 M17.3899,7.6898 L11.0099,0.8758 C10.4789,0.3108 9.7709,-0.0002 9.0139,-0.0002 C9.0099,-0.0002 9.0049,0.0008 8.9999,0.0008 C8.9949,0.0008 8.9909,-0.0002 8.9859,-0.0002 C8.2289,-0.0002 7.5209,0.3108 6.9909,0.8758 L0.6099,7.6898 C-0.1351,8.4848 -0.0381,9.0818 0.0849,9.3688 C0.2149,9.6678 0.6109,10.1718 1.7849,10.1718 L1.7879,10.1718 L2.1939,10.1738 L2.1939,16.0428 C2.1939,17.1628 3.0949,17.9998 4.3849,17.9998 L6.9119,17.9998 C7.0939,17.9998 7.2409,17.8468 7.2409,17.6588 L7.2409,11.7398 C7.2409,11.4008 7.3379,10.9558 7.6299,10.9558 L8.9989,10.9558 L9.0019,10.9558 L10.3709,10.9558 C10.6629,10.9558 10.7599,11.4008 10.7599,11.7398 L10.7599,17.6588 C10.7599,17.8468 10.9069,17.9998 11.0889,17.9998 L13.6159,17.9998 C14.9049,17.9998 15.8049,17.1628 15.8049,16.0428 L15.8049,10.1738 L16.2129,10.1718 L16.2159,10.1718 C17.3889,10.1718 17.7859,9.6678 17.9159,9.3688 C18.0389,9.0818 18.1349,8.4848 17.3899,7.6898" id="Fill-1" fill="#FFFFFF" mask="url(#mask-2)"></path>
            </g>
        </g>
    </g>
</svg>