<?xml version="1.0" encoding="UTF-8"?>
<svg width="40px" height="40px" viewBox="0 0 40 40" version="1.1" xmlns="http://www.w3.org/2000/svg" xmlns:xlink="http://www.w3.org/1999/xlink">
    <!-- Generator: Sketch 45.2 (43514) - http://www.bohemiancoding.com/sketch -->
    <title>部门icon</title>
    <desc>Created with Sketch.</desc>
    <defs></defs>
    <g id="Page-1" stroke="none" stroke-width="1" fill="none" fill-rule="evenodd">
        <g id="部门icon">
            <rect id="Rectangle-7" fill="#FF6C60" x="0" y="0" width="40" height="40" rx="4"></rect>
            <path d="M24.025,15.909 L28.17,15.909 L28.17,11.818 L24.025,11.818 L24.025,15.909 Z M24.025,28.182 L28.17,28.182 L28.17,24.091 L24.025,24.091 L24.025,28.182 Z M23.196,24.091 L23.196,25.686 L16.802,25.686 L16.802,24.091 C16.802,23.639 16.431,23.273 15.973,23.273 L14.364,23.273 L14.364,16.727 L15.973,16.727 C16.431,16.727 16.802,16.361 16.802,15.909 L16.802,14.312 L23.196,14.312 L23.196,15.909 C23.196,16.361 23.567,16.727 24.025,16.727 L25.682,16.727 L25.693,16.727 L25.693,23.273 L24.025,23.273 C23.567,23.273 23.196,23.639 23.196,24.091 L23.196,24.091 Z M11.828,28.182 L15.973,28.182 L15.973,24.091 L11.828,24.091 L11.828,28.182 Z M11.829,15.909 L15.974,15.909 L15.974,11.818 L11.829,11.818 L11.829,15.909 Z M28.17,16.727 C28.627,16.727 28.998,16.361 28.998,15.909 L28.998,11.818 C28.998,11.367 28.627,11 28.17,11 L24.025,11 C23.567,11 23.196,11.367 23.196,11.818 L23.196,13.412 L16.802,13.412 L16.802,11.818 C16.802,11.367 16.431,11 15.973,11 L11.829,11 C11.371,11 11,11.367 11,11.818 L11,15.909 C11,16.361 11.371,16.727 11.829,16.727 L13.457,16.727 L13.457,23.273 L11.829,23.273 C11.371,23.273 11,23.639 11,24.091 L11,28.182 C11,28.634 11.371,29 11.829,29 L13.487,29 C13.487,29 14.321,28.995 14.316,29 L15.973,29 C16.431,29 16.802,28.633 16.802,28.182 L16.802,26.585 L23.196,26.585 L23.196,28.182 C23.196,28.634 23.567,29 24.025,29 L25.682,29 C25.682,29 26.517,28.995 26.511,29 L28.17,29 C28.627,29 28.998,28.633 28.998,28.182 L28.998,24.091 C28.998,23.639 28.627,23.273 28.17,23.273 L26.6,23.273 L26.6,16.727 L28.17,16.727 Z" id="Page-1" fill="#FFFFFF"></path>
        </g>
    </g>
</svg>