<?xml version="1.0" encoding="UTF-8"?>
<svg width="14px" height="14px" viewBox="0 0 14 14" version="1.1" xmlns="http://www.w3.org/2000/svg" xmlns:xlink="http://www.w3.org/1999/xlink">
    <!-- Generator: Sketch 45.2 (43514) - http://www.bohemiancoding.com/sketch -->
    <title>nor_department</title>
    <desc>Created with Sketch.</desc>
    <defs></defs>
    <g id="Page-1" stroke="none" stroke-width="1" fill="none" fill-rule="evenodd">
        <g id="Group-6" transform="translate(-43.000000, -91.000000)" fill="#666666">
            <path d="M51.9679403,103.912481 L53.5849403,103.912481 C54.2419403,103.912481 54.6899403,103.540053 54.6899403,103.032197 L54.6899403,98.0432618 L55.5709403,98.0432618 C56.0869403,98.042266 56.3229403,97.9078336 56.3749403,97.7923213 C56.4369403,97.6568931 56.3229403,97.4179022 56.0809403,97.1689533 L51.1099403,92.0595264 C50.8139403,91.754813 50.4199403,91.5875194 49.9999403,91.5875194 C49.5809403,91.5875194 49.1869403,91.754813 48.8899403,92.0595264 L43.9189403,97.1689533 C43.6769403,97.4179022 43.5639403,97.6568931 43.6249403,97.7923213 C43.6759403,97.9078336 43.9139403,98.042266 44.4109403,98.042266 L45.3149403,98.0432618 L45.3149403,103.032197 C45.3149403,103.540053 45.7589403,103.912481 46.4159403,103.912481 L48.0359403,103.912481 L48.0359403,99.8038283 C48.0359403,99.2003762 48.3249403,98.6297854 48.9439403,98.6297854 L51.0609403,98.6297854 C51.6789403,98.6297854 51.9679403,99.2003762 51.9679403,99.8038283 L51.9679403,103.912481 L51.9679403,103.912481 Z M53.5849403,104.5 L51.3629403,104.5 L51.3629403,99.8038283 C51.3629403,99.5508962 51.2879403,99.2173047 51.0609403,99.2173047 L48.9439403,99.2173047 C48.7159403,99.2173047 48.6409403,99.5508962 48.6409403,99.8038283 L48.6409403,104.5 L46.4159403,104.5 C45.4109403,104.5 44.7099403,103.872649 44.7099403,103.032197 L44.7099403,98.6297854 L44.3929403,98.6287896 L44.3909403,98.6287896 C43.4759403,98.6287896 43.1679403,98.251383 43.0659403,98.0263333 C42.9699403,97.8112414 42.8949403,97.3631334 43.4749403,96.7666519 L48.4469403,91.657225 C48.8589403,91.2340119 49.4109403,91 49.9999403,91 C50.5899403,91 51.1409403,91.2340119 51.5539403,91.657225 L56.5259403,96.7666519 C57.1059403,97.3631334 57.0299403,97.8112414 56.9339403,98.0263333 C56.8329403,98.251383 56.5239403,98.6287896 55.5889403,98.6287896 L55.2949403,98.6297854 L55.2949403,103.032197 C55.2949403,103.857712 54.5719403,104.5 53.5849403,104.5 L53.5849403,104.5 Z" id="nor_department"></path>
        </g>
    </g>
</svg>