<?xml version="1.0" encoding="UTF-8"?>
<svg width="14px" height="14px" viewBox="0 0 14 14" version="1.1" xmlns="http://www.w3.org/2000/svg" xmlns:xlink="http://www.w3.org/1999/xlink">
    <!-- Generator: Sketch 45.2 (43514) - http://www.bohemiancoding.com/sketch -->
    <title>sel_department</title>
    <desc>Created with Sketch.</desc>
    <defs></defs>
    <g id="Page-1" stroke="none" stroke-width="1" fill="none" fill-rule="evenodd">
        <g id="Group-6" transform="translate(-43.000000, -72.000000)" fill="#4A90E2">
            <path d="M51.9679403,84.9124806 L53.5849403,84.9124806 C54.2419403,84.9124806 54.6899403,84.5400531 54.6899403,84.0321974 L54.6899403,79.0432618 L55.5709403,79.0432618 C56.0869403,79.042266 56.3229403,78.9078336 56.3749403,78.7923213 C56.4369403,78.6568931 56.3229403,78.4179022 56.0809403,78.1689533 L51.1099403,73.0595264 C50.8139403,72.754813 50.4199403,72.5875194 49.9999403,72.5875194 C49.5809403,72.5875194 49.1869403,72.754813 48.8899403,73.0595264 L43.9189403,78.1689533 C43.6769403,78.4179022 43.5639403,78.6568931 43.6249403,78.7923213 C43.6759403,78.9078336 43.9139403,79.042266 44.4109403,79.042266 L45.3149403,79.0432618 L45.3149403,84.0321974 C45.3149403,84.5400531 45.7589403,84.9124806 46.4159403,84.9124806 L48.0359403,84.9124806 L48.0359403,80.8038283 C48.0359403,80.2003762 48.3249403,79.6297854 48.9439403,79.6297854 L51.0609403,79.6297854 C51.6789403,79.6297854 51.9679403,80.2003762 51.9679403,80.8038283 L51.9679403,84.9124806 L51.9679403,84.9124806 Z M53.5849403,85.5 L51.3629403,85.5 L51.3629403,80.8038283 C51.3629403,80.5508962 51.2879403,80.2173047 51.0609403,80.2173047 L48.9439403,80.2173047 C48.7159403,80.2173047 48.6409403,80.5508962 48.6409403,80.8038283 L48.6409403,85.5 L46.4159403,85.5 C45.4109403,85.5 44.7099403,84.8726488 44.7099403,84.0321974 L44.7099403,79.6297854 L44.3929403,79.6287896 L44.3909403,79.6287896 C43.4759403,79.6287896 43.1679403,79.251383 43.0659403,79.0263333 C42.9699403,78.8112414 42.8949403,78.3631334 43.4749403,77.7666519 L48.4469403,72.657225 C48.8589403,72.2340119 49.4109403,72 49.9999403,72 C50.5899403,72 51.1409403,72.2340119 51.5539403,72.657225 L56.5259403,77.7666519 C57.1059403,78.3631334 57.0299403,78.8112414 56.9339403,79.0263333 C56.8329403,79.251383 56.5239403,79.6287896 55.5889403,79.6287896 L55.2949403,79.6297854 L55.2949403,84.0321974 C55.2949403,84.8577119 54.5719403,85.5 53.5849403,85.5 L53.5849403,85.5 Z" id="sel_department"></path>
        </g>
    </g>
</svg>