<?xml version="1.0" encoding="UTF-8"?>
<svg width="14px" height="14px" viewBox="0 0 14 14" version="1.1" xmlns="http://www.w3.org/2000/svg" xmlns:xlink="http://www.w3.org/1999/xlink">
    <!-- Generator: Sketch 45.2 (43514) - http://www.bohemiancoding.com/sketch -->
    <title>Page 1</title>
    <desc>Created with Sketch.</desc>
    <defs></defs>
    <g id="Page-1" stroke="none" stroke-width="1" fill="none" fill-rule="evenodd">
        <g id="Group_人员控件_单选" transform="translate(-68.000000, -199.000000)" fill="#499DF1">
            <g id="树" transform="translate(10.000000, 150.000000)">
                <g id="氪空间总部" transform="translate(46.000000, 46.000000)">
                    <path d="M22.132,6.8185 L25.356,6.8185 L25.356,3.6365 L22.132,3.6365 L22.132,6.8185 Z M22.131,16.3655 L25.355,16.3655 L25.355,13.1835 L22.131,13.1835 L22.131,16.3655 Z M21.487,13.1825 L21.487,14.4245 L16.513,14.4245 L16.513,13.1825 C16.513,12.8325 16.225,12.5475 15.868,12.5475 L14.616,12.5475 L14.616,7.4545 L15.868,7.4545 C16.225,7.4545 16.513,7.1705 16.513,6.8185 L16.513,5.5765 L21.487,5.5765 L21.487,6.8185 C21.487,7.1705 21.775,7.4545 22.131,7.4545 L23.421,7.4545 L23.429,7.4545 L23.429,12.5475 L22.131,12.5475 C21.775,12.5475 21.487,12.8325 21.487,13.1825 L21.487,13.1825 Z M12.644,16.3655 L15.868,16.3655 L15.868,13.1835 L12.644,13.1835 L12.644,16.3655 Z M12.645,6.8185 L15.869,6.8185 L15.869,3.6365 L12.645,3.6365 L12.645,6.8185 Z M25.355,7.4545 C25.711,7.4545 26,7.1705 26,6.8185 L26,3.6355 C26,3.2855 25.711,3.0005 25.355,3.0005 L22.131,3.0005 C21.775,3.0005 21.487,3.2855 21.487,3.6355 L21.487,4.8775 L16.513,4.8775 L16.513,3.6355 C16.513,3.2855 16.225,3.0005 15.868,3.0005 L12.645,3.0005 C12.289,3.0005 12,3.2855 12,3.6355 L12,6.8185 C12,7.1705 12.289,7.4545 12.645,7.4545 L13.911,7.4545 L13.911,12.5475 L12.645,12.5475 C12.289,12.5475 12,12.8325 12,13.1825 L12,16.3655 C12,16.7165 12.289,17.0015 12.645,17.0015 L13.934,17.0015 C13.934,17.0015 14.583,16.9975 14.579,17.0015 L15.868,17.0015 C16.225,17.0015 16.513,16.7165 16.513,16.3655 L16.513,15.1235 L21.487,15.1235 L21.487,16.3655 C21.487,16.7165 21.775,17.0015 22.131,17.0015 L23.421,17.0015 C23.421,17.0015 24.07,16.9975 24.066,17.0015 L25.355,17.0015 C25.711,17.0015 26,16.7165 26,16.3655 L26,13.1825 C26,12.8325 25.711,12.5475 25.355,12.5475 L24.135,12.5475 L24.135,7.4545 L25.355,7.4545 Z" id="Page-1"></path>
                </g>
            </g>
        </g>
    </g>
</svg>