<?xml version="1.0" encoding="UTF-8"?>
<svg width="13px" height="14px" viewBox="0 0 13 14" version="1.1" xmlns="http://www.w3.org/2000/svg" xmlns:xlink="http://www.w3.org/1999/xlink">
    <!-- Generator: Sketch 45.2 (43514) - http://www.bohemiancoding.com/sketch -->
    <title>成员</title>
    <desc>Created with Sketch.</desc>
    <defs>
        <polygon id="path-1" points="12.5 0.001 12.5 14 0.0002 14 0.0002 0.001"></polygon>
    </defs>
    <g id="Page-1" stroke="none" stroke-width="1" fill="none" fill-rule="evenodd">
        <g id="Group_人员控件_单选" transform="translate(-121.000000, -440.000000)">
            <g id="树" transform="translate(10.000000, 150.000000)">
                <g id="张三" transform="translate(103.000000, 287.000000)">
                    <g id="成员" transform="translate(8.000000, 3.000000)">
                        <mask id="mask-2" fill="white">
                            <use xlink:href="#path-1"></use>
                        </mask>
                        <g id="Clip-2"></g>
                        <path d="M2.9352,4.022 C2.9352,2.182 4.4222,0.686 6.2502,0.686 C8.0782,0.686 9.5642,2.182 9.5642,4.022 C9.5642,5.861 8.0782,7.357 6.2502,7.357 C4.4222,7.357 2.9352,5.861 2.9352,4.022 M9.6542,8.382 C9.4962,8.277 9.2852,8.323 9.1822,8.483 C9.0802,8.641 9.1242,8.854 9.2822,8.958 C10.7742,9.934 11.7012,11.543 11.8072,13.314 L0.6932,13.314 C0.8702,10.383 3.2942,8.055 6.2502,8.055 C6.2902,8.055 6.3282,8.044 6.3642,8.032 C8.5142,7.969 10.2472,6.2 10.2472,4.022 C10.2472,1.804 8.4542,0.001 6.2502,0.001 C4.0462,0.001 2.2522,1.804 2.2522,4.022 C2.2522,5.607 3.1772,6.968 4.5052,7.623 C1.9062,8.385 0.0002,10.798 0.0002,13.657 C0.0002,13.847 0.1532,14.001 0.3412,14.001 L12.1592,14.001 C12.3472,14.001 12.5002,13.847 12.5002,13.657 C12.5002,11.521 11.4362,9.548 9.6542,8.382" id="Fill-1" fill="#666666" mask="url(#mask-2)"></path>
                    </g>
                </g>
            </g>
        </g>
    </g>
</svg>