<?xml version="1.0" encoding="UTF-8"?>
<svg width="14px" height="14px" viewBox="0 0 14 14" version="1.1" xmlns="http://www.w3.org/2000/svg" xmlns:xlink="http://www.w3.org/1999/xlink">
    <!-- Generator: Sketch 45.2 (43514) - http://www.bohemiancoding.com/sketch -->
    <title>Fill 1</title>
    <desc>Created with Sketch.</desc>
    <defs></defs>
    <g id="Page-1" stroke="none" stroke-width="1" fill="none" fill-rule="evenodd">
        <g id="Group_人员控件_单选" transform="translate(-95.000000, -229.000000)" fill="#666666">
            <g id="树" transform="translate(10.000000, 150.000000)">
                <g id="投资拓展部" transform="translate(77.000000, 76.000000)">
                    <path d="M21.3762515,10.044 C21.3412515,10.164 21.1332515,10.265 20.6872515,10.302 C20.6722515,10.303 20.6572515,10.302 20.6422515,10.302 L20.0092515,10.302 L19.9632515,10.302 C19.9632515,10.303 19.9622515,10.304 19.9622515,10.304 C19.9112515,10.303 19.6882515,10.317 19.6882515,10.632 L19.6882515,10.981 L19.6892515,10.98 L19.6892515,10.98 C19.6892515,10.98 19.6892515,10.98 19.6892515,10.981 L19.6892515,15.478 C19.6892515,16.004 19.2462515,16.391 18.5892515,16.391 L16.9722515,16.391 L16.9722515,12.13 C16.9722515,11.504 16.6842515,10.912 16.0662515,10.912 L15.0012515,10.912 L14.9992515,10.912 L13.9342515,10.912 C13.3162515,10.912 13.0282515,11.504 13.0282515,12.13 L13.0282515,16.391 L11.4102515,16.391 C10.7532515,16.391 10.3112515,16.004 10.3112515,15.478 L10.3112515,10.981 C10.3112515,10.98 10.3102515,10.98 10.3102515,10.98 L10.3112515,10.98 C10.3112515,10.98 10.3122515,10.981 10.3122515,10.981 L10.3122515,10.632 C10.3122515,10.317 10.0882515,10.303 10.0382515,10.304 C10.0372515,10.304 10.0372515,10.303 10.0372515,10.302 L9.99125153,10.302 L9.35725153,10.302 C9.34325153,10.302 9.32725153,10.303 9.31325153,10.302 C8.86625153,10.265 8.65825153,10.164 8.62325153,10.044 C8.58125153,9.897 8.67525153,9.655 8.91825153,9.397 L13.8802515,4.098 C14.1762515,3.782 14.5702515,3.608 14.9882515,3.608 C14.9922515,3.608 14.9952515,3.609 14.9992515,3.609 L15.0002515,3.609 L15.0012515,3.609 C15.0042515,3.609 15.0072515,3.608 15.0112515,3.608 C15.4302515,3.608 15.8232515,3.782 16.1192515,4.098 L21.0822515,9.397 C21.3242515,9.655 21.4192515,9.897 21.3762515,10.044 M21.5252515,8.981 L16.5622515,3.681 C16.1502515,3.241 15.6002515,3 15.0112515,3 C15.0072515,3 15.0032515,3 15.0002515,3.001 C14.9962515,3 14.9922515,3 14.9882515,3 C14.4002515,3 13.8492515,3.241 13.4372515,3.681 L8.47425153,8.981 C7.89525153,9.599 7.97025153,10.064 8.06525153,10.286 C8.16725153,10.52 8.47525153,10.911 9.38825153,10.911 L9.39025153,10.911 L9.70725153,10.912 L9.70725153,15.478 C9.70725153,16.349 10.4072515,17 11.4102515,17 L13.3762515,17 C13.5172515,17 13.6322515,16.881 13.6322515,16.733 L13.6322515,12.13 C13.6322515,11.867 13.7072515,11.522 13.9342515,11.522 L14.9992515,11.522 L15.0012515,11.522 L16.0662515,11.522 C16.2932515,11.522 16.3682515,11.867 16.3682515,12.13 L16.3682515,16.733 C16.3682515,16.881 16.4822515,17 16.6242515,17 L18.5892515,17 C19.5922515,17 20.2932515,16.349 20.2932515,15.478 L20.2932515,10.912 L20.6092515,10.911 L20.6112515,10.911 C21.5242515,10.911 21.8332515,10.52 21.9342515,10.286 C22.0302515,10.064 22.1052515,9.599 21.5252515,8.981" id="Fill-1"></path>
                </g>
            </g>
        </g>
    </g>
</svg>