<?xml version="1.0" encoding="UTF-8"?>
<svg width="14px" height="14px" viewBox="0 0 14 14" version="1.1" xmlns="http://www.w3.org/2000/svg" xmlns:xlink="http://www.w3.org/1999/xlink">
    <!-- Generator: Sketch 45.2 (43514) - http://www.bohemiancoding.com/sketch -->
    <title>nor_department</title>
    <desc>Created with Sketch.</desc>
    <defs></defs>
    <g id="Page-1" stroke="none" stroke-width="1" fill="none" fill-rule="evenodd">
        <g id="组织架构_下级机构" transform="translate(-109.000000, -247.000000)" fill="#666666">
            <g id="左侧" transform="translate(20.000000, 80.000000)">
                <g id="投资拓展部" transform="translate(81.000000, 164.000000)">
                    <path d="M20.2952172,15.9829791 L9.70478285,15.9829791 C9.08328752,15.9829791 8.57627817,15.4559663 8.57627817,14.8087408 L8.57627817,8.23646825 L21.4237218,8.23646825 L21.4237218,14.8087408 C21.4237218,15.4444259 20.9070918,15.9829791 20.2952172,15.9829791 M9.70478285,3.57605959 L13.1874656,3.57605959 C13.7406542,3.57605959 14.0061847,3.85495322 14.3419461,4.20789791 C14.7113799,4.59738728 15.1318032,5.03784687 15.9707257,5.03784687 L15.9716877,5.03784687 L20.2952172,5.03784687 L20.2952172,5.03880857 C20.9176745,5.03880857 21.3823529,5.50042561 21.4237218,6.14188095 L21.4237218,7.65944695 L8.57627817,7.65944695 L8.57627817,4.75029793 C8.57627817,4.10307237 9.08328752,3.57605959 9.70478285,3.57605959 M20.2952172,4.46178728 L15.9716877,4.46178728 L15.9707257,4.46178728 C15.3800165,4.46178728 15.0923584,4.1598128 14.7594832,3.80975322 C14.397746,3.42988086 13.9879054,3 13.1874656,3 L9.70478285,3 C8.76484332,3 8,3.78474896 8,4.75029793 L8,14.8087408 C8,15.7742898 8.76484332,16.5600004 9.70478285,16.5600004 L20.2952172,16.5600004 C21.2361187,16.5600004 22,15.7742898 22,14.8087408 L22,6.12360861 C21.9384277,5.16094475 21.2216877,4.46178728 20.2952172,4.46178728" id="nor_department"></path>
                </g>
            </g>
        </g>
    </g>
</svg>