<?xml version="1.0" encoding="UTF-8"?>
<svg width="14px" height="14px" viewBox="0 0 14 14" version="1.1" xmlns="http://www.w3.org/2000/svg" xmlns:xlink="http://www.w3.org/1999/xlink">
    <!-- Generator: Sketch 45.2 (43514) - http://www.bohemiancoding.com/sketch -->
    <title>sel_group</title>
    <desc>Created with Sketch.</desc>
    <defs></defs>
    <g id="Page-1" stroke="none" stroke-width="1" fill="none" fill-rule="evenodd">
        <g id="Group-6" transform="translate(-43.000000, -110.000000)" fill="#4A90E2">
            <path d="M55.2952172,122.925532 L44.7047828,122.925532 C44.0832875,122.925532 43.5762782,122.400851 43.5762782,121.756489 L43.5762782,115.213298 L56.4237218,115.213298 L56.4237218,121.756489 C56.4237218,122.389362 55.9070918,122.925532 55.2952172,122.925532 M44.7047828,110.573511 L48.1874656,110.573511 C48.7406542,110.573511 49.0061847,110.85117 49.3419461,111.202553 C49.7113799,111.590319 50.1318032,112.02883 50.9707257,112.02883 L50.9716877,112.02883 L55.2952172,112.02883 L55.2952172,112.029787 C55.9176745,112.029787 56.3823529,112.489362 56.4237218,113.127979 L56.4237218,114.63883 L43.5762782,114.63883 L43.5762782,111.742553 C43.5762782,111.098191 44.0832875,110.573511 44.7047828,110.573511 M55.2952172,111.455319 L50.9716877,111.455319 L50.9707257,111.455319 C50.3800165,111.455319 50.0923584,111.154681 49.7594832,110.80617 C49.397746,110.427979 48.9879054,110 48.1874656,110 L44.7047828,110 C43.7648433,110 43,110.781277 43,111.742553 L43,121.756489 C43,122.717766 43.7648433,123.5 44.7047828,123.5 L55.2952172,123.5 C56.2361187,123.5 57,122.717766 57,121.756489 L57,113.109787 C56.9384277,112.151383 56.2216877,111.455319 55.2952172,111.455319" id="sel_group"></path>
        </g>
    </g>
</svg>