<?xml version="1.0" standalone="no"?><!DOCTYPE svg PUBLIC "-//W3C//DTD SVG 1.1//EN" "http://www.w3.org/Graphics/SVG/1.1/DTD/svg11.dtd"><svg t="1489403974147" class="icon" style="" viewBox="0 0 1433 1024" version="1.1" xmlns="http://www.w3.org/2000/svg" p-id="5392" xmlns:xlink="http://www.w3.org/1999/xlink" width="83.96484375" height="60"><defs><style type="text/css"></style></defs><path d="M514.6624 319.8976c0-93.5936-79.6672-168.2432-176.7424-168.2432-96.9728 0-176.64 74.6496-176.64 168.2432S240.8448 488.2432 337.92 488.2432c97.0752 0 176.7424-74.752 176.7424-168.3456z m-273.5104 0c0-48.2304 42.8032-88.2688 96.6656-88.2688 54.0672 0 96.768 40.0384 96.768 88.2688s-42.8032 88.2688-96.768 88.2688c-53.8624 0-96.6656-40.0384-96.6656-88.2688z" fill="#499DF1" p-id="5393"></path><path d="M1342.3616 0H91.4432A91.9552 91.9552 0 0 0 0 91.8528v580.8128a39.936 39.936 0 1 0 80.0768 0V91.8528c0-6.3488 5.4272-11.776 11.4688-11.776h1250.7136c6.144 0 11.3664 5.2224 11.3664 10.752V688.128l-299.7248-356.7616c-41.6768-48.9472-109.4656-44.544-144.5888 9.1136L691.9168 673.3824c-7.168 10.8544-17.1008 12.288-26.0096 4.3008L542.3104 566.4768a108.7488 108.7488 0 0 0-150.3232 5.12L26.8288 951.9104a39.3216 39.3216 0 0 0-10.24 19.6608 40.1408 40.1408 0 0 0 37.9904 52.4288h1287.68A91.136 91.136 0 0 0 1433.6 933.1712V90.8288A91.4432 91.4432 0 0 0 1342.3616 0z m0 943.9232H145.408l304.3328-316.928a28.7744 28.7744 0 0 1 39.2192-1.024L612.352 737.0752c45.568 41.0624 112.64 31.744 146.3296-19.8656l217.6-332.9024c5.9392-9.0112 9.6256-9.216 16.5888-1.024l360.7552 429.3632v120.6272c0 5.5296-5.12 10.6496-11.264 10.6496z" fill="#499DF1" p-id="5394"></path></svg>