<?xml version="1.0" encoding="UTF-8"?>
<svg width="40px" height="40px" viewBox="0 0 40 40" version="1.1" xmlns="http://www.w3.org/2000/svg" xmlns:xlink="http://www.w3.org/1999/xlink">
    <!-- Generator: Sketch 45.2 (43514) - http://www.bohemiancoding.com/sketch -->
    <title>机构icon</title>
    <desc>Created with Sketch.</desc>
    <defs>
        <polygon id="path-1" points="15.3841538 19.4925385 0 19.4925385 0 0.000230769231 15.3841538 0.000230769231 15.3841538 19.4925385"></polygon>
    </defs>
    <g id="Page-1" stroke="none" stroke-width="1" fill="none" fill-rule="evenodd">
        <g id="组织机构应用分权_新建" transform="translate(-1216.000000, -37.000000)">
            <g id="新建" transform="translate(1170.000000, 0.000000)">
                <g id="标题" transform="translate(46.000000, 37.000000)">
                    <g id="机构icon">
                        <circle id="Oval-4" fill="#FF5B52" cx="20" cy="20" r="20"></circle>
                        <g id="Page-1" transform="translate(12.000000, 10.000000)">
                            <mask id="mask-2" fill="white">
                                <use xlink:href="#path-1"></use>
                            </mask>
                            <g id="Clip-2"></g>
                            <path d="M5.23569231,5.39669231 C5.23569231,4.51053846 5.47723077,3.86592308 5.87953846,3.38284615 C6.36338462,2.89976923 6.92723077,2.65823077 7.65184615,2.65823077 C8.45723077,2.65823077 9.10184615,2.89976923 9.58492308,3.38284615 C10.0687692,3.86592308 10.3103077,4.51053846 10.3103077,5.39669231 L10.3103077,7.81284615 L12.8072308,7.81284615 L12.8072308,4.83284615 C12.8072308,4.18823077 12.6456923,3.54438462 12.4041538,2.97976923 C12.1626154,2.41592308 11.7595385,1.93284615 11.2764615,1.44976923 C10.7933846,1.04746154 10.2295385,0.644384615 9.66569231,0.402846154 C9.02107692,0.161307692 8.45723077,-0.000230769231 7.73261538,-0.000230769231 C7.008,-0.000230769231 6.28261538,0.161307692 5.71876923,0.402846154 C5.07492308,0.644384615 4.59107692,0.966692308 4.108,1.44976923 C3.62492308,1.85284615 3.30261538,2.41592308 3.06107692,2.97976923 C2.81876923,3.54438462 2.658,4.18823077 2.658,4.83284615 L2.658,7.81284615 L5.23569231,7.81284615 L5.23569231,5.39669231 Z M8.21569231,14.1766923 L8.21569231,16.6736154 C8.21569231,16.9151538 7.97415385,17.1566923 7.73261538,17.1566923 C7.49107692,17.1566923 7.24953846,16.9151538 7.24953846,16.6736154 L7.24953846,14.1766923 C6.68569231,14.0151538 6.28261538,13.4513077 6.28261538,12.8066923 C6.28261538,12.0013077 6.92723077,11.3574615 7.73261538,11.3574615 C8.538,11.3574615 9.18261538,12.0013077 9.18261538,12.8066923 C9.18261538,13.4513077 8.77953846,13.9351538 8.21569231,14.1766923 L8.21569231,14.1766923 Z M14.9818462,9.42361538 C14.7403077,9.18207692 14.418,9.02130769 14.0156923,9.02130769 L1.36953846,9.02130769 C0.966461538,9.02130769 0.724923077,9.18207692 0.402615385,9.42361538 C0.161076923,9.66592308 -0.000461538462,9.98823077 -0.000461538462,10.3905385 L-0.000461538462,16.9151538 C-0.000461538462,17.2374615 0.0803076923,17.5597692 0.161076923,17.8813077 C0.241846154,18.2036154 0.402615385,18.4451538 0.644153846,18.6866923 C0.885692308,18.929 1.128,19.0897692 1.45030769,19.2505385 C1.77184615,19.4120769 2.09415385,19.4928462 2.41646154,19.4928462 L12.8072308,19.4928462 C13.2095385,19.4928462 13.5318462,19.4120769 13.8541538,19.2505385 C14.1764615,19.0897692 14.418,18.929 14.6595385,18.6866923 C14.9010769,18.4451538 15.0626154,18.2036154 15.2233846,17.8813077 C15.3841538,17.5597692 15.3841538,17.2374615 15.3841538,16.8343846 L15.3841538,10.4713077 C15.3841538,10.0682308 15.3041538,9.74592308 14.9818462,9.42361538 L14.9818462,9.42361538 Z" id="Fill-1" fill="#FFFFFF" mask="url(#mask-2)"></path>
                        </g>
                    </g>
                </g>
            </g>
        </g>
    </g>
</svg>