<?xml version="1.0" standalone="no"?><!DOCTYPE svg PUBLIC "-//W3C//DTD SVG 1.1//EN" "http://www.w3.org/Graphics/SVG/1.1/DTD/svg11.dtd"><svg t="1502954330986" class="icon" style="" viewBox="0 0 1024 1024" version="1.1" xmlns="http://www.w3.org/2000/svg" p-id="4995" xmlns:xlink="http://www.w3.org/1999/xlink" width="200" height="200"><defs><style type="text/css"></style></defs><path d="M288.027234 588.255319v217.872341H76.255319a203.274894 203.274894 0 0 0 200.006809 196.085106 207.414468 207.414468 0 0 0 11.765106-413.957447z" fill="#FFFFFF" p-id="4996"></path><path d="M264.497021 588.255319A203.710638 203.710638 0 0 0 76.255319 782.815319h188.241702zM884.779574 21.787234H347.942128a62.093617 62.093617 0 0 0-60.786383 62.965106v483.676596A224.190638 224.190638 0 0 1 496.748936 795.234043a231.162553 231.162553 0 0 1-43.574468 136.605957h433.78383A62.093617 62.093617 0 0 0 947.744681 869.092766V87.148936a65.361702 65.361702 0 0 0-62.965107-65.361702zM363.411064 209.157447h346.199149v24.401702H363.411064zM520.714894 435.744681h-157.30383v-24.401702h157.30383zM773.446809 334.651915H363.411064v-24.401702H773.446809z" fill="#FFFFFF" p-id="4997"></path></svg>