<?xml version="1.0" standalone="no"?><!DOCTYPE svg PUBLIC "-//W3C//DTD SVG 1.1//EN" "http://www.w3.org/Graphics/SVG/1.1/DTD/svg11.dtd"><svg t="1502954304149" class="icon" style="" viewBox="0 0 1093 1024" version="1.1" xmlns="http://www.w3.org/2000/svg" p-id="4547" xmlns:xlink="http://www.w3.org/1999/xlink" width="213.4765625" height="200"><defs><style type="text/css"></style></defs><path d="M1035.636364 471.272727h-122.181819a40.727273 40.727273 0 1 0 0 81.454546h81.454546V837.818182H954.181818v-32.581818c0-8.145455-8.145455-12.334545-20.48-4.189091l-93.090909 65.163636c-4.189091 4.189091-8.145455 8.145455-8.145454 12.334546s3.956364 8.145455 8.145454 12.334545l93.090909 65.163636c12.334545 8.145455 20.48 3.956364 20.48-12.334545v-23.272727h81.454546a38.4 38.4 0 0 0 40.727272-40.727273V512a38.4 38.4 0 0 0-40.727272-40.727273zM343.272727 267.636364h407.272728a81.687273 81.687273 0 0 0 81.454545-81.454546V104.727273a81.687273 81.687273 0 0 0-81.454545-81.454546h-407.272728a81.687273 81.687273 0 0 0-81.454545 81.454546V186.181818a81.687273 81.687273 0 0 0 81.454545 81.454546z m81.454546-162.909091A38.4 38.4 0 0 1 465.454545 145.454545 38.4 38.4 0 0 1 424.727273 186.181818a38.4 38.4 0 0 1-40.727273-40.727273 38.4 38.4 0 0 1 40.727273-40.727272zM160.116364 222.952727l93.090909-65.163636c4.189091-4.189091 8.145455-8.145455 8.145454-12.101818s-3.956364-8.145455-8.145454-12.334546l-93.090909-65.163636C147.781818 60.043636 139.636364 64 139.636364 72.145455v32.581818H58.181818A38.4 38.4 0 0 0 17.454545 145.454545V512a38.4 38.4 0 0 0 40.727273 40.727273h122.181818a40.727273 40.727273 0 1 0 0-81.454546h-81.454545V186.181818H139.636364v23.272727c0 17.454545 8.145455 21.643636 20.48 13.498182zM750.545455 756.363636h-407.272728a81.687273 81.687273 0 0 0-81.454545 81.454546v81.454545a81.687273 81.687273 0 0 0 81.454545 81.454546h407.272728a81.687273 81.687273 0 0 0 81.454545-81.454546V837.818182a81.687273 81.687273 0 0 0-81.454545-81.454546z m-81.454546 162.909091a40.727273 40.727273 0 1 1 40.727273-40.727272 38.4 38.4 0 0 1-40.727273 40.727272zM278.109091 540.625455l252.509091 130.327272a24.436364 24.436364 0 0 0 16.290909 4.189091c8.145455 0 12.334545 0 16.290909-4.189091l251.345455-130.327272a31.418182 31.418182 0 0 0 0-57.018182l-251.345455-130.327273a34.676364 34.676364 0 0 0-32.581818 0l-252.509091 130.327273a31.418182 31.418182 0 0 0 0 57.018182z" fill="#FFFFFF" p-id="4548"></path></svg>