<?xml version="1.0" standalone="no"?><!DOCTYPE svg PUBLIC "-//W3C//DTD SVG 1.1//EN" "http://www.w3.org/Graphics/SVG/1.1/DTD/svg11.dtd"><svg t="1502954320491" class="icon" style="" viewBox="0 0 1024 1024" version="1.1" xmlns="http://www.w3.org/2000/svg" p-id="4769" xmlns:xlink="http://www.w3.org/1999/xlink" width="200" height="200"><defs><style type="text/css"></style></defs><path d="M813.883077 19.692308H322.56A56.123077 56.123077 0 0 0 267.815385 70.695385 61.44 61.44 0 0 1 295.384615 64.196923a64.590769 64.590769 0 0 1 63.606154 65.378462V161.476923h194.56V129.575385a63.606154 63.606154 0 1 1 127.212308 0V161.476923h21.070769a72.467692 72.467692 0 0 1 71.286154 73.452308V846.769231h41.156923a56.516923 56.516923 0 0 0 55.532308-57.107693V76.8A56.516923 56.516923 0 0 0 813.883077 19.692308z" fill="#FFFFFF" p-id="4770"></path><path d="M701.44 177.230769h-21.070769v50.018462a63.606154 63.606154 0 1 1-127.212308 0V177.230769h-194.56v50.018462A64.590769 64.590769 0 0 1 295.384615 293.218462a64.590769 64.590769 0 0 1-63.606153-65.378462V177.230769h-19.692308a59.076923 59.076923 0 0 0-57.501539 59.076923v710.892308A56.516923 56.516923 0 0 0 210.116923 1004.307692h491.323077a56.516923 56.516923 0 0 0 55.532308-57.107692V234.929231A56.516923 56.516923 0 0 0 701.44 177.230769z m-125.44 376.32H234.732308V531.692308h341.267692z m95.310769-91.766154H234.929231v-22.055384h436.381538z m0-91.766153H234.929231v-22.055385h436.381538z" fill="#FFFFFF" p-id="4771"></path><path d="M247.335385 80.541538l95.310769 0 0 196.332308-95.310769 0 0-196.332308Z" fill="#FFFFFF" p-id="4772"></path><path d="M569.107692 80.541538l95.31077 0 0 196.332308-95.31077 0 0-196.332308Z" fill="#FFFFFF" p-id="4773"></path></svg>