<?xml version="1.0" encoding="UTF-8"?>
<svg width="36px" height="30px" viewBox="0 0 36 30" version="1.1" xmlns="http://www.w3.org/2000/svg" xmlns:xlink="http://www.w3.org/1999/xlink">
    <!-- Generator: Sketch 45.2 (43514) - http://www.bohemiancoding.com/sketch -->
    <title>喇叭</title>
    <desc>Created with Sketch.</desc>
    <defs></defs>
    <g id="Page-1" stroke="none" stroke-width="1" fill="none" fill-rule="evenodd">
        <g id="OA主页_鸡汤版本1" transform="translate(-761.000000, -118.000000)">
            <g id="Group-4" transform="translate(328.000000, 80.000000)">
                <g id="喇叭" transform="translate(433.000000, 38.000000)">
                    <polygon id="Fill-1" fill="#F7D11E" points="8.54083798 21.720725 8.54083798 6.68916208 24.175891 0.767700434 24.175891 28.097657 9.3610254 22.738424"></polygon>
                    <polygon id="Fill-2" fill="#FF703B" points="9.23150086 23.087123 8.54084242 29.2365152 5.28135536 29.2365152 4.36027028 21.0374414"></polygon>
                    <g id="Group-8" transform="translate(0.000000, 0.032996)">
                        <path d="M5.28134205,7.63116643 L5.28134205,21.1609928 C5.00075512,21.0543213 4.72731492,20.9332359 4.46825697,20.790877 C2.23785499,19.6166223 0.719596054,17.1896614 0.719596054,14.3997048 C0.719596054,11.2753632 2.62626436,8.61343849 5.28134205,7.63116643" id="Fill-3" fill="#F7D11E"></path>
                        <g id="Group-7" fill="#875F44">
                            <path d="M35.2564691,12.7770521 L30.6947231,12.7770521 C30.297125,12.7770521 29.9753001,13.0957207 29.9753001,13.4888466 C29.9753001,13.8817988 30.297125,14.2004674 30.6947231,14.2004674 L35.2564691,14.2004674 C35.6540671,14.2004674 35.975892,13.8817988 35.975892,13.4888466 C35.975892,13.0957207 35.6540671,12.7770521 35.2564691,12.7770521 L35.2564691,12.7770521 Z M30.6954333,9.41765991 C30.8128883,9.41765991 30.9283014,9.38913603 31.0319956,9.33451954 L34.9388168,7.28488133 C35.2894062,7.10067004 35.4236848,6.6700767 35.2373815,6.32275398 C35.051167,5.97512735 34.6149055,5.84266715 34.264183,6.02765991 L30.3574949,8.07734153 C30.0068612,8.26155282 29.8726713,8.6919725 30.0588858,9.03959913 C30.182511,9.27161071 30.4279413,9.41731259 30.6954333,9.41765991 L30.6954333,9.41765991 Z M34.9388168,20.3759522 L31.0319956,18.3259233 C30.6806959,18.1421027 30.2451004,18.2736946 30.0588858,18.6210174 C29.8726713,18.9681664 30.0068612,19.3991071 30.3574949,19.583275 L34.2642718,21.6333039 C34.3676996,21.6877467 34.4832903,21.7162272 34.600834,21.7164009 C34.8684148,21.7160535 35.1137564,21.5703517 35.2373815,21.3382098 C35.4236848,20.9910608 35.2894062,20.5601201 34.9388168,20.3759522 L34.9388168,20.3759522 Z M28.0183383,16.1772113 L24.8951275,17.6975297 L24.8951275,11.1020014 L28.0183383,12.6220593 L28.0183383,16.1772113 Z M9.26025203,21.8371389 L9.26025203,6.88632851 L23.4561041,1.75281187 L23.4561041,27.0464588 C23.4561041,27.0464588 9.26025203,21.9117699 9.26025203,21.8371389 L9.26025203,21.8371389 Z M7.89651344,28.4915384 L5.92548015,28.4915384 L5.19185253,21.957877 L8.4962619,23.1528408 L7.89651344,28.4915384 Z M1.43901899,14.3995702 C1.43901899,12.0374718 2.6595566,9.89231983 4.561564,8.763 L4.561564,20.025547 C2.6287058,18.8914515 1.43901899,16.7624501 1.43901899,14.3995702 L1.43901899,14.3995702 Z M6.00076498,8.06514182 L7.82122861,7.40679161 L7.82122861,21.3934776 L6.00076498,20.735301 L6.00076498,8.06514182 Z M29.055458,11.5402359 L24.8951275,9.51564834 L24.8951275,0.734591896 C24.8951275,0.502232996 24.7805134,0.284287988 24.58804,0.151002894 C24.3949006,0.0182387844 24.1508908,-0.0143227207 23.9282767,0.0662127352 C23.9282767,0.0662127352 4.86532232,6.98570622 4.79771689,7.05521418 C1.91776128,8.23272504 -4.43896424e-06,11.151712 -4.43896424e-06,14.3995702 C-4.43896424e-06,17.2001635 1.38979088,19.7384414 3.65241973,21.1453589 L4.56586979,29.2816975 C4.60661948,29.6420449 4.91441726,29.9149537 5.28116449,29.9149537 L8.5408291,29.9149537 C8.90757633,29.9149537 9.21537411,29.6420449 9.2561238,29.2816975 L9.88796597,23.6560246 L23.9282767,28.7330579 C24.0083556,28.762233 24.4011152,28.7686585 24.58804,28.6482677 C24.7805134,28.5149826 24.8951275,28.2972113 24.8951275,28.0646787 L24.8951275,19.2840999 L29.055458,17.2590347 C29.3015541,17.1391216 29.4573618,16.8913502 29.4573618,16.6203517 L29.4573618,12.1790926 C29.4573618,11.9077467 29.3015541,11.6601491 29.055458,11.5402359 L29.055458,11.5402359 Z" id="Fill-5"></path>
                        </g>
                    </g>
                </g>
            </g>
        </g>
    </g>
</svg>