<?xml version="1.0" standalone="no"?><!DOCTYPE svg PUBLIC "-//W3C//DTD SVG 1.1//EN" "http://www.w3.org/Graphics/SVG/1.1/DTD/svg11.dtd"><svg t="1506473349079" class="icon" style="" viewBox="0 0 1024 1024" version="1.1" xmlns="http://www.w3.org/2000/svg" p-id="9726" xmlns:xlink="http://www.w3.org/1999/xlink" width="32" height="32"><defs><style type="text/css"></style></defs><path d="M482.133333 657.92V421.546667a17.493333 17.493333 0 1 0-35.413333 0v236.373333a17.493333 17.493333 0 1 0 35.413333 0z" fill="#4A90E2" p-id="9727"></path><path d="M667.733333 389.973333a17.92 17.92 0 0 0-17.493333 17.92v291.84a23.466667 23.466667 0 0 1-23.04 23.893334H396.8a23.466667 23.466667 0 0 1-23.04-23.893334V407.893333a17.493333 17.493333 0 1 0-34.986667 0v305.92A45.226667 45.226667 0 0 0 384 759.466667h256a45.226667 45.226667 0 0 0 42.666667-45.653334V407.893333a17.92 17.92 0 0 0-14.933334-17.92zM437.76 298.666667h148.906667a17.92 17.92 0 0 0 0-35.84h-148.906667a17.92 17.92 0 0 0 0 35.84z" fill="#4A90E2" p-id="9728"></path><path d="M576.853333 657.92V421.546667a17.493333 17.493333 0 1 0-34.986666 0v236.373333a17.493333 17.493333 0 1 0 34.986666 0zM721.92 320.426667H302.08a17.92 17.92 0 0 0 0 35.84h419.413333a17.92 17.92 0 0 0 0-35.84z" fill="#4A90E2" p-id="9729"></path><path d="M512 85.333333a426.666667 426.666667 0 1 0 426.666667 426.666667A426.666667 426.666667 0 0 0 512 85.333333z m0 810.666667a384 384 0 1 1 384-384 386.56 386.56 0 0 1-384 384z" fill="#4A90E2" p-id="9730"></path></svg>