<?xml version="1.0" encoding="UTF-8"?>
<svg width="18px" height="18px" viewBox="0 0 18 18" version="1.1" xmlns="http://www.w3.org/2000/svg" xmlns:xlink="http://www.w3.org/1999/xlink">
    <!-- Generator: Sketch 45.2 (43514) - http://www.bohemiancoding.com/sketch -->
    <title>批量删除</title>
    <desc>Created with Sketch.</desc>
    <defs></defs>
    <g id="Page-1" stroke="none" stroke-width="1" fill="none" fill-rule="evenodd">
        <g id="02_表单列表_查看_字段信息" transform="translate(-1312.000000, -226.000000)" fill="#98A2AC">
            <g id="右滑" transform="translate(1141.000000, 0.000000)">
                <g id="主表" transform="translate(75.000000, 195.000000)">
                    <g id="表头" transform="translate(0.000000, 29.000000)">
                        <g id="批量删除字段" transform="translate(96.000000, 2.000000)">
                            <path d="M13.797,14.4117 C13.797,14.724 13.7529,14.9508 13.6656,15.0912 C13.5774,15.2325 13.4019,15.3036 13.1373,15.3036 C12.6531,15.3036 12.411,15.0066 12.411,14.4117 L12.411,5.6601 L13.797,5.6601 L13.797,14.4117 Z M9.6381,14.4558 C9.6381,14.7681 9.594,14.9949 9.5058,15.1362 C9.4185,15.2766 9.2493,15.3477 9,15.3477 C8.5158,15.3477 8.2737,15.0507 8.2737,14.4558 L8.2737,5.6601 L9.6381,5.6601 L9.6381,14.4558 Z M5.5458,14.4558 C5.5458,15.066 5.31,15.3702 4.8411,15.3702 C4.5918,15.3702 4.4199,15.2955 4.3245,15.147 C4.2291,14.9985 4.1814,14.7681 4.1814,14.4558 L4.1814,5.6601 L5.5458,5.6601 L5.5458,14.4558 Z M5.5233,2.808 L12.411,2.808 L12.411,1.404 L5.5233,1.404 L5.5233,2.808 Z M13.9509,18 C14.3622,18 14.7249,17.937 15.0408,17.8101 C15.3558,17.6841 15.6231,17.5167 15.8436,17.3088 C16.0641,17.1009 16.2324,16.8588 16.3494,16.5843 C16.4673,16.3089 16.5258,16.0236 16.5258,15.7266 L16.5258,5.571 L17.9784,5.571 L17.9784,5.4369 C17.9784,5.3928 17.982,5.3406 17.9892,5.2812 C17.9964,5.2218 18,5.1399 18,5.0364 C18,4.8132 17.9676,4.572 17.901,4.3119 C17.8353,4.0518 17.7174,3.8106 17.5491,3.5874 C17.3799,3.3651 17.1531,3.1797 16.8669,3.0303 C16.5807,2.8818 16.2171,2.8071 15.7779,2.8071 L14.7654,2.8071 C14.4135,2.8071 14.0832,2.7999 13.7754,2.7855 L13.7754,1.404 C13.7754,1.017 13.6764,0.6867 13.4784,0.4113 C13.2804,0.1368 12.9249,0 12.411,0 L5.5233,0 C5.1417,0 4.8195,0.1368 4.5549,0.4113 C4.2903,0.6867 4.1589,1.017 4.1589,1.404 L4.1589,2.763 L2.2005,2.763 C1.8189,2.763 1.4895,2.8296 1.2105,2.9637 C0.9315,3.0969 0.7047,3.2643 0.5283,3.465 C0.3528,3.6657 0.2205,3.8844 0.1323,4.122 C0.0441,4.3605 0,4.5756 0,4.7691 C0,5.1552 0.0081,5.3856 0.0225,5.4594 C0.0225,5.5188 0.0297,5.5566 0.0441,5.571 L1.4085,5.571 L1.4085,15.5034 C1.4085,15.8904 1.4778,16.2351 1.6173,16.5402 C1.7568,16.8444 1.9476,17.1045 2.1897,17.3196 C2.4318,17.5356 2.7216,17.7021 3.0582,17.8218 C3.3966,17.9397 3.7557,18 4.1373,18 L13.9509,18 Z" id="批量删除"></path>
                        </g>
                    </g>
                </g>
            </g>
        </g>
    </g>
</svg>