<?xml version="1.0" standalone="no"?><!DOCTYPE svg PUBLIC "-//W3C//DTD SVG 1.1//EN" "http://www.w3.org/Graphics/SVG/1.1/DTD/svg11.dtd"><svg t="1506480251253" class="icon" style="" viewBox="0 0 1024 1024" version="1.1" xmlns="http://www.w3.org/2000/svg" p-id="5672" xmlns:xlink="http://www.w3.org/1999/xlink" width="32" height="32"><defs><style type="text/css"></style></defs><path d="M784.896 819.882667c0 17.749333-2.503111 30.663111-7.452444 38.684444-5.063111 7.964444-15.018667 12.060444-30.094223 12.060445-27.534222 0-41.301333-16.896-41.301333-50.744889V321.991111h78.848v497.891556z m-236.600889 2.503111c0 17.749333-2.503111 30.663111-7.509333 38.684444-5.006222 7.964444-14.620444 12.060444-28.785778 12.060445-27.534222 0-41.301333-16.896-41.301333-50.744889V321.991111h77.596444v500.394667z m-232.789333 0c0 34.702222-13.425778 51.996444-40.106667 51.996444-14.222222 0-23.950222-4.209778-29.411555-12.686222-5.404444-8.476444-8.135111-21.560889-8.135112-39.310222V321.991111h77.653334v500.394667zM314.197333 159.744h391.850667V79.872H314.197333v79.872zM793.656889 1024c23.381333 0 44.032-3.584 62.008889-10.808889 17.92-7.168 33.109333-16.668444 45.681778-28.501333 12.515556-11.832889 22.072889-25.6 28.728888-41.244445 6.712889-15.644444 10.069333-31.857778 10.069334-48.753777V316.871111h82.602666v-7.623111c0-2.503111 0.227556-5.461333 0.625778-8.874667 0.398222-3.413333 0.625778-8.021333 0.625778-13.937777 0-12.686222-1.820444-26.396444-5.632-41.187556a114.631111 114.631111 0 0 0-20.024889-41.244444 114.005333 114.005333 0 0 0-38.798222-31.687112c-16.270222-8.419556-36.977778-12.686222-62.008889-12.686222h-57.571556c-19.968 0-38.798222-0.398222-56.32-1.251555V79.872c0-22.016-5.632-40.789333-16.896-56.490667C755.484444 7.793778 735.288889 0 706.048 0H314.197333c-21.674667 0-40.049778 7.793778-55.068444 23.381333a78.506667 78.506667 0 0 0-22.528 56.490667v77.312H125.155556c-21.731556 0-40.504889 3.811556-56.32 11.377778-15.928889 7.623111-28.785778 17.123556-38.855112 28.558222-9.955556 11.377778-17.464889 23.893333-22.528 37.376A107.178667 107.178667 0 0 0 0 271.303111c0 21.959111 0.455111 35.100444 1.251556 39.253333 0 3.413333 0.455111 5.575111 1.251555 6.371556H80.213333v565.020444c0 22.016 3.925333 41.642667 11.832889 58.993778 7.964444 17.294222 18.773333 32.142222 32.597334 44.373334 13.767111 12.288 30.264889 21.731556 49.379555 28.558222 19.285333 6.712889 39.708444 10.126222 61.44 10.126222h558.250667z" fill="#98A2AC" p-id="5673"></path></svg>