<svg id="图层_1" data-name="图层 1" xmlns="http://www.w3.org/2000/svg" viewBox="0 0 24 24"><defs><style>.cls-1{fill:#98a2ac;}</style></defs><title>批量删除</title><path class="cls-1" d="M11.31,15.43V9.89a.41.41,0,0,0-.83,0v5.54a.41.41,0,0,0,.83,0Z"/><path class="cls-1" d="M15.65,9.15a.42.42,0,0,0-.41.42v6.84a.55.55,0,0,1-.54.56H9.31a.55.55,0,0,1-.54-.56h0V9.57a.41.41,0,0,0-.82,0v7.17a1.06,1.06,0,0,0,1,1.07h6a1.06,1.06,0,0,0,1-1.07V9.57A.42.42,0,0,0,15.65,9.15Z"/><path class="cls-1" d="M10.27,7h3.49a.42.42,0,1,0,0-.84H10.27a.42.42,0,0,0,0,.84Z"/><path class="cls-1" d="M13.53,15.43V9.89a.41.41,0,1,0-.82,0h0v5.54a.41.41,0,0,0,.82,0Z"/><path class="cls-1" d="M16.93,7.52H7.09a.42.42,0,0,0,0,.84h9.83a.42.42,0,1,0,0-.84Z"/><path class="cls-1" d="M12,2A10,10,0,1,0,22,12,10,10,0,0,0,12,2Zm0,19a9,9,0,1,1,9-9A9,9,0,0,1,12,21Z"/></svg>