<?xml version="1.0" standalone="no"?><!DOCTYPE svg PUBLIC "-//W3C//DTD SVG 1.1//EN" "http://www.w3.org/Graphics/SVG/1.1/DTD/svg11.dtd"><svg t="1506480824517" class="icon" style="" viewBox="0 0 1024 1024" version="1.1" xmlns="http://www.w3.org/2000/svg" p-id="5411" xmlns:xlink="http://www.w3.org/1999/xlink" width="32" height="32"><defs><style type="text/css"></style></defs><path d="M254.5664 386.048a26.2656 26.2656 0 0 1 37.7344-3.2256l224.3584 201.7792 214.9376-200.704a26.368 26.368 0 0 1 37.9904 3.2768 27.4432 27.4432 0 0 1-3.328 38.0416l-232.192 215.8592a26.5728 26.5728 0 0 1-34.7136 0.1024L257.6384 424.1408a27.4944 27.4944 0 0 1-3.072-38.0928M512 1024c281.6 0 512-230.4 512-512S793.6 0 512 0 0 230.4 0 512s230.4 512 512 512" fill="#4A90E2" p-id="5412"></path></svg>