<?xml version="1.0" standalone="no"?><!DOCTYPE svg PUBLIC "-//W3C//DTD SVG 1.1//EN" "http://www.w3.org/Graphics/SVG/1.1/DTD/svg11.dtd"><svg t="1489557208388" class="icon" style="" viewBox="0 0 1024 1024" version="1.1" xmlns="http://www.w3.org/2000/svg" p-id="5381" xmlns:xlink="http://www.w3.org/1999/xlink" width="48" height="48"><defs><style type="text/css"></style></defs><path d="M654.802892 458.778868 373.910457 458.778868c-15.919575 0-28.091802 12.172227-28.091802 28.088732l0 196.626239c0 15.917528 12.173251 28.089755 28.091802 28.089755l280.892435 0c15.917528 0 28.089755-12.173251 28.089755-28.089755L682.892647 486.8676C682.892647 470.951095 670.719396 458.778868 654.802892 458.778868zM458.176652 655.403061 401.999189 655.403061l0-56.17644 56.177464 0L458.176652 655.403061zM458.176652 571.135842 401.999189 571.135842l0-56.180534 56.177464 0L458.176652 571.135842zM542.445918 655.403061l-56.180534 0 0-56.17644 56.180534 0L542.445918 655.403061zM542.445918 571.135842l-56.180534 0 0-56.180534 56.180534 0L542.445918 571.135842zM626.71109 655.403061l-56.17644 0 0-56.17644 56.17644 0L626.71109 655.403061zM626.71109 571.135842l-56.17644 0 0-56.180534 56.17644 0L626.71109 571.135842z" fill="#ff6868" p-id="5382"></path><path d="M514.356163 42.047652c-259.548314 0-469.952348 210.404034-469.952348 469.952348 0 259.547291 210.404034 469.952348 469.952348 469.952348 259.547291 0 469.952348-210.405057 469.952348-469.952348C984.308511 252.451686 773.90243 42.047652 514.356163 42.047652zM739.07011 711.583594c0 30.898731-25.278733 56.177464-56.177464 56.177464L345.817632 767.761058c-30.897707 0-56.177464-25.278733-56.177464-56.177464L289.640168 374.508579c0-30.897707 25.279756-56.177464 56.177464-56.177464l56.180534 0 0 28.088732c0 15.919575 12.172227 28.088732 28.088732 28.088732 15.916505 0 28.088732-12.170181 28.088732-28.088732l0-28.088732 112.357997 0 0 28.088732c0 15.919575 12.173251 28.088732 28.088732 28.088732 15.918551 0 28.087709-12.170181 28.087709-28.088732l0-28.088732 56.180534 0c30.898731 0 56.177464 25.279756 56.177464 56.177464L739.068064 711.583594z" fill="#ff6868" p-id="5383"></path></svg>