<?xml version="1.0" standalone="no"?><!DOCTYPE svg PUBLIC "-//W3C//DTD SVG 1.1//EN" "http://www.w3.org/Graphics/SVG/1.1/DTD/svg11.dtd"><svg t="1488950506213" class="icon" style="" viewBox="0 0 1024 1024" version="1.1" xmlns="http://www.w3.org/2000/svg" p-id="5032" xmlns:xlink="http://www.w3.org/1999/xlink" width="60" height="60"><defs><style type="text/css"></style></defs><path d="M512 512m-512 0a512 512 0 1 0 1024 0 512 512 0 1 0-1024 0Z" fill="#FF6868" p-id="5033"></path><path d="M684.3648 374.8608a151.936 151.936 0 0 0 44.3392 6.7072c14.5664 0 27.7248-2.2016 39.296-5.3504v-91.0592a82.2784 82.2784 0 0 1-63.4368 6.144c-24.7552-7.5264-44.8256-11.264-61.2608-12.416v-7.9104A14.8992 14.8992 0 0 0 628.48 256a14.8992 14.8992 0 0 0-14.8224 14.976v118.1184l-79.7184-80.5376a30.592 30.592 0 0 0-43.776-0.0256l-229.8624 232.2432a14.7456 14.7456 0 0 0 0 20.7104l4.2752 4.3008a14.4384 14.4384 0 0 0 20.5312-0.0256l35.9168-36.3008v198.4512h-8.5504a19.9168 19.9168 0 0 0-19.84 20.0192c0 11.0592 8.8832 20.0192 19.84 20.0192H711.68c10.9312 0 19.8144-8.96 19.8144-20.0192a19.9168 19.9168 0 0 0-19.8144-20.0192h-8.4992v-198.4l35.84 36.224a14.4128 14.4128 0 0 0 20.5056 0.0256l4.2752-4.3008a14.7456 14.7456 0 0 0 0-20.7104l-120.4736-121.7024v-53.4016c9.3184 1.0752 22.5792 3.6096 41.0368 9.216z m-119.1424 353.0752h-106.3936v-113.8688h106.3936v113.8688z" fill="#FFFFFF" p-id="5034"></path></svg>