<?xml version="1.0" standalone="no"?><!DOCTYPE svg PUBLIC "-//W3C//DTD SVG 1.1//EN" "http://www.w3.org/Graphics/SVG/1.1/DTD/svg11.dtd"><svg t="1489473447829" class="icon" style="" viewBox="0 0 1024 1024" version="1.1" xmlns="http://www.w3.org/2000/svg" p-id="5425" xmlns:xlink="http://www.w3.org/1999/xlink" width="32" height="32"><defs><style type="text/css"></style></defs><path d="M920.448 139.52c-224.426667 0-378.325333-128.682667-379.861333-130.005333a40.064 40.064 0 0 0-56.874667 5.205333C405.248 111.957333 200.832 137.642667 103.552 137.642667a40.149333 40.149333 0 0 0-27.861333 11.306666 39.04 39.04 0 0 0-11.690667 27.648v365.056C64 701.056 311.893333 1024 514.688 1024 727.082667 1024 960 693.461333 960 553.130667v-374.613334a39.338667 39.338667 0 0 0-39.552-38.997333z m-39.466667 76.8l-0.042666 336.810667c0 52.608-51.669333 152.192-122.837334 236.757333-83.584 99.328-172.288 156.245333-243.413333 156.245333-68.48 0-159.488-58.368-243.413333-156.117333-76.672-89.258667-128.170667-189.098667-128.170667-248.405333v-327.253334c83.2-4.394667 269.824-25.301333 376.106667-123.050666 53.205333 36.949333 184.746667 114.688 361.770666 125.013333z" fill="#4E5F80" p-id="5426"></path><path d="M387.285333 291.2a32.512 32.512 0 0 0-45.610666-0.853333 31.488 31.488 0 0 0-0.853334 44.928l105.301334 107.392H335.914667a32.128 32.128 0 0 0-32.298667 31.786666c0 17.536 14.549333 31.786667 32.298667 31.786667h143.829333v58.922667H335.914667a32.085333 32.085333 0 0 0-32.298667 31.744c0 17.536 14.549333 31.786667 32.298667 31.786666h143.829333v124.928c0 17.536 14.549333 31.786667 32.298667 31.786667a32.085333 32.085333 0 0 0 32.298666-31.786667v-124.928h143.829334a32.085333 32.085333 0 0 0 32.298666-31.786666 32.042667 32.042667 0 0 0-32.298666-31.744h-143.829334v-58.922667h143.829334a32.085333 32.085333 0 0 0 32.298666-31.786667 32.042667 32.042667 0 0 0-32.298666-31.786666h-110.165334l105.258667-107.392a31.402667 31.402667 0 0 0-0.768-44.928 32.512 32.512 0 0 0-45.610667 0.810666L512 418.389333 387.285333 291.2z" fill="#66CCFF" p-id="5427"></path></svg>