<?xml version="1.0" standalone="no"?><!DOCTYPE svg PUBLIC "-//W3C//DTD SVG 1.1//EN" "http://www.w3.org/Graphics/SVG/1.1/DTD/svg11.dtd"><svg t="1489473440563" class="icon" style="" viewBox="0 0 1024 1024" version="1.1" xmlns="http://www.w3.org/2000/svg" p-id="5301" xmlns:xlink="http://www.w3.org/1999/xlink" width="32" height="32"><defs><style type="text/css"></style></defs><path d="M392.789333 233.685333a31.616 31.616 0 0 0-45.141333-0.810666 32.341333 32.341333 0 0 0-0.853333 45.44l104.234666 108.629333H341.930667a32.128 32.128 0 0 0-31.957334 32.170667c0 17.749333 14.378667 32.170667 31.957334 32.170666H484.266667v59.605334H341.930667a32.085333 32.085333 0 0 0 0 64.256H484.266667v126.378666c0 17.749333 14.378667 32.170667 31.957333 32.170667a32.085333 32.085333 0 0 0 31.957333-32.170667V575.146667h142.336a32.085333 32.085333 0 0 0 0-64.256h-142.336v-59.605334h142.336a32.085333 32.085333 0 0 0 31.957334-32.170666 32.085333 32.085333 0 0 0-31.957334-32.170667h-109.056l104.192-108.629333a32.256 32.256 0 0 0-0.768-45.44 31.701333 31.701333 0 0 0-45.141333 0.810666l-123.52 128.64-123.434667-128.64z" fill="#66CCFF" p-id="5302"></path><path d="M914.261333 46.037333A155.562667 155.562667 0 0 0 804.821333 0H219.178667c-40.490667 0-80.384 16.768-109.44 46.037333A157.696 157.696 0 0 0 64 156.202667v710.570666c0 40.704 16.128 80.085333 45.738667 111.232A155.605333 155.605333 0 0 0 219.178667 1024c43.221333 0 113.962667-34.090667 195.84-73.6l5.546666-2.688c11.52-5.290667 22.912-10.666667 34.133334-15.914667 20.266667-9.557333 39.552-18.645333 57.258666-26.026666 17.706667 7.381333 36.992 16.469333 57.216 26.026666 11.221333 5.290667 22.613333 10.666667 33.749334 15.744l5.973333 2.858667C690.858667 989.909333 761.6 1024 804.821333 1024a155.733333 155.733333 0 0 0 109.781334-46.378667c29.269333-30.805333 45.397333-70.186667 45.397333-110.890666V156.202667c0-40.746667-16.682667-80.896-45.738667-110.165334zM375.68 887.338667c-61.482667 29.184-131.114667 62.208-156.501333 62.208a81.066667 81.066667 0 0 1-57.557334-24.917334 81.493333 81.493333 0 0 1-23.68-57.941333V156.202667c0-20.906667 8.405333-41.429333 23.68-57.941334a84.48 84.48 0 0 1 57.557334-23.808h585.642666c20.736 0 41.173333 8.448 57.557334 23.808 15.274667 16.512 23.68 37.034667 23.68 57.941334v710.570666c0 22.016-8.405333 42.581333-23.68 57.941334a81.109333 81.109333 0 0 1-57.557334 24.917333c-25.386667 0-95.061333-33.066667-156.544-62.250667l-13.738666-6.528a4152.618667 4152.618667 0 0 1-24.021334-11.477333c-28.373333-13.610667-57.728-27.733333-84.608-38.186667l-13.909333-5.632-13.696 5.504c-27.093333 10.538667-56.448 24.661333-84.821333 38.272l-24.021334 11.477334-13.781333 6.528z" fill="#4E5F80" p-id="5303"></path></svg>