<?xml version="1.0" standalone="no"?><!DOCTYPE svg PUBLIC "-//W3C//DTD SVG 1.1//EN" "http://www.w3.org/Graphics/SVG/1.1/DTD/svg11.dtd"><svg t="1491893113767" class="icon" style="" viewBox="0 0 1024 1024" version="1.1" xmlns="http://www.w3.org/2000/svg" p-id="6758" xmlns:xlink="http://www.w3.org/1999/xlink" width="48" height="48"><defs><style type="text/css"></style></defs><path d="M512 0C229.674667 0 0 229.674667 0 512s229.674667 512 512 512 512-229.674667 512-512S794.325333 0 512 0z m433.664 512c0 239.104-194.56 433.664-433.664 433.664-239.146667 0-433.664-194.56-433.664-433.664C78.336 272.853333 272.896 78.336 512 78.336c239.146667 0 433.664 194.517333 433.664 433.664z" fill="#4E5F80" p-id="6759"></path><path d="M664.661333 693.589333h0.853334c32.768 0 59.392-26.666667 59.392-59.392v-131.328a23.381333 23.381333 0 0 0-46.677334 0v131.328c0 6.997333-5.717333 12.714667-13.525333 12.714667a12.714667 12.714667 0 0 1-12.714667-12.714667V410.069333c0-6.997333 5.674667-12.714667 13.525334-12.714666 6.997333 0 12.714667 5.674667 12.714666 12.714666v39.125334a23.381333 23.381333 0 0 0 46.677334 0v-39.125334c0-32.768-26.666667-59.392-60.245334-59.392-32.768 0-59.392 26.666667-59.392 59.392v224.085334c0 32.768 26.666667 59.434667 59.392 59.434666zM504.832 693.589333h0.853333a59.306667 59.306667 0 0 0 59.392-59.136V300.8c0-32.768-26.666667-59.392-60.245333-59.392-32.768 0-59.392 26.666667-59.392 59.392v333.354667c0 32.768 26.666667 59.434667 59.392 59.434666z m-12.672-59.434666v-333.653334c0-6.101333 4.309333-11.178667 10.026667-12.416h3.498666c6.997333 0 12.714667 5.674667 12.714667 12.714667v333.354667c0 6.997333-5.674667 12.714667-13.525333 12.714666a12.714667 12.714667 0 0 1-12.714667-12.714666zM345.301333 693.589333h0.853334c32.768 0 59.392-26.666667 59.392-59.392V382.677333c0-32.768-26.666667-59.392-60.245334-59.392-32.768 0-59.434667 26.666667-59.434666 59.392v251.477334c0 32.768 26.666667 59.434667 59.434666 59.434666z m-12.714666-59.434666V382.677333c0-6.997333 5.717333-12.714667 12.714666-12.714666h0.853334c6.997333 0 12.714667 5.674667 12.714666 12.714666v251.477334c0 6.997333-5.674667 12.714667-13.525333 12.714666a12.757333 12.757333 0 0 1-12.757333-12.714666zM757.717333 730.709333H259.754667c-13.653333 0-24.746667 11.093333-24.746667 25.045334 0 13.653333 11.093333 24.746667 24.746667 24.746666h497.962666c13.653333 0 24.746667-11.093333 24.746667-25.045333a24.746667 24.746667 0 0 0-24.746667-24.746667z" fill="#66CCFF" p-id="6760"></path></svg>