<?xml version="1.0" encoding="UTF-8"?>
<svg width="40px" height="40px" viewBox="0 0 40 40" version="1.1" xmlns="http://www.w3.org/2000/svg" xmlns:xlink="http://www.w3.org/1999/xlink">
    <!-- Generator: Sketch 45.2 (43514) - http://www.bohemiancoding.com/sketch -->
    <title>字典</title>
    <desc>Created with Sketch.</desc>
    <defs>
        <polygon id="path-1" points="10.0000417 19.9929167 20 19.9929167 20 0.000416666667 10.0000417 0.000416666667 8.33333333e-05 0.000416666667 8.33333333e-05 19.9929167"></polygon>
    </defs>
    <g id="Page-1" stroke="none" stroke-width="1" fill="none" fill-rule="evenodd">
        <g id="公共字典_编辑" transform="translate(-1265.000000, -38.000000)">
            <g id="编辑公共下拉框" transform="translate(1221.000000, 0.000000)">
                <g id="title_new" transform="translate(44.000000, 38.000000)">
                    <g id="字典">
                        <g id="icon_流程" fill-rule="nonzero" fill="#FF6868">
                            <path d="M19.9938858,0.00202774468 C8.96101377,0.00202774468 0.017165356,8.95539089 0.017165356,20 C0.017165356,31.0445656 8.96101377,39.9979723 19.9938858,39.9979723 C31.0267143,39.9979723 39.9706062,31.0445656 39.9706062,20 C39.9706062,8.95539089 31.0266708,0.00202774468 19.9938858,0.00202774468 Z" id="Shape"></path>
                        </g>
                        <g id="Page-1" transform="translate(10.000000, 10.000000)">
                            <mask id="mask-2" fill="white">
                                <use xlink:href="#path-1"></use>
                            </mask>
                            <g id="Clip-2"></g>
                            <path d="M17.14425,13.8404167 L11.4275833,13.8404167 L14.2834167,16.9154167 L17.14425,13.8404167 Z M1.42841667,18.4545833 L18.57175,18.4545833 L18.57175,12.3029167 L1.42841667,12.3029167 L1.42841667,18.4545833 Z M18.57175,10.7654167 L1.42841667,10.7654167 C0.63925,10.7654167 8.33333333e-05,11.4529167 8.33333333e-05,12.3029167 L8.33333333e-05,18.4545833 C8.33333333e-05,19.30625 0.63925,19.9929167 1.42841667,19.9929167 L18.57175,19.9929167 C19.3600833,19.9929167 20.0000833,19.30625 20.0000833,18.4545833 L20.0000833,12.3029167 C20.0000833,11.4545833 19.3600833,10.7654167 18.57175,10.7654167 L18.57175,10.7654167 Z M17.14425,3.07625 L11.4275833,3.07625 L14.2834167,6.15041667 L17.14425,3.07625 Z M1.42841667,7.69041667 L18.57175,7.69041667 L18.57175,1.53791667 L1.42841667,1.53791667 L1.42841667,7.69041667 Z M18.57175,0.000416666667 L1.42841667,0.000416666667 C0.63925,0.000416666667 8.33333333e-05,0.687083333 8.33333333e-05,1.53791667 L8.33333333e-05,7.69041667 C8.33333333e-05,8.54041667 0.63925,9.22791667 1.42841667,9.22791667 L18.57175,9.22791667 C19.3600833,9.22791667 20.0000833,8.54041667 20.0000833,7.69041667 L20.0000833,1.53791667 C20.0000833,0.687083333 19.3600833,0.000416666667 18.57175,0.000416666667 L18.57175,0.000416666667 Z" id="Fill-1" fill="#FEFEFE" mask="url(#mask-2)"></path>
                        </g>
                    </g>
                </g>
            </g>
        </g>
    </g>
</svg>