<?xml version="1.0" encoding="UTF-8"?>
<svg width="40px" height="40px" viewBox="0 0 40 40" version="1.1" xmlns="http://www.w3.org/2000/svg" xmlns:xlink="http://www.w3.org/1999/xlink">
    <!-- Generator: Sketch 45.2 (43514) - http://www.bohemiancoding.com/sketch -->
    <title>人员icon</title>
    <desc>Created with Sketch.</desc>
    <defs>
        <polygon id="path-1" points="16.071 0.0004 16.071 18 0.0003 18 0.0003 0.0004"></polygon>
    </defs>
    <g id="Page-1" stroke="none" stroke-width="1" fill="none" fill-rule="evenodd">
        <g id="人员icon">
            <rect id="Rectangle-7" fill="#FF6C60" x="0" y="0" width="40" height="40" rx="4"></rect>
            <g id="Page-1" transform="translate(12.000000, 11.000000)">
                <mask id="mask-2" fill="white">
                    <use xlink:href="#path-1"></use>
                </mask>
                <g id="Clip-2"></g>
                <path d="M3.7743,5.1704 C3.7743,2.8064 5.6853,0.8824 8.0363,0.8824 C10.3853,0.8824 12.2973,2.8064 12.2973,5.1704 C12.2973,7.5354 10.3853,9.4594 8.0363,9.4594 C5.6853,9.4594 3.7743,7.5354 3.7743,5.1704 M12.4133,10.7774 C12.2093,10.6424 11.9383,10.7004 11.8053,10.9064 C11.6733,11.1094 11.7313,11.3834 11.9343,11.5164 C13.8523,12.7734 15.0443,14.8424 15.1803,17.1174 L0.8913,17.1174 C1.1183,13.3504 4.2363,10.3564 8.0363,10.3564 C8.0873,10.3564 8.1353,10.3434 8.1813,10.3264 C10.9473,10.2464 13.1743,7.9714 13.1743,5.1704 C13.1743,2.3184 10.8703,0.0004 8.0363,0.0004 C5.2023,0.0004 2.8963,2.3184 2.8963,5.1704 C2.8963,7.2094 4.0853,8.9594 5.7933,9.8014 C2.4513,10.7804 0.0003,13.8844 0.0003,17.5594 C0.0003,17.8034 0.1963,18.0004 0.4383,18.0004 L15.6323,18.0004 C15.8753,18.0004 16.0713,17.8034 16.0713,17.5594 C16.0713,14.8124 14.7033,12.2754 12.4133,10.7774" id="Fill-1" fill="#FFFFFF" mask="url(#mask-2)"></path>
            </g>
        </g>
    </g>
</svg>