<?xml version="1.0" standalone="no"?><!DOCTYPE svg PUBLIC "-//W3C//DTD SVG 1.1//EN" "http://www.w3.org/Graphics/SVG/1.1/DTD/svg11.dtd"><svg t="1510907496370" class="icon" style="" viewBox="0 0 1024 1024" version="1.1" xmlns="http://www.w3.org/2000/svg" p-id="9513" xmlns:xlink="http://www.w3.org/1999/xlink" width="200" height="200"><defs><style type="text/css"></style></defs><path d="M112.390244 16.109268h799.219512c54.946341 0 99.902439 44.956098 99.902439 99.902439v799.219513c0 54.946341-44.956098 99.902439-99.902439 99.902439H112.390244c-54.946341 0-99.902439-44.956098-99.902439-99.902439v-799.219513c0-54.946341 44.956098-99.902439 99.902439-99.902439" fill="#FF6C60" p-id="9514"></path><path d="M616.897561 410.723902c0-57.443902-47.453659-102.4-104.897561-102.4s-104.897561 47.453659-104.897561 102.4 47.453659 102.4 104.897561 102.4 104.897561-44.956098 104.897561-102.4z m42.458537 0c0 79.921951-64.936585 147.356098-147.356098 147.356098s-147.356098-64.936585-147.356098-147.356098 64.936585-144.858537 147.356098-144.858536 147.356098 62.439024 147.356098 144.858536z" fill="#FFFFFF" p-id="9515"></path><path d="M512 515.621463c127.37561 0 232.273171 102.4 232.273171 229.77561 0 12.487805-9.990244 22.478049-22.478049 22.478049H302.204878c-12.487805 0-22.478049-9.990244-22.478049-22.478049 0-127.37561 104.897561-229.77561 232.273171-229.77561z m0 42.458537c-97.404878 0-177.326829 72.429268-187.317073 164.839024h377.131707c-12.487805-92.409756-92.409756-164.839024-189.814634-164.839024z" fill="#FFFFFF" p-id="9516"></path></svg>