<?xml version="1.0" standalone="no"?><!DOCTYPE svg PUBLIC "-//W3C//DTD SVG 1.1//EN" "http://www.w3.org/Graphics/SVG/1.1/DTD/svg11.dtd"><svg t="1510907313300" class="icon" style="" viewBox="0 0 1024 1024" version="1.1" xmlns="http://www.w3.org/2000/svg" p-id="9264" xmlns:xlink="http://www.w3.org/1999/xlink" width="200" height="200"><defs><style type="text/css"></style></defs><path d="M112.390244 16.109268h799.219512c54.946341 0 99.902439 44.956098 99.902439 99.902439v799.219513c0 54.946341-44.956098 99.902439-99.902439 99.902439H112.390244c-54.946341 0-99.902439-44.956098-99.902439-99.902439v-799.219513c0-54.946341 44.956098-99.902439 99.902439-99.902439" fill="#FF6C60" p-id="9265"></path><path d="M551.960976 410.723902c2.497561 0 4.995122-2.497561 4.995122-4.995122v-79.921951c0-2.497561-2.497561-4.995122-4.995122-4.995122h-82.419513c-2.497561 0-4.995122 2.497561-4.995122 4.995122v79.921951c0 2.497561 2.497561 4.995122 4.995122 4.995122h82.419513z m0 42.458537h-82.419513c-27.473171 0-47.453659-19.980488-47.453658-47.453659v-79.921951c0-27.473171 22.478049-47.453659 47.453658-47.453658h82.419513c27.473171 0 47.453659 19.980488 47.453658 47.453658v79.921951c0 24.97561-19.980488 47.453659-47.453658 47.453659zM551.960976 735.406829c2.497561 0 4.995122-2.497561 4.995122-4.995122v-79.921951c0-2.497561-2.497561-4.995122-4.995122-4.995122h-82.419513c-2.497561 0-4.995122 2.497561-4.995122 4.995122v79.921951c0 2.497561 2.497561 4.995122 4.995122 4.995122h82.419513z m0 42.458537h-82.419513c-27.473171 0-47.453659-19.980488-47.453658-47.453659v-79.921951c0-27.473171 22.478049-47.453659 47.453658-47.453658h82.419513c27.473171 0 47.453659 19.980488 47.453658 47.453658v79.921951c0 24.97561-19.980488 47.453659-47.453658 47.453659zM751.765854 735.406829c2.497561 0 4.995122-2.497561 4.995122-4.995122v-79.921951c0-2.497561-2.497561-4.995122-4.995122-4.995122h-82.419513c-2.497561 0-4.995122 2.497561-4.995121 4.995122v79.921951c0 2.497561 2.497561 4.995122 4.995121 4.995122h82.419513z m0 42.458537h-82.419513c-27.473171 0-47.453659-19.980488-47.453658-47.453659v-79.921951c0-27.473171 22.478049-47.453659 47.453658-47.453658h82.419513c27.473171 0 47.453659 19.980488 47.453658 47.453658v79.921951c2.497561 24.97561-19.980488 47.453659-47.453658 47.453659zM349.658537 735.406829c2.497561 0 4.995122-2.497561 4.995122-4.995122v-79.921951c0-2.497561-2.497561-4.995122-4.995122-4.995122h-82.419513c-2.497561 0-4.995122 2.497561-4.995122 4.995122v79.921951c0 2.497561 2.497561 4.995122 4.995122 4.995122h82.419513z m0 42.458537h-82.419513c-27.473171 0-47.453659-19.980488-47.453658-47.453659v-79.921951c0-27.473171 22.478049-47.453659 47.453658-47.453658h82.419513c27.473171 0 47.453659 19.980488 47.453658 47.453658v79.921951c2.497561 24.97561-19.980488 47.453659-47.453658 47.453659z" fill="#FFFFFF" p-id="9266"></path><path d="M534.478049 505.63122v-64.936586h-42.458537v64.936586H337.170732c-24.97561 0-47.453659 19.980488-47.453659 44.956097v72.429268h42.458537v-72.429268c0-2.497561 2.497561-2.497561 4.995122-2.497561h154.84878v62.439024h42.458537v-62.439024H686.829268c2.497561 0 4.995122 2.497561 4.995122 2.497561v72.429268h42.458537v-72.429268c0-24.97561-19.980488-44.956098-47.453659-44.956097h-152.351219z" fill="#FFFFFF" p-id="9267"></path></svg>