<?xml version="1.0" standalone="no"?><!DOCTYPE svg PUBLIC "-//W3C//DTD SVG 1.1//EN" "http://www.w3.org/Graphics/SVG/1.1/DTD/svg11.dtd"><svg t="1511424110302" class="icon" style="" viewBox="0 0 1024 1024" version="1.1" xmlns="http://www.w3.org/2000/svg" p-id="8043" xmlns:xlink="http://www.w3.org/1999/xlink" width="200" height="200"><defs><style type="text/css"></style></defs><path d="M229.043959 807.442963a417.185185 417.185185 0 1 0-83.437038-107.33037 37.925926 37.925926 0 1 1-66.749629 37.925926 493.037037 493.037037 0 1 1 98.607407 126.672592 37.925926 37.925926 0 1 1 51.57926-55.751111z" fill="#4E5F80" p-id="8044"></path><path d="M739.526921 671.668148H284.41581a32.237037 32.237037 0 0 0 0 64.474074h455.111111a32.237037 32.237037 0 0 0 0-64.474074z" fill="#66CCFF" p-id="8045"></path><path d="M354.578773 672.426667h61.060741v-231.727408H354.578773zM322.341736 376.225185h125.534815a32.237037 32.237037 0 0 1 32.237037 32.237037v296.201482a32.237037 32.237037 0 0 1-32.237037 32.237037H322.341736a32.237037 32.237037 0 0 1-32.237037-32.237037v-296.201482A32.237037 32.237037 0 0 1 322.341736 376.225185z" fill="#66CCFF" p-id="8046"></path><path d="M479.734329 309.854815v362.571852h61.060741V309.854815z m-32.237037-64.474074h125.534815a32.237037 32.237037 0 0 1 32.237037 32.237037v427.045926a32.237037 32.237037 0 0 1-32.237037 32.237037H447.497292a32.237037 32.237037 0 0 1-32.237037-32.237037V277.617778a32.237037 32.237037 0 0 1 32.237037-32.237037z" fill="#66CCFF" p-id="8047"></path><path d="M605.269144 672.426667h61.06074v-149.428148h-61.06074z m-32.237037-213.902223h125.534814a32.237037 32.237037 0 0 1 32.237038 32.237037v213.902223a32.237037 32.237037 0 0 1-32.237038 32.237037h-125.534814a32.237037 32.237037 0 0 1-32.237037-32.237037v-213.902223a32.237037 32.237037 0 0 1 32.237037-32.237037z" fill="#66CCFF" p-id="8048"></path></svg>