<?xml version="1.0" standalone="no"?><!DOCTYPE svg PUBLIC "-//W3C//DTD SVG 1.1//EN" "http://www.w3.org/Graphics/SVG/1.1/DTD/svg11.dtd"><svg t="1511260977882" class="icon" style="" viewBox="0 0 1024 1024" version="1.1" xmlns="http://www.w3.org/2000/svg" p-id="4672" xmlns:xlink="http://www.w3.org/1999/xlink" width="200" height="200"><defs><style type="text/css"></style></defs><path d="M794.956041 807.442963a417.185185 417.185185 0 1 1 83.437038-107.33037 37.925926 37.925926 0 1 0 66.749629 37.925926 493.037037 493.037037 0 1 0-98.607407 126.672592 37.925926 37.925926 0 1 0-51.57926-55.751111z" fill="#4E5F80" p-id="4673"></path><path d="M739.58419 671.668148H284.473079a32.237037 32.237037 0 0 0 0 64.474074h455.111111a32.237037 32.237037 0 0 0 0-64.474074z" fill="#66CCFF" p-id="4674"></path><path d="M354.636041 672.426667h61.060741v-231.727408H354.636041zM322.399004 376.225185h125.534815a32.237037 32.237037 0 0 1 32.237037 32.237037v296.201482a32.237037 32.237037 0 0 1-32.237037 32.237037H322.399004a32.237037 32.237037 0 0 1-32.237037-32.237037v-296.201482A32.237037 32.237037 0 0 1 322.399004 376.225185z" fill="#66CCFF" p-id="4675"></path><path d="M479.791597 309.854815v362.571852h61.060741V309.854815z m-32.237037-64.474074h125.534815a32.237037 32.237037 0 0 1 32.237037 32.237037v427.045926a32.237037 32.237037 0 0 1-32.237037 32.237037H447.55456a32.237037 32.237037 0 0 1-32.237037-32.237037V277.617778a32.237037 32.237037 0 0 1 32.237037-32.237037z" fill="#66CCFF" p-id="4676"></path><path d="M605.326412 672.426667h61.060741v-149.428148h-61.060741z m-32.237037-213.902223h125.534815a32.237037 32.237037 0 0 1 32.237037 32.237037v213.902223a32.237037 32.237037 0 0 1-32.237037 32.237037h-125.534815a32.237037 32.237037 0 0 1-32.237037-32.237037v-213.902223a32.237037 32.237037 0 0 1 32.237037-32.237037z" fill="#66CCFF" p-id="4677"></path></svg>