<?xml version="1.0" standalone="no"?><!DOCTYPE svg PUBLIC "-//W3C//DTD SVG 1.1//EN" "http://www.w3.org/Graphics/SVG/1.1/DTD/svg11.dtd"><svg t="1511261000914" class="icon" style="" viewBox="0 0 1024 1024" version="1.1" xmlns="http://www.w3.org/2000/svg" p-id="4799" xmlns:xlink="http://www.w3.org/1999/xlink" width="200" height="200"><defs><style type="text/css"></style></defs><path d="M796.444444 827.164444a417.185185 417.185185 0 1 1 89.125926-117.949629 37.925926 37.925926 0 1 0 67.508149 34.512592 493.037037 493.037037 0 1 0-105.434075 139.567408A37.925926 37.925926 0 0 0 796.444444 827.164444z" fill="#4E5F80" p-id="4800"></path><path d="M331.851852 682.666667a9.481481 9.481481 0 0 0 9.481481 9.481481h341.333334a9.481481 9.481481 0 0 0 9.481481-9.481481v-212.005926h-360.296296z m417.185185-268.515556V682.666667A66.37037 66.37037 0 0 1 682.666667 748.657778H341.333333A66.37037 66.37037 0 0 1 274.962963 682.666667v-268.894815z" fill="#66CCFF" p-id="4801"></path><path d="M705.422222 437.285926a28.444444 28.444444 0 0 0 30.72-48.165926l-208.592592-132.740741a28.444444 28.444444 0 0 0-30.72 0l-208.592593 132.740741a28.444444 28.444444 0 1 0 30.72 48.165926l193.042963-122.88zM521.481481 523.757037a28.444444 28.444444 0 0 0-56.888888 0v85.333333a28.444444 28.444444 0 0 0 28.444444 28.444445h85.333333a28.444444 28.444444 0 0 0 0-56.888889h-56.888889z" fill="#66CCFF" p-id="4802"></path></svg>