<?xml version="1.0" standalone="no"?><!DOCTYPE svg PUBLIC "-//W3C//DTD SVG 1.1//EN" "http://www.w3.org/Graphics/SVG/1.1/DTD/svg11.dtd"><svg t="1511424119592" class="icon" style="" viewBox="0 0 1024 1024" version="1.1" xmlns="http://www.w3.org/2000/svg" p-id="8295" xmlns:xlink="http://www.w3.org/1999/xlink" width="200" height="200"><defs><style type="text/css"></style></defs><path d="M227.555556 827.164444a417.185185 417.185185 0 1 0-87.608889-117.949629 37.925926 37.925926 0 0 1-67.508148 34.512592 493.037037 493.037037 0 1 1 105.434074 139.567408A37.925926 37.925926 0 1 1 227.555556 827.164444z" fill="#4E5F80" p-id="8296"></path><path d="M692.148148 682.666667a9.481481 9.481481 0 0 1-9.481481 9.481481H341.333333a9.481481 9.481481 0 0 1-9.481481-9.481481v-212.005926h360.296296z m-417.185185-268.515556V682.666667A66.37037 66.37037 0 0 0 341.333333 748.657778h341.333334A66.37037 66.37037 0 0 0 749.037037 682.666667v-268.894815z" fill="#66CCFF" p-id="8297"></path><path d="M318.577778 437.285926a28.444444 28.444444 0 0 1-30.72-48.165926l208.592592-132.740741a28.444444 28.444444 0 0 1 30.72 0l208.592593 132.740741a28.444444 28.444444 0 1 1-30.72 48.165926L512 314.405926zM474.074074 523.757037a28.444444 28.444444 0 0 0-56.888889 0v85.333333a28.444444 28.444444 0 0 0 28.444445 28.444445H530.962963a28.444444 28.444444 0 0 0 0-56.888889h-56.888889z" fill="#66CCFF" p-id="8298"></path></svg>