<?xml version="1.0" encoding="UTF-8"?>
<svg width="27px" height="27px" viewBox="0 0 27 27" version="1.1" xmlns="http://www.w3.org/2000/svg" xmlns:xlink="http://www.w3.org/1999/xlink">
    <!-- Generator: Sketch 45.2 (43514) - http://www.bohemiancoding.com/sketch -->
    <title>icon_日报</title>
    <desc>Created with Sketch.</desc>
    <defs>
        <polygon id="path-1" points="0.354376471 0.0658823529 10.0044941 0.0658823529 10.0044941 4.31348235 0.354376471 4.31348235 0.354376471 0.0658823529"></polygon>
        <polygon id="path-3" points="8.92872377e-20 0.478564706 8.92872377e-20 25.3529412 26.6438118 25.3529412 26.6438118 0.478564706 0 0.478564706"></polygon>
        <polygon id="path-5" points="0.257105882 0.0658823529 2.02769412 0.0658823529 2.02769412 4.31348235 0.257105882 4.31348235 0.257105882 0.0658823529"></polygon>
    </defs>
    <g id="Symbols" stroke="none" stroke-width="1" fill="none" fill-rule="evenodd">
        <g id="运营主页_成组件" transform="translate(-1583.000000, -15.000000)">
            <g id="成组件">
                <g id="经营日报" transform="translate(1538.000000, 0.000000)">
                    <g id="icon_日报" transform="translate(45.000000, 15.000000)">
                        <g id="Group-3" transform="translate(9.235294, 0.581835)">
                            <mask id="mask-2" fill="white">
                                <use xlink:href="#path-1"></use>
                            </mask>
                            <g id="Clip-2"></g>
                            <path d="M9.11837647,4.31348235 C9.65037647,4.31348235 10.0044941,3.95936471 10.0044941,3.60689412 L10.0044941,0.772305882 C10.0044941,0.329247059 9.65037647,0.0657176471 9.11837647,0.0657176471 C8.58637647,0.0657176471 8.23225882,0.418188235 8.23225882,0.772305882 L8.23225882,3.60195294 C8.23225882,4.04501176 8.67531765,4.31348235 9.11837647,4.31348235 M1.15155294,3.33842353 L6.46331765,3.33842353 C6.90472941,3.33842353 7.25884706,2.89701176 7.25884706,2.45395294 C7.25884706,1.92195294 6.90472941,1.56783529 6.46331765,1.56783529 L1.15155294,1.56783529 C0.708494118,1.56783529 0.354376471,2.01089412 0.354376471,2.45395294 C0.354376471,2.98430588 0.708494118,3.33842353 1.15155294,3.33842353" id="Fill-1" fill="#999999" mask="url(#mask-2)"></path>
                        </g>
                        <g id="Group-6" transform="translate(0.000000, 1.581835)">
                            <mask id="mask-4" fill="white">
                                <use xlink:href="#path-3"></use>
                            </mask>
                            <g id="Clip-5"></g>
                            <path d="M21.5972235,0.478564706 L21.0652235,0.478564706 C20.5332235,0.478564706 20.1807529,0.921623529 20.1807529,1.36468235 C20.1807529,1.89668235 20.6221647,2.24915294 21.0652235,2.24915294 L21.5972235,2.24915294 C23.2788706,2.24915294 24.7859294,3.57668235 24.7859294,5.34891765 L24.7859294,20.3058588 C24.7859294,21.9875059 23.3678118,23.4039765 21.5972235,23.4039765 L4.95534118,23.4039765 C3.27369412,23.4039765 1.76663529,21.9875059 1.76663529,20.3058588 L1.76663529,5.43785882 C1.76663529,3.75621176 3.18475294,2.33809412 4.8664,2.33809412 C5.3984,2.33809412 5.75087059,1.89668235 5.75087059,1.45362353 C5.75087059,0.921623529 5.3984,0.567505882 4.8664,0.567505882 C2.21298824,0.478564706 -0.000658823529,2.69221176 -0.000658823529,5.43785882 L-0.000658823529,20.3948 C-0.000658823529,23.1404471 2.21298824,25.3540941 4.95863529,25.3540941 L21.6861647,25.3540941 C24.4318118,25.3540941 26.6438118,23.1404471 26.6438118,20.3948 L26.6438118,5.43785882 C26.5548706,2.69221176 24.3428706,0.478564706 21.5972235,0.478564706" id="Fill-4" fill="#999999" mask="url(#mask-4)"></path>
                        </g>
                        <g id="Group-9" transform="translate(6.588235, 0.581835)">
                            <mask id="mask-6" fill="white">
                                <use xlink:href="#path-5"></use>
                            </mask>
                            <g id="Clip-8"></g>
                            <path d="M1.14157647,4.31348235 C1.67357647,4.31348235 2.02769412,3.95936471 2.02769412,3.60689412 L2.02769412,0.772305882 C2.02769412,0.329247059 1.58463529,0.0657176471 1.14157647,0.0657176471 C0.609576471,0.0657176471 0.257105882,0.418188235 0.257105882,0.772305882 L0.257105882,3.60195294 C0.257105882,4.04501176 0.698517647,4.31348235 1.14157647,4.31348235" id="Fill-7" fill="#999999" mask="url(#mask-6)"></path>
                        </g>
                        <path d="M16.9777176,14.6956471 L9.61865882,14.6956471 L9.61865882,18.9796471 C9.61865882,19.1015294 9.66477647,19.2151765 9.75701176,19.3156471 C9.86901176,19.4095294 9.99089412,19.454 10.1243059,19.454 L16.5050118,19.454 C16.6565412,19.454 16.7685412,19.4095294 16.8393647,19.3156471 C16.9233647,19.2250588 16.9678353,19.1114118 16.9777176,18.9796471 L16.9777176,14.6956471 Z M16.8393647,8.88152941 C16.7487765,8.77941176 16.6367765,8.72835294 16.5050118,8.72835294 L10.1243059,8.72835294 C9.98101176,8.72835294 9.85912941,8.77941176 9.75701176,8.88152941 C9.66477647,8.99352941 9.61865882,9.11047059 9.61865882,9.234 L9.61865882,13.4867059 L16.9777176,13.4867059 L16.9777176,9.234 C16.9777176,9.09070588 16.9332471,8.97376471 16.8393647,8.88152941 L16.8393647,8.88152941 Z M9.58901176,20.7255294 C9.26124706,20.7041176 8.97630588,20.5822353 8.73089412,20.3565882 C8.46571765,20.0914118 8.33889412,19.8015294 8.34877647,19.4852941 L8.34877647,8.69705882 C8.33889412,8.36105882 8.46077647,8.06623529 8.71607059,7.81094118 C8.94995294,7.57541176 9.24148235,7.45847059 9.58901176,7.45847059 L10.1243059,7.45847059 L17.0106588,7.45847059 C17.3763059,7.45847059 17.6826588,7.58694118 17.9264235,7.84058824 C18.1323059,8.07611765 18.2393647,8.36105882 18.2476,8.69705882 L18.2476,19.4852941 C18.2393647,19.8114118 18.1191294,20.098 17.8984235,20.3417647 C17.6530118,20.5970588 17.3565412,20.7255294 17.0106588,20.7255294 L9.58901176,20.7255294 Z" id="Fill-10" fill="#2D8DCD"></path>
                    </g>
                </g>
            </g>
        </g>
    </g>
</svg>