<?xml version="1.0" standalone="no"?><!DOCTYPE svg PUBLIC "-//W3C//DTD SVG 1.1//EN" "http://www.w3.org/Graphics/SVG/1.1/DTD/svg11.dtd"><svg t="1510909144173" class="icon" style="" viewBox="0 0 1024 1024" version="1.1" xmlns="http://www.w3.org/2000/svg" p-id="9765" xmlns:xlink="http://www.w3.org/1999/xlink" width="200" height="200"><defs><style type="text/css"></style></defs><path d="M694.576728 171.961379a30.72 30.72 0 0 0 33.544828-26.835862v-105.931034c0-16.595862-13.417931-26.835862-33.544828-26.835862a30.72 30.72 0 0 0-33.544827 26.835862v105.931034a30.366897 30.366897 0 0 0 33.544827 26.835862m-301.550345-35.310345a31.073103 31.073103 0 0 1-30.013793-33.544827 33.191724 33.191724 0 0 1 30.013793-33.544828h200.915863a30.72 30.72 0 0 1 30.013793 33.544828 32.838621 32.838621 0 0 1-30.013793 33.544827z m-100.634482 35.310345a30.366897 30.366897 0 0 1-33.544828-26.835862v-105.931034a30.72 30.72 0 0 1 33.544828-27.895173 30.366897 30.366897 0 0 1 33.544827 26.835862v105.931035a30.72 30.72 0 0 1-33.544827 27.895172z" fill="#4D5E7D" p-id="9766"></path><path d="M796.976728 64.617931a33.544828 33.544828 0 0 0 0 67.089655h20.126897A119.348966 119.348966 0 0 1 937.865004 247.172414v564.965517a119.348966 119.348966 0 0 1-120.761379 117.230345H187.520177A121.82069 121.82069 0 0 1 66.758797 812.137931V252.115862a118.642759 118.642759 0 0 1 117.230345-117.230345 35.310345 35.310345 0 0 0 33.544828-33.544827 31.77931 31.77931 0 0 0-33.544828-33.544828A181.495172 181.495172 0 0 0 0.022246 252.115862v564.965517a187.144828 187.144828 0 0 0 187.497931 187.497931h633.114482a187.144828 187.144828 0 0 0 187.497931-187.497931v-564.965517a192.441379 192.441379 0 0 0-191.028965-187.497931z" fill="#4D5E7D" p-id="9767"></path><path d="M383.139487 730.924138h257.765517V331.917241h-257.765517zM353.125694 271.889655h317.793103a30.013793 30.013793 0 0 1 30.013793 30.013793v459.034483a30.013793 30.013793 0 0 1-30.013793 30.013793h-317.793103a30.013793 30.013793 0 0 1-30.013793-30.013793v-459.034483A30.013793 30.013793 0 0 1 353.125694 271.889655z" fill="#66CCFF" p-id="9768"></path><path d="M340.767073 553.666207h342.510345v-60.027586h-342.510345v60.027586z" fill="#66CCFF" p-id="9769"></path></svg>