<?xml version="1.0" standalone="no"?><!DOCTYPE svg PUBLIC "-//W3C//DTD SVG 1.1//EN" "http://www.w3.org/Graphics/SVG/1.1/DTD/svg11.dtd"><svg t="1511261848860" class="icon" style="" viewBox="0 0 1024 1024" version="1.1" xmlns="http://www.w3.org/2000/svg" p-id="5049" xmlns:xlink="http://www.w3.org/1999/xlink" width="200" height="200"><defs><style type="text/css"></style></defs><path d="M60.660243 822.613333v106.192593a78.127407 78.127407 0 0 0 80.023704 75.851852H512.358021a493.037037 493.037037 0 1 0-493.037037-493.037037 423.632593 423.632593 0 0 0 37.925926 201.386666 37.925926 37.925926 0 1 0 68.645926-30.34074A352.331852 352.331852 0 0 1 95.172836 513.137778a417.185185 417.185185 0 1 1 417.185185 417.185185H136.512095v-106.192593a37.925926 37.925926 0 1 0-75.851852 0z" fill="#4D5E7D" p-id="5050"></path><path d="M504.772836 351.952593a9.481481 9.481481 0 0 0-9.481482-10.61926H322.728391a9.481481 9.481481 0 0 0-9.481481 9.481482v344.746666a9.481481 9.481481 0 0 0 9.481481 9.481482h182.044445z m56.888888 127.431111h149.048889A66.37037 66.37037 0 0 1 777.839502 544.995556v151.703703a66.37037 66.37037 0 0 1-66.37037 66.370371H322.728391a66.37037 66.37037 0 0 1-66.37037-66.370371V351.952593A66.37037 66.37037 0 0 1 322.728391 285.582222h172.562963a66.37037 66.37037 0 0 1 66.37037 66.370371z m-181.285925 18.204444H436.506169a28.444444 28.444444 0 0 0 0-56.888889H380.375799a28.444444 28.444444 0 0 0 0 56.888889z m0 109.985185H436.506169a28.444444 28.444444 0 0 0 0-56.888889H380.375799a28.444444 28.444444 0 0 0 0 56.888889z m199.869629-75.851852a18.962963 18.962963 0 0 0-18.962963 18.962963v138.050371a18.962963 18.962963 0 0 0 18.962963 18.962963H701.98765a18.962963 18.962963 0 0 0 18.962963-18.962963V549.925926a18.962963 18.962963 0 0 0-18.962963-18.962963z" fill="#66CCFF" p-id="5051"></path></svg>