<?xml version="1.0" standalone="no"?><!DOCTYPE svg PUBLIC "-//W3C//DTD SVG 1.1//EN" "http://www.w3.org/Graphics/SVG/1.1/DTD/svg11.dtd"><svg t="1510909138055" class="icon" style="" viewBox="0 0 1024 1024" version="1.1" xmlns="http://www.w3.org/2000/svg" p-id="9638" xmlns:xlink="http://www.w3.org/1999/xlink" width="200" height="200"><defs><style type="text/css"></style></defs><path d="M694.576728 171.961379a30.72 30.72 0 0 0 33.544828-26.835862v-105.931034c0-16.595862-13.417931-26.835862-33.544828-26.835862a30.72 30.72 0 0 0-33.544827 26.835862v105.931034a30.366897 30.366897 0 0 0 33.544827 26.835862m-301.550345-35.310345h200.915863a32.838621 32.838621 0 0 0 30.013793-33.544827 30.72 30.72 0 0 0-30.013793-33.544828h-200.915863a33.191724 33.191724 0 0 0-30.013793 33.544828 31.073103 31.073103 0 0 0 30.013793 33.544827" fill="#4D5E7D" p-id="9639"></path><path d="M796.976728 64.617931a33.544828 33.544828 0 0 0 0 67.089655h20.126897A119.348966 119.348966 0 0 1 937.865004 247.172414v564.965517a119.348966 119.348966 0 0 1-120.761379 117.230345H187.520177A121.82069 121.82069 0 0 1 66.758797 812.137931V252.115862a118.642759 118.642759 0 0 1 117.230345-117.230345 35.310345 35.310345 0 0 0 33.544828-33.544827 31.77931 31.77931 0 0 0-33.544828-33.544828A181.495172 181.495172 0 0 0 0.022246 252.115862v564.965517a187.144828 187.144828 0 0 0 187.497931 187.497931h633.114482a187.144828 187.144828 0 0 0 187.497931-187.497931v-564.965517a192.441379 192.441379 0 0 0-191.028965-187.497931z" fill="#4D5E7D" p-id="9640"></path><path d="M292.391901 171.961379a30.72 30.72 0 0 0 33.544827-26.835862v-105.931034a30.366897 30.366897 0 0 0-33.544827-27.895173 30.72 30.72 0 0 0-33.544828 26.835862v105.931035a30.366897 30.366897 0 0 0 33.544828 26.835862" fill="#4D5E7D" p-id="9641"></path><path d="M600.298108 730.924138a30.013793 30.013793 0 1 0 0 60.027586h70.620689a30.013793 30.013793 0 0 0 30.013793-30.013793v-423.724138A65.324138 65.324138 0 0 0 635.608452 271.889655h-247.172413a65.324138 65.324138 0 0 0-65.324138 65.324138v423.724138a30.013793 30.013793 0 0 0 60.027586 0v-423.724138A5.296552 5.296552 0 0 1 388.436039 331.917241h247.172413a5.296552 5.296552 0 0 1 5.296552 5.296552V730.924138z" fill="#66CCFF" p-id="9642"></path><path d="M340.767073 483.045517h324.855173v-60.027586h-324.855173v60.027586zM340.767073 624.286897h324.855173v-60.027587h-324.855173v60.027587z" fill="#66CCFF" p-id="9643"></path></svg>