<?xml version="1.0" encoding="UTF-8"?>
<svg width="29px" height="29px" viewBox="0 0 29 29" version="1.1" xmlns="http://www.w3.org/2000/svg" xmlns:xlink="http://www.w3.org/1999/xlink">
    <!-- Generator: Sketch 45.2 (43514) - http://www.bohemiancoding.com/sketch -->
    <title>icon_月报</title>
    <desc>Created with Sketch.</desc>
    <defs>
        <polygon id="path-1" points="0.451823529 0.0705882353 10.7894706 0.0705882353 10.7894706 4.62158824 0.451823529 4.62158824 0.451823529 0.0705882353"></polygon>
        <polygon id="path-3" points="28.5465882 27.2352941 0.000705882353 27.2352941 0.000705882353 0.584176471 28.5465882 0.584176471"></polygon>
        <polygon id="path-5" points="0.274411765 0.0705882353 2.17323529 0.0705882353 2.17323529 4.62158824 0.274411765 4.62158824 0.274411765 0.0705882353"></polygon>
        <polygon id="path-7" points="0 28.3898168 28 28.3898168 28 0.765411765 0 0.765411765"></polygon>
    </defs>
    <g id="Symbols" stroke="none" stroke-width="1" fill="none" fill-rule="evenodd">
        <g id="运营主页_成组件" transform="translate(-1371.000000, -14.000000)">
            <g id="成组件">
                <g id="经营月报" transform="translate(1326.000000, 0.000000)">
                    <g id="icon_月报" transform="translate(45.000000, 14.000000)">
                        <g id="Group-3" transform="translate(9.823529, 0.694824)">
                            <mask id="mask-2" fill="white">
                                <use xlink:href="#path-1"></use>
                            </mask>
                            <g id="Clip-2"></g>
                            <path d="M9.84182353,4.62158824 C10.4100588,4.62158824 10.7894706,4.24217647 10.7894706,3.86452941 L10.7894706,0.827470588 C10.7894706,0.352764706 10.4100588,0.0704117647 9.84182353,0.0704117647 C9.27182353,0.0704117647 8.89241176,0.448058824 8.89241176,0.827470588 L8.89241176,3.85923529 C8.89241176,4.33394118 9.36535294,4.62158824 9.84182353,4.62158824 M1.30417647,3.57688235 L6.99535294,3.57688235 C7.47005882,3.57688235 7.84770588,3.10394118 7.84770588,2.62923529 C7.84770588,2.05923529 7.47005882,1.67982353 6.99535294,1.67982353 L1.30417647,1.67982353 C0.831235294,1.67982353 0.451823529,2.15452941 0.451823529,2.62923529 C0.451823529,3.19747059 0.831235294,3.57688235 1.30417647,3.57688235" id="Fill-1" fill="#999999" mask="url(#mask-2)"></path>
                        </g>
                        <g id="Group-6" transform="translate(0.000000, 1.694824)">
                            <mask id="mask-4" fill="white">
                                <use xlink:href="#path-3"></use>
                            </mask>
                            <g id="Clip-5"></g>
                            <path d="M23.1395294,0.584176471 L22.5695294,0.584176471 C21.9995294,0.584176471 21.6218824,1.05888235 21.6218824,1.53358824 C21.6218824,2.10358824 22.0948235,2.48123529 22.5695294,2.48123529 L23.1395294,2.48123529 C24.9412941,2.48123529 26.556,3.90358824 26.556,5.80241176 L26.556,21.8277059 C26.556,23.6294706 25.0365882,25.1471176 23.1395294,25.1471176 L5.30894118,25.1471176 C3.50717647,25.1471176 1.89247059,23.6294706 1.89247059,21.8277059 L1.89247059,5.89770588 C1.89247059,4.09594118 3.41188235,2.57652941 5.21364706,2.57652941 C5.78364706,2.57652941 6.16129412,2.10358824 6.16129412,1.62888235 C6.16129412,1.05888235 5.78364706,0.679470588 5.21364706,0.679470588 C2.37070588,0.584176471 0.000705882353,2.95594118 0.000705882353,5.89770588 L0.000705882353,21.923 C0.000705882353,24.8647647 2.37070588,27.2365294 5.31247059,27.2365294 L23.2365882,27.2365294 C26.1765882,27.2365294 28.5465882,24.8647647 28.5465882,21.923 L28.5465882,5.89770588 C28.4530588,2.95594118 26.0812941,0.584176471 23.1395294,0.584176471" id="Fill-4" fill="#999999" mask="url(#mask-4)"></path>
                        </g>
                        <g id="Group-9" transform="translate(7.058824, 0.694824)">
                            <mask id="mask-6" fill="white">
                                <use xlink:href="#path-5"></use>
                            </mask>
                            <g id="Clip-8"></g>
                            <path d="M1.22382353,4.62158824 C1.79382353,4.62158824 2.17323529,4.24217647 2.17323529,3.86452941 L2.17323529,0.827470588 C2.17323529,0.352764706 1.69852941,0.0704117647 1.22382353,0.0704117647 C0.653823529,0.0704117647 0.274411765,0.448058824 0.274411765,0.827470588 L0.274411765,3.85923529 C0.274411765,4.33394118 0.749117647,4.62158824 1.22382353,4.62158824" id="Fill-7" fill="#999999" mask="url(#mask-6)"></path>
                        </g>
                        <mask id="mask-8" fill="white">
                            <use xlink:href="#path-7"></use>
                        </mask>
                        <g id="Clip-11"></g>
                        <path d="M10.7664706,16.2595294 L18.3211765,16.2595294 L18.3211765,13.4889412 L10.7664706,13.4889412 L10.7664706,16.2595294 Z M18.3211765,12.1283529 L18.3211765,9.83247059 C18.3211765,9.67011765 18.2735294,9.53776471 18.1764706,9.43894118 C18.0864706,9.34188235 17.9558824,9.29247059 17.7794118,9.29247059 L11.2729412,9.29247059 C11.1105882,9.29247059 10.9888235,9.33129412 10.9129412,9.40717647 C10.8158824,9.52717647 10.7664706,9.65776471 10.7664706,9.80070588 L10.7664706,12.1283529 L18.3211765,12.1283529 Z M10.6005882,18.4389412 C10.4911765,19.0407059 10.3552941,19.6089412 10.1911765,20.1454118 C9.98470588,20.6907059 9.72705882,21.1830588 9.42176471,21.6207059 C9.10411765,22.0124706 8.78294118,22.3424706 8.45470588,22.6036471 C8.25705882,22.7783529 8.07176471,22.8983529 7.89705882,22.9636471 C7.71,23.0201176 7.51941176,22.9583529 7.32352941,22.7854118 C7.10294118,22.6195294 6.99,22.4501176 6.97941176,22.2771765 C6.97941176,22.0777647 7.06058824,21.8995294 7.22470588,21.7354118 C7.59529412,21.4512941 7.92882353,21.1389412 8.22529412,20.8001176 C8.49882353,20.4401176 8.73176471,20.0236471 8.92941176,19.5542353 C9.10411765,19.0724706 9.22941176,18.566 9.30705882,18.0312941 C9.37235294,17.5601176 9.40588235,17.0412941 9.40588235,16.4730588 L9.40588235,9.11247059 C9.40588235,8.79482353 9.52588235,8.50541176 9.76588235,8.24247059 C9.98470588,8.036 10.2582353,7.93188235 10.5847059,7.93188235 L18.4217647,7.93188235 C18.7694118,7.93188235 19.0764706,8.06776471 19.3376471,8.34129412 C19.5688235,8.57070588 19.6817647,8.85482353 19.6817647,9.19364706 L19.6817647,21.1283529 C19.6623529,21.446 19.6094118,21.7177647 19.5335294,21.9471765 C19.4488235,22.166 19.3376471,22.3477647 19.2070588,22.4889412 C19.0870588,22.5877647 18.9247059,22.6848235 18.7182353,22.7854118 C18.5064706,22.8718824 18.3211765,22.916 18.1588235,22.916 C17.9523529,22.9265882 17.6452941,22.9265882 17.2394118,22.916 C16.8052941,22.9036471 16.29,22.8330588 15.7005882,22.7024706 C15.4588235,22.6477647 15.2911765,22.5383529 15.1923529,22.3742353 C15.0935294,22.2118824 15.0670588,22.0124706 15.1094118,21.7830588 C15.1870588,21.5324706 15.2964706,21.3683529 15.4376471,21.2924706 C15.5805882,21.1936471 15.8029412,21.1777647 16.1082353,21.2430588 C16.5352941,21.3630588 16.95,21.4283529 17.3558824,21.4389412 C17.7035294,21.4512941 17.9347059,21.4177647 18.0423529,21.3401176 C18.2276471,21.1883529 18.3211765,20.9801176 18.3211765,20.7189412 L18.3211765,17.6201176 L10.7170588,17.6201176 C10.6835294,17.8724706 10.6447059,18.146 10.6005882,18.4389412 L10.6005882,18.4389412 Z" id="Fill-10" fill="#499DF1" mask="url(#mask-8)"></path>
                    </g>
                </g>
            </g>
        </g>
    </g>
</svg>