<?xml version="1.0" standalone="no"?><!DOCTYPE svg PUBLIC "-//W3C//DTD SVG 1.1//EN" "http://www.w3.org/Graphics/SVG/1.1/DTD/svg11.dtd"><svg t="1506473069679" class="icon" style="" viewBox="0 0 1024 1024" version="1.1" xmlns="http://www.w3.org/2000/svg" p-id="8784" xmlns:xlink="http://www.w3.org/1999/xlink" width="32" height="32"><defs><style type="text/css"></style></defs><path d="M512 512m-487.619048 0a487.619048 487.619048 0 1 0 975.238096 0 487.619048 487.619048 0 1 0-975.238096 0Z" fill="#FF6868" p-id="8785"></path><path d="M607.573333 360.594286h87.28381a14.384762 14.384762 0 0 0-3.900953-9.264762l-75.824761-79.238095a11.459048 11.459048 0 0 0-8.289524-3.657143v91.428571z m0 0" fill="#FFFFFF" p-id="8786"></path><path d="M590.019048 365.714286v-97.52381h-242.102858a19.260952 19.260952 0 0 0-18.773333 19.748572v448.121904a19.260952 19.260952 0 0 0 18.773333 19.748572h328.16762a19.260952 19.260952 0 0 0 18.773333-19.748572V377.904762h-93.622857a11.215238 11.215238 0 0 1-11.215238-12.190476z m21.699047 224.792381a7.801905 7.801905 0 0 1-7.558095 8.045714h-184.32a7.801905 7.801905 0 0 1-7.558095-8.045714v-18.773334a7.801905 7.801905 0 0 1 7.558095-8.045714h184.07619a7.801905 7.801905 0 0 1 7.558096 8.045714z m0-69.729524a7.801905 7.801905 0 0 1-7.558095 8.045714h-184.32a7.801905 7.801905 0 0 1-7.558095-8.045714v-18.773333a7.801905 7.801905 0 0 1 7.558095-8.045715h184.07619a7.801905 7.801905 0 0 1 7.558096 8.045715z m0-88.502857v18.773333a7.801905 7.801905 0 0 1-7.558095 8.045714h-184.32a7.801905 7.801905 0 0 1-7.558095-8.045714v-18.773333a7.801905 7.801905 0 0 1 7.558095-8.045715h184.07619a7.801905 7.801905 0 0 1 7.558096 8.045715z m0 0" fill="#FFFFFF" p-id="8787"></path></svg>