<?xml version="1.0" standalone="no"?><!DOCTYPE svg PUBLIC "-//W3C//DTD SVG 1.1//EN" "http://www.w3.org/Graphics/SVG/1.1/DTD/svg11.dtd"><svg t="1493371270795" class="icon" style="" viewBox="0 0 1024 1024" version="1.1" xmlns="http://www.w3.org/2000/svg" p-id="6999" xmlns:xlink="http://www.w3.org/1999/xlink" width="48" height="48"><defs><style type="text/css"></style></defs><path d="M0 512A512 512 0 1 0 512 0 512 512 0 0 0 0 512" fill="#FF6868" p-id="7000"></path><path d="M790.8352 256H233.1648a18.176 18.176 0 0 0 0 36.352h34.8672v305.8688c0 41.8816 29.2864 71.2192 69.7344 71.2192h104.5504L393.3184 732.16a20.48 20.48 0 0 0-6.4 14.848 20.9408 20.9408 0 0 0 21.1456 20.992 21.1968 21.1968 0 0 0 17.7664-9.5232l69.4272-89.0368h34.8672l69.2736 88.832a21.0944 21.0944 0 0 0 38.912-11.0592 20.48 20.48 0 0 0-3.584-11.6224 20.8896 20.8896 0 0 0-1.3824-1.792l-50.1248-64.256h104.5504c40.448 0 69.6832-29.3376 69.6832-71.2192V292.3008h33.4848a18.176 18.176 0 0 0 0-36.352z m-289.9968 337.92h-150.528c-6.9632 0-12.544-8.3968-12.544-18.176s5.5808-18.176 12.544-18.176h150.528c6.9632 0 12.544 6.9632 12.544 18.176 0 9.8816-5.5808 18.176-12.544 18.176z m0-72.6528h-150.528c-6.9632 0-12.544-8.3968-12.544-18.1248s5.5808-18.176 12.544-18.176h150.528c6.9632 0 12.544 8.3968 12.544 18.176s-5.5808 18.2272-12.544 18.2272zM686.08 448.768a35.84 35.84 0 0 1-34.8672 36.3008h-69.5296a35.84 35.84 0 0 1-34.8672-36.3008V377.4976a35.84 35.84 0 0 1 34.8672-36.3008h69.7344a35.84 35.84 0 0 1 34.6624 36.3008z" fill="#FFFFFF" p-id="7001"></path></svg>