<?xml version="1.0" standalone="no"?><!DOCTYPE svg PUBLIC "-//W3C//DTD SVG 1.1//EN" "http://www.w3.org/Graphics/SVG/1.1/DTD/svg11.dtd"><svg t="1506473078118" class="icon" style="" viewBox="0 0 1024 1024" version="1.1" xmlns="http://www.w3.org/2000/svg" p-id="8901" xmlns:xlink="http://www.w3.org/1999/xlink" width="32" height="32"><defs><style type="text/css"></style></defs><path d="M512 512m-487.619048 0a487.619048 487.619048 0 1 0 975.238096 0 487.619048 487.619048 0 1 0-975.238096 0Z" fill="#FF6868" p-id="8902"></path><path d="M268.190476 338.407619A69.729524 69.729524 0 0 1 338.16381 268.190476h347.67238A69.729524 69.729524 0 0 1 755.809524 338.407619v347.184762A69.729524 69.729524 0 0 1 685.83619 755.809524H338.16381A69.729524 69.729524 0 0 1 268.190476 685.592381z m221.135238-3.413333l-132.388571 336.457143h41.447619l35.84-94.110477h154.819048l35.84 94.110477h41.935238l-132.632381-336.457143h-44.617143z m21.699048 41.447619H512l63.634286 168.228571h-128.975238l65.340952-168.228571z m0 0" fill="#FFFFFF" p-id="8903"></path></svg>