<?xml version="1.0" standalone="no"?><!DOCTYPE svg PUBLIC "-//W3C//DTD SVG 1.1//EN" "http://www.w3.org/Graphics/SVG/1.1/DTD/svg11.dtd"><svg t="1484459943526" class="icon" style="" viewBox="0 0 1024 1024" version="1.1" xmlns="http://www.w3.org/2000/svg" p-id="2450" xmlns:xlink="http://www.w3.org/1999/xlink" width="5" height="5"><defs><style type="text/css"></style></defs><path d="M513.706667 513.706667m-397.653333 0a116.5 116.5 0 1 0 795.306667 0 116.5 116.5 0 1 0-795.306667 0Z" p-id="2451" fill="#499df1"></path><path d="M613.717333 513.706667c0 17.749333 9.557333 34.133333 24.917333 43.008s34.474667 8.874667 49.834667 0 24.917333-25.258667 24.917333-43.008-9.557333-34.133333-24.917333-43.008-34.474667-8.874667-49.834667 0S613.717333 495.957333 613.717333 513.706667L613.717333 513.706667zM464.554667 513.706667c0 27.648 22.186667 49.834667 49.834667 49.834667 27.648 0 49.834667-22.186667 49.834667-49.834667 0-17.749333-9.557333-34.133333-24.917333-43.008s-34.474667-8.874667-49.834667 0C473.770667 479.573333 464.554667 495.957333 464.554667 513.706667zM315.050667 513.706667c0 17.749333 9.557333 34.133333 24.917333 43.008 15.36 8.874667 34.474667 8.874667 49.834667 0s24.917333-25.258667 24.917333-43.008-9.557333-34.133333-24.917333-43.008-34.474667-8.874667-49.834667 0C324.608 479.573333 315.050667 495.957333 315.050667 513.706667L315.050667 513.706667z" p-id="2452" fill="#499df1"></path></svg>