<?xml version="1.0" standalone="no"?><!DOCTYPE svg PUBLIC "-//W3C//DTD SVG 1.1//EN" "http://www.w3.org/Graphics/SVG/1.1/DTD/svg11.dtd"><svg t="1511261009077" class="icon" style="" viewBox="0 0 1024 1024" version="1.1" xmlns="http://www.w3.org/2000/svg" p-id="4924" xmlns:xlink="http://www.w3.org/1999/xlink" width="200" height="200"><defs><style type="text/css"></style></defs><path d="M796.394728 800.65534A417.112268 417.112268 0 1 1 883.229918 682.726326a37.919297 37.919297 0 0 0 67.496349 34.506561 492.950862 492.950862 0 1 0-104.278067 137.647048A37.919297 37.919297 0 1 0 796.394728 800.65534z" fill="#4E5F80" p-id="4925"></path><path d="M331.883339 446.868299v211.589677a9.479824 9.479824 0 0 0 9.479824 9.479825h341.273674a9.479824 9.479824 0 0 0 9.479824-9.479825v-211.589677z m417.112268-56.499753v268.468623A66.35877 66.35877 0 0 1 682.636837 724.816746H341.363163a66.35877 66.35877 0 0 1-66.35877-66.35877v-268.468623a28.439473 28.439473 0 0 1 13.271754-24.647543l208.556134-132.71754a28.439473 28.439473 0 0 1 30.714631 0l208.556134 132.71754a28.439473 28.439473 0 0 1 12.892561 25.026736z m-393.223111 0h312.455008L512 290.640795z" fill="#66CCFF" p-id="4926"></path><path d="M463.084107 531.049138a28.439473 28.439473 0 1 0-40.573648 37.919297l54.224595 54.224595a28.439473 28.439473 0 0 0 40.194455 0L606.798243 534.082682A28.439473 28.439473 0 1 0 568.878946 493.129841l-70.529893 70.529893z" fill="#66CCFF" p-id="4927"></path></svg>