<?xml version="1.0" encoding="UTF-8"?>
<svg width="22px" height="22px" viewBox="0 0 22 22" version="1.1" xmlns="http://www.w3.org/2000/svg" xmlns:xlink="http://www.w3.org/1999/xlink">
    <!-- Generator: Sketch 45.2 (43514) - http://www.bohemiancoding.com/sketch -->
    <title>右全</title>
    <desc>Created with Sketch.</desc>
    <defs></defs>
    <g id="Page-1" stroke="none" stroke-width="1" fill="none" fill-rule="evenodd">
        <g id="工位选择" transform="translate(-960.000000, -572.000000)" fill-rule="nonzero" fill="#499DF1">
            <g transform="translate(628.000000, 157.000000)" id="编号范围">
                <g transform="translate(60.000000, 255.000000)">
                    <g id="右全" transform="translate(272.000000, 160.000000)">
                        <path d="M3,1 C1.8954305,1 1,1.8954305 1,3 L1,19 C1,20.1045695 1.8954305,21 3,21 L19,21 C20.1045695,21 21,20.1045695 21,19 L21,3 C21,1.8954305 20.1045695,1 19,1 L3,1 Z M3,0 L19,0 C20.6568542,-3.04359188e-16 22,1.34314575 22,3 L22,19 C22,20.6568542 20.6568542,22 19,22 L3,22 C1.34314575,22 2.02906125e-16,20.6568542 0,19 L0,3 C-2.02906125e-16,1.34314575 1.34314575,3.04359188e-16 3,0 Z" id="Rectangle-18"></path>
                        <path d="M9.49264069,8.99264069 L9.49264069,14.2426407 C9.49264069,14.6568542 9.82842712,14.9926407 10.2426407,14.9926407 C10.6568542,14.9926407 10.9926407,14.6568542 10.9926407,14.2426407 L10.9926407,8.24264069 C10.9926407,7.82842712 10.6568542,7.49264069 10.2426407,7.49264069 L4.24264069,7.49264069 C3.82842712,7.49264069 3.49264069,7.82842712 3.49264069,8.24264069 C3.49264069,8.65685425 3.82842712,8.99264069 4.24264069,8.99264069 L9.49264069,8.99264069 Z" id="Rectangle-13" transform="translate(7.242641, 11.242641) rotate(-315.000000) translate(-7.242641, -11.242641) "></path>
                        <path d="M13.4926407,8.99264069 L13.4926407,14.2426407 C13.4926407,14.6568542 13.8284271,14.9926407 14.2426407,14.9926407 C14.6568542,14.9926407 14.9926407,14.6568542 14.9926407,14.2426407 L14.9926407,8.24264069 C14.9926407,7.82842712 14.6568542,7.49264069 14.2426407,7.49264069 L8.24264069,7.49264069 C7.82842712,7.49264069 7.49264069,7.82842712 7.49264069,8.24264069 C7.49264069,8.65685425 7.82842712,8.99264069 8.24264069,8.99264069 L13.4926407,8.99264069 Z" id="Rectangle-13-Copy" transform="translate(11.242641, 11.242641) rotate(-315.000000) translate(-11.242641, -11.242641) "></path>
                    </g>
                </g>
            </g>
        </g>
    </g>
</svg>