<?xml version="1.0" standalone="no"?><!DOCTYPE svg PUBLIC "-//W3C//DTD SVG 1.1//EN" "http://www.w3.org/Graphics/SVG/1.1/DTD/svg11.dtd"><svg t="1485067792855" class="icon" style="" viewBox="0 0 1024 1024" version="1.1" xmlns="http://www.w3.org/2000/svg" p-id="3814" xmlns:xlink="http://www.w3.org/1999/xlink" width="200" height="200"><defs><style type="text/css"></style></defs><path d="M617.247554 213.082026c-19.053961-6.80294-29.401634 15.385409-21.406542 29.647227-59.527768 12.045337-91.199095 66.041112-106.775862 124.856659-30.702256-56.474222-83.3575-98.959849-148.688437-121.270994 1.89107-2.956332 1.411139-7.473205-2.791579-8.061606-10.894118-1.51961-21.24179-1.861394-31.344892-1.684362-9.716292-2.134617-19.627013-3.91517-29.755698-5.201465-8.992815-1.163499-15.328104 5.118578-17.916045 12.8384C64.400241 305.553091 65.946456 715.273636 295.565111 751.874229c104.585987 16.669658 174.585247-72.160483 205.231221-163.264411 30.768771 70.353324 88.529289 126.677121 164.152641 155.378813 136.942929 51.971675 187.612958-124.444267 187.449229-221.214241C852.151585 378.180202 748.468155 259.975033 617.247554 213.082026zM320.066131 702.024891c-104.681154 10.333346-148.138922-113.482611-154.969491-195.266265-7.691169-91.828428 20.805862-198.658526 100.001575-240.077867 0.546446 0.341784 0.902556 0.862647 1.518586 1.136893 41.322128 19.258623 84.98558 31.343869 124.570133 54.502311 55.980989 32.768311 75.390038 108.364033 76.989465 167.822217C470.517725 577.387219 415.742191 692.580798 320.066131 702.024891zM677.719834 697.699376c-84.780919-16.041348-142.788054-108.704794-159.459758-206.885907 0.328481-19.668968-1.204431-38.666648-4.886287-56.679907-0.204661-78.222549 27.855418-151.21805 91.775216-182.452425 77.292364 52.779064 144.375202 90.282213 181.468005 182.561919C820.204989 517.873778 817.111534 724.06179 677.719834 697.699376z" p-id="3815"></path><path d="M399.355989 471.103568c-13.234419-49.809429-76.005045-123.776048-130.672108-76.92295-39.188534 33.574676-41.939181 101.163027-26.677593 146.68685 2.7793 8.29492 6.831592 16.2061 11.676947 23.62507 6.294356 28.607548 22.171975 52.341089 54.940286 56.665581C395.018194 632.519888 416.604838 536.022113 399.355989 471.103568z" p-id="3816"></path><path d="M666.631288 384.901277c-10.126638-3.421936-19.189038 1.149173-24.527626 8.581446-24.254404 10.04682-42.4713 47.38624-48.15372 67.396993-12.398378 43.772946-0.791016 102.847389 35.779901 132.084271 52.560076 42.047652 110.623493 4.25593 128.688941-51.863205C781.208836 470.378044 731.756541 406.868591 666.631288 384.901277z" p-id="3817"></path><path d="M903.615701 901.393591c-5.241374-9.402137-12.812817-15.136745-20.174482-22.774703-5.708002-5.887081-9.033747-13.974269-11.716856-21.899776 0.274246-5.14723-1.203408-10.376325-4.161786-14.617929-4.15974-17.382902-4.432962-35.805484-10.646478-52.478212-2.382257-6.337335-10.416234-6.266727-12.812817 0-4.408403 11.579733-7.472182 28.086685-8.184403 45.716204-73.268724 16.109909-103.640452 111.963001-194.990996 57.789171-61.923328-36.69576-105.147782-56.349379-165.864632-8.239662-70.50375 55.844889-100.411921 35.038004-172.133406-1.39579-21.570271-10.978029-46.853098-13.387915-70.626547-14.153348-39.174208-1.232061-74.213235 23.487947-72.516594 63.688531 0.164752 3.926426 5.40715 6.91141 8.350179 3.462868 69.532633-81.358983 129.182174 26.00528 194.498786 36.983309 66.01246 11.073196 103.736643-3.859911 152.450111-48.563042 50.998511-46.782489 133.588531 61.975517 194.703447 45.086871 51.219545-14.151301 93.349061-45.688575 133.164882-80.071663 6.979972 19.763113 19.547195 35.06768 39.940664 38.434358C898.333394 930.903695 912.033417 916.505777 903.615701 901.393591z" p-id="3818"></path><path d="M286.396287 51.980885c-19.382443 27.607778-47.689139 45.415352-74.187653 65.344241-25.142633 18.902512-64.931848 28.072359-83.876316 52.531424-5.762237 7.446599-5.720282 22.434965 6.391571 24.227798 34.643008 5.145184 65.030086-23.064298 90.242304-44.129056 29.401634-24.527626 63.030545-52.148707 78.922491-87.736227C309.197596 50.338479 293.96466 41.167608 286.396287 51.980885z" p-id="3819"></path><path d="M821.956889 153.979954c-27.702945-13.57825-58.349943-22.679535-82.452897-42.732244-19.339464-16.095583-48.659233-33.259498-54.229089-59.595306-1.354857-6.432503-10.785647-5.898337-12.455683 0-8.144494 28.634154 15.030321 54.723346 32.6844 74.665537 26.856671 30.345122 64.194044 64.754816 107.720374 59.909461C828.539818 184.516434 839.065546 162.383344 821.956889 153.979954z" p-id="3820"></path></svg>