<?xml version="1.0" encoding="UTF-8"?>
<svg width="40px" height="40px" viewBox="0 0 40 40" version="1.1" xmlns="http://www.w3.org/2000/svg" xmlns:xlink="http://www.w3.org/1999/xlink">
    <!-- Generator: Sketch 45.2 (43514) - http://www.bohemiancoding.com/sketch -->
    <title>图</title>
    <desc>Created with Sketch.</desc>
    <defs>
        <polygon id="path-1" points="19.8191633 19.8191743 0 19.8191743 0 5.52989584e-06 19.8191633 5.52989584e-06"></polygon>
    </defs>
    <g id="Page-1" stroke="none" stroke-width="1" fill="none" fill-rule="evenodd">
        <g id="OA轮播图管理_新建" transform="translate(-1216.000000, -37.000000)">
            <g id="新建" transform="translate(1170.000000, 0.000000)">
                <g id="标题" transform="translate(46.000000, 37.000000)">
                    <g id="图">
                        <circle id="Oval-4" fill="#FF5B52" cx="20" cy="20" r="20"></circle>
                        <g id="Page-1" transform="translate(10.000000, 10.000000)">
                            <mask id="mask-2" fill="white">
                                <use xlink:href="#path-1"></use>
                            </mask>
                            <g id="Clip-2"></g>
                            <path d="M18.4035376,10.8014405 C17.8358661,9.98879463 17.3219729,9.26548425 16.9736448,8.79544311 C15.5509961,6.87446789 13.8563872,6.28271374 12.1349859,8.48969517 L9.92089857,11.6041602 C8.31697993,10.0001586 6.28269715,9.83318336 4.60080698,11.7555687 L1.41564227,14.9564107 L1.41564227,4.24702083 C1.41564227,2.68977452 2.68978558,1.41563122 4.24700424,1.41563122 L15.5721756,1.41563122 C17.1293943,1.41563122 18.4035376,2.68977452 18.4035376,4.24702083 L18.4035376,10.8014405 Z M15.5721756,5.52989584e-06 L4.24700424,5.52989584e-06 C1.9054528,5.52989584e-06 -1.10597917e-05,1.90544174 -1.10597917e-05,4.24702083 L-1.10597917e-05,15.5721646 C-1.10597917e-05,15.8227241 0.0310946043,16.0662884 0.0750572762,16.3055117 L-1.10597917e-05,16.379087 C0.058025197,16.5957206 0.151425138,16.7967323 0.261940106,16.989311 C0.849380941,18.6328237 2.40377936,19.8191799 4.24700424,19.8191799 L15.5721756,19.8191799 C17.657444,19.8191799 19.3859512,18.3071957 19.7427125,16.323871 C19.7894677,16.1328131 19.8191633,15.9346216 19.8191633,15.7293242 L19.8191633,4.24702083 C19.8191633,1.90544174 17.9137271,5.52989584e-06 15.5721756,5.52989584e-06 L15.5721756,5.52989584e-06 Z M6.37037365,2.8312569 C5.1969021,2.8312569 4.24700424,3.78118241 4.24700424,4.95476455 C4.24700424,6.12696422 5.1969021,7.0782722 6.37037365,7.0782722 C7.53975307,7.0782722 8.49390895,6.12696422 8.49390895,4.95476455 C8.49390895,3.78118241 7.53975307,2.8312569 6.37037365,2.8312569 L6.37037365,2.8312569 Z" id="Fill-1" fill="#FFFFFF" mask="url(#mask-2)"></path>
                        </g>
                    </g>
                </g>
            </g>
        </g>
    </g>
</svg>