<?xml version="1.0" standalone="no"?><!DOCTYPE svg PUBLIC "-//W3C//DTD SVG 1.1//EN" "http://www.w3.org/Graphics/SVG/1.1/DTD/svg11.dtd"><svg t="1493371409717" class="icon" style="" viewBox="0 0 1024 1024" version="1.1" xmlns="http://www.w3.org/2000/svg" p-id="3837" xmlns:xlink="http://www.w3.org/1999/xlink" width="48" height="48"><defs><style type="text/css"></style></defs><path d="M0 512A512 512 0 1 0 512 0 512 512 0 0 0 0 512" fill="#FF6868" p-id="3838"></path><path d="M536.8832 600.0128v-10.24c191.0784-10.9056 211.6608-153.1904 210.5856-184.32-1.1264-32.3072-52.4288-18.944-66.9696-4.4544s-27.904 41.216-51.2 84.6848-29.0304 8.9088-20.0704-15.36 93.7472-110.2848 82.5856-145.92c-4.608-18.2784-52.5824-68.4032-178.688-68.4032s-174.08 42.3424-183.04 69.0688S389.12 428.6976 413.7984 469.9136s0 39.0144-11.1616 27.8528-37.9392-59.0336-49.1008-87.04-62.464-42.0864-73.6256-14.336c-10.752 26.8288-9.0624 181.6576 207.2064 193.1776v93.3888l-99.6864-38.4a12.4416 12.4416 0 1 0-8.96 23.1936l98.9696 38.144-98.9696 38.144a12.4416 12.4416 0 1 0 8.96 23.1936l124.5696-48.0768 124.5696 47.9744a12.4416 12.4416 0 1 0 8.96-23.1936l-98.9696-38.144 98.9696-38.144a12.4416 12.4416 0 1 0-8.96-23.1936l-99.6864 38.4v-82.8416z" fill="#FFFFFF" p-id="3839"></path></svg>