<?xml version="1.0" standalone="no"?><!DOCTYPE svg PUBLIC "-//W3C//DTD SVG 1.1//EN" "http://www.w3.org/Graphics/SVG/1.1/DTD/svg11.dtd"><svg t="1485068124993" class="icon" style="" viewBox="0 0 1024 1024" version="1.1" xmlns="http://www.w3.org/2000/svg" p-id="5194" xmlns:xlink="http://www.w3.org/1999/xlink" width="200" height="200"><defs><style type="text/css"></style></defs><path d="M375.5 246c-0.7-2.2-2.4-3.8-5.2-3.6-1.2 0.1-2.3 0.4-3.5 0.6-3.6-1.3-7.3-2.6-11-3.7-10.4-3.2-17 3.4-18.5 11.4-143.9 58.7-145 390 22.7 406.5 98.1 9.6 171-93.4 181.5-182 13.2-112.1-67.1-192.5-166-229.2z m19.7 362.9c-86.2 32.3-113.8-93.4-117.8-150.1-4.9-68.9 4.3-154.7 65.2-192.1 0.5 0.4 0.7 0.9 1.2 1.3 59.6 44.1 130.4 70.9 151.2 149.5 18.1 69.1-34.5 167-99.8 191.4z" p-id="5195"></path><path d="M641.4 249.3c-6.1-1-11.2 1.1-14.5 4.6 2.1-3 3.9-6.1 6.1-9.1 3.3-4.5-3.2-11-7.8-7.8-106.5 77-158.2 421.8 30.7 429.6 89.8 3.7 137.5-108 145.5-180.4 12.4-111.5-42.7-218-160-236.9z m-3.5 368.2c-58.3-11-64.8-116.7-67.9-160.3-5.4-75.5 13.2-138.3 54-198.9-2.6 5.9-1.3 13.4 6 18.4 28.6 19.5 59.4 34.6 85.1 58.2 33.3 30.6 40.4 79 41.6 121.4 1.7 62.3-38.7 176.3-118.8 161.2zM406 133.7c-17.6-23-51.3-12.2-74.6-4.5-35.3 11.6-66.2 40.2-83.1 72.8-6.4 12.4 8.3 22.6 18.5 14.3 20.8-16.9 38.3-37.6 60.5-52.8 18.1-12.4 50.1-29.1 72.6-21.8 4.2 1.3 9-4.2 6.1-8zM731.7 143c-31.4-15.6-77.6-27.8-110-8.1-3.6 2.2-4.6 9 0.6 10.2 30.5 6.8 59.5 7.3 88.4 21.8 28.9 14.6 50.1 40.1 66.1 67.6 7.8 13.5 32.7 7.4 27.6-9.3-11.5-37.2-37.9-64.9-72.7-82.2zM340.8 469.7c10.4-11.4 23-19.4 37.7-24.1l22.6-3.9c0.6-0.1 1.2-0.2 1.7-0.3 12.6-0.4 24.7 2 36.2 6.8-0.6-15.6-7.1-30.6-18.9-42-20.3-19.7-54.8-16.5-73.7 2.7-16.2 16.5-20.3 42.4-14.5 64.1 0.5 1.9 1.1 3.8 1.8 5.6 2.2-3.1 4.5-6.1 7.1-8.9z" p-id="5196"></path><path d="M705.1 455.8c-11.8-9.9-25.3-16.2-40.6-18.9l-23-0.9c-0.6 0-1.2 0-1.7-0.1-12.6 1.3-24.2 5.3-35 11.6-1.4-15.5 3-31.3 13.1-44.2 17.5-22.2 52.1-23.6 73.4-7.1 18.3 14.2 25.7 39.3 22.9 61.6-0.3 2-0.6 3.9-1.1 5.8-2.4-2.7-5.1-5.3-8-7.8z" p-id="5197"></path><path d="M920.8 426.6c-26.3 103.8-45.5 197.5-118.4 280.7-74 84.5-182.8 126.4-293.4 125.8C303.7 832 76.4 644.8 79.4 431.5c0.1-9.5-13.7-9.2-14.6 0C42.6 670 269.7 853.6 489.6 879.4c255.9 30 473.4-199.7 467.8-447.8-0.5-20.8-31.4-25.8-36.6-5z" p-id="5198"></path></svg>