<?xml version="1.0" encoding="UTF-8"?>
<svg width="40px" height="40px" viewBox="0 0 40 40" version="1.1" xmlns="http://www.w3.org/2000/svg" xmlns:xlink="http://www.w3.org/1999/xlink">
    <!-- Generator: Sketch 45.2 (43514) - http://www.bohemiancoding.com/sketch -->
    <title>动态</title>
    <desc>Created with Sketch.</desc>
    <defs></defs>
    <g id="Page-1" stroke="none" stroke-width="1" fill="none" fill-rule="evenodd">
        <g id="最近动态列表_新建" transform="translate(-1216.000000, -36.000000)">
            <g id="编辑" transform="translate(1170.000000, -1.000000)">
                <g id="标题" transform="translate(46.000000, 37.000000)">
                    <g id="动态">
                        <circle id="Oval-4" fill="#FF5B52" cx="20" cy="20" r="20"></circle>
                        <path d="M26.364,11 L13.636,11 C11.629,11 10,12.653 10,14.692 L10,25.308 C10,27.348 11.629,29 13.636,29 L26.364,29 C28.371,29 30,27.348 30,25.308 L30,14.692 C30,12.653 28.371,11 26.364,11 M18.181,14.231 L21.362,14.231 C21.864,14.231 22.272,14.646 22.272,15.154 C22.272,15.665 21.865,16.079 21.362,16.079 L18.181,16.079 C17.68,16.079 17.272,15.665 17.272,15.154 C17.272,14.644 17.68,14.231 18.181,14.231 M14.091,13.308 C15.095,13.308 15.908,14.134 15.908,15.154 C15.908,16.175 15.095,17 14.091,17 C13.086,17 12.273,16.174 12.273,15.153 C12.273,14.133 13.086,13.308 14.091,13.308 M26.817,26.692 L13.181,26.692 C12.68,26.692 12.273,26.278 12.273,25.77 C12.273,25.261 12.68,24.846 13.181,24.846 L26.817,24.846 C27.318,24.846 27.727,25.26 27.727,25.77 C27.727,26.278 27.319,26.692 26.817,26.692 M26.817,23 L13.181,23 C12.68,23 12.273,22.588 12.273,22.077 C12.273,21.567 12.68,21.153 13.181,21.153 L26.817,21.153 C27.318,21.153 27.727,21.567 27.727,22.077 C27.727,22.588 27.319,23 26.817,23" id="Page-1" fill="#FFFFFF"></path>
                    </g>
                </g>
            </g>
        </g>
    </g>
</svg>