<?xml version="1.0" standalone="no"?><!DOCTYPE svg PUBLIC "-//W3C//DTD SVG 1.1//EN" "http://www.w3.org/Graphics/SVG/1.1/DTD/svg11.dtd"><svg t="1511260039366" class="icon" style="" viewBox="0 0 1024 1024" version="1.1" xmlns="http://www.w3.org/2000/svg" p-id="4545" xmlns:xlink="http://www.w3.org/1999/xlink" width="200" height="200"><defs><style type="text/css"></style></defs><path d="M890.88 537.993846V163.052308a157.538462 157.538462 0 0 0-157.538462-157.538462H285.538462a157.538462 157.538462 0 0 0-157.538462 157.538462v382.818461L62.621538 604.16a39.384615 39.384615 0 1 0 52.381539 59.076923l78.769231-70.104615a39.384615 39.384615 0 0 0 13.390769-29.538462V163.052308a78.769231 78.769231 0 0 1 78.769231-78.769231h447.40923a78.769231 78.769231 0 0 1 78.769231 78.769231v391.483077a39.384615 39.384615 0 0 0 12.209231 28.356923l48.836923 47.261538L512 905.846154l-275.692308-193.772308a39.384615 39.384615 0 1 0-45.686154 64.196923l296.566154 211.101539a39.384615 39.384615 0 0 0 46.867693 0l422.596923-321.772308a39.384615 39.384615 0 0 0 3.544615-59.864615z" fill="#4D5E7D" p-id="4546"></path><path d="M354.461538 428.898462h315.076924a33.476923 33.476923 0 0 0 0-66.953847H354.461538a33.476923 33.476923 0 1 0 0 66.953847zM354.461538 586.436923h315.076924a33.476923 33.476923 0 0 0 0-66.953846H354.461538a33.476923 33.476923 0 1 0 0 66.953846z" fill="#66CCFF" p-id="4547"></path><path d="M544.689231 688.443077v-285.932308a33.476923 33.476923 0 1 0-66.953846 0v285.932308a33.476923 33.476923 0 1 0 66.953846 0z" fill="#66CCFF" p-id="4548"></path><path d="M369.427692 288.295385l118.153846 118.153846a33.476923 33.476923 0 0 0 47.261539-47.261539l-118.153846-118.153846a33.476923 33.476923 0 1 0-47.261539 47.261539z" fill="#66CCFF" p-id="4549"></path><path d="M605.735385 241.033846l-118.153847 118.153846a33.476923 33.476923 0 0 0 47.261539 47.261539l118.153846-118.153846a33.476923 33.476923 0 1 0-47.261538-47.261539z" fill="#66CCFF" p-id="4550"></path></svg>