<?xml version="1.0" standalone="no"?><!DOCTYPE svg PUBLIC "-//W3C//DTD SVG 1.1//EN" "http://www.w3.org/Graphics/SVG/1.1/DTD/svg11.dtd"><svg t="1511424265531" class="icon" style="" viewBox="0 0 1024 1024" version="1.1" xmlns="http://www.w3.org/2000/svg" p-id="8420" xmlns:xlink="http://www.w3.org/1999/xlink" width="200" height="200"><defs><style type="text/css"></style></defs><path d="M886.124923 201.318984a3.544341 3.544341 0 0 0 0 2.75671z m0 336.318616c0 143.348918-226.837848 404.842549-375.700186 404.842548-88.214719 0-196.907854-78.763142-283.153495-196.907854a39.381571 39.381571 0 0 0-65.767223 44.107359c98.847743 137.047867 228.019295 231.563637 346.95164 231.563637 196.907854 0 454.463328-298.906123 454.463328-483.60569V201.318984a75.612616 75.612616 0 0 0-22.841311-53.558936A76.400248 76.400248 0 0 0 886.124923 126.100184c-126.021027 0-269.369945-36.231045-319.778355-98.847743a76.400248 76.400248 0 0 0-107.511689-9.451577c-2.75671 2.362894-11.02684 8.663946-22.447495 16.54026a544.25331 544.25331 0 0 1-66.948671 39.381571 535.589364 535.589364 0 0 1-236.289425 55.528014A75.612616 75.612616 0 0 0 59.111935 203.288063v344.982561a264.644156 264.644156 0 0 0 18.903154 89.396166 39.381571 39.381571 0 0 0 74.037353-27.173284A191.394435 191.394435 0 0 1 137.875077 548.270624V206.832404a614.352506 614.352506 0 0 0 266.219419-63.404329A545.434757 545.434757 0 0 0 508.061843 78.842299c70.493012 85.064193 229.988374 125.627211 378.06308 126.021027z" fill="#4E5F80" p-id="8421"></path><path d="M353.686085 465.963141h315.052567a33.474335 33.474335 0 0 0 0-66.948671h-315.052567a33.474335 33.474335 0 0 0 0 66.948671zM353.686085 623.489424h315.052567a33.474335 33.474335 0 0 0 0-66.94867h-315.052567a33.474335 33.474335 0 0 0 0 66.94867z" fill="#66CCFF" p-id="8422"></path><path d="M544.686704 715.6423v-275.670996a33.474335 33.474335 0 1 0-66.948671 0v275.670996a33.474335 33.474335 0 1 0 66.948671 0z" fill="#66CCFF" p-id="8423"></path><path d="M369.438713 325.764748l118.144713 118.144713a33.474335 33.474335 0 1 0 47.257885-47.257885l-118.144713-118.144713a33.474335 33.474335 0 0 0-47.257885 47.257885z" fill="#66CCFF" p-id="8424"></path><path d="M605.728139 278.506863l-118.144713 118.144713a33.474335 33.474335 0 1 0 47.257885 47.257885l118.144713-118.144713a33.474335 33.474335 0 0 0-47.257885-47.257885z" fill="#66CCFF" p-id="8425"></path></svg>