<?xml version="1.0" standalone="no"?><!DOCTYPE svg PUBLIC "-//W3C//DTD SVG 1.1//EN" "http://www.w3.org/Graphics/SVG/1.1/DTD/svg11.dtd"><svg t="1511255445175" class="icon" style="" viewBox="0 0 1024 1024" version="1.1" xmlns="http://www.w3.org/2000/svg" p-id="3657" xmlns:xlink="http://www.w3.org/1999/xlink" width="200" height="200"><defs><style type="text/css"></style></defs><path d="M137.795048 201.789189a3.542316 3.542316 0 0 1 0 2.755135z m0 336.126392c0 143.266987 226.708199 404.61116 375.485454 404.61116 88.164299 0 196.795311-78.718125 282.991657-196.795311a39.359062 39.359062 0 0 1 63.761681 46.050103c-98.791246 136.969537-227.888971 231.431286-346.753338 231.431286C318.453143 1021.244866 59.076923 722.509583 59.076923 537.915581V201.789189a75.5694 75.5694 0 0 1 22.828256-53.528325 76.356581 76.356581 0 0 1 52.741144-21.647484c125.948999 0 269.215986-36.210337 319.595585-98.791246A76.356581 76.356581 0 0 1 562.87292 18.375959c2.755134 2.361544 11.020537 8.658994 22.434666 16.530806a543.942241 543.942241 0 0 0 66.910405 39.359062 535.283247 535.283247 0 0 0 236.154374 55.496278A75.5694 75.5694 0 0 1 964.335355 203.757142v344.785386a264.492898 264.492898 0 0 1-18.89235 89.345071 39.359062 39.359062 0 0 1-73.995037-27.157753 191.285043 191.285043 0 0 0 14.169263-62.187318V207.299458a614.001371 614.001371 0 0 1-267.641624-63.36809A545.123012 545.123012 0 0 1 513.674092 79.382506C443.221371 164.39808 283.817169 204.937914 137.795048 205.331505z" fill="#4E5F80" p-id="3658"></path><path d="M353.482709 466.282088h314.872498a33.455203 33.455203 0 0 0 0-66.910406h-314.872498a33.455203 33.455203 0 0 0 0 66.910406zM353.482709 623.718337h314.872498a33.455203 33.455203 0 0 0 0-66.910406h-314.872498a33.455203 33.455203 0 0 0 0 66.910406z" fill="#66CCFF" p-id="3659"></path><path d="M544.374161 715.818542v-275.513435a33.455203 33.455203 0 1 0-66.910406 0v275.513435a33.455203 33.455203 0 1 0 66.910406 0z" fill="#66CCFF" p-id="3660"></path><path d="M369.226334 326.163826l118.077187 118.077187a33.455203 33.455203 0 1 0 47.230874-47.230875l-118.077187-118.077187a33.455203 33.455203 0 0 0-47.230874 47.230875z" fill="#66CCFF" p-id="3661"></path><path d="M605.380707 278.932951l-118.077186 118.077187a33.455203 33.455203 0 1 0 47.230874 47.230875l118.077187-118.077187a33.455203 33.455203 0 0 0-47.230875-47.230875z" fill="#66CCFF" p-id="3662"></path></svg>