<?xml version="1.0" standalone="no"?><!DOCTYPE svg PUBLIC "-//W3C//DTD SVG 1.1//EN" "http://www.w3.org/Graphics/SVG/1.1/DTD/svg11.dtd"><svg t="1511262014312" class="icon" style="" viewBox="0 0 1163 1024" version="1.1" xmlns="http://www.w3.org/2000/svg" p-id="5173" xmlns:xlink="http://www.w3.org/1999/xlink" width="227.1484375" height="200"><defs><style type="text/css"></style></defs><path d="M992.5539769 326.375h-363.57954538a125.02840924 125.02840924 0 0 0-105.46875001 90.89488613 256.57670462 256.57670462 0 0 0-16.10795461 94.73011387 248.90625001 248.90625001 0 0 0 16.10795463 95.49715925 142.28693152 142.28693152 0 0 0 106.23579537 92.42897688H992.17045462a32.59943152 32.59943152 0 0 0 0-65.19886303H629.7414769a96.26420462 96.26420462 0 0 1-44.48863615-46.02272772 187.54261387 187.54261387 0 0 1-13.03977227-76.70454538 194.0625 194.0625 0 0 1 13.03977227-76.70454538c9.58806848-29.1477269 31.83238613-46.40625001 43.72159077-46.40625h363.1960231a32.59943152 32.59943152 0 1 0 0-65.19886386z" fill="#66CCFF" p-id="5174"></path><path d="M166.82954538 759.75568151H90.125v4.60227311a38.3522731 38.3522731 0 1 0 0-4.60227309v4.60227309a164.9147731 164.9147731 0 0 0 162.23011387 162.61363613h622.84090923a149.57386387 149.57386387 0 0 0 111.98863614-49.4744315 174.11931849 174.11931849 0 0 0 43.72159075-117.74147772V274.59943152a187.54261387 187.54261387 0 0 0-43.72159075-121.57670462A146.88920462 146.88920462 0 0 0 875.1960231 100.48011387H252.35511387a155.7102269 155.7102269 0 0 0-115.05681849 52.92613614A182.17329538 182.17329538 0 0 0 90.125 274.59943152v331.74715923a38.3522731 38.3522731 0 1 0 76.70454538 1e-8V274.59943152A105.46875001 105.46875001 0 0 1 194.05965924 205.18181847a79.00568151 79.00568151 0 0 1 58.29545463-27.61363694h622.84090923a70.18465925 70.18465925 0 0 1 53.69318152 26.07954537 111.22159076 111.22159076 0 0 1 25.3125 71.33522772v484.77272691a97.79829538 97.79829538 0 0 1-23.77840924 66.34943234 73.25284076 73.25284076 0 0 1-54.84375 24.16193151H252.35511387A88.2102269 88.2102269 0 0 1 166.82954538 759.75568151z" fill="#4E5F80" p-id="5175"></path><path d="M722.9375 574.51420462a57.52840924 57.52840924 0 1 0-57.52840924-57.52840924 57.52840924 57.52840924 0 0 0 57.52840924 57.52840924z" fill="#66CCFF" p-id="5176"></path><path d="M954.20170462 323.30681849v396.94602227h76.70454537V323.30681849h-76.70454537z" fill="#4E5F80" p-id="5177"></path></svg>