<?xml version="1.0" standalone="no"?><!DOCTYPE svg PUBLIC "-//W3C//DTD SVG 1.1//EN" "http://www.w3.org/Graphics/SVG/1.1/DTD/svg11.dtd"><svg t="1511255491608" class="icon" style="" viewBox="0 0 1024 1024" version="1.1" xmlns="http://www.w3.org/2000/svg" p-id="3911" xmlns:xlink="http://www.w3.org/1999/xlink" width="200" height="200"><defs><style type="text/css"></style></defs><path d="M761.856 224.78848c18.6368-20.19328 30.14656-49.7664 30.14656-80.4864a122.88 122.88 0 0 0-122.88-122.88H143.36A122.88 122.88 0 0 0 52.71552 227.24608l222.24896 283.72992a40.96 40.96 0 0 0 64.47104-50.54464L115.13856 174.32576c-17.28512-19.0464-16.09728-44.97408 0.57344-60.2112A40.96 40.96 0 0 1 143.36 103.34208h525.76256a40.96 40.96 0 0 1 30.22848 68.608l-219.62752 281.23136a40.96 40.96 0 0 0-8.68352 25.1904V881.58208a40.96 40.96 0 0 1-40.96 40.96H389.12a40.96 40.96 0 0 1-40.96-40.96v-237.48608a40.96 40.96 0 0 0-81.92 0V881.58208a122.88 122.88 0 0 0 122.88 122.88h40.96a122.88 122.88 0 0 0 122.88-122.88v-389.12l208.896-267.6736z" fill="#499DF1" p-id="3912"></path><path d="M634.88 512.94208l368.64 0 0 81.92-368.64 0 0-81.92Z" fill="#499DF1" p-id="3913"></path><path d="M634.88 676.78208l368.64 0 0 81.92-368.64 0 0-81.92Z" fill="#499DF1" p-id="3914"></path><path d="M634.88 840.62208l368.64 0 0 81.92-368.64 0 0-81.92Z" fill="#499DF1" p-id="3915"></path></svg>