<svg xmlns="http://www.w3.org/2000/svg" viewBox="0 0 160.62 64.37"><defs><style>.cls-1{fill:#3e4559;}</style></defs><title>1</title><g id="图层_2" data-name="图层 2"><path class="cls-1" d="M35.58,40.6V38.92q0-1.44-1.5-1.44H15q-1.5,0-1.5,1.44V40.6Q13.5,42,15,42H34.08Q35.57,42,35.58,40.6Z"/><path class="cls-1" d="M58.67,0h-53A5.69,5.69,0,0,0,0,5.7v53a5.69,5.69,0,0,0,5.67,5.67h53a5.69,5.69,0,0,0,5.67-5.67V5.7A5.69,5.69,0,0,0,58.67,0ZM6.37,16.23a44.2,44.2,0,0,0,8.1-9.93q1-1.91,2.58-1.56,2,.52,1.32,1.85Q17.58,8.2,19,8.2H54.95q1.8,0,1.8,1.44t-1.8,1.44H17.16a3.77,3.77,0,0,0-2.82,1.73,34.34,34.34,0,0,1-5.16,5.6Q7,20.15,5.83,18.94T6.37,16.23Zm44.57-.06q0,1.44-1.8,1.44H17.52q-1.8,0-1.8-1.39t1.8-1.44H49.13Q50.93,14.78,50.93,16.17Zm-9.84,38.7a36.56,36.56,0,0,1-9.44.59c-2.19-.12-4.15-1-4.41-3.42V46.32q0-1.44-1.5-1.44h-4a2.55,2.55,0,0,0-2.28,1.73,15.59,15.59,0,0,1-10,9q-2,.69-3.06-.58t1-1.73a24.67,24.67,0,0,0,4.32-2,11.15,11.15,0,0,0,4.38-4.62q1-1.79-.54-1.79H12.18q-1.8,0-1.8-1.73V36.38q0-1.73,1.8-1.73h8.7q1.5,0,1.5-1.67t-1.5-1.73H8.58q-1.8,0-1.8-1.21t1.8-1.27h12.3q1.5,0,1.5-1.27t1.8-1.27q1.86,0,1.86,1.21t1.5,1.33H40q1.8,0,1.8,1.21T40,31.24H27.54q-1.5,0-1.5,1.67t1.5,1.73H36.9q1.8,0,1.8,1.73v6.76q0,1.73-1.8,1.73H32q-1.5,0-1.5,1.44v4c0,2.2,2.87,2,4.29,2,2,0,3.91-.3,5-2.16.5-.84,1-1.17,1.91-.8l.27.13C43.76,50.51,43,54.45,41.09,54.86ZM58.91,47A40.12,40.12,0,0,1,57,53.59q-2,4.33-5.1,2.89a8.9,8.9,0,0,1-3-3.7,23.06,23.06,0,0,1-1.46-5c-.31-1.46-.58-2.94-.82-4.42a95,95,0,0,1-1-10.62c-.1-2.32-.17-4.65-.17-7q0-1.44-1.5-1.44H12.18q-1.8,0-1.8-1.33t1.68-1.44H47.51q1.8,0,1.8,1.73A164.9,164.9,0,0,0,50.07,42a33.81,33.81,0,0,0,1.84,9.12c2.19,5.24,3.48-3.81,3.64-5.35q.18-2,2.1-1.27A2,2,0,0,1,58.91,47Z"/><path class="cls-1" d="M86.7,59.64a.34.34,0,0,1,0,.17.31.31,0,0,1-.17.12,1.58,1.58,0,0,1-.34.08,4.06,4.06,0,0,1-.55,0,5.71,5.71,0,0,1-.71,0,.94.94,0,0,1-.41-.13.92.92,0,0,1-.22-.21L78.36,52v7.62a.29.29,0,0,1,0,.16.32.32,0,0,1-.17.12l-.33.07a4.42,4.42,0,0,1-1,0,2,2,0,0,1-.34-.07.32.32,0,0,1-.17-.12.29.29,0,0,1,0-.16V45a.28.28,0,0,1,0-.16.33.33,0,0,1,.17-.11l.34-.07a4.49,4.49,0,0,1,1,0l.33.07a.33.33,0,0,1,.17.11.28.28,0,0,1,0,.16V51.8L84,45a.73.73,0,0,1,.17-.18.8.8,0,0,1,.24-.11l.35-.06.53,0a3.75,3.75,0,0,1,.52,0,1.46,1.46,0,0,1,.32.08.32.32,0,0,1,.16.12.29.29,0,0,1,0,.15.65.65,0,0,1-.08.31,2.81,2.81,0,0,1-.3.42l-5.32,6L86.4,59a2.7,2.7,0,0,1,.25.42A.54.54,0,0,1,86.7,59.64Z"/><path class="cls-1" d="M95.5,49.76q0,.26,0,.44a1.06,1.06,0,0,1,0,.28.41.41,0,0,1-.09.15.22.22,0,0,1-.16.05.71.71,0,0,1-.24-.05l-.32-.11-.4-.1a2.36,2.36,0,0,0-.48,0,1.64,1.64,0,0,0-.61.12,2.39,2.39,0,0,0-.63.39,5,5,0,0,0-.69.72q-.36.45-.79,1.1v7a.25.25,0,0,1,0,.16.39.39,0,0,1-.16.11,1.21,1.21,0,0,1-.31.07L90,60l-.5,0a1.31,1.31,0,0,1-.32-.07.34.34,0,0,1-.16-.11.28.28,0,0,1,0-.16V49.07a.31.31,0,0,1,0-.16.33.33,0,0,1,.15-.12.87.87,0,0,1,.29-.07l.46,0,.45,0a.76.76,0,0,1,.28.07.39.39,0,0,1,.14.12.28.28,0,0,1,0,.16v1.54a8.41,8.41,0,0,1,.86-1,4.7,4.7,0,0,1,.76-.63,2.43,2.43,0,0,1,.71-.32,2.93,2.93,0,0,1,.71-.09l.37,0,.43.07.4.11a.85.85,0,0,1,.25.12.34.34,0,0,1,.1.11.73.73,0,0,1,0,.14,1.46,1.46,0,0,1,0,.24Q95.5,49.49,95.5,49.76Z"/><path class="cls-1" d="M112.81,55.59a4.2,4.2,0,0,1-.41,1.89,4.09,4.09,0,0,1-1.14,1.4,5,5,0,0,1-1.72.87,7.5,7.5,0,0,1-2.13.29,8,8,0,0,1-1.48-.13,8.44,8.44,0,0,1-1.21-.31,6,6,0,0,1-.9-.38,2.38,2.38,0,0,1-.5-.34.84.84,0,0,1-.21-.36,2,2,0,0,1-.07-.58,3,3,0,0,1,0-.43,1,1,0,0,1,.07-.27.31.31,0,0,1,.12-.15.35.35,0,0,1,.17,0,1,1,0,0,1,.48.2,7.79,7.79,0,0,0,.8.43,8.11,8.11,0,0,0,1.18.44,5.68,5.68,0,0,0,1.6.2,4.28,4.28,0,0,0,1.26-.17,3,3,0,0,0,1-.5,2.15,2.15,0,0,0,.63-.79,2.45,2.45,0,0,0,.22-1.06,1.92,1.92,0,0,0-.31-1.1,3,3,0,0,0-.81-.8,7.25,7.25,0,0,0-1.15-.63L107,52.7A14.56,14.56,0,0,1,105.7,52a5.53,5.53,0,0,1-1.14-.85,4,4,0,0,1-.82-1.15,3.66,3.66,0,0,1-.31-1.58,3.79,3.79,0,0,1,.36-1.68,3.51,3.51,0,0,1,1-1.24,4.58,4.58,0,0,1,1.53-.76,6.76,6.76,0,0,1,1.92-.26,6.56,6.56,0,0,1,1.06.09,7.59,7.59,0,0,1,1,.23,5.83,5.83,0,0,1,.84.33,2.21,2.21,0,0,1,.48.29.93.93,0,0,1,.15.17.65.65,0,0,1,.06.16,1.62,1.62,0,0,1,0,.24c0,.09,0,.21,0,.36a3.4,3.4,0,0,1,0,.37,1.38,1.38,0,0,1-.06.27.34.34,0,0,1-.1.16.24.24,0,0,1-.15.05,1,1,0,0,1-.42-.16l-.71-.37a6.39,6.39,0,0,0-1-.37,4.51,4.51,0,0,0-1.28-.17,3.54,3.54,0,0,0-1.15.17,2.4,2.4,0,0,0-.81.45,1.78,1.78,0,0,0-.48.66,2.11,2.11,0,0,0-.16.82,1.89,1.89,0,0,0,.31,1.08,3,3,0,0,0,.82.8,7.31,7.31,0,0,0,1.16.64l1.33.59q.67.3,1.33.65a5.54,5.54,0,0,1,1.16.84,3.82,3.82,0,0,1,.82,1.14A3.59,3.59,0,0,1,112.81,55.59Z"/><path class="cls-1" d="M125.87,54.12a9,9,0,0,1-.31,2.47,5.27,5.27,0,0,1-.92,1.86,4.08,4.08,0,0,1-1.5,1.18,4.84,4.84,0,0,1-2,.41,4.17,4.17,0,0,1-.91-.09,3.58,3.58,0,0,1-.82-.29,4.75,4.75,0,0,1-.79-.5q-.39-.3-.83-.71v5a.28.28,0,0,1,0,.16.36.36,0,0,1-.16.12,1.2,1.2,0,0,1-.31.07l-.5,0-.49,0a1.3,1.3,0,0,1-.31-.07.32.32,0,0,1-.16-.12.3.3,0,0,1,0-.16V48.86a.34.34,0,0,1,0-.17.29.29,0,0,1,.15-.11,1,1,0,0,1,.28-.06l.42,0,.42,0a1,1,0,0,1,.28.06.34.34,0,0,1,.15.11.3.3,0,0,1,0,.17v1.58a11.51,11.51,0,0,1,1-.85,5.85,5.85,0,0,1,.94-.6,4.57,4.57,0,0,1,1-.36,4.82,4.82,0,0,1,3.1.32,3.79,3.79,0,0,1,1.38,1.21,5.27,5.27,0,0,1,.78,1.79A9.24,9.24,0,0,1,125.87,54.12Zm-2.1.22a9.16,9.16,0,0,0-.13-1.56,4.34,4.34,0,0,0-.44-1.33,2.54,2.54,0,0,0-.85-.93,2.35,2.35,0,0,0-1.32-.35,2.79,2.79,0,0,0-.78.11,3.25,3.25,0,0,0-.78.35,5.43,5.43,0,0,0-.83.63,9.93,9.93,0,0,0-.91,1v4.17a8.6,8.6,0,0,0,1.59,1.48,2.76,2.76,0,0,0,1.58.51,2.4,2.4,0,0,0,1.32-.35,2.7,2.7,0,0,0,.89-.93,4.52,4.52,0,0,0,.5-1.31A6.69,6.69,0,0,0,123.77,54.34Z"/><path class="cls-1" d="M137.18,59.54a.24.24,0,0,1-.1.21.71.71,0,0,1-.27.1,2.71,2.71,0,0,1-.5,0,2.94,2.94,0,0,1-.51,0,.62.62,0,0,1-.28-.1.25.25,0,0,1-.09-.21v-1a5.45,5.45,0,0,1-1.61,1.14,4.47,4.47,0,0,1-1.88.41,5.37,5.37,0,0,1-1.58-.22,3.45,3.45,0,0,1-1.2-.62,2.81,2.81,0,0,1-.77-1,3.17,3.17,0,0,1-.28-1.35,3,3,0,0,1,.38-1.54,3.08,3.08,0,0,1,1.09-1.08,5.55,5.55,0,0,1,1.74-.65,11.38,11.38,0,0,1,2.32-.22h1.52v-.82a3.87,3.87,0,0,0-.14-1.07,1.81,1.81,0,0,0-.44-.78,1.89,1.89,0,0,0-.78-.47,3.81,3.81,0,0,0-1.18-.16,4.91,4.91,0,0,0-1.34.17,7.43,7.43,0,0,0-1,.37q-.45.2-.75.37a1.07,1.07,0,0,1-.45.17.31.31,0,0,1-.17,0,.4.4,0,0,1-.13-.14.69.69,0,0,1-.08-.24,2.33,2.33,0,0,1,0-.78.66.66,0,0,1,.21-.32,2.71,2.71,0,0,1,.57-.36,6.49,6.49,0,0,1,.93-.37,8.92,8.92,0,0,1,1.15-.28,7.25,7.25,0,0,1,1.26-.11,7,7,0,0,1,2,.26,3.32,3.32,0,0,1,1.35.75,2.88,2.88,0,0,1,.75,1.23,5.68,5.68,0,0,1,.23,1.71Zm-2-4.79h-1.73a6.84,6.84,0,0,0-1.45.13,3.06,3.06,0,0,0-1,.4,1.67,1.67,0,0,0-.6.63,1.81,1.81,0,0,0-.19.85,1.65,1.65,0,0,0,.55,1.3,2.22,2.22,0,0,0,1.53.48,3,3,0,0,0,1.48-.38A6.3,6.3,0,0,0,135.17,57Z"/><path class="cls-1" d="M148.51,57.93q0,.2,0,.34a1.22,1.22,0,0,1,0,.24.89.89,0,0,1-.07.17,1.17,1.17,0,0,1-.2.22,3.07,3.07,0,0,1-.52.36,5.2,5.2,0,0,1-.83.38,6.53,6.53,0,0,1-1,.27,5.84,5.84,0,0,1-1.12.1,5.58,5.58,0,0,1-2.11-.37,4,4,0,0,1-1.54-1.09,4.87,4.87,0,0,1-.95-1.76,8.1,8.1,0,0,1-.33-2.41,7.92,7.92,0,0,1,.4-2.66,5,5,0,0,1,1.09-1.82,4.34,4.34,0,0,1,1.63-1.05,5.87,5.87,0,0,1,2-.34,5.56,5.56,0,0,1,1,.09,5.8,5.8,0,0,1,.91.24,4.11,4.11,0,0,1,.74.35,3,3,0,0,1,.47.34,1.56,1.56,0,0,1,.2.22.78.78,0,0,1,.09.19,1.1,1.1,0,0,1,0,.25q0,.14,0,.35a1.31,1.31,0,0,1-.11.64.32.32,0,0,1-.27.18.71.71,0,0,1-.42-.19,6.89,6.89,0,0,0-.61-.43,4.72,4.72,0,0,0-.89-.43,3.56,3.56,0,0,0-1.23-.19,2.6,2.6,0,0,0-2.24,1.07,5.2,5.2,0,0,0-.78,3.09,7,7,0,0,0,.2,1.78,3.6,3.6,0,0,0,.6,1.28,2.43,2.43,0,0,0,1,.76,3.22,3.22,0,0,0,1.31.25,3.3,3.3,0,0,0,1.23-.21,5.23,5.23,0,0,0,.91-.46q.39-.25.65-.45a.79.79,0,0,1,.41-.2.24.24,0,0,1,.15,0,.35.35,0,0,1,.1.16,1.15,1.15,0,0,1,.06.28A3.83,3.83,0,0,1,148.51,57.93Z"/><path class="cls-1" d="M160.62,53.82a.78.78,0,0,1-.24.65.85.85,0,0,1-.55.19h-7.27a6.17,6.17,0,0,0,.18,1.57,3,3,0,0,0,.62,1.2,2.77,2.77,0,0,0,1.12.77,4.68,4.68,0,0,0,1.69.27,7.27,7.27,0,0,0,1.41-.12,8.66,8.66,0,0,0,1.07-.27q.45-.15.74-.27a1.26,1.26,0,0,1,.44-.12.29.29,0,0,1,.15,0,.27.27,0,0,1,.1.12.83.83,0,0,1,.06.23,2.83,2.83,0,0,1,0,.36,2.49,2.49,0,0,1,0,.26c0,.07,0,.14,0,.2A.49.49,0,0,1,160,59a.69.69,0,0,1-.11.13,1.87,1.87,0,0,1-.4.21,6.05,6.05,0,0,1-.86.29q-.53.14-1.22.25A9.35,9.35,0,0,1,156,60a7.18,7.18,0,0,1-2.39-.36,4.45,4.45,0,0,1-1.72-1.07,4.53,4.53,0,0,1-1.06-1.78,7.92,7.92,0,0,1-.36-2.49,7.5,7.5,0,0,1,.37-2.43,5.08,5.08,0,0,1,1.06-1.83,4.63,4.63,0,0,1,1.67-1.15,5.74,5.74,0,0,1,2.2-.4,5.55,5.55,0,0,1,2.22.4,4.18,4.18,0,0,1,1.5,1.07,4.22,4.22,0,0,1,.87,1.57,6.57,6.57,0,0,1,.28,1.93Zm-2-.57a3.38,3.38,0,0,0-.71-2.38,2.77,2.77,0,0,0-2.22-.86,3.07,3.07,0,0,0-1.32.27,2.84,2.84,0,0,0-1,.71,3.22,3.22,0,0,0-.59,1,4.11,4.11,0,0,0-.23,1.23Z"/><path class="cls-1" d="M77.65,25.26c0-.85.47-1.28,1.68-1.28h33.11a1.12,1.12,0,0,1,1.16,1.28q0,1.28-1.42,1.28h-14q-1.18,0-1.18,1.1v8.77q0,1.1,1.18,1.1h15.07q1.42,0,1.42,1.32c0,.88-.47,1.32-1.16,1.32H77.91c-1.21,0-1.68-.44-1.68-1.32s.47-1.32,1.42-1.32h15q1.18,0,1.18-1.1V27.64q0-1.1-1.18-1.1H79.07Q77.65,26.54,77.65,25.26Z"/><path class="cls-1" d="M122.16,3.16a1.19,1.19,0,0,1,1.35-1.35h13.67q1.4,0,1.4,1.3v12q0,1.31-1.4,1.3H126.36q-1.17,0-1.17,1.09V38.89q0,1.31-1.49,1.3t-1.54-1.3Zm13.63,2.26q0-1.17-1.07-1.17H126.5q-1.17,0-1.17,1.09V6.81q0,1.09,1.17,1.09h8.12q1.17,0,1.17-1.09Zm0,5.7A1,1,0,0,0,134.67,10H126.5q-1.17,0-1.17,1.09v1.78q0,1.09,1.17,1.09h8.12q1.17,0,1.17-1.09Zm-3.9,9.78q0-1.39,1.31-1.39h16.29q1.4,0,1.4,1.3V33.55q0,1.31-1.4,1.3H133.29q-1.4,0-1.4-1.3Zm16.4,2a1,1,0,0,0-1.12-1.13H136q-1.17,0-1.17,1.09v2Q134.81,26,136,26h11.15q1.17,0,1.17-1.09Zm0,6.22A1,1,0,0,0,147.18,28H136q-1.17,0-1.17,1.09v2.35q0,1.09,1.17,1.09h11.15q1.17,0,1.17-1.09Zm-4.15-26a1.19,1.19,0,0,1,1.35-1.35h13.72q1.4,0,1.4,1.3V36.4a3.57,3.57,0,0,1-3.41,3.78,42.3,42.3,0,0,1-4.25-.13,2.05,2.05,0,0,1-2.05-1.52q-.37-1.61.89-1.44a17.46,17.46,0,0,0,4.67.22,2.09,2.09,0,0,0,1.17-1.87v-18q0-1.09-1.17-1.09H145.54q-1.4,0-1.4-1.3Zm13.3,2.26q0-1.17-1.07-1.17h-8.26q-1.17,0-1.17,1.09V6.81q0,1.09,1.17,1.09h8.16q1.17,0,1.17-1.09Zm0,5.7A1,1,0,0,0,156.33,10h-8.21q-1.17,0-1.17,1.09v1.78q0,1.09,1.17,1.09h8.16q1.17,0,1.17-1.09Z"/><path class="cls-1" d="M101.85,18.6q-2.81-.53-3-3V7.18q0-1.11-1.19-1.11H92.55q-1.19,0-1.38,1.38-1.1,8.84-11.54,12.4A2.2,2.2,0,0,1,77.15,19q-1-1.24.53-1.64,9.54-2.49,10.49-10.13.1-1.11-1-1.11H80.64q-1.19,0-1.19,1.11v2.4q0,1.33-1.43,1.33h-.33q-1.43,0-1.43-1.33V5q0-1.33,1.43-1.33h15.2q1.14,0,.52-1.56T94.17.16a1.84,1.84,0,0,1,2.43.76l.57,1.24q.52,1.47,1.67,1.47h14.28q1.43,0,1.43,1.33V9.58q0,1.33-1.43,1.33h-.38q-1.43,0-1.43-1.33V7.18q0-1.11-1.19-1.11h-7q-1.19,0-1.19,1.11v6.49s-.08,2.29,1.53,2.49A54.84,54.84,0,0,0,113,16q1.57-.09,1.57,1,0,1.29-1.43,1.42l-2.29.18A78.77,78.77,0,0,1,101.85,18.6Z"/></g></svg>