<?xml version="1.0" standalone="no"?><!DOCTYPE svg PUBLIC "-//W3C//DTD SVG 1.1//EN" "http://www.w3.org/Graphics/SVG/1.1/DTD/svg11.dtd"><svg t="1482313216418" class="icon" style="" viewBox="0 0 1024 1024" version="1.1" xmlns="http://www.w3.org/2000/svg" p-id="2887" xmlns:xlink="http://www.w3.org/1999/xlink" width="32" height="32"><defs><style type="text/css"></style></defs><path d="M145.994667 345.699556L1.973333 428.849778v166.300444l144.017778 83.150222 144.017778-83.150222v-166.300444L145.994667 345.699556z m-3.438223 280.643555l-97.304888-56.177778v-112.323555l97.304888 56.142222v112.359111z m-93.902222-174.471111l97.340445-56.199111 97.340444 56.199111-97.340444 56.16-97.340445-56.16z m198.08 118.293333l-97.304889 56.177778v-112.359111l97.304889-56.142222v112.323555z" fill="#2D8DCE" p-id="2888"></path><path d="M470.360889 503.242667h-63.623111v9.187555h63.623111v14.872889h-50.229333v41.738667h31.808c1.112889 16.149333-14.791111 26.993778-47.715556 32.565333 2.784 3.335111 4.458667 6.677333 5.020444 10.019556 35.712-5.571556 53.290667-19.768889 52.739556-42.584889h25.952v19.207111c-0.565333 12.796444 5.859556 18.915556 19.253333 18.368h19.253334c12.266667 0.547556 19.527111-4.736 21.763555-15.864889 1.678222-3.900444 2.513778-8.896 2.513778-15.025778-0.561778 0-1.400889-0.273778-2.513778-0.839111-3.349333-1.109333-5.856-1.941333-7.530666-2.503111 0 6.129778-0.839111 11.413333-2.513778 15.864889-1.127111 6.677333-5.859556 9.728-14.232889 9.180444h-13.393778c-8.935111 0.547556-13.12-2.787556-12.558222-10.016v-18.371555h31.811555v-41.738667h-49.390222v-14.872889h63.623111v-9.187555h-63.623111v-13.358223h-10.044444v13.358223z m113.848889 96.014222c-3.914667 0-6.986667-4.177778-9.208889-12.522667-5.020444-13.358222-7.260444-43.413333-6.695111-90.168889v-20.035555h-144.824889v9.180444h134.776889v8.352c-0.561778 51.210667 1.678222 82.648889 6.698666 94.339556 4.458667 15.029333 10.88 22.257778 19.253334 21.710222 8.369778 0.547556 13.667556-5.297778 15.907555-17.532444 1.109333-3.335111 2.222222-9.728 3.349334-19.2 0.547556-3.342222 0.832-6.119111 0.832-8.344889-1.123556 0-3.349333-0.547556-6.695111-1.674667-1.674667-0.547556-2.798222-0.835556-3.349334-0.835556-1.127111 11.687111-2.510222 20.600889-4.184889 26.72-0.565333 6.677333-2.510222 10.012444-5.859555 10.012445z m-64.462222-62.773333v24.213333h-88.736v-24.213333h88.736z m-118.869334-64.128c3.900444 3.342222 6.695111 6.129778 8.369778 8.352 14.506667-13.361778 26.225778-27.555556 35.160889-42.584889h148.170667v-8.344889h-143.146667a191.804444 191.804444 0 0 0 7.530667-15.025778l-10.876445-2.506667c-10.613333 23.374222-25.681778 43.409778-45.208889 60.110223z m41.016889-10.855112h132.266667v-8.344888h-132.266667v8.344888zM642.805333 532.465778h66.972445v59.278222h-87.900445v10.855111h187.516445v-10.855111h-87.896889v-59.278222h66.133333v-10.019556h-144.824889v10.019556z m72.835556-91.000889H622.72v38.403555h11.719111v-28.380444h162.403556v28.380444h11.719111v-38.403555h-91.246222l10.044444-4.177778a491.864889 491.864889 0 0 0-10.883556-25.045333l-10.88 4.177778 10.044445 25.045333z m-98.784 73.468444c2.787556 3.342222 5.297778 6.677333 7.537778 10.019556 23.989333-13.905778 48.266667-30.328889 72.828444-49.258667l-8.369778-8.352c-25.678222 19.495111-49.681778 35.352889-71.996444 47.591111z m197.564444-0.835555c-25.112889-17.806222-49.112889-33.393778-71.992889-46.755556l-6.698666 8.352c21.767111 13.916444 45.482667 30.055111 71.160889 48.423111l7.530666-10.019555zM887.249778 570.033778h83.712v-101.856h-83.712v101.856z m123.057778-133.578667v145.269333c0.547556 12.796444-5.863111 18.915556-19.253334 18.368-13.397333 0-22.894222-0.284444-28.462222-0.835555 1.112889 4.451556 1.674667 8.625778 1.674667 12.522667 12.832 0 22.602667-0.284444 29.297777-0.835556 18.968889 0 28.462222-9.180444 28.462223-27.548444V425.6h-117.198223v10.855111h105.479112z m-50.232889 87.665778v35.900444h-61.109334v-35.900444h61.109334z m0-45.088v35.064889h-61.109334v-35.064889h61.109334z m-121.379556 132.746667h11.719111v-157.792h-11.719111v157.792z m25.112889-176.995556c6.136889 6.129778 10.599111 10.855111 13.393778 14.190222l10.048-8.344889c-4.472889-4.451556-10.883556-10.855111-19.253334-19.2-3.914667-3.889778-6.695111-6.677333-8.373333-8.352l-9.205333 7.52c2.780444 2.784 7.242667 7.509333 13.390222 14.186667z" fill="#1F3B4A" p-id="2889"></path></svg>