<?xml version="1.0" standalone="no"?><!DOCTYPE svg PUBLIC "-//W3C//DTD SVG 1.1//EN" "http://www.w3.org/Graphics/SVG/1.1/DTD/svg11.dtd"><svg t="1483605118461" class="icon" style="" viewBox="0 0 1024 1024" version="1.1" xmlns="http://www.w3.org/2000/svg" p-id="2672" xmlns:xlink="http://www.w3.org/1999/xlink" width="200" height="200"><defs><style type="text/css"></style></defs><path d="M1004.48 771.664l-90.768-181.44c-7.344-14.656-24.224-21.36-39.184-15.568l-178.624 68.624c-16.368 6.288-24.688 25.008-18.576 41.856 6.112 16.848 24.352 25.36 40.688 19.104l120.784-46.384c-59.04 136.864-178.08 217.264-326.832 229.504-165.536 0-292.96-107.28-358.656-279.168-6.256-16.32-21.152-27.328-37.696-22.864-16.608 4.304-26.64 21.568-22.416 38.528C141.92 819.184 311.344 955.632 505.264 955.632c170.544 0 321.36-104.848 388.736-262.56l54.24 108.416c5.6 11.216 16.672 17.632 28.16 17.632 4.864 0 9.824-1.136 14.448-3.616C1006.368 807.296 1012.48 787.648 1004.48 771.664zM132.928 432.368c2.832 0 5.744-0.384 8.592-1.184l183.952-51.472c17.184-4.8 27.264-22.832 22.528-40.256-4.736-17.424-22.528-27.712-39.712-22.864l-121.984 34.144C251.52 212.32 364.032 136.624 511.984 136.624c160.112 0 291.536 118.256 341.248 273.008 5.36 16.656 25.888 18.768 37.984 10.224 13.968-9.968 25.616-22.8 20.624-39.552C856.256 193.728 692.848 68.368 505.264 68.368c-162.816 0-307.168 94.4-378.88 241.216L77.44 205.392c-7.68-16.368-27.008-23.264-43.04-15.472-16.096 7.776-22.912 27.296-15.264 43.6l84.64 180.176C109.232 425.344 120.736 432.368 132.928 432.368z" p-id="2673" fill="#499df1"></path></svg>