<?xml version="1.0" encoding="UTF-8"?>
<svg width="13px" height="20px" viewBox="0 0 13 20" version="1.1" xmlns="http://www.w3.org/2000/svg" xmlns:xlink="http://www.w3.org/1999/xlink">
    <!-- Generator: Sketch 45.2 (43514) - http://www.bohemiancoding.com/sketch -->
    <title>edit</title>
    <desc>Created with Sketch.</desc>
    <defs></defs>
    <g id="Page-1" stroke="none" stroke-width="1" fill="none" fill-rule="evenodd">
        <g id="人员详情页_个人信息_左对齐" transform="translate(-1825.000000, -131.000000)">
            <g id="编辑" transform="translate(1825.000000, 131.000000)">
                <g id="edit" transform="translate(0.000000, 0.951220)">
                    <path d="M12.1175843,12.9603273 C11.8614833,12.5938688 11.5469084,12.3394292 11.1397827,12.1823932 C11.7427369,11.1834431 11.8692667,9.34692651 11.8553677,6.79500652 C11.8276352,1.8976598 11.1983547,-0.0071842511 9.60827834,3.08336956e-05 C8.02134157,0.00875676958 7.41214099,1.92090841 7.43984084,6.81683678 C7.45373983,9.54614302 7.75758794,11.3317532 8.3760436,12.2638558 C7.89173765,12.4644907 7.49537137,12.7611725 7.24093823,13.1668514 C7.05583648,13.4576748 6.98800945,13.7659501 6.98800945,14.0741637 C6.98800945,14.5917998 7.18233358,15.1065684 7.33803488,15.5253208 L7.39971366,15.6911444 C7.57248619,16.1593541 7.77763517,17.2426651 7.77763517,17.7981342 C7.77763517,17.923134 7.76681032,18.0205993 7.74365625,18.0802316 L7.83005887,17.9798371 C7.66500436,18.1732569 7.61408503,18.4858797 7.76524055,18.6879946 C7.91636337,18.8915587 8.14931032,19.0166202 8.3975952,18.9380867 L8.6197173,18.8668301 C9.34920131,18.6356698 9.40934302,18.6167688 9.88282413,18.3026659 L10.285306,18.0395003 C11.3356112,17.3677266 12.1653641,16.3236668 12.4028895,15.3785524 C12.640415,14.4216903 12.5401134,13.5623244 12.1175843,12.9603273" id="Fill-1" fill="#666666"></path>
                    <path d="M9.61600618,1.11676871 C9.78563917,1.11676871 10.6400832,1.38582354 10.6708899,6.80083717 C10.673964,7.30247057 10.6770382,8.06156532 10.6400832,8.84671455 C10.0247017,8.67515587 9.36765589,8.69257691 8.71067551,8.89182425 C8.66132594,8.31304495 8.62891679,7.63396363 8.62427289,6.81104313 C8.59500327,1.5326536 9.37540661,1.11824873 9.61600618,1.11676871" id="Fill-3" fill="#CCCCCC"></path>
                    <path d="M10.5876595,9.63192853 C10.4996871,10.6047625 10.3239059,11.4902445 9.97378234,11.8174517 C9.89048656,11.8945051 9.80872783,11.9265105 9.6930883,11.9250613 C9.68540298,11.9250613 9.09317551,11.8771149 8.794004,9.66834312 C9.41393132,9.44581634 10.0278085,9.43277369 10.5876595,9.63192853" id="Fill-5" fill="#FFFFFF"></path>
                    <path d="M11.2492184,15.1225526 C11.0826922,15.7885912 10.4133826,16.6086134 9.62058467,17.114656 L9.20112972,17.3895075 C9.09006868,17.4622134 9.01602798,17.5087414 8.94352435,17.5479619 C8.90647129,16.5315599 8.52714353,15.3435993 8.51939281,15.3261783 L8.4546399,15.1516596 C8.33124964,14.823034 8.17551563,14.40718 8.17551563,14.0756561 C8.17551563,13.9462779 8.19866969,13.8313915 8.25724164,13.7383046 C8.56570094,13.2497447 9.20884775,13.1261016 9.6930556,13.1072314 L9.69462536,13.1072314 C10.6925069,13.0694293 10.9346108,13.2962728 11.1273325,13.5740227 C11.2692329,13.7775867 11.3433063,14.0683793 11.3433063,14.4086292 C11.3433717,14.6296451 11.3124669,14.8724913 11.2492184,15.1225526" id="Fill-7" fill="#4A90E2"></path>
                    <path d="M10.1820382,13.6946934 C9.96606432,13.7266372 9.81958539,13.9185461 9.85503597,14.1206918 C9.98768132,14.901586 10.0061588,15.2447033 9.64838263,15.5137273 C9.47878234,15.6416872 9.45098437,15.8757457 9.58673656,16.0357726 C9.72245603,16.1971562 9.97074092,16.2232723 10.1403412,16.0953742 C10.8945164,15.52973 10.7619691,14.7532142 10.6338695,14.0029071 C10.599956,13.8007922 10.3964095,13.6626572 10.1820382,13.6946934 L10.1820382,13.6946934 Z" id="Fill-9" fill="#FFFFFF"></path>
                    <path d="M6.17056286,17.8853627 C6.49756504,17.8853627 6.76279033,18.1354548 6.76279033,18.4437301 C6.76279033,18.7519437 6.49753234,19.0020975 6.17056286,19.0020975 L0.592230741,19.0020975 C0.265228561,19.0020975 3.27034923e-06,18.7519437 3.27034923e-06,18.4437301 C3.27034923e-06,18.135424 0.265261265,17.8853627 0.592230741,17.8853627 L6.17056286,17.8853627 Z" id="Path" fill="#CCCCCC"></path>
                </g>
            </g>
        </g>
    </g>
</svg>