<?xml version="1.0" standalone="no"?><!DOCTYPE svg PUBLIC "-//W3C//DTD SVG 1.1//EN" "http://www.w3.org/Graphics/SVG/1.1/DTD/svg11.dtd"><svg t="1510905300889" class="icon" style="" viewBox="0 0 1024 1024" version="1.1" xmlns="http://www.w3.org/2000/svg" p-id="9139" xmlns:xlink="http://www.w3.org/1999/xlink" width="200" height="200"><defs><style type="text/css"></style></defs><path d="M255.772444 663.286519l17.445926-148.935112 9.671111-9.405629L737.848889 62.65363A135.926519 135.926519 0 0 1 832.587852 24.462222c35.119407 0 69.025185 13.387852 94.814815 38.267259a130.085926 130.085926 0 0 1-0.037926 187.202371L462.923852 701.364148l-13.046519 1.365333-139.794963 14.71526c-31.023407 3.185778-57.874963-22.528-54.309926-54.158222z m173.131852-34.626371l445.553778-433.114074a54.234074 54.234074 0 0 0 0.113778-78.354963 60.150519 60.150519 0 0 0-41.984-16.877037c-15.701333 0-30.72 5.916444-41.908148 16.763259L345.429333 549.963852l-10.391703 88.594963 93.866666-9.860741z" fill="#4A90E2" p-id="9140"></path><path d="M331.169185 502.632296l139.188148 133.385482 52.489482-54.765037-139.188148-133.385482zM660.100741 708.683852h124.283259a37.925926 37.925926 0 0 0 0-75.851852h-124.283259a37.925926 37.925926 0 0 0 0 75.851852zM251.562667 862.056296h534.907259a37.925926 37.925926 0 0 0 0-75.851852H251.562667a37.925926 37.925926 0 0 0 0 75.851852z" fill="#4A90E2" p-id="9141"></path><path d="M514.578963 98.417778h-238.933333C155.192889 98.417778 56.888889 192.549926 56.888889 309.513481v489.889186c0 117.001481 98.304 211.13363 218.756741 211.133629h472.746666c120.414815 0 218.718815-94.132148 218.718815-211.133629V393.291852a37.925926 37.925926 0 0 0-75.851852 0v406.110815c0 74.334815-63.601778 135.281778-142.866963 135.281777H275.64563C196.380444 934.684444 132.740741 873.737481 132.740741 799.402667V309.513481c0-74.334815 63.601778-135.243852 142.904889-135.243851h238.933333a37.925926 37.925926 0 0 0 0-75.851852z" fill="#4A90E2" p-id="9142"></path></svg>