<?xml version="1.0" standalone="no"?><!DOCTYPE svg PUBLIC "-//W3C//DTD SVG 1.1//EN" "http://www.w3.org/Graphics/SVG/1.1/DTD/svg11.dtd"><svg t="1484794375282" class="icon" style="" viewBox="0 0 1024 1024" version="1.1" xmlns="http://www.w3.org/2000/svg" p-id="3696" xmlns:xlink="http://www.w3.org/1999/xlink" width="200" height="200"><defs><style type="text/css"></style></defs><path d="M512 512m-341.333333 0a341.333333 341.333333 0 1 0 682.666666 0 341.333333 341.333333 0 1 0-682.666666 0Z" fill="#FF6868" p-id="3697"></path><path d="M341.333333 682.666667h170.666667V341.333333H341.333333v341.333334z m106.666667-298.666667h42.666667V426.666667h-42.666667v-42.666667z m0 85.333333h42.666667V512h-42.666667v-42.666667z m0 85.333334h42.666667V597.333333h-42.666667v-42.666666z m-85.333333-170.666667h42.666666V426.666667h-42.666666v-42.666667z m0 85.333333h42.666666V512h-42.666666v-42.666667z m0 85.333334h42.666666V597.333333h-42.666666v-42.666666z m170.666666-106.666667H682.666667v21.333333h-149.333334v-21.333333z m0 234.666667h42.666667v-85.333334h64v85.333334H682.666667V490.666667h-149.333334V682.666667z" fill="#FFFFFF" p-id="3698"></path></svg>